<svg width="162" height="289" viewBox="0 0 162 289" fill="none" xmlns="http://www.w3.org/2000/svg">
<path d="M154.571 206C154.571 206 145.522 151.391 148.669 101.305C153.432 25.5224 160 11.5822 160 11.5822C160 11.5822 134.191 0 82.032 0C51.5771 0 2 4.5042 2 4.5042C2 4.5042 2.62948 27.6686 5.14741 61.8053C7.66534 95.9419 8.9243 198.842 8.9243 198.842C8.9243 198.842 28.837 204.15 35.4818 204.072C128.894 202.971 154.571 206 154.571 206Z" fill="#E6ECF6"/>
<path d="M97.9399 97.0171C97.3537 95.5172 96.7451 93.9178 95.849 93.0811C94.4828 91.8049 92.458 92.2618 89.9487 92.6724C90.4097 86.4417 87.5341 84.8549 83.5726 83.6706C83.1818 83.5211 82.791 83.3865 82.4005 83.2628C79.1464 83.1108 72.9075 80.7078 69.9152 81.0357C67.5786 82.2657 68.752 87.0842 67.9782 90.8254C66.1646 90.8254 64.7949 91.2618 63.5945 91.8804C65.3761 99.0447 69.4272 111.858 76.1714 114.984C83.2054 118.243 92.8822 106.023 97.9399 97.0171Z" fill="#ECB989"/>
<path d="M62.9675 91.2508C64.1087 90.0601 65.8987 89.3487 67.5938 89.3887L67.6731 89.3915L68.2489 89.4173L67.8641 91.3036L67.8442 91.393L67.7662 91.7206L67.6617 92.1494L67.6243 92.3071L67.5856 92.482C67.5793 92.5103 67.5733 92.5383 67.567 92.566L67.5503 92.6488L67.3864 93.4502L67.4166 93.5219L67.4081 93.7038C67.383 94.3624 67.5249 94.7242 67.837 94.84L67.8622 94.8488L68.0403 94.9061L68.1853 95.222C68.5201 95.9438 68.8325 96.5744 69.1532 97.1684C70.088 98.9006 71.2041 100.632 72.49 102.372C73.7118 104.026 74.9852 105.604 76.3089 107.103C76.904 107.777 77.5326 108.453 78.2019 109.141L78.7777 109.731L78.9608 109.917L79.0839 110.04L79.238 110.191L79.4592 110.402L79.6197 110.56L79.6719 110.609C79.7371 110.67 79.788 110.711 79.8337 110.741L79.851 110.751L79.9013 110.781L82.5714 113.59L83.5148 114.108L83.9628 114.356L84.0531 114.176L84.0717 114.118L85.0641 111.938L85.6707 110.603C86.9145 107.856 87.8818 105.672 88.7669 103.591L88.877 103.331L89.2033 102.557L89.3761 102.144C90.1677 100.249 90.752 98.7851 91.275 97.3641L91.3492 97.1609L91.4593 96.8572L91.623 96.3994L91.6525 96.3211C91.7951 95.9576 91.4461 94.6358 91.1019 93.9118L91.0821 93.8712L90.9937 93.6922L90.8965 93.5024C90.669 93.0594 90.5044 92.5667 90.3659 91.9707C90.3439 91.8741 90.3222 91.7775 90.3027 91.679L90.2738 91.5315L90.2552 91.4345L90.23 91.2989L90.1938 91.1045L90.9625 90.9761L91.3841 90.9072L91.5685 90.8782C91.8071 90.8414 92.0191 90.8112 92.2186 90.786L92.2929 90.7766L92.4269 90.7609L92.432 90.7873L92.706 90.8144L92.9099 90.8354C93.9133 90.9415 94.6871 91.0585 95.2371 91.1882L95.2912 91.2011L95.3897 91.2259L95.4347 91.2373C95.9349 91.3722 96.3198 91.6633 96.6243 92.0922C96.8339 92.3864 96.9692 92.668 97.1841 93.2019L97.2609 93.3945L97.5167 94.0266C97.5469 94.1037 97.5928 94.2267 97.6554 94.396L97.8723 94.9866L98.4849 95.5911L101.905 96.0948C106.834 96.3985 140.292 109.352 138.946 182.397L139.002 183.183L139.118 184.892L139.186 185.866L139.193 185.997L139.221 186.505L139.228 186.624C139.239 186.776 139.25 186.905 139.265 187.024L139.277 187.112L139.29 187.197C139.328 187.43 139.403 187.638 139.526 187.87L139.559 187.929L139.772 188.31L139.386 188.513C137.373 189.573 120.826 190.04 115.391 190.065L115.226 190.065H114.886C112.245 190.064 109.447 189.962 106.526 189.787L105.866 189.747L105.314 189.712C105.077 189.697 104.846 189.681 104.606 189.665L104.238 189.638L102.703 189.526C95.7955 188.864 88.5517 188.876 80.5699 189.473C60.6991 190.751 45.6529 189.032 34.2462 188.642C31.4279 188.546 19.8195 171.022 19.8896 161.982C20.7304 154.592 22.0179 147.425 23.7693 140.499L23.9458 139.807C25.8394 132.405 27.665 126.698 29.9861 121.421C32.9379 114.709 36.5371 109.185 41.0691 104.769C43.5605 102.34 46.3193 100.291 49.2519 98.7193C50.6001 97.9963 52.0334 97.3547 53.5704 96.7776L53.791 96.6958L54.1462 96.5659L54.4191 96.4652L55.2979 96.1367C55.4829 96.0675 55.6839 95.99 55.9215 95.8963L56.0684 95.8384L57.6423 95.2103L57.9041 95.1078L58.1942 94.9945L58.4082 94.9127C58.7571 94.7793 59.0737 94.6632 59.3669 94.5606L59.5409 94.5011L59.6982 94.4483L60.37 94.2157L60.3571 94.8265C60.3486 95.2327 60.4531 95.5401 60.6853 95.7607L60.6932 95.7673L60.701 95.7739L60.7083 95.7786L60.7489 95.7773L60.9074 95.7767C60.9241 95.7676 60.9395 95.7569 60.9534 95.7446C61.1796 95.553 61.2847 95.2953 61.386 94.7053L61.4131 94.5414L61.4603 94.2337L61.4795 94.1172C61.5471 93.7079 61.606 93.4817 61.7218 93.223C61.8882 92.8492 62.1078 92.4848 62.3665 92.1504L62.4272 92.0736L62.6689 91.7832L62.7057 91.7372C62.7906 91.6284 62.834 91.5519 62.852 91.4814L62.8564 91.4625L62.8803 91.3401L62.9675 91.2508Z" fill="#55AF8A"/>
<path d="M113.731 48.4911C114.061 45.1498 115.97 44.9497 115.582 41.5848C114.415 35.2314 107.055 33.5194 101.819 31.6519C95.9093 29.8229 89.655 28.9938 83.5083 29.917C82.0408 30.1375 80.5953 30.4726 79.1781 30.9128C77.9522 31.2939 77.759 32.5912 78.236 33.4546C71.6586 38.9411 71.9509 48.7504 66.2406 54.8514C65.1972 55.9357 63.9625 56.8281 62.9969 57.9885C61.5294 59.7527 60.6971 62.6214 62.4437 64.5222C64.9811 66.911 67.4813 64.1972 67.711 69.1639C70.7093 87.0719 85.0948 91.8899 101.209 87.2897C102.59 86.9423 104.019 86.5131 105.207 85.7041C107.889 83.9339 108.521 80.6034 109.344 77.7152C109.825 76.023 110.284 74.3242 110.723 72.62C112.503 65.7179 112.785 55.5569 113.731 48.4911Z" fill="#ECB989"/>
<path d="M89.2863 21.4271C98.6915 19.8623 108.587 20.9642 117.478 24.3627C121.866 26.0392 126.052 28.2352 129.854 30.999L130.188 31.2426C131.126 31.9269 132.147 32.6296 132.722 33.6641C133.391 34.8667 133.264 36.3805 132.287 37.3827C131.527 38.1617 130.427 38.5711 129.347 38.6579C129.618 39.0362 129.862 39.4421 130.076 39.88C130.437 40.6138 130.25 41.4725 129.533 41.9092C128.149 42.7497 126.529 43.1921 124.915 43.1795C124.864 44.0454 124.529 44.9292 123.947 45.6495C122.274 47.7177 119.26 47.2105 117.036 46.465L116.969 46.4424L116.456 47.8511C116.184 48.6018 115.564 49.0744 114.754 48.9841C114.726 48.9807 114.697 48.976 114.669 48.9712C114.705 53.7706 114.215 58.5775 113.676 63.3416C113.394 65.828 113.074 68.3109 112.739 70.7913L112.627 71.6182C112.263 74.2911 111.973 77.0119 111.418 79.6544C110.912 82.0517 109.857 84.1872 107.893 85.7048C106.131 87.0653 104.009 87.8699 101.842 88.3079C96.9452 89.2997 91.9687 89.6813 86.9909 89.143L86.659 89.1068C84.739 88.895 82.7743 88.6238 81.0868 87.6232C79.6039 86.7437 78.2336 85.1346 79.0945 83.3698C79.3846 82.7732 80.2694 82.9812 80.4396 83.5478L80.4796 83.6781C80.686 84.3483 80.9386 84.9867 81.4887 85.4518C82.1321 85.9961 82.9606 86.3227 83.7632 86.548C86.0045 87.1767 88.4965 87.2431 90.8127 87.2591C95.1379 87.2912 99.75 86.6887 103.758 84.9773C105.464 84.2505 106.966 83.1728 107.842 81.5029C108.922 79.4448 109.109 76.9285 109.475 74.6668C110.231 70.0006 110.897 65.3192 111.531 60.6347L111.658 59.6977C112.184 55.7803 112.687 51.855 113.463 47.9817C113.399 47.8162 113.373 47.6399 113.392 47.46L113.42 47.202C113.445 46.9811 113.491 46.7847 113.562 46.6117C113.748 45.9238 113.95 45.2458 114.174 44.5686C114.214 44.4475 114.253 44.3254 114.289 44.2046C113.534 44.1709 112.781 44.1061 112.03 44.0205C106.75 43.4265 101.546 42.2377 96.5324 40.4864C94.0312 39.6123 91.5864 38.6057 89.1711 37.5202C87.9421 36.967 86.7229 36.3937 85.5152 35.7946C84.6427 35.3623 83.8054 34.8699 82.9612 34.3907C81.6589 35.5058 80.7027 37.0513 80.3587 38.7281C79.9648 40.6415 80.7593 42.6855 79.8924 44.5164C79.08 46.2291 77.3906 46.3754 75.751 46.4141L75.0541 46.4279C74.5176 46.4399 74.1186 46.4839 73.8678 47.0588C73.4377 48.0462 73.3172 49.2547 73.0799 50.3C72.7996 51.5363 72.535 52.776 72.236 54.0075C72.0819 54.6441 71.9355 55.286 71.7647 55.9187C71.6429 56.3683 71.4938 56.6569 71.2424 56.9004C71.3308 57.1046 71.4029 57.3195 71.4576 57.5411C71.4749 57.6131 71.3723 57.6575 71.3358 57.5923C71.2373 57.4152 71.1288 57.2491 71.007 57.0949C70.9057 57.1682 70.7905 57.2409 70.6593 57.3158L70.6543 57.3025C70.2412 57.5401 69.7166 57.4328 69.4061 56.9797L69.3243 56.8598C69.0987 56.5206 68.9536 56.2504 68.987 55.7998C68.9882 55.7771 68.9901 55.7538 68.9933 55.7312C68.2497 55.504 67.4392 55.4779 66.6636 55.6714C65.4346 55.9772 64.4554 56.621 63.7304 57.5455C63.8522 57.8013 64.0101 58.0432 64.2096 58.2641C64.2373 58.2968 64.1936 58.3396 64.1624 58.3113C63.9456 58.1285 63.7628 57.9259 63.6099 57.7037C63.3396 58.0716 63.109 58.4831 62.9161 58.9318C62.2333 60.5164 62.1222 62.6466 63.3579 63.9851C63.8925 64.5647 64.5686 64.9825 65.331 65.1893C65.7023 65.2899 66.0409 65.3135 66.4251 65.3208C66.6856 65.3268 66.9531 65.3038 67.2086 65.3724C67.4272 65.4312 67.6148 65.5404 67.7727 65.6999L67.7199 65.6905C67.5902 65.6685 67.6129 65.6804 67.7888 65.7273C68.329 65.8975 68.493 66.5372 68.1119 66.9535L68.0591 67.0196C68.048 67.0325 68.0389 67.0438 68.0314 67.052L67.9772 67.1753C67.9722 67.187 67.9662 67.1989 67.9612 67.2112L67.9464 67.2351C67.9439 67.2389 67.9407 67.2423 67.9379 67.2461L68.4222 68.719C69.0172 70.5216 69.6358 72.3249 70.4299 74.0385C70.9872 75.2404 71.5983 76.4361 72.2779 77.5739C72.8893 78.5965 73.775 79.2481 74.5412 80.1289C74.9505 80.5971 74.9093 81.3365 74.3348 81.6653C72.6485 82.6335 71.0451 81.0763 70.2412 79.7066C69.4816 78.4093 68.9174 76.9424 68.4775 75.5076C67.6972 72.9567 67.2331 70.342 67.4335 67.6923C67.1865 67.821 66.903 67.8669 66.6243 67.8874C66.0639 67.9286 65.4792 67.8509 64.9324 67.7253C63.8858 67.4815 62.9148 66.9513 62.1012 66.254C58.7888 63.4212 59.6872 57.8356 62.8686 55.2526C62.7991 54.258 62.8887 53.2237 62.9246 52.3304L62.9387 51.9308C63.1052 47.4688 63.6473 42.8692 66.454 39.2054C66.8146 38.7322 67.1994 38.2807 67.6236 37.8625C67.964 37.5261 68.4797 37.2096 68.712 36.7855C69.2252 35.8554 67.9867 34.4017 67.7557 33.4923C67.4829 32.426 67.7035 31.3109 68.6402 30.6532C68.7588 30.5711 68.8828 30.4984 69.0134 30.4405C68.6679 29.0385 69.0483 27.4932 70.2572 26.5247C71.0523 25.8866 72.0897 25.5682 73.1057 25.6597C73.7272 25.7157 74.4301 25.9454 75.033 26.3041C79.4935 23.9389 84.3101 22.2549 89.2863 21.4271ZM64.4381 59.322C65.6161 58.7345 66.7869 58.5753 68.0559 59.0344C69.3312 59.4966 70.7588 60.4588 71.2244 61.786C71.5926 62.8347 70.0096 63.8042 69.2997 62.9002C68.6531 62.0767 68.2963 61.247 67.3791 60.6517C66.555 60.1184 65.4881 59.6313 64.4994 59.5454C64.3909 59.5353 64.3213 59.3786 64.4381 59.322Z" fill="#010101"/>
<path d="M93.5941 80.3476C92.7738 79.7249 92.1202 78.8785 91.7345 77.9172C91.5998 77.5825 91.6244 77.2741 91.7408 77.017C91.871 76.7282 92.1231 76.5019 92.416 76.3836C92.7099 76.265 93.0403 76.2556 93.3238 76.3814C93.5695 76.4903 93.7885 76.6999 93.9119 77.0457L93.9389 77.1155C94.1671 77.6951 94.5257 78.2158 94.9873 78.6136C95.4322 78.9971 95.9732 79.2643 96.5826 79.3561C97.7434 79.5311 98.6832 79.1296 99.7297 78.5233C99.86 78.4465 99.9909 78.3662 100.124 78.2841C100.215 78.2023 100.322 78.163 100.432 78.1564C100.552 78.1491 100.677 78.1847 100.782 78.2555C100.883 78.3241 100.963 78.4241 101.003 78.5396C101.041 78.6494 101.046 78.774 100.999 78.9027C100.694 79.7397 100.041 80.385 99.243 80.8152C98.3569 81.2931 97.2956 81.5036 96.3699 81.4291C95.3498 81.3469 94.3936 80.9536 93.5941 80.3476ZM101.885 69.4771C101.828 70.7287 101.28 72.8888 99.3106 72.6531C97.4111 72.1472 97.9051 69.6507 98.0914 68.4526C98.1644 67.3953 96.3929 67.222 96.2041 68.2691C95.0261 76.8386 104.609 74.8107 102.817 69.5847C102.619 69.0092 101.927 69.1341 101.885 69.4771ZM88.9206 58.901C89.6635 57.8514 91.7461 58.7179 91.3056 59.9265C90.9098 61.0082 90.1858 61.7949 89.1669 62.3861C88.1934 62.9512 87.2016 61.8531 87.5537 61.0296C88.0263 59.9265 88.4584 59.5543 88.9206 58.901ZM105.531 62.9374C106.005 62.7395 106.535 62.7234 106.923 63.1293C108.136 64.3983 106.51 66.2226 105.414 66.9356C104.82 67.3227 103.839 66.9416 103.71 66.2242C103.502 65.0547 104.091 63.3008 105.382 63.0129C105.428 62.9858 105.476 62.96 105.531 62.9374ZM93.1155 52.7046L93.3852 52.7289C94.2168 52.8041 95.2416 52.9375 95.6333 53.7276C95.841 54.147 95.7746 54.8049 95.2859 55.0217C94.4272 55.4037 93.7064 54.9736 92.8487 54.7955C92.1401 54.6482 91.4393 54.5843 90.7169 54.5963C89.1314 54.6224 87.7252 55.0695 86.241 55.5764C86.0462 55.6425 85.9342 55.3864 86.0541 55.2533C87.1617 54.0255 88.8815 53.2342 90.4825 52.8997C91.3368 52.7213 92.2439 52.6266 93.1155 52.7046ZM107.157 56.7507L107.344 56.8442C109.366 57.8658 111.909 59.5055 112.36 61.8817C112.319 62.1898 112.261 62.2423 112.216 62.2753L112.202 62.2864C112.165 62.3144 112.129 62.3575 111.99 62.3634C111.956 62.3458 111.922 62.3269 111.889 62.3071C111.456 62.0608 111.134 61.7946 110.824 61.5246L110.489 61.2307C110.1 60.8915 109.705 60.5583 109.268 60.2735C108.335 59.6666 107.347 59.1499 106.312 58.7387C106.088 58.6493 105.886 58.5112 105.746 58.3303C105.613 58.1588 105.533 57.9483 105.537 57.6991C105.543 57.3762 105.626 57.1528 105.862 56.9235C106.039 56.7507 106.251 56.6557 106.474 56.6283C106.701 56.5997 106.939 56.6425 107.157 56.7507Z" fill="#010101"/>
<path d="M84.479 78.8256C86.2845 76.5242 89.2167 75.2631 92.1905 75.3113C94.3745 75.3484 96.5181 75.9402 98.5498 76.7023C99.6143 77.1007 100.763 77.5012 101.685 78.1834C102.472 78.7658 103.013 79.6135 103.346 80.5272C103.743 81.6109 103.9 82.7716 103.919 83.9239C103.922 84.0875 103.922 84.2517 103.918 84.4157C103.569 85.1869 103.102 85.7986 102.219 86.1056C101.357 86.4058 100.431 86.3747 99.5454 86.2145C99.4718 86.1506 99.4003 86.0868 99.3365 86.0235C98.1915 84.8873 97.7302 82.8034 95.9577 82.5938C94.376 82.4066 92.8591 84.0548 91.6527 84.9358C88.655 84.4953 85.984 82.8434 84.0643 80.5474C84.097 79.9451 84.2436 79.3699 84.479 78.8256ZM106.518 82.6178C106.46 81.9032 106.337 81.1927 106.149 80.5036C105.529 78.2271 104.188 76.1854 102.336 74.7285C97.9567 71.2837 91.1537 71.0622 86.2262 73.4661C84.5435 74.288 82.6956 75.664 81.7752 77.4304C81.6443 77.4213 81.5084 77.455 81.3876 77.5207C78.9871 74.9286 76.4834 72.3831 74.8315 69.2404C73.633 66.9563 73.0389 64.475 72.9565 61.9012C72.9502 61.6897 72.6271 61.6334 72.578 61.853C72.5676 61.9043 72.5566 61.9559 72.5453 62.0072C72.5402 61.9059 72.3854 61.916 72.3505 62.0034C71.1885 64.7916 69.8817 67.7285 69.5488 70.7554C69.3516 72.5615 69.7984 74.0429 70.4849 75.6967C71.2193 77.4688 72.1306 79.1786 73.0865 80.8397C73.6919 81.8947 74.3001 83.0866 75.1525 83.9685C76.1423 84.9943 77.3377 85.892 78.4506 86.7768C79.5834 87.678 80.746 88.5429 81.9517 89.3453C84.3613 90.9516 86.9339 92.3055 89.6471 93.3237C91.8207 94.1384 94.3074 95.0578 96.6707 94.7916C98.4819 94.587 100.116 93.7787 101.541 92.6611C103.091 91.4437 104.458 89.9497 105.449 88.2535C106.477 86.4911 106.546 82.9538 106.518 82.6178Z" fill="#010101"/>
<path d="M69.1732 80.6185C69.1946 80.6018 69.2286 80.5949 69.2487 80.6185C69.5842 81.0099 69.5162 81.6087 69.5272 82.1052L69.5285 82.1511C69.5524 82.8767 68.6135 88.9488 68.611 89.6747L68.6037 91.9855C68.6025 92.3033 68.5766 92.634 68.5933 92.9531L68.6012 93.077C68.7783 93.258 68.8598 93.5188 68.8004 93.7812C68.7894 94.1173 68.6135 94.3983 68.3573 94.5745L68.9067 95.3545L69.4574 96.1342C70.5914 97.7433 71.7386 99.3379 72.9339 100.903C74.1526 102.498 75.4524 104.033 76.8129 105.51C77.4778 106.231 78.154 106.942 78.8459 107.638C79.1269 107.92 79.4151 108.196 79.6995 108.475L79.9833 108.755C80.1504 108.923 80.3613 109.088 80.4726 109.3C80.5378 109.425 80.5532 109.734 80.5765 109.785C80.786 110.247 80.4283 110.983 79.833 110.752L79.86 110.734C79.9682 110.659 79.8987 110.657 79.6517 110.73C79.4956 110.73 79.3493 110.694 79.2128 110.623L79.1722 110.601C78.9799 110.503 78.8078 110.314 78.6517 110.162L78.613 110.125C78.2553 109.791 77.9142 109.435 77.5719 109.085C76.8567 108.354 76.1578 107.608 75.4807 106.842C74.1312 105.313 72.8512 103.723 71.6391 102.083C70.4045 100.412 69.2566 98.6558 68.2696 96.828C67.8954 96.1342 67.5518 95.4272 67.223 94.7116C66.5821 94.5062 66.4333 93.8246 66.4783 93.0566C66.2416 92.5059 66.0283 91.9443 65.9031 91.3701C65.8858 91.2914 65.9868 91.2175 66.0475 91.2857C66.252 91.5186 66.4421 91.7665 66.6246 92.0208C66.7347 91.4827 66.8741 90.9871 66.9392 90.6712L67.223 89.2776C65.6227 89.1939 63.8682 89.8519 62.7651 91.0032C62.7059 91.303 62.475 91.5176 62.25 91.7974C61.9932 92.1183 61.7689 92.4773 61.6015 92.8533C61.2308 93.6865 61.4398 94.9149 60.7202 95.5263C60.6453 95.5898 60.5616 95.6342 60.475 95.6616C60.8167 97.3361 60.6619 99.1819 60.6538 100.881V101.03C60.6557 102.932 60.5924 104.835 60.5184 106.735L60.4436 108.615C60.347 111.123 60.2837 113.632 60.5279 116.126C61.6402 115.141 62.7906 114.2 63.9806 113.304C64.7634 112.715 65.5617 112.147 66.3741 111.6L67.0342 111.158C67.8253 110.628 68.6358 110.082 69.5023 109.702C70.6357 109.205 71.7128 109.376 72.8068 109.885C73.8964 110.393 74.9534 110.983 76.0216 111.533C77.1087 112.092 78.1977 112.647 79.2861 113.203C80.007 113.571 81.0639 113.904 81.5925 114.582C81.6261 114.432 81.6655 114.283 81.7111 114.133C81.6589 113.906 81.679 113.661 81.8071 113.426C83.5836 110.161 85.2283 106.818 86.8607 103.478C87.6866 101.789 88.4726 100.079 89.3005 98.3899L90.1057 96.7449C90.2403 96.4709 90.3747 96.1971 90.5106 95.9237C90.7135 95.5143 90.9247 95.109 91.1308 94.7006C91.2167 94.5282 91.3262 94.3567 91.4105 94.1827L91.4505 94.0956C91.4524 94.0908 91.6477 93.4776 91.497 93.5364L91.4842 93.5427C91.4067 93.5865 91.3454 93.4895 91.3951 93.4279C91.6084 93.1645 91.9051 93.3977 92.0263 93.6418C92.3611 94.3127 91.7478 95.3658 91.5118 96.0083L91.4989 96.0442C90.7664 98.1177 89.9367 100.153 89.0874 102.18C87.4582 106.067 85.7075 109.894 83.9615 113.728L83.9407 113.794C84.3133 113.509 84.7107 113.25 85.0511 112.998C85.9101 112.361 86.794 111.756 87.6765 111.153C89.2954 110.047 90.9584 109.014 92.6483 108.022L92.9863 107.824C93.8308 107.332 94.6671 106.933 95.6687 107.081C96.5997 107.218 97.4656 107.718 98.3064 108.125L98.3936 108.166L100.992 109.402C100.714 108.294 100.414 107.191 100.1 106.093C99.4876 103.95 98.8139 101.825 98.0839 99.7199C97.4018 97.7527 96.6642 95.8066 95.8845 93.8766L95.6498 93.2973C95.3313 92.5025 95.0155 91.6356 94.1068 91.3905C93.1984 91.146 92.1562 91.5088 91.3265 90.9909C91.251 90.944 91.2601 90.8191 91.3517 90.7964L91.8636 90.6674C92.8255 90.428 93.9532 90.1873 94.8625 90.4201C95.8524 90.6737 96.6711 91.5044 97.151 92.3681C97.6849 93.3288 98.0613 94.4039 98.4668 95.4281L98.5307 95.5898C98.9961 96.749 99.4432 97.9154 99.8718 99.0887C100.727 101.434 101.506 103.808 102.211 106.204C102.551 107.359 102.874 108.518 103.183 109.681C103.272 110.016 103.419 110.422 103.54 110.844C103.678 110.979 103.809 111.129 103.931 111.301C104.135 111.585 103.989 111.919 103.736 112.089C103.727 112.38 103.661 112.654 103.507 112.889C102.903 113.805 101.308 113.569 101.373 112.337C101.382 112.149 101.456 111.969 101.567 111.817L101.564 111.792L101.551 111.747C101.275 111.614 100.996 111.466 100.703 111.321L97.976 109.974C97.1862 109.583 96.3106 108.98 95.4324 108.831C94.613 108.692 93.749 109.303 93.0454 109.671L92.9998 109.694C91.2988 110.566 89.6107 111.467 87.9286 112.375C87.1077 112.819 86.2968 113.281 85.4797 113.729C84.7956 114.105 84.0574 114.643 83.2887 114.855C82.9606 115.111 82.571 115.076 82.2576 114.883C82.4008 115.77 82.3917 116.681 82.4357 117.588C82.4949 118.8 82.504 120.016 82.5229 121.23L82.5308 121.686C82.5824 124.37 82.6101 127.055 82.6204 129.74C82.6566 139.3 82.5509 148.863 82.5264 158.424C82.5141 163.227 82.4188 168.035 82.2942 172.836C82.2413 174.871 82.1305 176.903 82.011 178.935L81.9452 180.043C81.8064 182.381 81.724 184.745 81.2914 187.051C81.2347 187.352 80.7259 187.36 80.6756 187.051C80.2772 184.58 80.2552 182.054 80.1784 179.554L80.1624 179.054C80.0708 176.369 80.0271 173.686 80.0365 171C80.0702 161.435 80.3191 151.877 80.5227 142.316C80.6246 137.511 80.6935 132.706 80.8521 127.903C80.932 125.5 81.0217 123.098 81.128 120.697C81.1759 119.624 81.2215 118.553 81.2926 117.482L81.3253 117.023C81.3474 116.724 81.3653 116.428 81.3867 116.135C80.4195 116.488 79.5343 115.834 78.6637 115.386C77.6606 114.87 76.6578 114.353 75.6544 113.838L74.6503 113.324L72.6401 112.298C71.7348 111.836 71.0372 111.376 70.0725 111.918C66.5947 113.869 63.3991 116.466 60.5027 119.19C59.947 119.712 58.774 119.572 58.6334 118.696C58.0324 114.956 58.398 111.161 58.7048 107.408L58.8178 106.015C58.955 104.352 59.1041 102.688 59.3027 101.031C59.3917 100.289 59.4807 99.5488 59.5786 98.8084L59.6541 98.2537C59.7765 97.3767 59.8564 96.5048 60.1176 95.6641C60.0351 95.6373 59.9559 95.5939 59.8854 95.5266C59.1 94.7815 59.4785 93.488 59.8369 92.6019C60.1909 91.7269 60.7305 90.9635 61.4064 90.3059C61.5533 90.1624 61.761 90.0699 61.9699 90.0652C63.6083 88.9797 65.4059 88.4378 67.2759 89.0303C67.3287 88.7792 67.3822 88.5281 67.4389 88.278L68.4401 82.6791C68.5839 82.0592 68.638 81.0338 69.1732 80.6185Z" fill="#010101"/>
<path d="M85.0213 184.002C85.5294 183.863 86.0863 184.01 86.4586 184.382C86.8311 184.755 86.9784 185.311 86.8384 185.82C86.7682 186.07 86.6417 186.287 86.4586 186.472C86.2877 186.642 86.0873 186.763 85.8601 186.836L85.8066 186.852L85.7236 186.886C85.4684 186.955 85.2135 186.955 84.959 186.886C84.7157 186.818 84.5037 186.695 84.324 186.517C84.1459 186.337 84.0229 186.125 83.9546 185.882C83.8857 185.626 83.8857 185.372 83.9546 185.117L83.9889 185.034C84.0591 184.783 84.1855 184.566 84.3687 184.382C84.5537 184.199 84.7711 184.073 85.0213 184.002Z" fill="#010101"/>
<path d="M115.209 133.336C115.293 133.24 115.428 133.363 115.376 133.464C114.584 135.017 113.702 136.559 112.834 138.072C112.904 138.491 112.972 138.907 113.052 139.313C113.389 141.041 113.804 142.738 114.074 144.483C115.043 150.755 115.547 157.094 115.979 163.422C116.413 169.772 116.469 176.125 116.533 182.489C116.539 183.04 116.115 183.681 115.546 183.785C115.286 183.833 115.091 183.823 114.832 183.785C114.24 183.698 113.87 183.02 113.844 182.489C113.675 178.933 113.446 175.381 113.182 171.83C112.714 165.535 112.428 159.224 112.049 152.923L111.915 150.72C111.772 148.334 111.641 145.946 111.599 143.555C111.571 141.972 111.655 140.389 111.603 138.808C111.555 137.347 111.407 135.76 111.729 134.325C111.741 134.272 111.826 134.258 111.85 134.309C112.185 135.014 112.397 135.78 112.561 136.562C113.423 135.471 114.302 134.377 115.209 133.336Z" fill="#010101"/>
<path d="M102.545 95.1216C104.065 95.4004 105.56 95.8887 106.983 96.4878C109.805 97.6753 112.422 99.2517 114.826 101.143C119.996 105.211 123.914 110.626 126.9 116.447C130.117 122.716 132.375 129.464 134.281 136.232C136.302 143.407 137.843 150.718 138.873 158.1C139.452 162.253 139.856 166.431 140.101 170.617C140.223 172.68 140.304 174.744 140.345 176.811C140.367 177.888 140.38 178.967 140.376 180.044C140.374 180.58 140.405 181.129 140.361 181.662C140.32 182.159 140.039 182.522 139.753 182.902L139.654 183.035C139.385 183.399 138.909 183.419 138.644 183.035C138.42 182.711 138.118 182.369 138.011 181.98C137.895 181.56 137.972 181.016 137.972 180.583C137.974 179.64 137.97 178.697 137.959 177.754C137.936 175.912 137.882 174.071 137.797 172.231C137.629 168.642 137.342 165.058 136.936 161.488C136.115 154.269 134.848 147.106 133.066 140.061C129.86 127.38 125.485 113.888 115.883 104.532C113.478 102.188 110.758 100.14 107.796 98.5522C106.282 97.7401 104.707 97.0589 103.093 96.473L102.955 96.423C101.357 95.8374 99.7217 95.1487 98.0292 94.9523C97.9131 94.9388 97.908 94.7569 98.0292 94.7657C99.5461 94.8843 101.042 94.846 102.545 95.1216Z" fill="#010101"/>
<path d="M85.3126 172.04C85.5813 172.038 85.8806 172.097 86.1109 172.245L86.4183 172.483C86.502 172.59 86.5848 172.698 86.6672 172.805C86.8601 173.056 86.8853 173.462 86.8453 173.761C86.8362 173.96 86.777 174.146 86.6672 174.318L86.4337 174.621C86.2081 174.805 86.0203 174.936 85.7472 175.024C85.6046 175.07 85.4674 175.08 85.3312 175.073L85.2853 175.07L85.313 175.074L85.2651 175.068C85.2201 175.064 85.1761 175.059 85.1311 175.053C85.1003 175.049 85.0704 175.047 85.0395 175.043C85.0099 175.041 84.9816 175.04 84.9524 175.042C84.605 175.075 84.2573 174.878 84.0109 174.653C83.7897 174.449 83.5905 174.017 83.6214 173.711L83.6343 173.584C83.6582 173.368 83.6774 173.283 83.7683 173.066C83.8574 172.856 83.9817 172.67 84.15 172.513C84.4731 172.212 84.869 172.043 85.3126 172.04Z" fill="#010101"/>
<path d="M84.2397 156.257C84.6994 155.755 85.4898 155.718 86.0606 156.022C86.1993 156.096 86.3274 156.214 86.4495 156.313C86.7579 156.563 86.8796 157.014 86.8963 157.393C86.913 157.768 86.7157 158.213 86.4495 158.473L86.385 158.535C86.2258 158.69 85.998 158.824 85.7752 158.865C85.4168 158.931 85.1157 158.929 84.7822 158.788C84.4952 158.667 84.2476 158.472 84.0792 158.208L84.0522 158.163C84.0405 158.145 84.0295 158.126 84.0194 158.106L84.0047 158.078C83.6853 157.463 83.7712 156.767 84.2397 156.257Z" fill="#010101"/>
<path d="M84.4782 140.39C84.6852 140.325 84.8929 140.316 85.1002 140.362C85.2415 140.363 85.3724 140.398 85.4942 140.469C85.6263 140.506 85.7412 140.573 85.8384 140.67C85.9558 140.739 86.0492 140.832 86.1187 140.95C86.2566 141.1 86.3497 141.277 86.3985 141.481L86.4538 141.895L86.3985 142.31L86.2411 142.683C86.1974 142.74 86.154 142.796 86.1102 142.852C86.0407 142.97 85.9466 143.064 85.8293 143.133C85.7531 143.209 85.6653 143.266 85.5675 143.306C85.2198 143.555 84.7569 143.636 84.345 143.522C84.1006 143.454 83.8885 143.33 83.7085 143.151C83.5298 142.971 83.4061 142.758 83.3372 142.515L83.3089 142.319C83.2734 142.057 83.2671 141.913 83.3416 141.579C83.3737 141.433 83.4681 141.227 83.5175 141.14C83.7277 140.769 84.0729 140.514 84.4782 140.39Z" fill="#010101"/>
<path d="M102.493 128.976C103.088 128.971 103.684 128.973 104.28 128.979L104.727 128.986C105.475 128.997 106.116 128.92 106.704 129.439C107.13 129.816 106.942 130.447 106.537 130.731C105.923 131.161 105.153 130.945 104.448 130.898C103.704 130.848 102.959 130.806 102.213 130.773C100.771 130.708 99.3271 130.667 97.8835 130.661C96.4424 130.654 94.9994 130.668 93.5583 130.692C92.092 130.715 90.566 130.852 89.1076 130.7C88.9072 130.68 88.8625 130.416 89.0604 130.348C90.4338 129.872 91.9794 129.718 93.4189 129.537C94.9044 129.349 96.3889 129.216 97.8835 129.13C99.4183 129.042 100.955 128.986 102.493 128.976Z" fill="#010101"/>
<path d="M84.4751 124.308L84.5241 124.309C84.7866 124.309 85.0323 124.371 85.2611 124.494L85.3095 124.521L85.6242 124.764C85.817 124.958 85.9505 125.187 86.0241 125.45L86.0801 125.864C86.088 126.078 86.0433 126.278 85.946 126.463C85.8834 126.656 85.7758 126.823 85.6242 126.964C85.4835 127.115 85.3161 127.223 85.1239 127.286C84.9524 127.375 84.7693 127.42 84.5739 127.421L84.5241 127.42C84.2438 127.419 83.982 127.348 83.7394 127.207L83.4248 126.964C83.2319 126.77 83.0985 126.541 83.0248 126.277L82.9688 125.864C82.961 125.65 83.0056 125.45 83.1035 125.265C83.1655 125.072 83.2731 124.905 83.4248 124.764C83.5654 124.612 83.7328 124.505 83.9251 124.442C84.0965 124.352 84.2797 124.307 84.4751 124.308Z" fill="#010101"/>
<path d="M89.0865 87.7623C89.4219 87.2768 90.0292 87.7085 89.942 88.0986C89.9653 89.1949 90.0213 90.2587 90.2708 91.3326C90.385 91.8241 90.5345 92.3162 90.7655 92.7665L90.8621 92.9565C91.1607 93.5465 91.3932 94.1031 90.9904 94.7503C90.801 95.0555 90.4584 95.2846 90.0871 95.2686C88.4402 95.1974 88.2133 92.9046 88.1133 91.6246C88.0098 90.3062 88.3313 88.8579 89.0865 87.7623Z" fill="#010101"/>
<path d="M91.3419 133.743C91.3182 133.749 91.3051 133.753 91.3051 133.753C91.3051 133.753 91.3182 133.749 91.3419 133.743Z" fill="#010101"/>
<path d="M80.9295 117.964C79.2055 118.123 75.8086 118.347 74.2929 119.272C74.2929 119.272 74.2813 121.522 74.2979 122.918C74.3244 125.149 74.3281 127.378 74.4361 129.608C74.6812 134.656 75.155 145.141 74.9486 145.23C76.7 146.341 80.5041 146.204 82.4301 146.255C84.7821 146.318 88.4909 146.548 90.6554 145.466C90.97 145.309 92.1468 133.948 92.2207 131.624C92.2859 129.564 92.2292 127.504 92.3381 125.445C92.4205 123.894 92.4058 120.712 92.458 119.165C92.458 119.165 90.3668 118.406 87.4796 118.169C85.3041 117.989 83.1056 117.763 80.9295 117.964Z" fill="white"/>
<path d="M89.0085 117.24C85.3236 116.938 81.5258 116.699 77.8592 116.965C75.3574 117.146 72.8647 116.578 72.674 119.43C72.4393 122.937 72.8012 128.559 73.0217 132.06C73.2879 136.289 73.7892 140.501 74.4351 144.689C74.4553 144.818 74.5195 144.925 74.6072 145.013C74.2202 145.184 74.0154 145.591 74.5094 145.952C76.1258 147.13 78.603 147.202 80.511 147.363C83.2538 147.594 86.0561 147.572 88.7848 147.188C89.6346 147.069 89.9021 147.151 90.672 146.757C91.5251 146.321 92.8044 140.327 93.5124 133.457C93.7367 131.282 93.8154 129.864 93.816 127.68C93.816 125.962 93.9671 120.862 93.9671 119.141C93.968 117.725 92.0449 117.489 89.0085 117.24ZM92.3381 125.445C92.2293 127.504 92.2859 129.565 92.2208 131.625C92.1471 133.948 90.97 145.309 90.6554 145.467C88.4909 146.548 84.7821 146.318 82.4301 146.256C80.5041 146.205 76.7 146.342 74.9487 145.231C75.1551 145.141 74.6812 134.656 74.4361 129.608C74.3279 127.379 74.3244 125.15 74.298 122.919C74.2813 121.522 74.2929 119.272 74.2929 119.272C75.8083 118.348 79.2056 118.124 80.9295 117.964C83.1056 117.763 85.3038 117.99 87.4793 118.169C90.3665 118.407 92.4577 119.166 92.4577 119.166C92.4058 120.713 92.4206 123.895 92.3381 125.445Z" fill="#010101"/>
<path d="M73.5299 136.393C74.8344 135.15 76.5527 134.247 78.1225 133.367L78.2502 133.295C79.1007 132.816 79.9223 132.302 80.8313 131.937C81.7139 131.583 82.6078 131.257 83.5115 130.96L83.5993 130.933C84.598 130.625 87.1992 130.088 86.7612 128.606C86.4711 127.625 84.8139 127.806 84.0713 127.956C80.668 128.641 77.4488 130.286 74.4364 131.953L73.764 132.326C72.5312 133.011 71.299 133.708 70.1055 134.456C68.7529 135.303 67.7765 136.377 66.9534 137.736C66.0409 139.243 65.1712 140.769 64.2052 142.243C63.5961 143.173 62.9737 144.091 62.3444 145.004C62.216 145.274 62.1279 145.558 62.0999 145.906C62.0533 146.493 62.2037 146.998 62.39 147.551C62.8613 148.948 63.2122 150.386 63.7228 151.769C64.1961 153.051 64.754 154.365 65.5702 155.471C65.8933 155.91 66.2806 156.325 66.6954 156.681L67.0292 156.962C67.1749 157.085 67.3366 157.218 67.5024 157.34C67.6456 157.059 67.8945 156.842 68.2318 156.809C68.9476 156.739 69.4923 156.6 70.1423 156.29C70.6451 156.05 71.1398 155.79 71.6382 155.54C72.6164 155.05 73.6104 154.581 74.5695 154.054L74.734 153.962C75.447 153.561 76.1481 153.101 76.6767 152.468C77.2906 151.733 77.3375 150.857 77.7289 150.022C78.5652 148.239 81.0985 147.72 82.7177 146.928C84.0936 146.256 85.3708 145.389 86.1467 144.116C86.1467 144.116 87.0299 142.887 87.0281 142.962C87.1737 142.721 86.9101 142.742 86.035 143.044C83.7371 143.837 81.4056 144.595 79.0303 145.115C78.3752 145.259 78.165 144.269 78.8091 144.102C81.3042 143.458 83.7784 142.778 86.2084 141.91C87.4645 141.461 88.7061 140.972 89.9326 140.448C90.4065 140.245 90.8772 140.038 91.3454 139.824L91.6968 139.663C91.9168 139.562 92.5542 139.346 92.8258 139.063C92.8651 138.941 92.9045 138.82 92.9432 138.699C92.8308 138.328 91.8812 138.588 91.6563 138.637C91.0185 138.775 90.381 138.919 89.7432 139.06C88.4673 139.342 87.1891 139.609 85.9101 139.878C83.3561 140.413 80.7769 140.882 78.2528 141.547C77.6395 141.708 77.0986 140.787 77.6531 140.393C80.1001 138.652 83.0414 137.748 85.8462 136.765C87.3213 136.248 88.7904 135.703 90.19 135.003L90.5355 134.83C91.4143 134.388 92.3784 133.873 93.0379 133.134C91.756 132.914 90.3042 133.287 89.0686 133.487L88.9739 133.502C87.2414 133.769 85.5171 134.089 83.8035 134.46C80.2974 135.22 77.8116 135.843 74.3473 136.773C74.2602 136.797 74.1544 136.689 74.1016 136.617C73.8464 136.265 73.3889 136.527 73.5299 136.393Z" fill="#ECB989"/>
<path d="M94.6876 132.571C94.7219 132.387 94.4966 132.242 94.2808 132.148C92.8661 131.532 91.2419 131.869 89.7668 132.125L89.1318 132.233C87.4019 132.531 85.6805 132.881 83.9716 133.282C80.3021 134.143 76.7274 135.319 73.3005 136.889C73.2194 136.926 73.2678 137.061 73.3547 137.037C76.819 136.108 80.2977 135.219 83.8039 134.46C85.5171 134.089 87.2417 133.769 88.9742 133.501L89.0689 133.486C90.3049 133.287 91.7564 132.914 93.0382 133.133C92.3787 133.873 91.4146 134.387 90.5358 134.83L90.1903 135.002C88.7911 135.703 87.3217 136.248 85.8466 136.765C83.0418 137.748 80.1004 138.652 77.6534 140.392C77.099 140.786 77.6399 141.708 78.2531 141.547C80.7769 140.882 83.3564 140.413 85.9105 139.877C87.1892 139.609 88.4676 139.342 89.7435 139.059C90.3813 138.919 91.0188 138.775 91.6566 138.636C91.8816 138.588 92.8309 138.328 92.9435 138.699C92.9048 138.82 92.8655 138.941 92.8261 139.063C92.5546 139.345 91.9172 139.562 91.6972 139.663L91.3457 139.824C90.8775 140.038 90.4068 140.245 89.9329 140.447C88.7064 140.972 87.4648 141.461 86.2087 141.91C83.7787 142.778 81.3046 143.457 78.8094 144.102C78.1653 144.268 78.3755 145.259 79.0306 145.115C81.4059 144.595 83.7375 143.837 86.0354 143.044C86.9104 142.741 87.1741 142.721 87.0284 142.962C87.0303 142.887 86.1471 144.115 86.1471 144.115C85.3708 145.39 84.094 146.256 82.718 146.928C81.0988 147.72 78.5656 148.239 77.7292 150.021C77.3378 150.856 77.2909 151.733 76.677 152.468C76.1484 153.101 75.4474 153.561 74.7344 153.962L74.5698 154.054C73.6105 154.581 72.6168 155.05 71.6385 155.54C71.1401 155.79 70.6455 156.05 70.1427 156.29C69.4926 156.599 68.948 156.739 68.2321 156.809C67.8948 156.842 67.6459 157.058 67.5028 157.339C67.337 157.217 67.1752 157.084 67.0296 156.962L66.6957 156.681C66.281 156.325 65.8937 155.909 65.5705 155.471C64.7543 154.365 64.1965 153.051 63.7232 151.769C63.2125 150.386 62.8617 148.947 62.3904 147.551C62.2041 146.998 62.0537 146.493 62.1002 145.905C62.1286 145.557 62.2163 145.274 62.3447 145.003C62.974 144.09 63.5967 143.172 64.2056 142.243C65.1715 140.769 66.0412 139.243 66.9537 137.736C67.7765 136.377 68.7532 135.303 70.1059 134.455C71.2994 133.707 72.5315 133.011 73.7643 132.326L74.4367 131.953C77.4492 130.286 80.6684 128.641 84.0716 127.955C84.8139 127.806 86.4715 127.625 86.7616 128.606C87.1999 130.088 84.5984 130.625 83.5997 130.932L83.5119 130.96C82.6085 131.256 81.7143 131.583 80.8317 131.937C79.9227 132.301 79.1011 132.816 78.2506 133.295L78.1229 133.366C76.5534 134.246 74.8351 135.149 73.5302 136.392C73.3896 136.527 73.5504 136.735 73.7203 136.662C75.5475 135.88 77.2142 134.768 79.0895 134.069C80.9025 133.393 82.7312 132.707 84.583 132.144C86.0653 131.693 87.7373 131.119 88.1892 129.445C88.551 128.101 87.6797 126.902 86.4057 126.529C85.0329 126.127 83.5959 126.467 82.2567 126.852L82.0214 126.92C81.6611 127.026 77.0527 128.823 76.5764 129.051C74.7866 129.906 73.0501 130.867 71.3245 131.842C70.7758 132.152 67.4443 134.343 66.9336 134.94C65.7898 136.275 64.9535 137.907 64.1766 139.504L63.7279 140.429C63.12 141.679 62.5499 142.946 61.9942 144.218C61.4637 144.329 61.0018 144.629 60.6337 145.033C60.442 144.896 60.2004 144.829 59.96 144.89C59.1548 145.093 58.6558 145.598 58.0425 146.13L57.3868 146.698C56.9497 147.077 56.5124 147.456 56.0741 147.833C54.8233 148.909 53.5619 149.973 52.3093 151.047C51.7759 151.504 51.0972 152.085 50.326 152.734C48.1959 154.528 45.3376 156.863 42.7228 158.696C42.7776 156.24 42.8279 153.784 42.8641 151.327C42.8886 149.642 43.8345 138.512 43.7791 136.829C43.7225 135.123 43.6856 133.406 43.3156 131.74C43.286 131.608 43.1123 131.632 43.0718 131.74C42.9428 132.083 42.7662 132.977 42.5668 134.188L42.5711 134.162C42.5711 134.162 40.3397 132.863 39.789 133.06C39.2384 133.256 40.6641 133.681 41.5787 134.162C42.4934 134.644 42.4931 134.644 42.4931 134.644L42.5067 134.561C41.7266 139.431 40.6433 148.603 40.6046 148.949C40.5568 149.37 40.5092 149.788 40.4595 150.202L40.3957 150.746C40.0603 153.647 39.8101 156.568 39.6251 159.481C39.6251 159.483 39.6251 159.486 39.6251 159.488C39.5942 159.969 39.5716 160.451 39.5433 160.932C38.9681 161.245 38.3923 161.558 37.8127 161.861L37.7142 161.913C35.7149 162.963 33.8056 164.112 32.3073 165.734C31.7947 166.288 32.0861 166.86 32.5889 166.424C34.0344 165.167 35.6618 164.078 37.42 163.322L39.4586 162.433L40.1603 162.126C40.1597 162.146 40.1597 162.166 40.1591 162.186C40.4885 162.025 40.834 161.854 41.1835 161.679L41.7285 161.441C42.018 161.304 42.3393 161.149 42.6725 160.987C42.6731 160.964 42.6731 160.94 42.6737 160.917C43.1567 160.664 43.6145 160.418 44.0116 160.193C45.6758 159.256 48.1389 157.392 50.326 155.639C51.2867 154.869 52.1944 154.12 52.9568 153.481C54.3548 152.31 55.7254 151.108 57.0898 149.898C57.77 149.292 58.4497 148.686 59.1284 148.079C59.3172 147.909 59.5088 147.748 59.6957 147.585C59.7183 148.438 59.9175 149.321 60.1246 150.161L60.2488 150.659C60.5333 151.805 60.8995 152.955 61.3734 154.036C62.1581 155.829 63.3098 157.481 64.8062 158.751C64.8984 158.829 64.9931 158.908 65.0888 158.986C64.8578 159.255 62.8044 163.52 57.4928 169.651C56.8267 170.419 56.1118 171.216 55.3406 172.039C45.9798 182.027 40.1537 185.976 39.5257 186.49C39.3504 186.596 39.1846 186.694 39.0169 186.784C38.4901 187.063 37.9046 187.279 36.657 187.551C34.8934 187.936 33.239 187.502 32.7245 187.247C32.1062 186.942 31.5272 186.604 30.9797 186.181C29.8649 185.322 28.8873 184.28 28.0705 183.136C26.4057 180.805 25.0439 178.224 23.795 175.645L23.5817 175.202C18.4479 163.095 21.8917 147.105 23.6733 140.06C26.8789 127.38 31.2551 113.888 40.856 104.531C43.2615 102.187 45.9807 100.14 48.9428 98.5519C50.4582 97.7398 52.0321 97.0586 53.6472 96.4727L53.7837 96.4227C55.3821 95.8371 57.0174 95.1483 58.7099 94.952C58.8266 94.9385 58.831 94.7566 58.7099 94.7654C57.1933 94.8837 55.6968 94.8453 54.194 95.121C52.6743 95.3998 51.1797 95.8881 49.7562 96.4872C46.9347 97.6747 44.3175 99.2511 41.9132 101.143C36.7429 105.211 32.8252 110.626 29.8385 116.446C26.6219 122.716 24.3642 129.463 22.4578 136.232C20.4893 143.222 15.93 157.956 19.0765 169.794C19.5479 171.568 20.3823 173.226 21.1432 174.895C22.634 178.163 24.3973 181.371 26.5309 184.267C27.5265 185.62 28.6063 186.945 29.9637 187.95C30.5987 188.42 31.3454 188.912 32.1024 189.157C32.5646 189.306 35.0321 190.1 38.2548 189.13C38.2535 189.131 38.2504 189.133 38.2498 189.133C39.5489 189.008 40.6817 188.344 41.2984 187.84C41.328 187.818 41.3563 187.793 41.3849 187.768C41.4003 187.755 41.4198 187.74 41.4346 187.727C44.4276 185.344 49.3446 181.344 50.4594 180.228C53.2727 177.413 56.5744 174.4 60.2363 169.651C62.262 167.024 64.3981 163.868 66.624 159.914C66.9871 160.039 67.3681 160.096 67.7671 160.038C68.5267 159.926 69.3482 159.324 69.3989 158.534C69.5974 158.307 69.7805 158.099 70.0584 157.931C70.2956 157.786 70.5451 157.655 70.7902 157.526C71.3661 157.225 71.9573 156.948 72.5394 156.659L72.7804 156.541C73.6636 156.107 74.5569 155.687 75.4143 155.206C76.2526 154.737 77.0767 154.188 77.7154 153.462C78.3085 152.788 78.5794 152.062 78.8481 151.243L78.9318 150.986C79.2921 149.878 80.4302 149.503 81.3924 149.027L81.7096 148.87C82.6069 148.423 83.4987 147.957 84.3208 147.382C85.3472 146.663 87.1986 144.75 87.8865 142.597C89.3748 142.247 94.5555 139.407 94.0854 138.156C93.5281 136.673 82.6013 139.52 81.9012 139.704C82.6189 139.514 93.952 136.446 94.6876 132.571Z" fill="#010101"/>
<path d="M79.6291 124.397C79.5835 125.099 78.9784 125.631 78.2758 125.585L76.9354 125.498C76.2337 125.452 75.7013 124.847 75.7469 124.145L75.9467 121.068C75.9924 120.366 76.5981 119.834 77.2994 119.88L78.6405 119.967C79.3421 120.012 79.8739 120.618 79.8283 121.319L79.6291 124.397Z" fill="#010101"/>
<path fill-rule="evenodd" clip-rule="evenodd" d="M4.30054 42.9769L42.8711 4.40634C55.8228 3.62604 69.7146 3 80.9485 3C93.0999 3 103.79 3.64212 113.027 4.62074L7.64791 110C7.11537 91.3173 6.45998 74.0559 5.68173 63.5048C5.13481 56.0899 4.6789 49.2038 4.30054 42.9769Z" fill="url(#paint0_linear)"/>
<path fill-rule="evenodd" clip-rule="evenodd" d="M7.46167 127.377L128.839 6C137.692 7.51729 144.517 9.24244 149.325 10.6716L7.99657 152C7.84186 144.12 7.66356 135.764 7.46167 127.377Z" fill="url(#paint1_linear)"/>
<path fill-rule="evenodd" clip-rule="evenodd" d="M9.0105 180.193L151.461 37.7432C150.416 44.9254 149.295 54.1263 148.185 65.8518L16.0372 198C12.1224 197.06 9.23913 196.291 9.23913 196.291C9.23913 196.291 9.16292 190.062 9.0105 180.193Z" fill="url(#paint2_linear)"/>
<path d="M153.547 201.053C152.639 201.053 151.838 200.396 151.686 199.471C151.604 198.97 141.378 148.852 144.503 100.216C148.381 39.8392 155.581 19.3995 157.434 13.6801C150.991 11.3017 125.715 3.15569 81.897 3.15569C55.1193 3.15569 12.9609 6.62156 3.83193 7.39969C4.03551 13.3718 4.08742 33.9426 6.91707 61.5715C11.1177 102.585 10.6856 194.704 10.6982 195.711C10.7111 196.753 9.87667 197.609 8.83392 197.622C8.82605 197.622 8.81787 197.622 8.81001 197.622C7.77827 197.622 6.93563 196.793 6.92241 195.758C6.91014 194.753 4.75196 95.4829 3.15197 61.855C1.57683 28.7506 0.0073464 5.95167 0.000738748 5.7248C-0.0269505 4.72705 0.726945 3.88033 1.72093 3.79159C2.21744 3.74723 36.6046 -0.935081 82.0194 0.218741C133.945 1.53776 159.533 10.397 160.601 10.8659C161.07 11.0717 161.436 11.4596 161.613 11.9398C161.791 12.4203 161.766 12.9523 161.543 13.4139C161.485 13.5395 155.04 28.211 150.399 100.465C147.302 148.676 155.331 198.363 155.413 198.859C155.581 199.888 154.884 200.859 153.855 201.028C153.751 201.045 153.648 201.053 153.547 201.053Z" fill="black"/>
<path d="M12.0837 266.422C19.5611 261.154 14.4892 261.284 28.4792 240.586C42.4689 219.887 57.3792 208.246 57.3792 208.246C57.3792 208.246 104.668 177.934 104.072 211.673C103.451 246.784 104.4 254.757 96.2539 266.027C88.1086 277.296 79.3805 279.034 66.4402 281.722C53.4999 284.408 30.0147 283.568 26.4148 286.276C22.8146 288.984 12.0837 266.422 12.0837 266.422Z" fill="#ECB989"/>
<path d="M25.738 288.389C23.9309 288.389 19.7118 287.854 15.7374 277.406C12.7448 269.539 9.69709 266.129 9.59829 265.921C9.20309 265.09 10.2449 265.408 10.9966 264.878C14.359 262.51 15.1106 261.682 16.1716 258.393C18.5133 251.133 22.3939 245.784 30.6796 236.344C39.1446 226.7 55.5989 207.241 56.2172 206.758C56.2631 206.722 56.311 206.688 56.36 206.657C57.1762 206.134 76.5074 193.847 90.6969 193.847C95.3776 193.847 99.0653 195.185 101.657 197.823C104.621 200.84 106.069 205.511 105.959 211.707C105.887 215.809 105.834 219.604 105.789 222.952C105.434 248.875 106.825 250.714 100.008 262.251C92.6156 274.761 79.9808 280.839 67.1208 283.509L66.8237 283.57C60.7022 284.841 52.5484 286.323 44.5629 285.787C34.5604 285.115 29.0078 286.688 27.5497 287.785C27.0236 288.18 26.3975 288.389 25.738 288.389ZM14.4706 267.007C15.3353 268.751 16.9331 271.893 18.7483 275.067C22.9974 282.499 25.8084 285.914 26.4148 286.276C28.9266 284.773 34.2033 282.604 44.3445 282.017C51.7454 281.588 60.134 281.102 66.0563 279.873L66.3533 279.811C78.8283 277.221 87.0699 275.51 94.7235 264.921C101.567 255.453 101.662 248.557 102.013 222.901C102.059 219.549 102.111 215.749 102.184 211.639C102.275 206.494 101.191 202.736 98.964 200.469C97.1085 198.58 94.327 197.622 90.6972 197.622C78.0237 197.622 59.8055 208.948 58.4742 209.787C57.376 210.664 43.2118 222.159 30.0436 241.643C23.2422 251.706 21.067 256.646 19.6275 259.914C18.2232 263.103 17.4299 264.708 14.4706 267.007Z" fill="black"/>
<path d="M67.437 155.573C61.3866 156.132 49.4629 156.918 44.1438 160.165C44.1438 160.165 44.1029 168.063 44.1611 172.963C44.2542 180.793 44.2668 188.617 44.6469 196.441C45.5069 214.158 47.1704 250.96 46.4454 251.274C52.5928 255.174 65.9446 254.693 72.7046 254.872C80.9594 255.091 93.9765 255.9 101.573 252.103C102.678 251.55 106.809 211.673 107.067 203.519C107.296 196.289 107.097 189.056 107.479 181.832C107.768 176.389 107.717 165.221 107.9 159.791C107.9 159.791 100.56 157.127 90.4263 156.292C82.7904 155.663 75.0749 154.866 67.437 155.573Z" fill="white"/>
<path d="M95.7926 153.032C82.8593 151.972 69.5294 151.135 56.6612 152.065C47.8802 152.701 39.1311 150.707 38.4624 160.717C37.6384 173.027 38.9092 192.76 39.6833 205.047C40.6178 219.891 42.3776 234.675 44.6447 249.371C44.7161 249.824 44.9404 250.201 45.2485 250.51C43.8898 251.11 43.1718 252.54 44.9061 253.805C50.5783 257.942 59.2731 258.192 65.971 258.758C75.5968 259.571 85.4331 259.491 95.0098 258.146C97.993 257.727 98.9313 258.014 101.634 256.632C104.628 255.101 109.119 234.065 111.604 209.952C112.391 202.318 112.667 197.343 112.669 189.677C112.669 183.643 113.2 165.745 113.2 159.703C113.199 154.734 106.45 153.905 95.7926 153.032ZM107.479 181.832C107.097 189.056 107.296 196.289 107.067 203.519C106.808 211.673 102.678 251.55 101.573 252.102C93.9762 255.9 80.9591 255.091 72.7042 254.872C65.9443 254.693 52.5924 255.174 46.4451 251.274C47.1701 250.96 45.5068 214.158 44.6466 196.441C44.2665 188.616 44.2539 180.793 44.1607 172.962C44.1025 168.063 44.1434 160.164 44.1434 160.164C49.4626 156.918 61.3866 156.132 67.4367 155.572C75.0742 154.866 82.79 155.663 90.4257 156.292C100.559 157.126 107.899 159.79 107.899 159.79C107.716 165.22 107.768 176.388 107.479 181.832Z" fill="#010101"/>
<path d="M63.5829 199.165C68.6387 199.165 72.7373 195.067 72.7373 190.011C72.7373 184.955 68.6387 180.856 63.5829 180.856C58.527 180.856 54.4285 184.955 54.4285 190.011C54.4285 195.067 58.527 199.165 63.5829 199.165Z" fill="#C4C4C3"/>
<path d="M87.811 199.165C92.8668 199.165 96.9654 195.067 96.9654 190.011C96.9654 184.955 92.8668 180.856 87.811 180.856C82.7551 180.856 78.6565 184.955 78.6565 190.011C78.6565 195.067 82.7551 199.165 87.811 199.165Z" fill="#C4C4C3"/>
<path d="M63.5829 222.449C68.6387 222.449 72.7373 218.351 72.7373 213.295C72.7373 208.239 68.6387 204.14 63.5829 204.14C58.527 204.14 54.4285 208.239 54.4285 213.295C54.4285 218.351 58.527 222.449 63.5829 222.449Z" fill="#C4C4C3"/>
<path d="M87.811 222.449C92.8668 222.449 96.9654 218.351 96.9654 213.295C96.9654 208.239 92.8668 204.14 87.811 204.14C82.7551 204.14 78.6565 208.239 78.6565 213.295C78.6565 218.351 82.7551 222.449 87.811 222.449Z" fill="#C4C4C3"/>
<path d="M39.7392 235.925C39.7392 235.925 65.8908 220.514 69.889 225.701C73.8876 230.888 61.9775 238.419 55.5347 244.42C49.0919 250.421 50.1888 249.046 50.0944 252.21C50.0944 252.21 48.4683 261.338 41.8169 266.335C35.1655 271.333 32.1801 267.584 32.1801 267.584" fill="#ECB989"/>
<path d="M35.4518 269.539C32.317 269.539 30.7938 268.902 30.7035 268.759C30.1975 267.963 28.4248 264.164 33.6571 266.407C33.67 266.413 33.6461 266.391 33.6218 266.364C33.7046 266.456 36.724 269.68 41.3254 265.501C49.8996 257.713 49.5066 253.545 48.2109 252.005C48.2172 251.667 48.2078 251.385 48.1999 251.133C48.1219 248.709 48.6162 248.252 52.4641 244.693C52.9826 244.213 53.5738 243.666 54.2481 243.038C55.6848 241.7 57.3317 240.332 59.0748 238.886C63.86 234.913 70.4139 229.473 68.3942 226.853C68.3778 226.832 66.4628 224.955 54.0974 230.585C47.2295 233.712 40.7622 237.513 40.6977 237.551C39.7997 238.081 37.7906 239.394 37.471 238.402C37.3382 237.989 38.3032 235.47 39.2015 234.941C39.4718 234.781 46.3139 232.25 53.3608 229.041C64.0381 224.18 70.7855 222.959 73.1051 226.052C74.0491 227.31 72.3578 231.204 69.1326 234.311C66.668 236.686 64.6268 239.184 61.4863 241.791C59.786 243.202 58.1794 244.536 56.8216 245.801C56.1439 246.432 55.5492 246.982 55.0275 247.464C53.3693 248.998 51.4934 250.176 51.2989 250.542C52.0368 254.2 49.2442 264.819 44.1299 267.389C40.7421 269.091 37.3545 269.539 35.4518 269.539Z" fill="black"/>
<circle cx="63.5" cy="190.5" r="9.5" fill="#55AF8A"/>
<path fill-rule="evenodd" clip-rule="evenodd" d="M68.4118 194.632L63.6618 184.182L58.9118 194.632L63.6618 193.682L68.4118 194.632Z" fill="#F1F5F1"/>
<circle cx="63.5" cy="190.5" r="9.5" fill="#C4C4C4"/>
<path fill-rule="evenodd" clip-rule="evenodd" d="M68.4118 194.632L63.6618 184.182L58.9118 194.632L63.6618 193.682L68.4118 194.632Z" fill="#F1F5F1"/>
<circle cx="63.5" cy="213.5" r="9.5" transform="rotate(-90 63.5 213.5)" fill="#C4C4C4"/>
<path fill-rule="evenodd" clip-rule="evenodd" d="M67.6325 208.588L57.1825 213.338L67.6325 218.088L66.6825 213.338L67.6325 208.588Z" fill="#F1F5F1"/>
<circle cx="88.5" cy="190.5" r="9.5" transform="rotate(90 88.5 190.5)" fill="#C4C4C4"/>
<path fill-rule="evenodd" clip-rule="evenodd" d="M84.3675 195.412L94.8175 190.662L84.3675 185.912L85.3175 190.662L84.3675 195.412Z" fill="#F1F5F1"/>
<circle cx="88.5" cy="213.5" r="9.5" transform="rotate(-180 88.5 213.5)" fill="#55AF8A"/>
<path fill-rule="evenodd" clip-rule="evenodd" d="M83.5882 209.368L88.3382 219.818L93.0882 209.368L88.3382 210.318L83.5882 209.368Z" fill="#F1F5F1"/>
<circle cx="100" cy="250" r="12" fill="#F2312F" fill-opacity="0.8"/>
<defs>
<linearGradient id="paint0_linear" x1="94.3928" y1="-21.5" x2="-2.60718" y2="72.5" gradientUnits="userSpaceOnUse">
<stop stop-color="#ADB9CD" stop-opacity="0.5"/>
<stop offset="1" stop-color="#E6ECF6" stop-opacity="0"/>
</linearGradient>
<linearGradient id="paint1_linear" x1="134.393" y1="11.5" x2="1.89283" y2="136" gradientUnits="userSpaceOnUse">
<stop stop-color="#ADB9CD" stop-opacity="0.5"/>
<stop offset="1" stop-color="#E6ECF6" stop-opacity="0"/>
</linearGradient>
<linearGradient id="paint2_linear" x1="80.2355" y1="37.7432" x2="80.2355" y2="198" gradientUnits="userSpaceOnUse">
<stop stop-color="#ADB9CD" stop-opacity="0.5"/>
<stop offset="1" stop-color="#E6ECF6" stop-opacity="0"/>
</linearGradient>
</defs>
</svg>
