<?xml version="1.0" encoding="UTF-8" standalone="no"?><!-- Generator: Gravit.io --><svg xmlns="http://www.w3.org/2000/svg" xmlns:xlink="http://www.w3.org/1999/xlink" style="isolation:isolate" viewBox="0 0 162 289" width="162pt" height="289pt"><defs><clipPath id="_clipPath_b113u1WJZb2y009Z184yxSU5bplC4r9E"><rect width="162" height="289"/></clipPath></defs><g clip-path="url(#_clipPath_b113u1WJZb2y009Z184yxSU5bplC4r9E)"><path d=" M 154.571 206 C 154.571 206 145.522 151.391 148.669 101.305 C 153.432 25.522 160 11.582 160 11.582 C 160 11.582 134.191 0 82.032 0 C 51.577 0 2 4.504 2 4.504 C 2 4.504 2.629 27.669 5.147 61.805 C 7.665 95.942 8.924 198.842 8.924 198.842 C 8.924 198.842 28.837 204.15 35.482 204.072 C 128.894 202.971 154.571 206 154.571 206 Z " fill="rgb(230,236,246)"/><path d=" M 99.038 99.097 C 98.378 97.597 97.693 95.998 96.685 95.161 C 95.148 93.885 92.869 94.342 90.046 94.753 C 89.087 82.27 89.625 77.609 82.968 77.099 C 82.528 76.949 81.992 85.467 81.553 85.343 C 77.891 85.191 70.872 82.788 67.505 83.116 C 64.876 84.346 66.196 89.164 65.325 92.906 C 63.284 92.906 61.743 93.342 60.393 93.961 C 62.397 101.125 66.955 113.938 74.544 117.064 C 82.458 120.323 93.347 108.103 99.038 99.097 Z " fill="rgb(236,185,137)"/><path d=" M 62.968 91.251 C 64.109 90.06 65.899 89.349 67.594 89.389 L 67.673 89.392 L 68.249 89.417 L 67.864 91.304 L 67.845 91.393 L 67.767 91.721 L 67.662 92.149 L 67.625 92.307 L 67.586 92.482 C 67.58 92.51 67.574 92.538 67.567 92.566 L 67.551 92.649 L 67.387 93.45 L 67.417 93.522 L 67.409 93.704 C 67.383 94.362 67.525 94.724 67.837 94.84 L 67.863 94.849 L 68.041 94.906 L 68.186 95.222 C 68.521 95.944 68.833 96.574 69.154 97.168 C 70.088 98.901 71.204 100.632 72.49 102.372 C 73.712 104.026 74.986 105.604 76.309 107.103 C 76.904 107.777 77.533 108.453 78.202 109.141 L 78.778 109.731 L 78.961 109.917 L 79.084 110.04 L 79.238 110.191 L 79.46 110.402 L 79.62 110.56 L 79.672 110.609 C 79.737 110.67 79.788 110.711 79.834 110.741 L 79.851 110.751 L 79.902 110.781 L 82.572 113.59 L 83.515 114.108 L 83.963 114.356 L 84.054 114.176 L 84.072 114.118 L 85.065 111.938 L 85.671 110.603 C 86.915 107.856 87.882 105.672 88.767 103.591 L 88.877 103.331 L 89.204 102.557 L 89.376 102.144 C 90.168 100.249 90.752 98.785 91.275 97.364 L 91.35 97.161 L 91.46 96.857 L 91.623 96.399 L 91.653 96.321 C 91.795 95.958 91.447 94.636 91.102 93.912 L 91.083 93.871 L 90.994 93.692 L 90.897 93.502 C 90.669 93.059 90.505 92.567 90.366 91.971 C 90.344 91.874 90.323 91.778 90.303 91.679 L 90.274 91.532 L 90.256 91.435 L 90.23 91.299 L 90.194 91.105 L 90.963 90.976 L 91.385 90.907 L 91.569 90.878 C 91.807 90.841 92.02 90.811 92.219 90.786 L 92.293 90.777 L 92.427 90.761 L 92.432 90.787 L 92.706 90.814 L 92.91 90.835 C 93.914 90.942 94.687 91.059 95.237 91.188 L 95.292 91.201 L 95.39 91.226 L 95.435 91.237 C 95.935 91.372 96.32 91.663 96.625 92.092 C 96.834 92.386 96.97 92.668 97.185 93.202 L 97.261 93.395 L 97.517 94.027 C 97.547 94.104 97.593 94.227 97.656 94.396 L 97.873 94.987 L 98.485 95.591 L 101.905 96.095 C 106.834 96.399 140.292 109.352 138.947 182.397 L 139.003 183.183 L 139.118 184.892 L 139.186 185.866 L 139.194 185.997 L 139.221 186.505 L 139.229 186.624 C 139.239 186.776 139.251 186.905 139.265 187.024 L 139.277 187.112 L 139.29 187.197 C 139.328 187.43 139.403 187.638 139.527 187.87 L 139.559 187.929 L 139.772 188.31 L 139.386 188.513 C 137.374 189.573 120.826 190.04 115.391 190.065 L 115.226 190.065 L 114.886 190.065 C 112.246 190.064 109.447 189.962 106.527 189.787 L 105.866 189.747 L 105.315 189.712 C 105.077 189.697 104.846 189.681 104.607 189.665 L 104.239 189.638 L 102.703 189.526 C 95.796 188.864 88.552 188.876 80.57 189.473 C 60.7 190.751 45.653 189.032 34.247 188.642 C 31.428 188.546 19.82 171.022 19.89 161.982 C 20.731 154.592 22.018 147.425 23.77 140.499 L 23.946 139.807 C 25.84 132.405 27.665 126.698 29.987 121.421 C 32.938 114.709 36.538 109.185 41.069 104.769 C 43.561 102.34 46.32 100.291 49.252 98.719 C 50.601 97.996 52.034 97.355 53.571 96.778 L 53.791 96.696 L 54.147 96.566 L 54.419 96.465 L 55.298 96.137 C 55.483 96.068 55.684 95.99 55.922 95.896 L 56.069 95.838 L 57.643 95.21 L 57.905 95.108 L 58.195 94.995 L 58.409 94.913 C 58.758 94.779 59.074 94.663 59.367 94.561 L 59.541 94.501 L 59.699 94.448 L 60.37 94.216 L 60.358 94.827 C 60.349 95.233 60.453 95.54 60.686 95.761 L 60.694 95.767 L 60.701 95.774 L 60.709 95.779 L 60.749 95.777 L 60.908 95.777 C 60.925 95.768 60.94 95.757 60.954 95.745 C 61.18 95.553 61.285 95.295 61.386 94.705 L 61.413 94.541 L 61.461 94.234 L 61.48 94.117 C 61.548 93.708 61.606 93.482 61.722 93.223 C 61.889 92.849 62.108 92.485 62.367 92.15 L 62.428 92.074 L 62.669 91.783 L 62.706 91.737 C 62.791 91.628 62.834 91.552 62.852 91.481 L 62.857 91.463 L 62.881 91.34 L 62.968 91.251 L 62.968 91.251 Z " fill="rgb(85,175,138)"/><path d=" M 46.6 61.348 C 46.127 63.043 45.676 64.744 45.247 66.45 C 44.515 69.363 43.397 72.564 44.834 75.438 C 45.459 76.732 46.482 77.818 47.504 78.81 C 59.159 90.851 74.026 93.871 85.577 79.861 C 88.26 75.675 89.068 79.275 92.46 78.475 C 94.923 77.702 95.637 74.802 95.247 72.541 C 94.991 71.053 94.368 69.663 94.007 68.202 C 92.112 60.063 97.27 51.715 94.317 43.674 C 95.161 43.165 95.643 41.945 94.772 41.002 C 93.765 39.912 92.68 38.899 91.52 37.975 C 86.658 34.101 80.827 31.692 74.795 30.322 C 69.326 29.321 62.097 27.123 57.909 32.043 C 55.89 34.762 57.444 35.891 56.059 38.949 C 53.345 45.54 48.509 54.48 46.6 61.348 Z " fill="rgb(236,185,137)"/><path d=" M 100.666 39.083 C 101.367 39.074 102.091 39.227 102.657 39.488 C 103.583 39.917 104.322 40.711 104.691 41.662 C 105.254 43.105 104.811 44.633 103.811 45.675 C 103.894 45.79 103.966 45.915 104.027 46.046 C 104.51 47.084 104.143 48.159 103.374 48.947 C 102.719 49.619 100.92 50.259 100.899 51.321 C 100.889 51.804 101.177 52.336 101.303 52.797 C 101.461 53.371 101.569 53.955 101.645 54.545 C 102.243 59.122 100.413 63.376 98.326 67.323 L 98.138 67.676 C 97.723 68.468 97.283 69.408 96.726 70.235 C 98.189 74.062 96.175 79.349 91.89 80.146 C 90.837 80.343 89.731 80.317 88.702 80.005 C 88.166 79.84 87.621 79.615 87.156 79.299 C 86.925 79.142 86.703 78.961 86.553 78.726 C 85.401 81.12 83.692 83.152 81.741 84.972 C 80.642 85.994 79.421 86.983 78.114 87.726 C 76.733 88.511 74.566 89.057 73.589 87.376 C 73.256 86.804 73.591 86.143 74.179 85.942 C 75.283 85.562 76.376 85.441 77.416 84.861 C 78.574 84.215 79.701 83.485 80.785 82.723 C 82.33 81.636 83.767 80.384 85.183 79.12 L 86.339 78.087 C 86.338 78.082 86.338 78.078 86.337 78.073 L 86.337 78.045 C 86.338 78.031 86.339 78.018 86.341 78.006 L 86.355 77.872 C 86.353 77.861 86.351 77.847 86.348 77.83 L 86.335 77.746 C 86.213 77.195 86.675 76.723 87.229 76.846 C 87.405 76.893 87.43 76.894 87.307 76.848 L 87.256 76.83 C 87.472 76.771 87.69 76.77 87.908 76.829 C 88.164 76.897 88.384 77.05 88.612 77.176 C 88.949 77.362 89.253 77.51 89.625 77.609 C 90.389 77.811 91.184 77.787 91.937 77.553 C 93.676 77.011 94.645 75.111 94.846 73.397 C 94.903 72.912 94.909 72.44 94.86 71.987 C 94.616 72.102 94.356 72.187 94.077 72.237 C 94.035 72.245 94.019 72.186 94.059 72.172 C 94.343 72.081 94.601 71.95 94.834 71.789 C 94.669 70.626 94.142 69.579 93.231 68.7 C 92.656 68.144 91.94 67.762 91.183 67.587 C 91.175 67.608 91.165 67.629 91.154 67.649 C 90.958 68.056 90.697 68.218 90.332 68.398 L 90.202 68.462 C 89.706 68.699 89.198 68.529 88.959 68.117 L 88.948 68.126 C 88.871 67.995 88.809 67.875 88.757 67.76 C 88.575 67.833 88.398 67.923 88.225 68.027 C 88.16 68.066 88.093 67.976 88.145 67.922 C 88.303 67.757 88.472 67.607 88.651 67.475 C 88.555 67.138 88.57 66.813 88.69 66.363 C 88.858 65.73 89.052 65.101 89.237 64.472 C 89.594 63.256 89.984 62.05 90.36 60.839 C 90.677 59.815 91.177 58.709 91.298 57.639 C 91.368 57.016 91.045 56.778 90.586 56.499 L 89.989 56.139 C 88.589 55.285 87.199 54.314 87.352 52.424 C 87.516 50.405 89.226 49.033 89.842 47.178 C 90.382 45.554 90.327 43.737 89.757 42.121 C 88.786 42.113 87.815 42.122 86.843 42.06 C 85.497 41.975 84.155 41.862 82.814 41.726 C 80.179 41.459 77.559 41.108 74.955 40.614 C 69.738 39.624 64.636 38.052 59.767 35.927 C 59.075 35.625 58.389 35.305 57.718 34.956 C 57.69 35.079 57.662 35.204 57.636 35.329 C 57.491 36.028 57.327 36.716 57.145 37.405 C 57.119 37.59 57.062 37.784 56.972 37.987 L 56.867 38.225 C 56.794 38.39 56.683 38.53 56.545 38.641 C 55.281 42.384 53.754 46.034 52.251 49.69 L 51.892 50.565 C 50.099 54.939 48.335 59.326 46.657 63.745 C 45.842 65.887 44.747 68.159 44.653 70.482 C 44.577 72.366 45.339 74.05 46.452 75.532 C 49.068 79.019 52.761 81.846 56.522 83.982 C 58.537 85.126 60.728 86.314 62.983 86.891 C 63.79 87.097 64.671 87.228 65.501 87.078 C 66.21 86.951 66.748 86.524 67.262 86.047 L 67.362 85.954 C 67.792 85.548 68.663 85.811 68.616 86.472 C 68.479 88.431 66.487 89.14 64.763 89.159 C 62.802 89.182 60.965 88.435 59.196 87.658 L 58.89 87.524 C 54.31 85.501 50.191 82.682 46.446 79.375 C 44.788 77.912 43.353 76.154 42.508 74.095 C 41.566 71.799 41.72 69.422 42.48 67.093 C 43.321 64.527 44.43 62.026 45.451 59.528 L 45.767 58.756 C 46.717 56.441 47.681 54.131 48.681 51.836 C 50.596 47.441 52.575 43.033 55.006 38.895 C 54.979 38.885 54.952 38.875 54.926 38.863 C 54.179 38.537 53.879 37.818 54.018 37.031 L 54.279 35.555 L 54.209 35.541 C 51.91 35.075 49.046 34.007 48.632 31.38 C 48.487 30.465 48.639 29.532 49.029 28.757 C 47.624 27.96 46.442 26.767 45.665 25.348 C 45.262 24.61 45.529 23.773 46.209 23.318 C 46.613 23.047 47.028 22.817 47.451 22.625 C 46.559 22.01 45.812 21.105 45.543 20.051 C 45.197 18.694 45.845 17.319 47.026 16.613 C 48.041 16.004 49.276 15.906 50.431 15.782 L 50.841 15.738 C 55.516 15.245 60.239 15.436 64.878 16.179 C 74.277 17.681 83.397 21.674 90.76 27.732 C 94.657 30.937 97.986 34.804 100.666 39.083 Z  M 93.168 73.137 C 92.268 72.717 91.101 72.605 90.121 72.655 C 89.029 72.713 88.305 73.253 87.333 73.642 C 86.266 74.07 85.38 72.439 86.224 71.715 C 87.291 70.799 89.008 70.679 90.344 70.916 C 91.672 71.154 92.606 71.877 93.333 72.975 C 93.406 73.082 93.267 73.182 93.168 73.137 Z " fill="rgb(1,1,1)"/><path d=" M 57.57 76.604 C 56.575 76.73 55.55 76.592 54.625 76.153 C 53.786 75.755 52.973 75.042 52.444 74.185 C 51.968 73.414 51.725 72.528 51.879 71.651 C 51.903 71.516 51.97 71.41 52.058 71.334 C 52.15 71.254 52.27 71.208 52.391 71.198 C 52.517 71.189 52.643 71.221 52.744 71.288 C 52.836 71.348 52.909 71.436 52.947 71.552 C 53.02 71.69 53.094 71.825 53.168 71.956 C 53.771 73.005 54.385 73.823 55.477 74.251 C 56.051 74.477 56.653 74.515 57.23 74.406 C 57.828 74.292 58.401 74.02 58.887 73.633 L 58.945 73.586 C 59.226 73.348 59.52 73.276 59.787 73.305 C 60.096 73.337 60.377 73.51 60.572 73.76 C 60.767 74.009 60.872 74.331 60.841 74.646 C 60.813 74.927 60.68 75.206 60.396 75.429 C 59.581 76.069 58.592 76.476 57.57 76.604 Z  M 54.965 62.673 C 50.799 66.302 58.085 72.85 61.349 64.839 C 61.709 63.838 60.088 63.102 59.624 64.055 C 59.185 65.185 58.365 67.594 56.467 67.083 C 54.644 66.303 55.249 64.158 55.826 63.045 C 55.961 62.727 55.424 62.273 54.965 62.673 Z  M 72.46 62.895 C 72.353 63.785 70.946 64.24 70.385 63.264 C 69.799 62.242 69.564 61.198 69.763 60.064 C 69.985 58.797 72.222 59.088 72.341 60.368 C 72.415 61.165 72.603 61.704 72.46 62.895 Z  M 56.03 55.699 C 57.004 56.594 56.637 58.407 55.871 59.316 C 55.401 59.872 54.361 59.712 54.04 59.08 C 53.447 57.914 52.951 55.521 54.636 55.029 C 55.176 54.871 55.626 55.15 55.938 55.558 C 55.974 55.606 56.003 55.652 56.03 55.699 Z  M 73.989 54.39 C 75.208 55.48 76.302 57.025 76.646 58.643 C 76.684 58.818 76.459 58.984 76.324 58.829 C 75.292 57.648 74.298 56.558 72.938 55.742 C 72.317 55.371 71.678 55.076 70.992 54.849 C 70.16 54.574 69.32 54.586 68.767 53.826 C 68.453 53.394 68.725 52.791 69.114 52.532 C 69.848 52.043 70.803 52.44 71.56 52.791 L 71.806 52.905 C 72.6 53.272 73.339 53.808 73.989 54.39 Z  M 58.276 49.623 C 58.455 49.759 58.591 49.947 58.658 50.185 C 58.747 50.502 58.708 50.737 58.551 51.019 C 58.431 51.237 58.256 51.379 58.055 51.461 C 57.843 51.548 57.6 51.566 57.361 51.532 C 56.26 51.371 55.145 51.324 54.034 51.384 C 53.513 51.412 53.005 51.502 52.497 51.602 L 52.06 51.688 C 51.657 51.767 51.245 51.836 50.747 51.834 C 50.708 51.834 50.669 51.833 50.631 51.832 C 50.513 51.757 50.504 51.702 50.486 51.659 L 50.479 51.642 C 50.457 51.591 50.433 51.517 50.552 51.229 C 52.13 49.397 55.153 49.248 57.414 49.374 L 57.623 49.387 C 57.866 49.403 58.093 49.485 58.276 49.623 Z " fill="rgb(1,1,1)"/><path d=" M 66.225 79.844 C 66.157 80.433 65.996 81.005 65.723 81.542 C 62.913 82.57 59.774 82.666 56.957 81.548 C 56.353 80.182 55.864 77.997 54.4 77.368 C 52.761 76.663 51.319 78.237 49.759 78.649 C 49.673 78.672 49.579 78.692 49.483 78.71 C 48.635 78.405 47.818 77.969 47.222 77.278 C 46.61 76.571 46.511 75.808 46.595 74.965 C 46.674 74.821 46.756 74.679 46.84 74.539 C 47.433 73.551 48.149 72.624 49.035 71.884 C 49.78 71.259 50.673 70.796 51.645 70.685 C 52.784 70.554 53.98 70.782 55.101 70.969 C 57.241 71.325 59.394 71.884 61.303 72.944 C 63.903 74.39 65.812 76.948 66.225 79.844 Z  M 45.242 72.109 C 45.051 72.386 43.342 75.484 43.351 77.524 C 43.36 79.488 43.798 81.465 44.532 83.295 C 45.206 84.976 46.218 86.493 47.684 87.576 C 49.598 88.988 52.211 89.435 54.501 89.816 C 57.36 90.292 60.264 90.405 63.155 90.218 C 64.6 90.127 66.039 89.959 67.47 89.745 C 68.877 89.535 70.361 89.355 71.732 88.962 C 72.91 88.624 74.033 87.896 75.085 87.286 C 76.743 86.325 78.387 85.299 79.909 84.132 C 81.33 83.043 82.459 81.984 83.19 80.321 C 84.415 77.533 84.753 74.336 85.14 71.341 C 85.154 71.247 85.024 71.161 84.97 71.246 C 84.986 71.196 85.002 71.146 85.018 71.096 C 85.086 70.882 84.777 70.769 84.667 70.949 C 83.308 73.137 81.553 74.989 79.373 76.367 C 76.371 78.263 72.93 79.216 69.555 80.26 C 69.483 80.143 69.383 80.046 69.265 79.988 C 69.351 77.999 68.438 75.883 67.392 74.329 C 64.327 69.784 58.325 66.575 52.809 67.368 C 50.477 67.704 48.294 68.801 46.619 70.463 C 46.112 70.965 45.65 71.519 45.242 72.109 Z " fill="rgb(1,1,1)"/><path d=" M 68.229 86.181 C 68.251 86.165 68.285 86.158 68.305 86.181 C 68.64 86.573 68.572 87.171 68.583 87.668 L 68.585 87.714 C 68.609 88.439 68.614 89.162 68.611 89.888 L 68.604 92.199 C 68.603 92.517 68.577 92.848 68.593 93.167 L 68.601 93.291 C 68.779 93.472 68.86 93.732 68.801 93.995 C 68.79 94.331 68.614 94.612 68.358 94.788 L 68.907 95.568 L 69.458 96.348 C 70.592 97.957 71.739 99.552 72.934 101.116 C 74.153 102.712 75.453 104.247 76.813 105.723 C 77.478 106.445 78.154 107.156 78.846 107.852 C 79.127 108.134 79.415 108.41 79.7 108.688 L 79.984 108.969 C 80.151 109.136 80.361 109.302 80.473 109.514 C 80.538 109.639 80.553 109.948 80.577 109.999 C 80.786 110.461 80.428 111.196 79.833 110.966 L 79.86 110.948 C 79.968 110.872 79.899 110.871 79.652 110.944 C 79.496 110.943 79.349 110.908 79.213 110.837 L 79.172 110.814 C 78.98 110.716 78.808 110.528 78.652 110.376 L 78.613 110.339 C 78.255 110.004 77.914 109.649 77.572 109.298 C 76.857 108.568 76.158 107.822 75.481 107.055 C 74.131 105.527 72.851 103.936 71.639 102.296 C 70.405 100.626 69.257 98.869 68.27 97.042 C 67.896 96.348 67.552 95.641 67.223 94.925 C 66.582 94.72 66.433 94.038 66.478 93.27 C 66.242 92.72 66.028 92.158 65.903 91.584 C 65.886 91.505 65.987 91.431 66.048 91.499 C 66.252 91.732 66.442 91.98 66.625 92.234 C 66.735 91.696 66.874 91.201 66.939 90.885 L 67.223 89.491 C 65.623 89.408 63.868 90.066 62.765 91.217 C 62.706 91.517 62.475 91.731 62.25 92.011 C 61.993 92.332 61.769 92.691 61.602 93.067 C 61.231 93.9 61.44 95.129 60.72 95.74 C 60.645 95.804 60.562 95.848 60.475 95.875 C 60.817 97.55 60.662 99.396 60.654 101.094 L 60.654 101.244 C 60.656 103.146 60.593 105.049 60.519 106.948 L 60.444 108.829 C 60.347 111.337 60.284 113.846 60.528 116.34 C 61.64 115.354 62.791 114.414 63.981 113.518 C 64.763 112.929 65.562 112.36 66.374 111.813 L 67.034 111.372 C 67.825 110.842 68.636 110.296 69.503 109.916 C 70.636 109.419 71.713 109.59 72.807 110.099 C 73.897 110.607 74.954 111.196 76.022 111.746 C 77.109 112.306 78.198 112.861 79.286 113.417 C 80.007 113.785 81.064 114.118 81.593 114.796 C 81.626 114.646 81.666 114.496 81.711 114.347 C 81.659 114.12 81.679 113.874 81.807 113.64 C 83.584 110.375 85.228 107.031 86.861 103.692 C 87.687 102.002 88.473 100.292 89.301 98.604 L 90.106 96.959 C 90.24 96.685 90.375 96.411 90.511 96.137 C 90.714 95.728 90.925 95.323 91.131 94.914 C 91.217 94.742 91.326 94.57 91.411 94.396 L 91.451 94.309 C 91.453 94.305 91.648 93.691 91.497 93.75 L 91.484 93.756 C 91.407 93.8 91.346 93.703 91.395 93.642 C 91.609 93.378 91.905 93.611 92.026 93.856 C 92.361 94.526 91.748 95.579 91.512 96.222 L 91.499 96.258 C 90.767 98.331 89.937 100.366 89.088 102.393 C 87.458 106.28 85.708 110.108 83.962 113.942 L 83.941 114.008 C 84.313 113.722 84.711 113.464 85.051 113.211 C 85.91 112.575 86.794 111.97 87.677 111.367 C 89.296 110.26 90.959 109.227 92.649 108.236 L 92.986 108.038 C 93.831 107.546 94.667 107.147 95.669 107.294 C 96.6 107.432 97.466 107.932 98.307 108.338 L 98.394 108.38 L 100.992 109.615 C 100.714 108.507 100.414 107.405 100.1 106.306 C 99.488 104.163 98.814 102.039 98.084 99.934 C 97.402 97.966 96.664 96.02 95.885 94.09 L 95.65 93.511 C 95.332 92.716 95.016 91.849 94.107 91.604 C 93.199 91.36 92.156 91.722 91.327 91.205 C 91.251 91.158 91.26 91.033 91.352 91.01 L 91.864 90.881 C 92.826 90.642 93.953 90.401 94.863 90.634 C 95.853 90.887 96.671 91.718 97.151 92.582 C 97.685 93.542 98.061 94.618 98.467 95.642 L 98.531 95.804 C 98.996 96.963 99.443 98.129 99.872 99.302 C 100.727 101.648 101.506 104.022 102.212 106.418 C 102.551 107.572 102.874 108.732 103.183 109.895 C 103.272 110.23 103.419 110.635 103.54 111.058 C 103.678 111.193 103.809 111.343 103.931 111.515 C 104.135 111.799 103.989 112.133 103.736 112.303 C 103.727 112.594 103.662 112.868 103.507 113.102 C 102.904 114.018 101.308 113.782 101.373 112.551 C 101.383 112.362 101.456 112.182 101.568 112.03 L 101.564 112.006 L 101.551 111.96 C 101.275 111.828 100.996 111.68 100.704 111.535 L 97.976 110.187 C 97.186 109.797 96.311 109.194 95.433 109.045 C 94.613 108.906 93.749 109.516 93.046 109.884 L 93 109.908 C 91.299 110.78 89.611 111.681 87.929 112.589 C 87.108 113.032 86.297 113.494 85.48 113.943 C 84.796 114.318 84.058 114.857 83.289 115.069 C 82.961 115.324 82.571 115.29 82.258 115.097 C 82.401 115.984 82.392 116.894 82.436 117.801 C 82.495 119.014 82.504 120.23 82.523 121.444 L 82.531 121.899 C 82.583 124.584 82.61 127.268 82.621 129.953 C 82.657 139.514 82.551 149.077 82.527 158.637 C 82.514 163.441 82.419 168.248 82.294 173.05 C 82.241 175.085 82.131 177.117 82.011 179.149 L 81.945 180.257 C 81.807 182.595 81.724 184.959 81.292 187.265 C 81.235 187.566 80.726 187.573 80.676 187.265 C 80.277 184.793 80.255 182.268 80.179 179.767 L 80.163 179.268 C 80.071 176.583 80.027 173.899 80.037 171.214 C 80.07 161.649 80.319 152.091 80.523 142.529 C 80.625 137.725 80.694 132.919 80.852 128.116 C 80.932 125.713 81.022 123.312 81.128 120.91 C 81.176 119.838 81.222 118.766 81.293 117.695 L 81.326 117.236 C 81.348 116.937 81.365 116.641 81.387 116.349 C 80.42 116.702 79.535 116.048 78.664 115.6 C 77.661 115.083 76.658 114.567 75.655 114.051 L 74.651 113.537 L 72.64 112.511 C 71.735 112.049 71.037 111.59 70.073 112.132 C 66.595 114.083 63.399 116.679 60.503 119.403 C 59.947 119.926 58.774 119.785 58.634 118.91 C 58.033 115.169 58.398 111.374 58.705 107.622 L 58.818 106.229 C 58.955 104.565 59.104 102.901 59.303 101.244 C 59.392 100.503 59.481 99.762 59.579 99.022 L 59.654 98.467 C 59.777 97.59 59.857 96.719 60.118 95.878 C 60.035 95.851 59.956 95.808 59.886 95.74 C 59.1 94.995 59.479 93.702 59.837 92.816 C 60.191 91.941 60.731 91.177 61.407 90.52 C 61.554 90.376 61.761 90.284 61.97 90.279 C 63.608 89.193 65.406 88.652 67.276 89.244 C 67.329 88.993 67.382 88.742 67.439 88.492 L 67.496 88.242 C 67.64 87.622 67.694 86.597 68.229 86.181 Z " fill="rgb(1,1,1)"/><path d=" M 85.022 184.216 C 85.53 184.076 86.087 184.223 86.459 184.596 C 86.832 184.969 86.979 185.525 86.839 186.034 C 86.769 186.284 86.642 186.501 86.459 186.686 C 86.288 186.856 86.088 186.977 85.861 187.049 L 85.807 187.066 L 85.724 187.1 C 85.469 187.168 85.214 187.168 84.959 187.1 C 84.716 187.032 84.504 186.909 84.324 186.73 C 84.146 186.551 84.023 186.339 83.955 186.095 C 83.886 185.84 83.886 185.585 83.955 185.33 L 83.989 185.247 C 84.059 184.997 84.186 184.78 84.369 184.595 C 84.554 184.413 84.772 184.286 85.022 184.216 Z " fill="rgb(1,1,1)"/><path d=" M 115.209 133.55 C 115.293 133.453 115.428 133.576 115.376 133.678 C 114.584 135.231 113.702 136.772 112.834 138.286 C 112.904 138.705 112.972 139.121 113.052 139.527 C 113.39 141.254 113.804 142.952 114.074 144.697 C 115.043 150.968 115.547 157.308 115.979 163.636 C 116.413 169.986 116.469 176.339 116.533 182.703 C 116.54 183.254 116.115 183.895 115.546 183.999 C 115.286 184.046 115.091 184.037 114.832 183.999 C 114.24 183.912 113.87 183.234 113.844 182.703 C 113.675 179.147 113.446 175.595 113.182 172.044 C 112.714 165.749 112.428 159.438 112.049 153.136 L 111.915 150.934 C 111.772 148.547 111.641 146.159 111.599 143.769 C 111.571 142.186 111.655 140.603 111.603 139.021 C 111.555 137.561 111.407 135.974 111.729 134.539 C 111.741 134.485 111.826 134.472 111.85 134.523 C 112.185 135.228 112.397 135.993 112.561 136.775 C 113.424 135.685 114.302 134.591 115.209 133.55 Z " fill="rgb(1,1,1)"/><path d=" M 102.545 95.335 C 104.065 95.614 105.56 96.102 106.983 96.701 C 109.805 97.889 112.422 99.465 114.826 101.357 C 119.996 105.425 123.914 110.84 126.9 116.66 C 130.117 122.93 132.375 129.678 134.281 136.446 C 136.302 143.62 137.844 150.931 138.873 158.314 C 139.452 162.467 139.856 166.645 140.102 170.83 C 140.223 172.893 140.304 174.958 140.345 177.024 C 140.367 178.102 140.38 179.18 140.376 180.258 C 140.374 180.793 140.405 181.342 140.361 181.875 C 140.32 182.372 140.04 182.735 139.753 183.116 L 139.654 183.248 C 139.385 183.612 138.909 183.633 138.644 183.248 C 138.42 182.925 138.118 182.582 138.011 182.193 C 137.895 181.773 137.972 181.229 137.973 180.797 C 137.974 179.854 137.97 178.91 137.959 177.967 C 137.936 176.125 137.882 174.285 137.797 172.445 C 137.629 168.856 137.342 165.272 136.936 161.702 C 136.115 154.483 134.848 147.319 133.067 140.274 C 129.861 127.594 125.485 114.101 115.883 104.745 C 113.478 102.401 110.758 100.354 107.796 98.766 C 106.282 97.954 104.707 97.272 103.093 96.686 L 102.955 96.636 C 101.357 96.051 99.722 95.362 98.029 95.166 C 97.913 95.152 97.908 94.97 98.029 94.979 C 99.547 95.098 101.042 95.059 102.545 95.335 Z " fill="rgb(1,1,1)"/><path d=" M 85.313 172.253 C 85.581 172.252 85.881 172.31 86.111 172.459 L 86.418 172.697 C 86.502 172.804 86.585 172.911 86.667 173.019 C 86.86 173.269 86.885 173.675 86.845 173.974 C 86.836 174.174 86.777 174.359 86.667 174.531 L 86.434 174.835 C 86.208 175.019 86.02 175.15 85.747 175.238 C 85.605 175.284 85.468 175.294 85.331 175.286 L 85.285 175.284 L 85.313 175.287 L 85.265 175.282 C 85.22 175.278 85.176 175.273 85.131 175.267 C 85.1 175.263 85.07 175.261 85.04 175.257 C 85.01 175.254 84.982 175.253 84.952 175.256 C 84.605 175.289 84.257 175.092 84.011 174.866 C 83.79 174.663 83.591 174.231 83.621 173.925 L 83.634 173.797 C 83.658 173.582 83.677 173.497 83.768 173.28 C 83.857 173.069 83.982 172.883 84.15 172.726 C 84.473 172.426 84.869 172.256 85.313 172.253 Z " fill="rgb(1,1,1)"/><path d=" M 84.24 156.47 C 84.699 155.969 85.49 155.932 86.061 156.235 C 86.199 156.309 86.327 156.428 86.45 156.527 C 86.758 156.776 86.88 157.227 86.896 157.606 C 86.913 157.981 86.716 158.427 86.45 158.686 L 86.385 158.748 C 86.226 158.903 85.998 159.038 85.775 159.078 C 85.417 159.144 85.116 159.142 84.782 159.001 C 84.495 158.88 84.248 158.686 84.079 158.421 L 84.052 158.376 C 84.041 158.358 84.03 158.34 84.019 158.32 L 84.005 158.291 C 83.686 157.676 83.772 156.98 84.24 156.47 Z " fill="rgb(1,1,1)"/><path d=" M 84.478 140.604 C 84.685 140.539 84.893 140.53 85.1 140.576 C 85.242 140.576 85.372 140.612 85.494 140.683 C 85.626 140.72 85.741 140.787 85.838 140.883 C 85.956 140.953 86.049 141.046 86.119 141.163 C 86.257 141.314 86.35 141.491 86.399 141.694 L 86.454 142.109 L 86.399 142.524 L 86.241 142.897 C 86.197 142.954 86.154 143.01 86.11 143.066 C 86.041 143.183 85.947 143.277 85.829 143.347 C 85.753 143.423 85.665 143.48 85.568 143.519 C 85.22 143.768 84.757 143.849 84.345 143.736 C 84.101 143.667 83.889 143.544 83.709 143.365 C 83.53 143.185 83.406 142.972 83.337 142.728 L 83.309 142.533 C 83.273 142.271 83.267 142.126 83.342 141.793 C 83.374 141.647 83.468 141.44 83.518 141.354 C 83.728 140.982 84.073 140.728 84.478 140.604 Z " fill="rgb(1,1,1)"/><path d=" M 102.493 129.189 C 103.089 129.185 103.684 129.186 104.28 129.193 L 104.727 129.199 C 105.475 129.211 106.116 129.133 106.704 129.652 C 107.131 130.029 106.943 130.661 106.538 130.945 C 105.924 131.374 105.154 131.158 104.448 131.111 C 103.704 131.061 102.959 131.019 102.214 130.986 C 100.771 130.922 99.328 130.88 97.884 130.874 C 96.443 130.868 95 130.882 93.559 130.905 C 92.093 130.929 90.566 131.065 89.108 130.914 C 88.908 130.893 88.863 130.63 89.061 130.561 C 90.434 130.086 91.98 129.932 93.419 129.75 C 94.905 129.562 96.389 129.43 97.884 129.344 C 99.419 129.255 100.956 129.2 102.493 129.189 Z " fill="rgb(1,1,1)"/><path d=" M 84.475 124.521 L 84.524 124.522 C 84.787 124.523 85.032 124.584 85.261 124.707 L 85.31 124.734 L 85.624 124.977 C 85.817 125.171 85.951 125.4 86.024 125.664 L 86.08 126.077 C 86.088 126.292 86.043 126.491 85.946 126.676 C 85.884 126.869 85.776 127.036 85.624 127.177 C 85.484 127.329 85.316 127.436 85.124 127.499 C 84.952 127.589 84.769 127.634 84.574 127.634 L 84.524 127.633 C 84.244 127.632 83.982 127.561 83.74 127.42 L 83.425 127.177 C 83.232 126.983 83.099 126.754 83.025 126.491 L 82.969 126.077 C 82.961 125.863 83.006 125.663 83.104 125.478 C 83.166 125.285 83.273 125.118 83.425 124.977 C 83.566 124.826 83.733 124.718 83.925 124.656 C 84.097 124.566 84.28 124.521 84.475 124.521 Z " fill="rgb(1,1,1)"/><path d=" M 89.087 82.27 C 89.422 81.416 90.03 82.176 89.943 82.863 C 89.966 84.793 90.022 86.664 90.271 88.555 C 90.386 89.42 90.535 90.286 90.766 91.078 L 90.863 91.413 C 91.161 92.451 91.394 93.43 90.991 94.57 C 90.802 95.107 90.459 95.51 90.088 95.482 C 88.441 95.357 88.214 91.321 88.114 89.068 C 88.01 86.748 88.332 84.199 89.087 82.27 Z " fill="rgb(1,1,1)"/><path d=" M 91.342 133.957 C 91.319 133.963 91.306 133.966 91.306 133.966 C 91.306 133.966 91.318 133.963 91.342 133.957 Z " fill="rgb(1,1,1)"/><path d=" M 80.93 118.177 C 79.206 118.337 75.809 118.561 74.293 119.486 C 74.293 119.486 74.282 121.736 74.298 123.132 C 74.325 125.363 74.329 127.592 74.437 129.821 C 74.682 134.869 75.156 145.355 74.949 145.444 C 76.7 146.555 80.505 146.418 82.431 146.469 C 84.783 146.531 88.491 146.762 90.656 145.68 C 90.97 145.523 92.147 134.161 92.221 131.838 C 92.286 129.778 92.23 127.717 92.339 125.659 C 92.421 124.108 92.406 120.926 92.458 119.379 C 92.458 119.379 90.367 118.62 87.48 118.382 C 85.304 118.203 83.106 117.976 80.93 118.177 Z " fill="rgb(255,255,255)"/><path d=" M 89.009 117.453 C 85.324 117.151 81.526 116.913 77.86 117.178 C 75.358 117.359 72.865 116.791 72.674 119.643 C 72.44 123.15 72.802 128.773 73.022 132.273 C 73.288 136.502 73.79 140.715 74.436 144.902 C 74.456 145.031 74.52 145.138 74.608 145.227 C 74.221 145.397 74.016 145.805 74.51 146.165 C 76.126 147.343 78.603 147.415 80.511 147.576 C 83.254 147.808 86.057 147.785 88.785 147.402 C 89.635 147.282 89.902 147.364 90.672 146.97 C 91.525 146.534 92.805 140.54 93.513 133.67 C 93.737 131.495 93.816 130.078 93.816 127.894 C 93.816 126.175 93.967 121.075 93.967 119.354 C 93.968 117.938 92.045 117.702 89.009 117.453 Z  M 92.339 125.659 C 92.23 127.717 92.286 129.778 92.221 131.838 C 92.148 134.162 90.97 145.523 90.656 145.68 C 88.491 146.762 84.783 146.532 82.43 146.469 C 80.505 146.418 76.7 146.555 74.949 145.444 C 75.155 145.355 74.682 134.869 74.436 129.822 C 74.328 127.592 74.325 125.363 74.298 123.132 C 74.282 121.736 74.293 119.486 74.293 119.486 C 75.809 118.561 79.206 118.337 80.93 118.178 C 83.106 117.976 85.304 118.203 87.48 118.382 C 90.367 118.62 92.458 119.379 92.458 119.379 C 92.406 120.926 92.421 124.108 92.339 125.659 Z " fill="rgb(1,1,1)"/><path d=" M 73.53 136.606 C 74.835 135.363 76.553 134.46 78.123 133.58 L 78.25 133.509 C 79.101 133.03 79.922 132.515 80.831 132.15 C 81.714 131.797 82.608 131.47 83.512 131.174 L 83.599 131.146 C 84.598 130.838 87.199 130.301 86.761 128.819 C 86.471 127.838 84.814 128.02 84.071 128.169 C 80.668 128.854 77.449 130.499 74.437 132.167 L 73.764 132.54 C 72.531 133.224 71.299 133.921 70.106 134.669 C 68.753 135.516 67.777 136.591 66.954 137.95 C 66.041 139.457 65.171 140.983 64.205 142.457 C 63.596 143.386 62.974 144.304 62.345 145.217 C 62.216 145.487 62.128 145.771 62.1 146.119 C 62.053 146.707 62.204 147.212 62.39 147.765 C 62.862 149.161 63.212 150.599 63.723 151.983 C 64.196 153.264 64.754 154.578 65.57 155.684 C 65.893 156.123 66.281 156.538 66.696 156.895 L 67.029 157.176 C 67.175 157.298 67.337 157.431 67.503 157.553 C 67.646 157.272 67.895 157.055 68.232 157.023 C 68.948 156.952 69.492 156.813 70.143 156.503 C 70.645 156.263 71.14 156.004 71.638 155.754 C 72.617 155.264 73.611 154.794 74.57 154.267 L 74.734 154.176 C 75.447 153.775 76.148 153.314 76.677 152.682 C 77.291 151.947 77.338 151.07 77.729 150.235 C 78.565 148.453 81.099 147.934 82.718 147.142 C 84.094 146.469 85.371 145.603 86.147 144.329 C 86.147 144.329 87.03 143.1 87.028 143.176 C 87.174 142.935 86.91 142.955 86.035 143.258 C 83.737 144.051 81.406 144.809 79.03 145.329 C 78.375 145.473 78.165 144.482 78.809 144.316 C 81.304 143.671 83.779 142.992 86.209 142.124 C 87.465 141.675 88.706 141.185 89.933 140.661 C 90.407 140.458 90.877 140.251 91.346 140.038 L 91.697 139.877 C 91.917 139.776 92.554 139.559 92.826 139.276 C 92.865 139.155 92.905 139.034 92.943 138.912 C 92.831 138.542 91.881 138.801 91.656 138.85 C 91.019 138.988 90.381 139.132 89.743 139.273 C 88.467 139.555 87.189 139.823 85.91 140.091 C 83.356 140.626 80.777 141.095 78.253 141.76 C 77.64 141.922 77.099 141 77.653 140.606 C 80.1 138.865 83.042 137.961 85.846 136.979 C 87.321 136.462 88.791 135.916 90.19 135.216 L 90.536 135.043 C 91.414 134.601 92.379 134.086 93.038 133.347 C 91.756 133.127 90.304 133.501 89.069 133.7 L 88.974 133.715 C 87.242 133.983 85.517 134.303 83.804 134.674 C 80.298 135.433 77.812 136.057 74.348 136.987 C 74.26 137.01 74.155 136.903 74.102 136.83 C 73.847 136.479 73.389 136.741 73.53 136.606 Z " fill="rgb(236,185,137)"/><path d=" M 94.688 132.784 C 94.722 132.601 94.497 132.456 94.281 132.362 C 92.866 131.746 91.242 132.083 89.767 132.339 L 89.132 132.446 C 87.402 132.744 85.681 133.095 83.972 133.495 C 80.302 134.356 76.727 135.533 73.301 137.103 C 73.219 137.14 73.268 137.275 73.355 137.251 C 76.819 136.322 80.298 135.433 83.804 134.674 C 85.517 134.303 87.242 133.983 88.974 133.715 L 89.069 133.7 C 90.305 133.501 91.756 133.127 93.038 133.347 C 92.379 134.086 91.415 134.601 90.536 135.043 L 90.19 135.216 C 88.791 135.916 87.322 136.462 85.847 136.979 C 83.042 137.961 80.101 138.865 77.654 140.606 C 77.099 141 77.64 141.922 78.253 141.76 C 80.777 141.096 83.357 140.626 85.911 140.091 C 87.189 139.823 88.468 139.556 89.744 139.273 C 90.381 139.133 91.019 138.988 91.657 138.85 C 91.882 138.802 92.831 138.542 92.944 138.912 C 92.905 139.034 92.866 139.155 92.826 139.276 C 92.555 139.559 91.917 139.776 91.697 139.877 L 91.346 140.038 C 90.878 140.251 90.407 140.459 89.933 140.661 C 88.707 141.185 87.465 141.675 86.209 142.124 C 83.779 142.992 81.305 143.671 78.81 144.316 C 78.165 144.482 78.376 145.473 79.031 145.329 C 81.406 144.809 83.738 144.051 86.035 143.258 C 86.911 142.955 87.174 142.935 87.029 143.176 C 87.03 143.1 86.147 144.329 86.147 144.329 C 85.371 145.603 84.094 146.47 82.718 147.142 C 81.099 147.934 78.566 148.453 77.729 150.235 C 77.338 151.07 77.291 151.947 76.677 152.682 C 76.149 153.314 75.447 153.775 74.734 154.176 L 74.57 154.267 C 73.611 154.794 72.617 155.264 71.639 155.754 C 71.14 156.004 70.646 156.263 70.143 156.503 C 69.493 156.813 68.948 156.953 68.232 157.023 C 67.895 157.055 67.646 157.272 67.503 157.553 C 67.337 157.431 67.175 157.298 67.03 157.176 L 66.696 156.895 C 66.281 156.538 65.894 156.123 65.571 155.684 C 64.754 154.578 64.197 153.264 63.723 151.983 C 63.213 150.599 62.862 149.161 62.39 147.765 C 62.204 147.211 62.054 146.707 62.1 146.119 C 62.129 145.771 62.216 145.487 62.345 145.217 C 62.974 144.304 63.597 143.386 64.206 142.457 C 65.172 140.983 66.041 139.457 66.954 137.95 C 67.777 136.591 68.753 135.517 70.106 134.669 C 71.299 133.921 72.532 133.224 73.764 132.54 L 74.437 132.167 C 77.449 130.499 80.668 128.854 84.072 128.169 C 84.814 128.02 86.472 127.838 86.762 128.819 C 87.2 130.301 84.598 130.838 83.6 131.146 L 83.512 131.174 C 82.609 131.47 81.714 131.796 80.832 132.15 C 79.923 132.515 79.101 133.03 78.251 133.509 L 78.123 133.58 C 76.553 134.46 74.835 135.363 73.53 136.606 C 73.39 136.741 73.55 136.949 73.72 136.876 C 75.548 136.094 77.214 134.982 79.09 134.283 C 80.903 133.607 82.731 132.921 84.583 132.358 C 86.065 131.907 87.737 131.333 88.189 129.659 C 88.551 128.315 87.68 127.115 86.406 126.742 C 85.033 126.34 83.596 126.68 82.257 127.066 L 82.021 127.134 C 81.661 127.24 77.053 129.037 76.576 129.264 C 74.787 130.12 73.05 131.081 71.325 132.056 C 70.776 132.366 67.444 134.557 66.934 135.153 C 65.79 136.489 64.954 138.121 64.177 139.718 L 63.728 140.643 C 63.12 141.893 62.55 143.159 61.994 144.432 C 61.464 144.543 61.002 144.843 60.634 145.247 C 60.442 145.109 60.2 145.043 59.96 145.104 C 59.155 145.307 58.656 145.812 58.043 146.344 L 57.387 146.912 C 56.95 147.291 56.512 147.669 56.074 148.046 C 54.823 149.123 53.562 150.186 52.309 151.261 C 51.776 151.718 51.097 152.298 50.326 152.948 C 48.196 154.742 45.338 157.077 42.723 158.91 C 42.778 156.454 42.828 153.998 42.864 151.541 C 42.889 149.856 43.835 138.726 43.779 137.043 C 43.723 135.337 43.686 133.62 43.316 131.953 C 43.286 131.821 43.112 131.846 43.072 131.953 C 42.943 132.296 42.766 133.191 42.567 134.402 L 42.571 134.376 C 42.571 134.376 40.34 133.077 39.789 133.273 C 39.238 133.47 40.664 133.895 41.579 134.376 C 42.494 134.858 42.493 134.858 42.493 134.858 L 42.507 134.775 C 41.727 139.645 40.643 148.817 40.605 149.163 C 40.557 149.583 40.509 150.002 40.46 150.416 L 40.396 150.96 C 40.06 153.861 39.81 156.782 39.625 159.695 C 39.625 159.697 39.625 159.7 39.625 159.701 C 39.594 160.183 39.572 160.664 39.543 161.145 C 38.968 161.459 38.392 161.772 37.813 162.075 L 37.714 162.126 C 35.715 163.177 33.806 164.326 32.307 165.947 C 31.795 166.502 32.086 167.074 32.589 166.638 C 34.034 165.381 35.662 164.291 37.42 163.536 L 39.459 162.646 L 40.16 162.34 C 40.16 162.36 40.16 162.379 40.159 162.399 C 40.489 162.238 40.834 162.068 41.184 161.893 L 41.729 161.655 C 42.018 161.518 42.339 161.363 42.673 161.201 C 42.673 161.177 42.673 161.154 42.674 161.131 C 43.157 160.878 43.615 160.631 44.012 160.407 C 45.676 159.47 48.139 157.605 50.326 155.852 C 51.287 155.082 52.195 154.334 52.957 153.695 C 54.355 152.524 55.726 151.322 57.09 150.111 C 57.77 149.506 58.45 148.9 59.128 148.293 C 59.317 148.123 59.509 147.962 59.696 147.799 C 59.718 148.652 59.918 149.535 60.125 150.375 L 60.249 150.873 C 60.533 152.019 60.9 153.169 61.373 154.25 C 62.158 156.042 63.31 157.695 64.806 158.965 C 64.899 159.043 64.993 159.122 65.089 159.2 C 64.858 159.468 62.805 163.734 57.493 169.864 C 56.827 170.633 56.112 171.43 55.341 172.253 C 45.98 182.24 40.154 186.189 39.526 186.704 C 39.35 186.81 39.185 186.908 39.017 186.997 C 38.49 187.277 37.905 187.493 36.657 187.764 C 34.893 188.149 33.239 187.715 32.725 187.461 C 32.106 187.155 31.527 186.817 30.98 186.395 C 29.865 185.536 28.887 184.494 28.071 183.35 C 26.406 181.019 25.044 178.438 23.795 175.858 L 23.582 175.416 C 18.448 163.309 21.892 147.319 23.673 140.274 C 26.879 127.594 31.255 114.101 40.856 104.745 C 43.262 102.401 45.981 100.354 48.943 98.766 C 50.458 97.954 52.032 97.272 53.647 96.686 L 53.784 96.636 C 55.382 96.051 57.017 95.362 58.71 95.166 C 58.827 95.152 58.831 94.97 58.71 94.979 C 57.193 95.097 55.697 95.059 54.194 95.335 C 52.674 95.614 51.18 96.102 49.756 96.701 C 46.935 97.888 44.318 99.465 41.913 101.356 C 36.743 105.425 32.825 110.839 29.839 116.66 C 26.622 122.93 24.364 129.677 22.458 136.445 C 20.489 143.436 15.93 158.17 19.077 170.008 C 19.548 171.782 20.382 173.439 21.143 175.108 C 22.634 178.377 24.397 181.585 26.531 184.481 C 27.527 185.833 28.606 187.158 29.964 188.164 C 30.599 188.633 31.345 189.126 32.103 189.37 C 32.565 189.52 35.032 190.313 38.255 189.344 C 38.254 189.345 38.25 189.347 38.25 189.347 C 39.549 189.222 40.682 188.558 41.298 188.054 C 41.328 188.031 41.356 188.007 41.385 187.982 C 41.4 187.969 41.42 187.954 41.435 187.941 C 44.428 185.558 49.345 181.558 50.46 180.442 C 53.273 177.626 56.574 174.614 60.236 169.865 C 62.262 167.238 64.398 164.081 66.624 160.128 C 66.987 160.253 67.368 160.31 67.767 160.251 C 68.527 160.14 69.348 159.538 69.399 158.748 C 69.598 158.521 69.781 158.313 70.058 158.144 C 70.296 158 70.545 157.868 70.79 157.74 C 71.366 157.438 71.957 157.162 72.539 156.873 L 72.781 156.754 C 73.664 156.321 74.557 155.901 75.414 155.42 C 76.253 154.95 77.077 154.401 77.715 153.676 C 78.309 153.002 78.58 152.275 78.848 151.457 L 78.932 151.2 C 79.292 150.092 80.43 149.717 81.392 149.241 L 81.71 149.084 C 82.607 148.636 83.499 148.171 84.321 147.595 C 85.347 146.877 87.199 144.964 87.887 142.811 C 89.375 142.461 94.556 139.621 94.085 138.369 C 93.528 136.887 82.601 139.734 81.901 139.918 C 82.619 139.727 93.952 136.66 94.688 132.784 Z " fill="rgb(1,1,1)"/><path d=" M 79.629 124.61 C 79.584 125.312 78.979 125.844 78.276 125.798 L 76.936 125.711 C 76.234 125.666 75.702 125.061 75.747 124.359 L 75.947 121.281 C 75.993 120.58 76.598 120.048 77.3 120.093 L 78.641 120.18 C 79.343 120.226 79.874 120.831 79.829 121.533 L 79.629 124.61 L 79.629 124.61 Z " fill="rgb(1,1,1)"/><path d=" M 153.547 201.053 C 152.639 201.053 151.838 200.396 151.686 199.471 C 151.604 198.97 141.378 148.852 144.503 100.216 C 148.381 39.839 155.581 19.4 157.434 13.68 C 150.991 11.302 125.715 3.156 81.897 3.156 C 55.119 3.156 12.961 6.622 3.832 7.4 C 4.036 13.372 4.087 33.943 6.917 61.572 C 11.118 102.585 10.686 194.704 10.698 195.711 C 10.711 196.753 9.877 197.609 8.834 197.622 C 8.826 197.622 8.818 197.622 8.81 197.622 C 7.778 197.622 6.936 196.793 6.922 195.758 C 6.91 194.753 4.752 95.483 3.152 61.855 C 1.577 28.751 0.007 5.952 0.001 5.725 C -0.027 4.727 0.727 3.88 1.721 3.792 C 2.217 3.747 36.605 -0.935 82.019 0.219 C 133.945 1.538 159.533 10.397 160.601 10.866 C 161.07 11.072 161.436 11.46 161.613 11.94 C 161.791 12.42 161.766 12.952 161.543 13.414 C 161.485 13.54 155.04 28.211 150.399 100.465 C 147.302 148.676 155.331 198.363 155.413 198.859 C 155.581 199.888 154.884 200.859 153.855 201.028 C 153.751 201.045 153.648 201.053 153.547 201.053 Z " fill="rgb(0,0,0)"/><path d=" M 12.084 266.422 C 19.561 261.154 14.489 261.284 28.479 240.586 C 42.469 219.887 57.379 208.246 57.379 208.246 C 57.379 208.246 104.668 177.934 104.072 211.673 C 103.451 246.784 104.4 254.757 96.254 266.027 C 88.109 277.296 79.381 279.034 66.44 281.722 C 53.5 284.408 30.015 283.568 26.415 286.276 C 22.815 288.984 12.084 266.422 12.084 266.422 Z " fill="rgb(236,185,137)"/><path d=" M 25.738 288.389 C 23.931 288.389 19.712 287.854 15.737 277.406 C 12.745 269.539 9.697 266.129 9.598 265.921 C 9.203 265.09 10.245 265.408 10.997 264.878 C 14.359 262.51 15.111 261.682 16.172 258.393 C 18.513 251.133 22.394 245.784 30.68 236.344 C 39.145 226.7 55.599 207.241 56.217 206.758 C 56.263 206.722 56.311 206.688 56.36 206.657 C 57.176 206.134 76.507 193.847 90.697 193.847 C 95.378 193.847 99.065 195.185 101.657 197.823 C 104.621 200.84 106.069 205.511 105.959 211.707 C 105.887 215.809 105.834 219.604 105.789 222.952 C 105.434 248.875 106.825 250.714 100.008 262.251 C 92.616 274.761 79.981 280.839 67.121 283.509 L 66.824 283.57 C 60.702 284.841 52.548 286.323 44.563 285.787 C 34.56 285.115 29.008 286.688 27.55 287.785 C 27.024 288.18 26.398 288.389 25.738 288.389 Z  M 14.471 267.007 C 15.335 268.751 16.933 271.893 18.748 275.067 C 22.997 282.499 25.808 285.914 26.415 286.276 C 28.927 284.773 34.203 282.604 44.345 282.017 C 51.745 281.588 60.134 281.102 66.056 279.873 L 66.353 279.811 C 78.828 277.221 87.07 275.51 94.724 264.921 C 101.567 255.453 101.662 248.557 102.013 222.901 C 102.059 219.549 102.111 215.749 102.184 211.639 C 102.275 206.494 101.191 202.736 98.964 200.469 C 97.109 198.58 94.327 197.622 90.697 197.622 C 78.024 197.622 59.806 208.948 58.474 209.787 C 57.376 210.664 43.212 222.159 30.044 241.643 C 23.242 251.706 21.067 256.646 19.628 259.914 C 18.223 263.103 17.43 264.708 14.471 267.007 Z " fill="rgb(0,0,0)"/><path d=" M 67.437 155.573 C 61.387 156.132 49.463 156.918 44.144 160.165 C 44.144 160.165 44.103 168.063 44.161 172.963 C 44.254 180.793 44.267 188.617 44.647 196.441 C 45.507 214.158 47.17 250.96 46.445 251.274 C 52.593 255.174 65.945 254.693 72.705 254.872 C 80.959 255.091 93.977 255.9 101.573 252.103 C 102.678 251.55 106.809 211.673 107.067 203.519 C 107.296 196.289 107.097 189.056 107.479 181.832 C 107.768 176.389 107.717 165.221 107.9 159.791 C 107.9 159.791 100.56 157.127 90.426 156.292 C 82.79 155.663 75.075 154.866 67.437 155.573 Z " fill="rgb(255,255,255)"/><path d=" M 95.793 153.032 C 82.859 151.972 69.529 151.135 56.661 152.065 C 47.88 152.701 39.131 150.707 38.462 160.717 C 37.638 173.027 38.909 192.76 39.683 205.047 C 40.618 219.891 42.378 234.675 44.645 249.371 C 44.716 249.824 44.94 250.201 45.249 250.51 C 43.89 251.11 43.172 252.54 44.906 253.805 C 50.578 257.942 59.273 258.192 65.971 258.758 C 75.597 259.571 85.433 259.491 95.01 258.146 C 97.993 257.727 98.931 258.014 101.634 256.632 C 104.628 255.101 109.119 234.065 111.604 209.952 C 112.391 202.318 112.667 197.343 112.669 189.677 C 112.669 183.643 113.2 165.745 113.2 159.703 C 113.199 154.734 106.45 153.905 95.793 153.032 Z  M 107.479 181.832 C 107.097 189.056 107.296 196.289 107.067 203.519 C 106.808 211.673 102.678 251.55 101.573 252.102 C 93.976 255.9 80.959 255.091 72.704 254.872 C 65.944 254.693 52.592 255.174 46.445 251.274 C 47.17 250.96 45.507 214.158 44.647 196.441 C 44.267 188.616 44.254 180.793 44.161 172.962 C 44.103 168.063 44.143 160.164 44.143 160.164 C 49.463 156.918 61.387 156.132 67.437 155.572 C 75.074 154.866 82.79 155.663 90.426 156.292 C 100.559 157.126 107.899 159.79 107.899 159.79 C 107.716 165.22 107.768 176.388 107.479 181.832 Z " fill="rgb(1,1,1)"/><path d=" M 63.583 199.165 C 68.639 199.165 72.737 195.067 72.737 190.011 C 72.737 184.955 68.639 180.856 63.583 180.856 C 58.527 180.856 54.429 184.955 54.429 190.011 C 54.429 195.067 58.527 199.165 63.583 199.165 Z " fill="rgb(196,196,195)"/><path d=" M 87.811 199.165 C 92.867 199.165 96.965 195.067 96.965 190.011 C 96.965 184.955 92.867 180.856 87.811 180.856 C 82.755 180.856 78.657 184.955 78.657 190.011 C 78.657 195.067 82.755 199.165 87.811 199.165 Z " fill="rgb(196,196,195)"/><path d=" M 63.583 222.449 C 68.639 222.449 72.737 218.351 72.737 213.295 C 72.737 208.239 68.639 204.14 63.583 204.14 C 58.527 204.14 54.429 208.239 54.429 213.295 C 54.429 218.351 58.527 222.449 63.583 222.449 Z " fill="rgb(196,196,195)"/><path d=" M 87.811 222.449 C 92.867 222.449 96.965 218.351 96.965 213.295 C 96.965 208.239 92.867 204.14 87.811 204.14 C 82.755 204.14 78.657 208.239 78.657 213.295 C 78.657 218.351 82.755 222.449 87.811 222.449 Z " fill="rgb(196,196,195)"/><path d=" M 39.739 235.925 C 39.739 235.925 65.891 220.514 69.889 225.701 C 73.888 230.888 61.978 238.419 55.535 244.42 C 49.092 250.421 50.189 249.046 50.094 252.21 C 50.094 252.21 48.468 261.338 41.817 266.335 C 35.166 271.333 32.18 267.584 32.18 267.584" fill="rgb(236,185,137)"/><path d=" M 35.452 269.539 C 32.317 269.539 30.794 268.902 30.704 268.759 C 30.198 267.963 28.425 264.164 33.657 266.407 C 33.67 266.413 33.646 266.391 33.622 266.364 C 33.705 266.456 36.724 269.68 41.325 265.501 C 49.9 257.713 49.507 253.545 48.211 252.005 C 48.217 251.667 48.208 251.385 48.2 251.133 C 48.122 248.709 48.616 248.252 52.464 244.693 C 52.983 244.213 53.574 243.666 54.248 243.038 C 55.685 241.7 57.332 240.332 59.075 238.886 C 63.86 234.913 70.414 229.473 68.394 226.853 C 68.378 226.832 66.463 224.955 54.097 230.585 C 47.23 233.712 40.762 237.513 40.698 237.551 C 39.8 238.081 37.791 239.394 37.471 238.402 C 37.338 237.989 38.303 235.47 39.202 234.941 C 39.472 234.781 46.314 232.25 53.361 229.041 C 64.038 224.18 70.786 222.959 73.105 226.052 C 74.049 227.31 72.358 231.204 69.133 234.311 C 66.668 236.686 64.627 239.184 61.486 241.791 C 59.786 243.202 58.179 244.536 56.822 245.801 C 56.144 246.432 55.549 246.982 55.028 247.464 C 53.369 248.998 51.493 250.176 51.299 250.542 C 52.037 254.2 49.244 264.819 44.13 267.389 C 40.742 269.091 37.355 269.539 35.452 269.539 Z " fill="rgb(0,0,0)"/><circle vector-effect="non-scaling-stroke" cx="63.5" cy="190.5" r="9.5" fill="rgb(85,175,138)"/><path d=" M 68.412 194.632 L 63.662 184.182 L 58.912 194.632 L 63.662 193.682 L 68.412 194.632 L 68.412 194.632 Z " fill-rule="evenodd" fill="rgb(241,245,241)"/><path d=" M 63.5 223 C 58.257 223 54 218.743 54 213.5 C 54 208.257 58.257 204 63.5 204 C 68.743 204 73 208.257 73 213.5 C 73 218.743 68.743 223 63.5 223 Z " fill="rgb(196,196,196)"/><path d=" M 67.633 208.588 L 57.183 213.338 L 67.633 218.088 L 66.683 213.338 L 67.633 208.588 L 67.633 208.588 Z " fill-rule="evenodd" fill="rgb(241,245,241)"/><path d=" M 88.5 181 C 93.743 181 98 185.257 98 190.5 C 98 195.743 93.743 200 88.5 200 C 83.257 200 79 195.743 79 190.5 C 79 185.257 83.257 181 88.5 181 Z " fill="rgb(196,196,196)"/><path d=" M 84.368 195.412 L 94.818 190.662 L 84.368 185.912 L 85.318 190.662 L 84.368 195.412 L 84.368 195.412 Z " fill-rule="evenodd" fill="rgb(241,245,241)"/><path d=" M 98 213.5 C 98 218.743 93.743 223 88.5 223 C 83.257 223 79 218.743 79 213.5 C 79 208.257 83.257 204 88.5 204 C 93.743 204 98 208.257 98 213.5 Z " fill="rgb(196,196,196)"/><path d=" M 83.588 209.368 L 88.338 219.818 L 93.088 209.368 L 88.338 210.318 L 83.588 209.368 L 83.588 209.368 Z " fill-rule="evenodd" fill="rgb(241,245,241)"/><circle vector-effect="non-scaling-stroke" cx="44" cy="160" r="12" fill="rgb(242,49,47)" fill-opacity="0.8"/></g></svg>