<?xml version="1.0" encoding="UTF-8" standalone="no"?><!-- Generator: Gravit.io --><svg xmlns="http://www.w3.org/2000/svg" xmlns:xlink="http://www.w3.org/1999/xlink" style="isolation:isolate" viewBox="0 0 162 289" width="162pt" height="289pt"><defs><clipPath id="_clipPath_q2pONioKcMoxBP21XxGDlNDxYIQl7ogt"><rect width="162" height="289"/></clipPath></defs><g clip-path="url(#_clipPath_q2pONioKcMoxBP21XxGDlNDxYIQl7ogt)"><path d=" M 154.571 206 C 154.571 206 145.522 151.391 148.669 101.305 C 153.432 25.522 160 11.582 160 11.582 C 160 11.582 134.191 0 82.032 0 C 51.577 0 2 4.504 2 4.504 C 2 4.504 2.629 27.669 5.147 61.805 C 7.665 95.942 8.924 198.842 8.924 198.842 C 8.924 198.842 28.837 204.15 35.482 204.072 C 128.894 202.971 154.571 206 154.571 206 Z " fill="rgb(230,236,246)"/><path d=" M 99.038 100.276 C 98.378 98.776 97.694 97.177 96.686 96.34 C 95.148 95.064 92.87 95.521 90.046 95.932 C 89.087 83.449 89.625 78.788 82.968 78.278 C 82.528 78.128 81.992 86.646 81.553 86.522 C 77.892 86.37 70.872 83.967 67.505 84.295 C 64.876 85.525 66.196 90.343 65.325 94.085 C 63.285 94.085 61.743 94.521 60.393 95.14 C 62.398 102.304 66.956 115.117 74.545 118.243 C 82.459 121.502 93.347 109.283 99.038 100.276 Z " fill="rgb(236,185,137)"/><path d=" M 62.234 91.251 C 63.375 90.06 65.165 89.349 66.86 89.389 L 66.939 89.392 L 67.515 89.417 L 67.13 91.304 L 67.111 91.393 L 67.032 91.721 L 66.928 92.149 L 66.891 92.307 L 66.852 92.482 C 66.845 92.51 66.839 92.538 66.833 92.566 L 66.816 92.649 L 66.652 93.45 L 66.683 93.522 L 66.675 93.704 C 66.649 94.362 66.791 94.724 67.103 94.84 L 67.128 94.849 L 67.306 94.906 L 67.452 95.222 C 67.787 95.944 68.099 96.574 68.42 97.168 C 69.354 98.901 70.47 100.632 71.756 102.372 C 72.978 104.026 74.251 105.604 75.575 107.103 C 76.17 107.777 76.799 108.453 77.468 109.141 L 78.044 109.731 L 78.227 109.917 L 78.35 110.04 L 78.504 110.191 L 78.726 110.402 L 78.886 110.56 L 78.938 110.609 C 79.003 110.67 79.054 110.711 79.1 110.741 L 79.117 110.751 L 79.168 110.781 L 81.838 113.59 L 82.781 114.108 L 83.229 114.356 L 83.32 114.176 L 83.338 114.118 L 84.33 111.938 L 84.937 110.603 C 86.181 107.856 87.148 105.672 88.033 103.591 L 88.143 103.331 L 88.47 102.557 L 88.642 102.144 C 89.434 100.249 90.018 98.785 90.541 97.364 L 90.615 97.161 L 90.725 96.857 L 90.889 96.399 L 90.919 96.321 C 91.061 95.958 90.712 94.636 90.368 93.912 L 90.348 93.871 L 90.26 93.692 L 90.163 93.502 C 89.935 93.059 89.771 92.567 89.632 91.971 C 89.61 91.874 89.589 91.778 89.569 91.679 L 89.54 91.532 L 89.522 91.435 L 89.496 91.299 L 89.46 91.105 L 90.229 90.976 L 90.651 90.907 L 90.835 90.878 C 91.073 90.841 91.286 90.811 91.485 90.786 L 91.559 90.777 L 91.693 90.761 L 91.698 90.787 L 91.972 90.814 L 92.176 90.835 C 93.179 90.942 93.953 91.059 94.503 91.188 L 94.557 91.201 L 94.656 91.226 L 94.701 91.237 C 95.201 91.372 95.586 91.663 95.891 92.092 C 96.1 92.386 96.236 92.668 96.451 93.202 L 96.527 93.395 L 96.783 94.027 C 96.813 94.104 96.859 94.227 96.922 94.396 L 97.138 94.987 L 97.751 95.591 L 101.171 96.095 C 106.1 96.399 139.558 109.352 138.213 182.397 L 138.269 183.183 L 138.384 184.892 L 138.452 185.866 L 138.46 185.997 L 138.487 186.505 L 138.495 186.624 C 138.505 186.776 138.516 186.905 138.531 187.024 L 138.543 187.112 L 138.556 187.197 C 138.594 187.43 138.669 187.638 138.793 187.87 L 138.825 187.929 L 139.038 188.31 L 138.652 188.513 C 136.639 189.573 120.092 190.04 114.657 190.065 L 114.492 190.065 L 114.152 190.065 C 111.512 190.064 108.713 189.962 105.792 189.787 L 105.132 189.747 L 104.581 189.712 C 104.343 189.697 104.112 189.681 103.872 189.665 L 103.505 189.638 L 101.969 189.526 C 95.062 188.864 87.818 188.876 79.836 189.473 C 59.965 190.751 44.919 189.032 33.512 188.642 C 30.694 188.546 19.086 171.022 19.156 161.982 C 19.997 154.592 21.284 147.425 23.036 140.499 L 23.212 139.807 C 25.106 132.405 26.931 126.698 29.252 121.421 C 32.204 114.709 35.803 109.185 40.335 104.769 C 42.827 102.34 45.586 100.291 48.518 98.719 C 49.867 97.996 51.3 97.355 52.837 96.778 L 53.057 96.696 L 53.413 96.566 L 53.685 96.465 L 54.564 96.137 C 54.749 96.068 54.95 95.99 55.188 95.896 L 55.335 95.838 L 56.909 95.21 L 57.17 95.108 L 57.461 94.995 L 57.674 94.913 C 58.024 94.779 58.34 94.663 58.633 94.561 L 58.807 94.501 L 58.965 94.448 L 59.636 94.216 L 59.624 94.827 C 59.615 95.233 59.719 95.54 59.952 95.761 L 59.96 95.767 L 59.967 95.774 L 59.974 95.779 L 60.015 95.777 L 60.174 95.777 C 60.19 95.768 60.206 95.757 60.22 95.745 C 60.446 95.553 60.551 95.295 60.652 94.705 L 60.679 94.541 L 60.727 94.234 L 60.746 94.117 C 60.814 93.708 60.872 93.482 60.988 93.223 C 61.154 92.849 61.374 92.485 61.633 92.15 L 61.693 92.074 L 61.935 91.783 L 61.972 91.737 C 62.057 91.628 62.1 91.552 62.118 91.481 L 62.123 91.463 L 62.147 91.34 L 62.234 91.251 L 62.234 91.251 Z " fill="rgb(85,175,138)"/><path d=" M 47.944 72.62 C 48.383 74.324 48.842 76.023 49.323 77.715 C 50.146 80.603 50.778 83.934 53.459 85.704 C 54.648 86.513 56.077 86.942 57.457 87.29 C 73.572 91.89 87.957 87.072 90.956 69.164 C 91.186 64.197 93.686 66.911 96.223 64.522 C 97.97 62.621 97.137 59.753 95.67 57.988 C 94.704 56.828 93.469 55.936 92.426 54.851 C 86.715 48.75 87.008 38.941 80.431 33.454 C 80.907 32.591 80.714 31.294 79.489 30.913 C 78.071 30.472 76.626 30.138 75.159 29.917 C 69.012 28.993 62.757 29.823 56.848 31.652 C 51.612 33.52 44.252 35.231 43.085 41.585 C 42.696 44.95 44.606 45.15 44.936 48.491 C 45.881 55.557 46.164 65.718 47.944 72.62 Z " fill="rgb(236,185,137)"/><path d=" M 83.635 26.305 C 84.237 25.946 84.94 25.716 85.561 25.66 C 86.577 25.569 87.614 25.887 88.41 26.525 C 89.619 27.494 89.999 29.039 89.654 30.441 C 89.783 30.499 89.908 30.571 90.027 30.654 C 90.964 31.312 91.184 32.427 90.911 33.493 C 90.681 34.402 89.442 35.856 89.955 36.786 C 90.187 37.21 90.703 37.527 91.044 37.863 C 91.468 38.281 91.852 38.733 92.213 39.206 C 95.02 42.87 95.562 47.47 95.728 51.932 L 95.743 52.331 C 95.778 53.224 95.868 54.259 95.799 55.253 C 98.98 57.836 99.878 63.422 96.566 66.255 C 95.753 66.952 94.781 67.482 93.735 67.726 C 93.189 67.851 92.604 67.929 92.044 67.888 C 91.764 67.868 91.481 67.822 91.234 67.693 C 91.434 70.343 90.97 72.957 90.19 75.508 C 89.75 76.943 89.186 78.41 88.426 79.707 C 87.622 81.077 86.02 82.634 84.332 81.666 C 83.758 81.337 83.717 80.598 84.127 80.13 C 84.893 79.249 85.779 78.597 86.389 77.575 C 87.069 76.437 87.681 75.241 88.237 74.039 C 89.032 72.325 89.65 70.522 90.245 68.72 L 90.729 67.247 C 90.726 67.243 90.724 67.24 90.721 67.236 L 90.706 67.212 C 90.701 67.2 90.696 67.188 90.69 67.176 L 90.636 67.053 C 90.629 67.044 90.619 67.033 90.608 67.02 L 90.556 66.954 C 90.175 66.538 90.339 65.898 90.879 65.728 C 91.055 65.681 91.078 65.669 90.948 65.691 L 90.895 65.7 C 91.053 65.541 91.24 65.432 91.459 65.373 C 91.714 65.304 91.982 65.327 92.242 65.321 C 92.627 65.314 92.965 65.291 93.336 65.19 C 94.099 64.983 94.775 64.565 95.31 63.986 C 96.545 62.648 96.434 60.517 95.752 58.932 C 95.558 58.483 95.328 58.072 95.058 57.704 C 94.905 57.926 94.722 58.129 94.505 58.312 C 94.473 58.34 94.43 58.297 94.458 58.265 C 94.658 58.044 94.816 57.802 94.937 57.546 C 94.212 56.622 93.233 55.978 92.004 55.672 C 91.228 55.479 90.417 55.505 89.674 55.732 C 89.678 55.755 89.679 55.777 89.681 55.8 C 89.713 56.251 89.569 56.521 89.343 56.861 L 89.261 56.98 C 88.95 57.434 88.426 57.54 88.013 57.303 L 88.008 57.316 C 87.876 57.242 87.761 57.169 87.66 57.096 C 87.538 57.25 87.43 57.416 87.331 57.593 C 87.295 57.658 87.192 57.614 87.21 57.542 C 87.264 57.32 87.336 57.106 87.425 56.901 C 87.173 56.658 87.024 56.369 86.903 55.919 C 86.732 55.287 86.586 54.645 86.431 54.008 C 86.133 52.776 85.867 51.537 85.587 50.3 C 85.35 49.255 85.229 48.047 84.799 47.059 C 84.549 46.485 84.15 46.441 83.613 46.429 L 82.916 46.415 C 81.277 46.376 79.587 46.23 78.775 44.517 C 77.908 42.686 78.702 40.643 78.308 38.729 C 77.964 37.052 77.008 35.506 75.706 34.391 C 74.861 34.87 74.024 35.363 73.152 35.795 C 71.944 36.395 70.725 36.968 69.496 37.521 C 67.08 38.606 64.636 39.612 62.134 40.487 C 57.121 42.238 51.917 43.427 46.638 44.021 C 45.887 44.106 45.134 44.172 44.378 44.206 C 44.415 44.326 44.453 44.448 44.493 44.569 C 44.717 45.246 44.919 45.925 45.105 46.612 C 45.176 46.785 45.222 46.982 45.247 47.203 L 45.275 47.461 C 45.294 47.641 45.268 47.817 45.203 47.982 C 45.98 51.856 46.483 55.781 47.009 59.698 L 47.136 60.635 C 47.77 65.32 48.436 70.001 49.192 74.667 C 49.557 76.929 49.745 79.446 50.826 81.504 C 51.701 83.173 53.203 84.251 54.908 84.978 C 58.916 86.689 63.529 87.292 67.854 87.26 C 70.17 87.243 72.662 87.177 74.904 86.549 C 75.706 86.323 76.535 85.997 77.178 85.452 C 77.729 84.988 77.981 84.349 78.188 83.679 L 78.227 83.549 C 78.398 82.982 79.283 82.774 79.573 83.37 C 80.434 85.135 79.062 86.744 77.58 87.624 C 75.892 88.624 73.928 88.896 72.008 89.108 L 71.676 89.144 C 66.698 89.682 61.721 89.3 56.825 88.309 C 54.657 87.87 52.535 87.066 50.774 85.705 C 48.81 84.188 47.756 82.053 47.249 79.655 C 46.694 77.013 46.404 74.292 46.04 71.619 L 45.927 70.792 C 45.593 68.312 45.273 65.829 44.991 63.342 C 44.451 58.578 43.962 53.771 43.997 48.972 C 43.969 48.977 43.941 48.981 43.913 48.985 C 43.103 49.075 42.483 48.603 42.211 47.852 L 41.698 46.443 L 41.631 46.465 C 39.407 47.211 36.393 47.718 34.72 45.65 C 34.137 44.93 33.802 44.046 33.752 43.18 C 32.138 43.192 30.517 42.751 29.135 41.91 C 28.417 41.473 28.23 40.615 28.591 39.88 C 28.805 39.443 29.049 39.037 29.32 38.659 C 28.24 38.572 27.14 38.162 26.38 37.383 C 25.403 36.381 25.276 34.867 25.945 33.665 C 26.52 32.63 27.541 31.928 28.479 31.243 L 28.812 31 C 32.615 28.236 36.8 26.04 41.189 24.363 C 50.08 20.965 59.975 19.863 69.38 21.428 C 74.356 22.255 79.174 23.939 83.635 26.305 Z  M 94.167 59.545 C 93.178 59.631 92.112 60.118 91.288 60.652 C 90.371 61.247 90.014 62.077 89.367 62.9 C 88.657 63.804 87.074 62.835 87.442 61.786 C 87.908 60.459 89.336 59.497 90.611 59.034 C 91.88 58.575 93.05 58.735 94.229 59.322 C 94.346 59.379 94.276 59.535 94.167 59.545 Z " fill="rgb(1,1,1)"/><path d=" M 65.073 80.348 C 64.273 80.954 63.317 81.347 62.297 81.429 C 61.371 81.504 60.31 81.293 59.423 80.815 C 58.626 80.385 57.973 79.74 57.668 78.903 C 57.621 78.774 57.626 78.649 57.664 78.54 C 57.704 78.424 57.784 78.324 57.884 78.256 C 57.989 78.185 58.114 78.149 58.235 78.157 C 58.344 78.163 58.451 78.203 58.543 78.284 C 58.675 78.367 58.806 78.447 58.937 78.524 C 59.983 79.13 60.923 79.531 62.084 79.356 C 62.694 79.265 63.234 78.997 63.679 78.614 C 64.141 78.216 64.5 77.695 64.727 77.116 L 64.754 77.046 C 64.878 76.7 65.097 76.49 65.343 76.382 C 65.626 76.256 65.956 76.265 66.25 76.384 C 66.544 76.502 66.795 76.728 66.926 77.017 C 67.042 77.274 67.066 77.583 66.932 77.917 C 66.546 78.878 65.893 79.725 65.073 80.348 Z  M 55.85 69.585 C 54.057 74.81 63.641 76.839 62.462 68.269 C 62.274 67.222 60.502 67.395 60.576 68.452 C 60.762 69.651 61.256 72.146 59.357 72.653 C 57.388 72.889 56.839 70.729 56.782 69.477 C 56.74 69.134 56.048 69.009 55.85 69.585 Z  M 71.113 61.03 C 71.465 61.853 70.474 62.951 69.5 62.386 C 68.481 61.794 67.757 61.009 67.362 59.927 C 66.921 58.718 69.004 57.851 69.746 58.901 C 70.209 59.554 70.641 59.926 71.113 61.03 Z  M 53.285 63.013 C 54.577 63.301 55.165 65.055 54.957 66.224 C 54.828 66.941 53.848 67.323 53.253 66.936 C 52.157 66.223 50.531 64.398 51.744 63.129 C 52.133 62.723 52.662 62.739 53.136 62.937 C 53.191 62.96 53.239 62.986 53.285 63.013 Z  M 68.184 52.9 C 69.785 53.234 71.505 54.025 72.612 55.253 C 72.732 55.386 72.62 55.642 72.426 55.576 C 70.941 55.069 69.535 54.622 67.95 54.596 C 67.227 54.584 66.526 54.648 65.819 54.795 C 64.96 54.973 64.239 55.404 63.38 55.022 C 62.892 54.805 62.825 54.147 63.033 53.727 C 63.424 52.937 64.45 52.804 65.281 52.729 L 65.551 52.705 C 66.422 52.627 67.33 52.721 68.184 52.9 Z  M 52.193 56.628 C 52.415 56.656 52.628 56.751 52.805 56.923 C 53.041 57.153 53.124 57.376 53.129 57.699 C 53.134 57.949 53.054 58.159 52.92 58.331 C 52.781 58.511 52.579 58.649 52.355 58.739 C 51.32 59.15 50.332 59.667 49.399 60.274 C 48.962 60.559 48.567 60.892 48.178 61.231 L 47.843 61.525 C 47.533 61.795 47.21 62.061 46.778 62.307 C 46.744 62.327 46.71 62.346 46.677 62.364 C 46.537 62.357 46.502 62.315 46.465 62.287 L 46.45 62.276 C 46.405 62.243 46.348 62.19 46.307 61.882 C 46.757 59.506 49.301 57.866 51.322 56.844 L 51.509 56.751 C 51.728 56.642 51.966 56.6 52.193 56.628 Z " fill="rgb(1,1,1)"/><path d=" M 74.187 78.826 C 74.423 79.37 74.57 79.945 74.602 80.547 C 72.682 82.843 70.012 84.495 67.014 84.935 C 65.807 84.054 64.291 82.406 62.709 82.594 C 60.936 82.803 60.475 84.887 59.331 86.024 C 59.266 86.087 59.195 86.15 59.121 86.214 C 58.235 86.375 57.31 86.405 56.448 86.105 C 55.564 85.798 55.097 85.187 54.748 84.415 C 54.745 84.251 54.744 84.087 54.748 83.924 C 54.767 82.771 54.924 81.611 55.321 80.527 C 55.654 79.613 56.195 78.765 56.982 78.183 C 57.903 77.501 59.052 77.1 60.117 76.702 C 62.149 75.94 64.292 75.348 66.476 75.311 C 69.45 75.263 72.382 76.524 74.187 78.826 Z  M 52.149 82.618 C 52.121 82.953 52.19 86.491 53.218 88.253 C 54.208 89.949 55.576 91.443 57.126 92.661 C 58.55 93.779 60.185 94.587 61.997 94.791 C 64.36 95.057 66.846 94.138 69.02 93.323 C 71.733 92.306 74.306 90.952 76.715 89.345 C 77.921 88.543 79.084 87.678 80.216 86.776 C 81.33 85.892 82.524 84.994 83.515 83.968 C 84.366 83.086 84.976 81.894 85.581 80.84 C 86.536 79.179 87.447 77.468 88.182 75.696 C 88.868 74.043 89.316 72.561 89.118 70.755 C 88.785 67.728 87.478 64.791 86.317 62.003 C 86.282 61.916 86.127 61.905 86.122 62.007 C 86.111 61.956 86.1 61.904 86.089 61.853 C 86.041 61.633 85.717 61.689 85.711 61.901 C 85.629 64.475 85.035 66.956 83.836 69.24 C 82.184 72.383 79.68 74.928 77.28 77.52 C 77.158 77.454 77.023 77.421 76.892 77.43 C 75.971 75.664 74.124 74.288 72.441 73.466 C 67.514 71.062 60.711 71.283 56.331 74.728 C 54.48 76.185 53.138 78.227 52.518 80.503 C 52.33 81.192 52.206 81.903 52.149 82.618 Z " fill="rgb(1,1,1)"/><path d=" M 68.23 85.968 C 68.252 85.951 68.285 85.944 68.306 85.968 C 68.641 86.359 68.573 86.958 68.584 87.454 L 68.585 87.5 C 68.609 88.226 68.614 88.949 68.612 89.675 L 68.604 91.986 C 68.603 92.303 68.578 92.634 68.594 92.953 L 68.602 93.077 C 68.779 93.258 68.86 93.519 68.801 93.781 C 68.79 94.117 68.614 94.398 68.358 94.574 L 68.908 95.354 L 69.458 96.134 C 70.592 97.743 71.739 99.338 72.935 100.903 C 74.153 102.498 75.453 104.033 76.814 105.51 C 77.479 106.231 78.155 106.942 78.847 107.638 C 79.128 107.92 79.416 108.196 79.7 108.475 L 79.984 108.755 C 80.151 108.922 80.362 109.088 80.474 109.3 C 80.539 109.425 80.554 109.734 80.577 109.785 C 80.787 110.247 80.429 110.983 79.834 110.752 L 79.861 110.734 C 79.969 110.659 79.9 110.657 79.652 110.73 C 79.497 110.73 79.35 110.694 79.214 110.623 L 79.173 110.601 C 78.981 110.503 78.809 110.314 78.652 110.162 L 78.614 110.125 C 78.256 109.791 77.915 109.435 77.572 109.085 C 76.858 108.354 76.158 107.608 75.481 106.842 C 74.131 105.313 72.852 103.723 71.639 102.083 C 70.405 100.412 69.257 98.656 68.27 96.828 C 67.896 96.134 67.552 95.427 67.223 94.712 C 66.583 94.506 66.434 93.825 66.479 93.057 C 66.242 92.506 66.029 91.944 65.903 91.37 C 65.886 91.291 65.987 91.217 66.048 91.286 C 66.253 91.519 66.443 91.767 66.625 92.021 C 66.735 91.483 66.874 90.987 66.94 90.671 L 67.224 89.278 C 65.623 89.194 63.869 89.852 62.765 91.003 C 62.706 91.303 62.476 91.518 62.251 91.797 C 61.994 92.118 61.769 92.477 61.602 92.853 C 61.231 93.687 61.44 94.915 60.721 95.526 C 60.646 95.59 60.562 95.634 60.476 95.662 C 60.817 97.336 60.662 99.182 60.654 100.881 L 60.654 101.03 C 60.656 102.932 60.593 104.835 60.519 106.735 L 60.444 108.615 C 60.347 111.123 60.284 113.632 60.529 116.126 C 61.641 115.141 62.791 114.2 63.981 113.304 C 64.764 112.715 65.562 112.147 66.374 111.6 L 67.035 111.158 C 67.826 110.628 68.636 110.082 69.503 109.702 C 70.636 109.205 71.713 109.376 72.807 109.885 C 73.897 110.393 74.954 110.982 76.022 111.533 C 77.109 112.092 78.198 112.647 79.287 113.203 C 80.008 113.571 81.064 113.904 81.593 114.582 C 81.627 114.432 81.666 114.283 81.712 114.133 C 81.659 113.906 81.68 113.66 81.807 113.426 C 83.584 110.161 85.229 106.818 86.861 103.478 C 87.687 101.789 88.473 100.079 89.301 98.39 L 90.106 96.745 C 90.241 96.471 90.375 96.197 90.511 95.924 C 90.714 95.514 90.925 95.109 91.131 94.701 C 91.217 94.528 91.326 94.357 91.411 94.183 L 91.451 94.096 C 91.453 94.091 91.648 93.478 91.497 93.536 L 91.484 93.543 C 91.407 93.586 91.346 93.49 91.396 93.428 C 91.609 93.165 91.905 93.398 92.027 93.642 C 92.362 94.313 91.748 95.366 91.512 96.008 L 91.499 96.044 C 90.767 98.118 89.937 100.153 89.088 102.18 C 87.458 106.067 85.708 109.894 83.962 113.728 L 83.941 113.794 C 84.314 113.509 84.711 113.25 85.051 112.998 C 85.91 112.361 86.795 111.756 87.677 111.153 C 89.296 110.047 90.959 109.014 92.649 108.022 L 92.987 107.824 C 93.831 107.332 94.668 106.933 95.669 107.081 C 96.6 107.218 97.466 107.718 98.307 108.125 L 98.394 108.166 L 100.992 109.402 C 100.715 108.294 100.414 107.191 100.1 106.093 C 99.488 103.95 98.815 101.825 98.084 99.72 C 97.402 97.753 96.665 95.807 95.885 93.877 L 95.65 93.297 C 95.332 92.503 95.016 91.636 94.107 91.391 C 93.199 91.146 92.157 91.509 91.327 90.991 C 91.251 90.944 91.261 90.819 91.352 90.796 L 91.864 90.667 C 92.826 90.428 93.954 90.187 94.863 90.42 C 95.853 90.674 96.671 91.504 97.152 92.368 C 97.686 93.329 98.062 94.404 98.467 95.428 L 98.531 95.59 C 98.997 96.749 99.444 97.915 99.872 99.089 C 100.728 101.434 101.506 103.808 102.212 106.204 C 102.552 107.359 102.874 108.518 103.184 109.681 C 103.273 110.016 103.42 110.422 103.54 110.844 C 103.678 110.979 103.809 111.129 103.932 111.301 C 104.135 111.585 103.99 111.919 103.736 112.089 C 103.727 112.38 103.662 112.654 103.507 112.889 C 102.904 113.805 101.308 113.569 101.373 112.337 C 101.383 112.149 101.457 111.969 101.568 111.817 L 101.565 111.792 L 101.552 111.747 C 101.275 111.614 100.997 111.466 100.704 111.321 L 97.977 109.974 C 97.187 109.583 96.311 108.98 95.433 108.831 C 94.613 108.692 93.75 109.303 93.046 109.671 L 93 109.694 C 91.299 110.566 89.611 111.467 87.929 112.375 C 87.108 112.819 86.297 113.281 85.48 113.729 C 84.796 114.105 84.058 114.643 83.289 114.855 C 82.961 115.111 82.571 115.076 82.258 114.883 C 82.401 115.77 82.392 116.681 82.436 117.588 C 82.495 118.8 82.504 120.016 82.524 121.23 L 82.531 121.686 C 82.583 124.37 82.611 127.055 82.621 129.74 C 82.657 139.3 82.551 148.863 82.527 158.424 C 82.514 163.227 82.419 168.035 82.294 172.836 C 82.242 174.871 82.131 176.903 82.012 178.935 L 81.946 180.043 C 81.807 182.381 81.725 184.745 81.292 187.051 C 81.235 187.352 80.726 187.36 80.676 187.051 C 80.278 184.58 80.256 182.054 80.179 179.554 L 80.163 179.054 C 80.071 176.369 80.027 173.686 80.037 171 C 80.071 161.435 80.319 151.877 80.523 142.316 C 80.625 137.511 80.694 132.706 80.853 127.903 C 80.932 125.5 81.022 123.098 81.129 120.697 C 81.176 119.624 81.222 118.553 81.293 117.482 L 81.326 117.023 C 81.348 116.724 81.366 116.428 81.387 116.135 C 80.42 116.488 79.535 115.834 78.664 115.386 C 77.661 114.87 76.658 114.353 75.655 113.838 L 74.651 113.323 L 72.64 112.298 C 71.735 111.836 71.038 111.376 70.073 111.918 C 66.595 113.869 63.399 116.466 60.503 119.19 C 59.948 119.712 58.774 119.572 58.634 118.696 C 58.033 114.956 58.398 111.161 58.705 107.408 L 58.818 106.015 C 58.956 104.352 59.104 102.688 59.303 101.031 C 59.392 100.289 59.481 99.549 59.579 98.808 L 59.654 98.254 C 59.777 97.377 59.857 96.505 60.118 95.664 C 60.036 95.637 59.956 95.594 59.886 95.527 C 59.1 94.782 59.479 93.488 59.838 92.602 C 60.191 91.727 60.731 90.964 61.407 90.306 C 61.554 90.162 61.762 90.07 61.971 90.065 C 63.609 88.98 65.406 88.438 67.277 89.03 C 67.329 88.779 67.383 88.528 67.439 88.278 L 67.497 88.028 C 67.641 87.408 67.695 86.383 68.23 85.968 Z " fill="rgb(1,1,1)"/><path d=" M 85.022 184.002 C 85.53 183.863 86.087 184.01 86.459 184.382 C 86.832 184.755 86.979 185.311 86.839 185.82 C 86.769 186.07 86.643 186.287 86.459 186.472 C 86.288 186.642 86.088 186.763 85.861 186.836 L 85.808 186.852 L 85.724 186.886 C 85.469 186.955 85.214 186.955 84.96 186.886 C 84.716 186.818 84.505 186.695 84.325 186.517 C 84.146 186.337 84.023 186.125 83.955 185.882 C 83.886 185.626 83.886 185.372 83.955 185.117 L 83.989 185.034 C 84.06 184.783 84.186 184.566 84.369 184.382 C 84.554 184.199 84.772 184.073 85.022 184.002 Z " fill="rgb(1,1,1)"/><path d=" M 115.209 133.336 C 115.293 133.24 115.428 133.363 115.376 133.464 C 114.584 135.017 113.702 136.559 112.834 138.072 C 112.904 138.491 112.973 138.907 113.052 139.313 C 113.39 141.041 113.804 142.738 114.074 144.483 C 115.044 150.755 115.548 157.094 115.98 163.422 C 116.413 169.772 116.469 176.126 116.533 182.489 C 116.54 183.04 116.115 183.681 115.547 183.785 C 115.286 183.833 115.092 183.823 114.832 183.785 C 114.241 183.698 113.87 183.02 113.845 182.489 C 113.675 178.933 113.447 175.381 113.183 171.83 C 112.714 165.535 112.428 159.224 112.049 152.923 L 111.916 150.72 C 111.773 148.334 111.642 145.946 111.599 143.555 C 111.571 141.972 111.655 140.389 111.604 138.808 C 111.556 137.347 111.408 135.76 111.729 134.325 C 111.741 134.272 111.826 134.258 111.851 134.309 C 112.185 135.014 112.397 135.78 112.561 136.562 C 113.424 135.471 114.302 134.377 115.209 133.336 Z " fill="rgb(1,1,1)"/><path d=" M 102.546 95.122 C 104.065 95.401 105.56 95.889 106.983 96.488 C 109.805 97.675 112.422 99.252 114.826 101.143 C 119.996 105.212 123.914 110.626 126.9 116.447 C 130.117 122.717 132.375 129.464 134.281 136.232 C 136.302 143.407 137.844 150.718 138.873 158.101 C 139.452 162.253 139.856 166.431 140.102 170.617 C 140.223 172.68 140.305 174.745 140.345 176.811 C 140.367 177.889 140.38 178.967 140.376 180.045 C 140.374 180.58 140.405 181.129 140.361 181.662 C 140.32 182.159 140.04 182.522 139.753 182.902 L 139.654 183.035 C 139.385 183.399 138.909 183.419 138.644 183.035 C 138.42 182.711 138.118 182.369 138.011 181.98 C 137.895 181.56 137.972 181.016 137.973 180.583 C 137.974 179.64 137.97 178.697 137.959 177.754 C 137.936 175.912 137.882 174.071 137.797 172.231 C 137.629 168.642 137.342 165.058 136.937 161.488 C 136.115 154.269 134.848 147.106 133.067 140.061 C 129.861 127.381 125.485 113.888 115.883 104.532 C 113.478 102.188 110.759 100.14 107.796 98.552 C 106.282 97.74 104.707 97.059 103.093 96.473 L 102.956 96.423 C 101.357 95.838 99.722 95.149 98.029 94.952 C 97.913 94.939 97.908 94.757 98.029 94.766 C 99.547 94.884 101.042 94.846 102.546 95.122 Z " fill="rgb(1,1,1)"/><path d=" M 85.313 172.04 C 85.582 172.038 85.881 172.097 86.111 172.245 L 86.419 172.483 C 86.503 172.59 86.585 172.698 86.668 172.805 C 86.861 173.056 86.886 173.462 86.846 173.761 C 86.837 173.96 86.778 174.146 86.668 174.318 L 86.434 174.621 C 86.209 174.805 86.021 174.936 85.748 175.024 C 85.605 175.07 85.468 175.08 85.332 175.073 L 85.286 175.07 L 85.313 175.074 L 85.265 175.068 C 85.221 175.065 85.176 175.06 85.131 175.054 C 85.101 175.049 85.071 175.047 85.04 175.043 C 85.01 175.041 84.982 175.04 84.953 175.042 C 84.606 175.075 84.258 174.878 84.011 174.653 C 83.79 174.449 83.591 174.017 83.622 173.712 L 83.635 173.584 C 83.658 173.368 83.678 173.283 83.769 173.067 C 83.858 172.856 83.982 172.67 84.151 172.513 C 84.474 172.212 84.869 172.043 85.313 172.04 Z " fill="rgb(1,1,1)"/><path d=" M 84.24 156.257 C 84.7 155.755 85.49 155.718 86.061 156.022 C 86.2 156.096 86.328 156.214 86.45 156.313 C 86.758 156.563 86.88 157.014 86.897 157.393 C 86.914 157.768 86.716 158.213 86.45 158.473 L 86.385 158.535 C 86.226 158.69 85.999 158.824 85.776 158.865 C 85.417 158.931 85.116 158.929 84.782 158.788 C 84.495 158.667 84.248 158.472 84.08 158.208 L 84.053 158.163 C 84.041 158.145 84.03 158.126 84.02 158.106 L 84.005 158.078 C 83.686 157.463 83.772 156.767 84.24 156.257 Z " fill="rgb(1,1,1)"/><path d=" M 84.478 140.39 C 84.686 140.325 84.893 140.316 85.101 140.362 C 85.242 140.363 85.373 140.398 85.495 140.469 C 85.627 140.506 85.742 140.573 85.839 140.67 C 85.956 140.739 86.05 140.832 86.119 140.95 C 86.257 141.1 86.35 141.277 86.399 141.481 L 86.454 141.895 L 86.399 142.31 L 86.241 142.683 C 86.198 142.74 86.155 142.796 86.111 142.852 C 86.041 142.97 85.947 143.064 85.83 143.133 C 85.753 143.209 85.666 143.266 85.568 143.306 C 85.22 143.555 84.758 143.636 84.345 143.522 C 84.101 143.454 83.889 143.33 83.709 143.151 C 83.53 142.971 83.406 142.758 83.338 142.515 L 83.309 142.319 C 83.274 142.057 83.267 141.913 83.342 141.579 C 83.374 141.433 83.468 141.227 83.518 141.14 C 83.729 140.769 84.073 140.514 84.478 140.39 Z " fill="rgb(1,1,1)"/><path d=" M 102.494 128.976 C 103.089 128.971 103.685 128.973 104.281 128.979 L 104.727 128.986 C 105.476 128.997 106.116 128.92 106.704 129.439 C 107.131 129.816 106.943 130.447 106.538 130.731 C 105.924 131.161 105.154 130.945 104.448 130.898 C 103.704 130.848 102.959 130.806 102.214 130.773 C 100.771 130.708 99.328 130.667 97.884 130.661 C 96.443 130.654 95 130.668 93.559 130.692 C 92.093 130.715 90.567 130.852 89.109 130.7 C 88.908 130.68 88.863 130.416 89.061 130.348 C 90.435 129.872 91.98 129.718 93.42 129.537 C 94.905 129.349 96.39 129.216 97.884 129.13 C 99.419 129.042 100.956 128.986 102.494 128.976 Z " fill="rgb(1,1,1)"/><path d=" M 84.476 124.308 L 84.525 124.309 C 84.787 124.309 85.033 124.371 85.262 124.494 L 85.31 124.521 L 85.625 124.764 C 85.818 124.958 85.951 125.187 86.025 125.45 L 86.081 125.864 C 86.089 126.078 86.044 126.278 85.947 126.463 C 85.884 126.656 85.777 126.823 85.625 126.964 C 85.484 127.115 85.317 127.223 85.125 127.286 C 84.953 127.375 84.77 127.42 84.575 127.421 L 84.525 127.42 C 84.245 127.419 83.983 127.348 83.741 127.207 L 83.426 126.964 C 83.233 126.77 83.099 126.541 83.026 126.277 L 82.97 125.864 C 82.962 125.65 83.006 125.45 83.104 125.265 C 83.166 125.072 83.274 124.905 83.425 124.764 C 83.566 124.612 83.733 124.505 83.926 124.442 C 84.097 124.352 84.28 124.307 84.476 124.308 Z " fill="rgb(1,1,1)"/><path d=" M 89.087 82.057 C 89.423 81.202 90.03 81.962 89.943 82.649 C 89.966 84.579 90.022 86.451 90.271 88.341 C 90.386 89.206 90.535 90.072 90.766 90.865 L 90.863 91.199 C 91.162 92.238 91.394 93.217 90.991 94.356 C 90.802 94.893 90.459 95.296 90.088 95.268 C 88.441 95.143 88.214 91.108 88.114 88.855 C 88.011 86.534 88.332 83.985 89.087 82.057 Z " fill="rgb(1,1,1)"/><path d=" M 91.343 133.743 C 91.319 133.75 91.306 133.753 91.306 133.753 C 91.306 133.753 91.319 133.749 91.343 133.743 Z " fill="rgb(1,1,1)"/><path d=" M 80.93 117.964 C 79.206 118.123 75.809 118.347 74.294 119.272 C 74.294 119.272 74.282 121.522 74.299 122.918 C 74.325 125.149 74.329 127.378 74.437 129.608 C 74.682 134.656 75.156 145.141 74.949 145.23 C 76.701 146.341 80.505 146.204 82.431 146.255 C 84.783 146.318 88.491 146.548 90.656 145.466 C 90.971 145.309 92.147 133.948 92.221 131.624 C 92.286 129.564 92.23 127.504 92.339 125.445 C 92.421 123.894 92.406 120.712 92.459 119.165 C 92.459 119.165 90.367 118.406 87.48 118.169 C 85.304 117.989 83.106 117.763 80.93 117.964 Z " fill="rgb(255,255,255)"/><path d=" M 89.009 117.24 C 85.324 116.938 81.526 116.699 77.86 116.965 C 75.358 117.146 72.865 116.578 72.675 119.43 C 72.44 122.937 72.802 128.559 73.022 132.06 C 73.288 136.289 73.79 140.501 74.436 144.689 C 74.456 144.818 74.52 144.925 74.608 145.013 C 74.221 145.184 74.016 145.591 74.51 145.952 C 76.126 147.13 78.604 147.202 80.512 147.363 C 83.254 147.594 86.057 147.572 88.785 147.188 C 89.635 147.069 89.903 147.151 90.673 146.757 C 91.526 146.321 92.805 140.327 93.513 133.457 C 93.737 131.282 93.816 129.864 93.817 127.68 C 93.817 125.962 93.968 120.862 93.968 119.141 C 93.968 117.725 92.045 117.489 89.009 117.24 Z  M 92.339 125.445 C 92.23 127.504 92.286 129.565 92.221 131.625 C 92.148 133.948 90.971 145.309 90.656 145.467 C 88.491 146.548 84.783 146.318 82.431 146.256 C 80.505 146.205 76.701 146.342 74.949 145.231 C 75.156 145.141 74.682 134.656 74.437 129.608 C 74.328 127.379 74.325 125.15 74.299 122.919 C 74.282 121.522 74.293 119.272 74.293 119.272 C 75.809 118.348 79.206 118.124 80.93 117.964 C 83.106 117.763 85.304 117.99 87.48 118.169 C 90.367 118.407 92.458 119.166 92.458 119.166 C 92.406 120.713 92.421 123.895 92.339 125.445 Z " fill="rgb(1,1,1)"/><path d=" M 73.53 136.393 C 74.835 135.15 76.553 134.247 78.123 133.367 L 78.251 133.295 C 79.101 132.816 79.923 132.302 80.832 131.937 C 81.715 131.583 82.608 131.257 83.512 130.96 L 83.6 130.933 C 84.598 130.625 87.2 130.088 86.762 128.606 C 86.471 127.625 84.814 127.806 84.072 127.956 C 80.669 128.641 77.449 130.286 74.437 131.953 L 73.765 132.326 C 72.532 133.011 71.299 133.708 70.106 134.456 C 68.753 135.303 67.777 136.377 66.954 137.736 C 66.041 139.243 65.171 140.77 64.205 142.243 C 63.596 143.173 62.974 144.091 62.345 145.004 C 62.216 145.274 62.128 145.558 62.1 145.906 C 62.054 146.493 62.204 146.998 62.391 147.551 C 62.862 148.948 63.213 150.386 63.723 151.769 C 64.197 153.051 64.754 154.365 65.571 155.471 C 65.894 155.91 66.281 156.325 66.696 156.681 L 67.03 156.962 C 67.175 157.085 67.337 157.218 67.503 157.34 C 67.646 157.059 67.895 156.842 68.232 156.809 C 68.948 156.739 69.493 156.6 70.143 156.29 C 70.646 156.05 71.14 155.79 71.638 155.541 C 72.617 155.05 73.611 154.581 74.57 154.054 L 74.735 153.963 C 75.448 153.561 76.148 153.101 76.677 152.468 C 77.291 151.734 77.338 150.857 77.729 150.022 C 78.565 148.239 81.099 147.72 82.718 146.929 C 84.094 146.256 85.371 145.39 86.147 144.116 C 86.147 144.116 87.031 142.887 87.029 142.962 C 87.174 142.721 86.91 142.742 86.036 143.044 C 83.737 143.837 81.406 144.595 79.031 145.116 C 78.375 145.259 78.166 144.269 78.81 144.102 C 81.305 143.458 83.779 142.778 86.209 141.91 C 87.465 141.461 88.706 140.972 89.933 140.448 C 90.407 140.245 90.877 140.038 91.346 139.824 L 91.697 139.664 C 91.917 139.562 92.555 139.346 92.826 139.063 C 92.866 138.941 92.905 138.82 92.944 138.699 C 92.831 138.329 91.882 138.588 91.657 138.637 C 91.019 138.775 90.381 138.919 89.743 139.06 C 88.468 139.342 87.189 139.609 85.91 139.878 C 83.356 140.413 80.777 140.882 78.253 141.547 C 77.64 141.708 77.099 140.787 77.653 140.393 C 80.101 138.652 83.042 137.748 85.846 136.765 C 87.322 136.248 88.791 135.703 90.19 135.003 L 90.536 134.83 C 91.415 134.388 92.379 133.873 93.038 133.134 C 91.757 132.914 90.305 133.287 89.069 133.487 L 88.974 133.502 C 87.242 133.769 85.517 134.089 83.804 134.46 C 80.298 135.22 77.812 135.843 74.348 136.773 C 74.261 136.797 74.155 136.689 74.102 136.617 C 73.847 136.265 73.39 136.527 73.53 136.393 Z " fill="rgb(236,185,137)"/><path d=" M 94.688 132.571 C 94.723 132.387 94.497 132.242 94.282 132.148 C 92.867 131.532 91.242 131.869 89.768 132.125 L 89.132 132.233 C 87.402 132.531 85.681 132.881 83.972 133.282 C 80.303 134.143 76.728 135.319 73.301 136.889 C 73.22 136.926 73.269 137.061 73.355 137.038 C 76.82 136.108 80.299 135.219 83.804 134.46 C 85.518 134.089 87.242 133.769 88.975 133.501 L 89.07 133.486 C 90.305 133.287 91.757 132.914 93.039 133.133 C 92.38 133.873 91.415 134.388 90.537 134.83 L 90.191 135.002 C 88.792 135.703 87.322 136.248 85.847 136.765 C 83.043 137.748 80.101 138.652 77.654 140.392 C 77.1 140.787 77.641 141.708 78.254 141.547 C 80.777 140.882 83.357 140.413 85.911 139.878 C 87.19 139.609 88.468 139.342 89.744 139.059 C 90.382 138.919 91.019 138.775 91.657 138.637 C 91.882 138.588 92.831 138.329 92.944 138.699 C 92.906 138.82 92.866 138.941 92.827 139.063 C 92.555 139.345 91.918 139.562 91.698 139.663 L 91.347 139.824 C 90.878 140.038 90.407 140.245 89.933 140.447 C 88.707 140.972 87.465 141.462 86.209 141.91 C 83.78 142.778 81.305 143.457 78.81 144.102 C 78.166 144.269 78.376 145.259 79.031 145.115 C 81.407 144.595 83.738 143.837 86.036 143.044 C 86.911 142.742 87.175 142.721 87.029 142.962 C 87.031 142.887 86.148 144.116 86.148 144.116 C 85.372 145.39 84.095 146.256 82.719 146.928 C 81.1 147.72 78.566 148.239 77.73 150.022 C 77.339 150.856 77.291 151.733 76.678 152.468 C 76.149 153.101 75.448 153.561 74.735 153.962 L 74.57 154.054 C 73.611 154.581 72.617 155.05 71.639 155.54 C 71.141 155.79 70.646 156.05 70.144 156.29 C 69.493 156.599 68.949 156.739 68.233 156.809 C 67.896 156.842 67.647 157.058 67.504 157.339 C 67.337 157.217 67.176 157.084 67.03 156.962 L 66.696 156.681 C 66.282 156.325 65.895 155.909 65.571 155.471 C 64.755 154.365 64.197 153.051 63.724 151.769 C 63.213 150.386 62.863 148.947 62.391 147.551 C 62.205 146.998 62.054 146.493 62.101 145.905 C 62.129 145.557 62.217 145.274 62.345 145.004 C 62.975 144.09 63.597 143.173 64.206 142.243 C 65.172 140.769 66.042 139.243 66.955 137.736 C 67.777 136.377 68.754 135.303 70.106 134.456 C 71.3 133.708 72.532 133.011 73.765 132.326 L 74.438 131.953 C 77.45 130.286 80.669 128.641 84.072 127.955 C 84.814 127.806 86.472 127.625 86.762 128.606 C 87.201 130.088 84.599 130.625 83.601 130.932 L 83.513 130.96 C 82.609 131.256 81.715 131.583 80.833 131.937 C 79.924 132.301 79.102 132.816 78.251 133.295 L 78.124 133.366 C 76.554 134.247 74.836 135.149 73.531 136.392 C 73.39 136.527 73.551 136.735 73.721 136.662 C 75.548 135.88 77.215 134.769 79.09 134.069 C 80.903 133.394 82.732 132.707 84.584 132.144 C 86.066 131.693 87.738 131.12 88.19 129.445 C 88.552 128.101 87.681 126.902 86.406 126.529 C 85.033 126.127 83.596 126.467 82.258 126.852 L 82.022 126.921 C 81.662 127.026 77.053 128.823 76.577 129.051 C 74.787 129.906 73.051 130.867 71.325 131.842 C 70.777 132.153 67.445 134.343 66.934 134.94 C 65.791 136.275 64.954 137.907 64.177 139.504 L 63.728 140.429 C 63.121 141.679 62.551 142.946 61.995 144.218 C 61.465 144.329 61.002 144.629 60.634 145.033 C 60.443 144.896 60.201 144.83 59.961 144.89 C 59.156 145.094 58.657 145.599 58.043 146.13 L 57.388 146.699 C 56.95 147.077 56.513 147.456 56.075 147.833 C 54.824 148.909 53.563 149.973 52.31 151.047 C 51.777 151.504 51.098 152.085 50.327 152.734 C 48.197 154.528 45.338 156.863 42.724 158.696 C 42.778 156.24 42.829 153.784 42.865 151.327 C 42.889 149.642 43.835 138.512 43.78 136.829 C 43.723 135.123 43.686 133.406 43.316 131.74 C 43.287 131.608 43.113 131.632 43.073 131.74 C 42.943 132.083 42.767 132.977 42.568 134.188 L 42.572 134.163 C 42.572 134.163 40.341 132.863 39.79 133.06 C 39.239 133.256 40.665 133.681 41.58 134.163 C 42.494 134.644 42.494 134.644 42.494 134.644 L 42.508 134.561 C 41.727 139.431 40.644 148.603 40.605 148.949 C 40.557 149.37 40.51 149.788 40.46 150.202 L 40.397 150.746 C 40.061 153.647 39.811 156.569 39.626 159.481 C 39.626 159.483 39.626 159.486 39.626 159.488 C 39.595 159.969 39.572 160.451 39.544 160.932 C 38.969 161.245 38.393 161.558 37.813 161.861 L 37.715 161.913 C 35.716 162.963 33.806 164.112 32.308 165.734 C 31.796 166.288 32.087 166.86 32.589 166.424 C 34.035 165.168 35.662 164.078 37.421 163.322 L 39.459 162.433 L 40.161 162.126 C 40.16 162.146 40.16 162.166 40.159 162.186 C 40.489 162.025 40.835 161.854 41.184 161.679 L 41.729 161.441 C 42.018 161.304 42.339 161.149 42.673 160.987 C 42.673 160.964 42.674 160.941 42.674 160.917 C 43.157 160.664 43.615 160.418 44.012 160.194 C 45.676 159.256 48.139 157.392 50.326 155.639 C 51.287 154.869 52.195 154.12 52.957 153.481 C 54.355 152.31 55.726 151.108 57.09 149.898 C 57.771 149.293 58.45 148.686 59.129 148.079 C 59.317 147.909 59.509 147.748 59.696 147.586 C 59.718 148.438 59.917 149.321 60.125 150.161 L 60.249 150.659 C 60.534 151.805 60.899 152.955 61.373 154.037 C 62.158 155.829 63.31 157.481 64.806 158.752 C 64.898 158.83 64.993 158.908 65.089 158.987 C 64.858 159.255 62.805 163.52 57.493 169.651 C 56.827 170.419 56.112 171.216 55.341 172.039 C 45.98 182.027 40.154 185.976 39.526 186.49 C 39.35 186.596 39.184 186.694 39.017 186.784 C 38.49 187.063 37.904 187.279 36.657 187.551 C 34.894 187.936 33.239 187.502 32.724 187.247 C 32.106 186.942 31.527 186.604 30.98 186.181 C 29.865 185.323 28.887 184.28 28.071 183.136 C 26.406 180.805 25.044 178.224 23.795 175.645 L 23.582 175.202 C 18.448 163.095 21.892 147.105 23.673 140.06 C 26.879 127.38 31.255 113.888 40.856 104.531 C 43.261 102.187 45.981 100.14 48.943 98.552 C 50.458 97.74 52.032 97.059 53.647 96.473 L 53.784 96.423 C 55.382 95.837 57.018 95.148 58.71 94.952 C 58.827 94.939 58.831 94.757 58.71 94.766 C 57.193 94.884 55.697 94.845 54.194 95.121 C 52.674 95.4 51.18 95.888 49.756 96.487 C 46.935 97.675 44.317 99.251 41.913 101.143 C 36.743 105.211 32.825 110.626 29.839 116.446 C 26.622 122.716 24.364 129.464 22.458 136.232 C 20.49 143.222 15.93 157.956 19.076 169.794 C 19.548 171.569 20.382 173.226 21.143 174.895 C 22.634 178.163 24.397 181.371 26.531 184.267 C 27.527 185.62 28.606 186.945 29.964 187.95 C 30.599 188.42 31.345 188.912 32.103 189.157 C 32.565 189.306 35.032 190.1 38.255 189.13 C 38.253 189.131 38.25 189.133 38.25 189.133 C 39.549 189.008 40.682 188.344 41.298 187.84 C 41.328 187.818 41.357 187.793 41.385 187.769 C 41.4 187.755 41.42 187.741 41.435 187.727 C 44.428 185.344 49.345 181.344 50.46 180.228 C 53.273 177.413 56.574 174.4 60.236 169.651 C 62.262 167.024 64.398 163.868 66.624 159.914 C 66.987 160.039 67.368 160.096 67.767 160.038 C 68.527 159.926 69.348 159.325 69.399 158.534 C 69.597 158.308 69.78 158.099 70.058 157.931 C 70.296 157.787 70.545 157.655 70.79 157.526 C 71.366 157.225 71.957 156.948 72.54 156.659 L 72.78 156.541 C 73.664 156.107 74.557 155.687 75.415 155.206 C 76.253 154.737 77.077 154.188 77.716 153.462 C 78.308 152.788 78.579 152.062 78.848 151.243 L 78.932 150.986 C 79.292 149.878 80.43 149.503 81.393 149.027 L 81.709 148.87 C 82.607 148.423 83.499 147.957 84.321 147.382 C 85.347 146.663 87.199 144.75 87.886 142.597 C 89.375 142.248 94.556 139.407 94.085 138.156 C 93.528 136.673 82.602 139.52 81.901 139.704 C 82.619 139.514 93.953 136.446 94.688 132.571 Z " fill="rgb(1,1,1)"/><path d=" M 79.63 124.397 C 79.584 125.099 78.979 125.631 78.277 125.585 L 76.936 125.498 C 76.235 125.452 75.702 124.847 75.748 124.145 L 75.948 121.068 C 75.993 120.366 76.599 119.834 77.3 119.88 L 78.641 119.967 C 79.343 120.012 79.875 120.618 79.829 121.319 L 79.63 124.397 L 79.63 124.397 Z " fill="rgb(1,1,1)"/><path d=" M 153.547 201.053 C 152.639 201.053 151.838 200.396 151.686 199.471 C 151.604 198.97 141.378 148.852 144.503 100.216 C 148.381 39.839 155.581 19.4 157.434 13.68 C 150.991 11.302 125.715 3.156 81.897 3.156 C 55.119 3.156 12.961 6.622 3.832 7.4 C 4.036 13.372 4.087 33.943 6.917 61.572 C 11.118 102.585 10.686 194.704 10.698 195.711 C 10.711 196.753 9.877 197.609 8.834 197.622 C 8.826 197.622 8.818 197.622 8.81 197.622 C 7.778 197.622 6.936 196.793 6.922 195.758 C 6.91 194.753 4.752 95.483 3.152 61.855 C 1.577 28.751 0.007 5.952 0.001 5.725 C -0.027 4.727 0.727 3.88 1.721 3.792 C 2.217 3.747 36.605 -0.935 82.019 0.219 C 133.945 1.538 159.533 10.397 160.601 10.866 C 161.07 11.072 161.436 11.46 161.613 11.94 C 161.791 12.42 161.766 12.952 161.543 13.414 C 161.485 13.54 155.04 28.211 150.399 100.465 C 147.302 148.676 155.331 198.363 155.413 198.859 C 155.581 199.888 154.884 200.859 153.855 201.028 C 153.751 201.045 153.648 201.053 153.547 201.053 Z " fill="rgb(0,0,0)"/><path d=" M 12.084 266.422 C 19.561 261.154 14.489 261.284 28.479 240.586 C 42.469 219.887 57.379 208.246 57.379 208.246 C 57.379 208.246 104.668 177.934 104.072 211.673 C 103.451 246.784 104.4 254.757 96.254 266.027 C 88.109 277.296 79.381 279.034 66.44 281.722 C 53.5 284.408 30.015 283.568 26.415 286.276 C 22.815 288.984 12.084 266.422 12.084 266.422 Z " fill="rgb(236,185,137)"/><path d=" M 25.738 288.389 C 23.931 288.389 19.712 287.854 15.737 277.406 C 12.745 269.539 9.697 266.129 9.598 265.921 C 9.203 265.09 10.245 265.408 10.997 264.878 C 14.359 262.51 15.111 261.682 16.172 258.393 C 18.513 251.133 22.394 245.784 30.68 236.344 C 39.145 226.7 55.599 207.241 56.217 206.758 C 56.263 206.722 56.311 206.688 56.36 206.657 C 57.176 206.134 76.507 193.847 90.697 193.847 C 95.378 193.847 99.065 195.185 101.657 197.823 C 104.621 200.84 106.069 205.511 105.959 211.707 C 105.887 215.809 105.834 219.604 105.789 222.952 C 105.434 248.875 106.825 250.714 100.008 262.251 C 92.616 274.761 79.981 280.839 67.121 283.509 L 66.824 283.57 C 60.702 284.841 52.548 286.323 44.563 285.787 C 34.56 285.115 29.008 286.688 27.55 287.785 C 27.024 288.18 26.398 288.389 25.738 288.389 Z  M 14.471 267.007 C 15.335 268.751 16.933 271.893 18.748 275.067 C 22.997 282.499 25.808 285.914 26.415 286.276 C 28.927 284.773 34.203 282.604 44.345 282.017 C 51.745 281.588 60.134 281.102 66.056 279.873 L 66.353 279.811 C 78.828 277.221 87.07 275.51 94.724 264.921 C 101.567 255.453 101.662 248.557 102.013 222.901 C 102.059 219.549 102.111 215.749 102.184 211.639 C 102.275 206.494 101.191 202.736 98.964 200.469 C 97.109 198.58 94.327 197.622 90.697 197.622 C 78.024 197.622 59.806 208.948 58.474 209.787 C 57.376 210.664 43.212 222.159 30.044 241.643 C 23.242 251.706 21.067 256.646 19.628 259.914 C 18.223 263.103 17.43 264.708 14.471 267.007 Z " fill="rgb(0,0,0)"/><path d=" M 67.437 155.573 C 61.387 156.132 49.463 156.918 44.144 160.165 C 44.144 160.165 44.103 168.063 44.161 172.963 C 44.254 180.793 44.267 188.617 44.647 196.441 C 45.507 214.158 47.17 250.96 46.445 251.274 C 52.593 255.174 65.945 254.693 72.705 254.872 C 80.959 255.091 93.977 255.9 101.573 252.103 C 102.678 251.55 106.809 211.673 107.067 203.519 C 107.296 196.289 107.097 189.056 107.479 181.832 C 107.768 176.389 107.717 165.221 107.9 159.791 C 107.9 159.791 100.56 157.127 90.426 156.292 C 82.79 155.663 75.075 154.866 67.437 155.573 Z " fill="rgb(255,255,255)"/><path d=" M 95.793 153.032 C 82.859 151.972 69.529 151.135 56.661 152.065 C 47.88 152.701 39.131 150.707 38.462 160.717 C 37.638 173.027 38.909 192.76 39.683 205.047 C 40.618 219.891 42.378 234.675 44.645 249.371 C 44.716 249.824 44.94 250.201 45.249 250.51 C 43.89 251.11 43.172 252.54 44.906 253.805 C 50.578 257.942 59.273 258.192 65.971 258.758 C 75.597 259.571 85.433 259.491 95.01 258.146 C 97.993 257.727 98.931 258.014 101.634 256.632 C 104.628 255.101 109.119 234.065 111.604 209.952 C 112.391 202.318 112.667 197.343 112.669 189.677 C 112.669 183.643 113.2 165.745 113.2 159.703 C 113.199 154.734 106.45 153.905 95.793 153.032 Z  M 107.479 181.832 C 107.097 189.056 107.296 196.289 107.067 203.519 C 106.808 211.673 102.678 251.55 101.573 252.102 C 93.976 255.9 80.959 255.091 72.704 254.872 C 65.944 254.693 52.592 255.174 46.445 251.274 C 47.17 250.96 45.507 214.158 44.647 196.441 C 44.267 188.616 44.254 180.793 44.161 172.962 C 44.103 168.063 44.143 160.164 44.143 160.164 C 49.463 156.918 61.387 156.132 67.437 155.572 C 75.074 154.866 82.79 155.663 90.426 156.292 C 100.559 157.126 107.899 159.79 107.899 159.79 C 107.716 165.22 107.768 176.388 107.479 181.832 Z " fill="rgb(1,1,1)"/><path d=" M 63.583 199.165 C 68.639 199.165 72.737 195.067 72.737 190.011 C 72.737 184.955 68.639 180.856 63.583 180.856 C 58.527 180.856 54.429 184.955 54.429 190.011 C 54.429 195.067 58.527 199.165 63.583 199.165 Z " fill="rgb(196,196,195)"/><path d=" M 87.811 199.165 C 92.867 199.165 96.965 195.067 96.965 190.011 C 96.965 184.955 92.867 180.856 87.811 180.856 C 82.755 180.856 78.657 184.955 78.657 190.011 C 78.657 195.067 82.755 199.165 87.811 199.165 Z " fill="rgb(196,196,195)"/><path d=" M 63.583 222.449 C 68.639 222.449 72.737 218.351 72.737 213.295 C 72.737 208.239 68.639 204.14 63.583 204.14 C 58.527 204.14 54.429 208.239 54.429 213.295 C 54.429 218.351 58.527 222.449 63.583 222.449 Z " fill="rgb(196,196,195)"/><path d=" M 87.811 222.449 C 92.867 222.449 96.965 218.351 96.965 213.295 C 96.965 208.239 92.867 204.14 87.811 204.14 C 82.755 204.14 78.657 208.239 78.657 213.295 C 78.657 218.351 82.755 222.449 87.811 222.449 Z " fill="rgb(196,196,195)"/><path d=" M 39.739 235.925 C 39.739 235.925 65.891 220.514 69.889 225.701 C 73.888 230.888 61.978 238.419 55.535 244.42 C 49.092 250.421 50.189 249.046 50.094 252.21 C 50.094 252.21 48.468 261.338 41.817 266.335 C 35.166 271.333 32.18 267.584 32.18 267.584" fill="rgb(236,185,137)"/><path d=" M 35.452 269.539 C 32.317 269.539 30.794 268.902 30.704 268.759 C 30.198 267.963 28.425 264.164 33.657 266.407 C 33.67 266.413 33.646 266.391 33.622 266.364 C 33.705 266.456 36.724 269.68 41.325 265.501 C 49.9 257.713 49.507 253.545 48.211 252.005 C 48.217 251.667 48.208 251.385 48.2 251.133 C 48.122 248.709 48.616 248.252 52.464 244.693 C 52.983 244.213 53.574 243.666 54.248 243.038 C 55.685 241.7 57.332 240.332 59.075 238.886 C 63.86 234.913 70.414 229.473 68.394 226.853 C 68.378 226.832 66.463 224.955 54.097 230.585 C 47.23 233.712 40.762 237.513 40.698 237.551 C 39.8 238.081 37.791 239.394 37.471 238.402 C 37.338 237.989 38.303 235.47 39.202 234.941 C 39.472 234.781 46.314 232.25 53.361 229.041 C 64.038 224.18 70.786 222.959 73.105 226.052 C 74.049 227.31 72.358 231.204 69.133 234.311 C 66.668 236.686 64.627 239.184 61.486 241.791 C 59.786 243.202 58.179 244.536 56.822 245.801 C 56.144 246.432 55.549 246.982 55.028 247.464 C 53.369 248.998 51.493 250.176 51.299 250.542 C 52.037 254.2 49.244 264.819 44.13 267.389 C 40.742 269.091 37.355 269.539 35.452 269.539 Z " fill="rgb(0,0,0)"/><circle vector-effect="non-scaling-stroke" cx="63.5" cy="190.5" r="9.5" fill="rgb(85,175,138)"/><path d=" M 68.412 194.632 L 63.662 184.182 L 58.912 194.632 L 63.662 193.682 L 68.412 194.632 L 68.412 194.632 Z " fill-rule="evenodd" fill="rgb(241,245,241)"/><circle vector-effect="non-scaling-stroke" cx="63.5" cy="190.5" r="9.5" fill="rgb(196,196,196)"/><path d=" M 68.412 194.632 L 63.662 184.182 L 58.912 194.632 L 63.662 193.682 L 68.412 194.632 L 68.412 194.632 Z " fill-rule="evenodd" fill="rgb(241,245,241)"/><path d=" M 63.5 223 C 58.257 223 54 218.743 54 213.5 C 54 208.257 58.257 204 63.5 204 C 68.743 204 73 208.257 73 213.5 C 73 218.743 68.743 223 63.5 223 Z " fill="rgb(85,175,138)"/><path d=" M 67.633 208.588 L 57.183 213.338 L 67.633 218.088 L 66.683 213.338 L 67.633 208.588 L 67.633 208.588 Z " fill-rule="evenodd" fill="rgb(241,245,241)"/><path d=" M 88.5 181 C 93.743 181 98 185.257 98 190.5 C 98 195.743 93.743 200 88.5 200 C 83.257 200 79 195.743 79 190.5 C 79 185.257 83.257 181 88.5 181 Z " fill="rgb(196,196,196)"/><path d=" M 84.368 195.412 L 94.818 190.662 L 84.368 185.912 L 85.318 190.662 L 84.368 195.412 L 84.368 195.412 Z " fill-rule="evenodd" fill="rgb(241,245,241)"/><path d=" M 98 213.5 C 98 218.743 93.743 223 88.5 223 C 83.257 223 79 218.743 79 213.5 C 79 208.257 83.257 204 88.5 204 C 93.743 204 98 208.257 98 213.5 Z " fill="rgb(196,196,196)"/><path d=" M 83.588 209.368 L 88.338 219.818 L 93.088 209.368 L 88.338 210.318 L 83.588 209.368 L 83.588 209.368 Z " fill-rule="evenodd" fill="rgb(241,245,241)"/><circle vector-effect="non-scaling-stroke" cx="50" cy="247" r="12" fill="rgb(242,49,47)" fill-opacity="0.8"/></g></svg>