<svg width="162" height="289" viewBox="0 0 162 289" fill="none" xmlns="http://www.w3.org/2000/svg">
<path d="M154.571 206C154.571 206 145.522 151.391 148.669 101.305C153.432 25.5224 160 11.5822 160 11.5822C160 11.5822 134.191 0 82.032 0C51.5771 0 2 4.5042 2 4.5042C2 4.5042 2.62948 27.6686 5.14741 61.8053C7.66534 95.9419 8.9243 198.842 8.9243 198.842C8.9243 198.842 28.837 204.15 35.4818 204.072C128.894 202.971 154.571 206 154.571 206Z" fill="#E6ECF6"/>
<path d="M99.0382 100.276C98.3781 98.7763 97.6937 97.177 96.6856 96.3403C95.1482 95.0641 92.8698 95.521 90.0464 95.9316C89.0871 83.4494 89.6254 78.7879 82.9684 78.2775C82.5282 78.128 81.992 86.6456 81.5534 86.522C77.8918 86.37 70.872 83.967 67.5052 84.2949C64.8763 85.5248 66.1956 90.3434 65.3253 94.0846C63.2845 94.0846 61.743 94.521 60.3928 95.1396C62.3975 102.304 66.9555 115.117 74.5446 118.243C82.4587 121.502 93.3471 109.283 99.0382 100.276Z" fill="#ECB989"/>
<path d="M62.2335 91.2508C63.3751 90.0601 65.1651 89.3487 66.8601 89.3887L66.9394 89.3915L67.5149 89.4173L67.1301 91.3036L67.1106 91.393L67.0322 91.7206L66.9278 92.1494L66.8906 92.3071L66.8516 92.482C66.8453 92.5103 66.8394 92.5383 66.8334 92.566L66.8164 92.6488L66.6524 93.4502L66.683 93.5219L66.6745 93.7038C66.649 94.3624 66.7909 94.7242 67.103 94.84L67.1282 94.8488L67.3063 94.9061L67.4517 95.222C67.7865 95.9438 68.0989 96.5744 68.4195 97.1684C69.3543 98.9006 70.4701 100.632 71.7561 102.372C72.9782 104.026 74.2513 105.604 75.575 107.103C76.1703 107.777 76.799 108.453 77.4679 109.141L78.044 109.731L78.2272 109.917L78.3502 110.04L78.5041 110.191L78.7256 110.402L78.886 110.56L78.938 110.609C79.0034 110.67 79.0541 110.711 79.0997 110.741L79.117 110.751L79.1677 110.781L81.8378 113.59L82.7808 114.108L83.2288 114.356L83.3195 114.176L83.338 114.118L84.3304 111.938L84.9368 110.603C86.1806 107.856 87.1481 105.672 88.0333 103.591L88.1434 103.331L88.4697 102.557L88.6424 102.144C89.4337 100.249 90.0181 98.7851 90.541 97.3641L90.6153 97.1609L90.7254 96.8572L90.8893 96.3994L90.9189 96.3211C91.0611 95.9576 90.7122 94.6358 90.3683 93.9118L90.3484 93.8712L90.2597 93.6922L90.1625 93.5024C89.9353 93.0594 89.7707 92.5667 89.6323 91.9707C89.6099 91.8741 89.5886 91.7775 89.5691 91.679L89.5401 91.5315L89.5215 91.4345L89.496 91.2989L89.4599 91.1045L90.2286 90.9761L90.6505 90.9072L90.8349 90.8782C91.0734 90.8414 91.2855 90.8112 91.485 90.786L91.5592 90.7766L91.693 90.7609L91.698 90.7873L91.9723 90.8144L92.1759 90.8354C93.1794 90.9415 93.9534 91.0585 94.5031 91.1882L94.5572 91.2011L94.6557 91.2259L94.7007 91.2373C95.201 91.3722 95.5858 91.6633 95.8907 92.0922C96.0999 92.3864 96.2356 92.668 96.4505 93.2019L96.5272 93.3945L96.783 94.0266C96.8133 94.1037 96.8592 94.2267 96.9218 94.396L97.1383 94.9866L97.7509 95.5911L101.171 96.0948C106.1 96.3985 139.558 109.352 138.213 182.397L138.269 183.183L138.384 184.892L138.452 185.866L138.46 185.997L138.487 186.505L138.495 186.624C138.505 186.776 138.516 186.905 138.531 187.024L138.543 187.112L138.556 187.197C138.594 187.43 138.669 187.638 138.793 187.87L138.825 187.929L139.038 188.31L138.652 188.513C136.639 189.573 120.092 190.04 114.657 190.065L114.492 190.065H114.152C111.512 190.064 108.713 189.962 105.792 189.787L105.132 189.747L104.581 189.712C104.343 189.697 104.112 189.681 103.872 189.665L103.505 189.638L101.969 189.526C95.0616 188.864 87.8177 188.876 79.8363 189.473C59.9652 190.751 44.9189 189.032 33.5122 188.642C30.6939 188.546 19.0858 171.022 19.156 161.982C19.9967 154.592 21.2843 147.425 23.0356 140.499L23.2118 139.807C25.1057 132.405 26.9313 126.698 29.2521 121.421C32.2042 114.709 35.8032 109.185 40.3351 104.769C42.8265 102.34 45.5856 100.291 48.5179 98.7193C49.8665 97.9963 51.2997 97.3547 52.8368 96.7776L53.057 96.6958L53.4126 96.5659L53.6851 96.4652L54.5642 96.1367C54.7489 96.0675 54.95 95.99 55.1875 95.8963L55.3348 95.8384L56.9086 95.2103L57.1701 95.1078L57.4606 94.9945L57.6742 94.9127C58.0235 94.7793 58.3397 94.6632 58.6333 94.5606L58.8073 94.5011L58.9646 94.4483L59.6364 94.2157L59.6235 94.8265C59.6147 95.2327 59.7191 95.5401 59.9516 95.7607L59.9595 95.7673L59.9671 95.7739L59.9743 95.7786L60.0152 95.7773L60.1738 95.7767C60.1902 95.7676 60.2056 95.7569 60.2197 95.7446C60.446 95.553 60.5507 95.2953 60.6524 94.7053L60.6794 94.5414L60.7266 94.2337L60.7458 94.1172C60.8135 93.7079 60.8723 93.4817 60.9878 93.223C61.1543 92.8492 61.3742 92.4848 61.6328 92.1504L61.6932 92.0736L61.9349 91.7832L61.972 91.7372C62.057 91.6284 62.1001 91.5519 62.1183 91.4814L62.1227 91.4625L62.1467 91.3401L62.2335 91.2508Z" fill="#55AF8A"/>
<path d="M47.9436 72.62C48.3825 74.3241 48.8416 76.0229 49.3227 77.7151C50.1455 80.603 50.778 83.9339 53.4594 85.7041C54.6479 86.5131 56.077 86.9419 57.4573 87.2896C73.5715 91.8895 87.957 87.0719 90.9557 69.1639C91.1857 64.1971 93.6859 66.911 96.2229 64.5222C97.9698 62.621 97.1373 59.753 95.6701 57.9884C94.7044 56.828 93.4694 55.936 92.426 54.8514C86.7154 48.7503 87.0084 38.9411 80.4306 33.4542C80.9073 32.5911 80.7141 31.2938 79.4889 30.9128C78.0714 30.4723 76.6259 30.1375 75.1586 29.9169C69.0116 28.9934 62.757 29.8228 56.8479 31.6519C51.6115 33.5197 44.2518 35.2314 43.0851 41.5848C42.6962 44.9496 44.6061 45.1498 44.9355 48.491C45.881 55.5568 46.1636 65.7178 47.9436 72.62Z" fill="#ECB989"/>
<path d="M83.6345 26.3048C84.2371 25.9461 84.9403 25.7164 85.5611 25.6604C86.5771 25.5688 87.6142 25.8872 88.41 26.5254C89.6188 27.4938 89.9992 29.0391 89.6541 30.4412C89.7834 30.4988 89.9083 30.5714 90.0269 30.6539C90.9639 31.3118 91.1839 32.4269 90.9111 33.493C90.6805 34.4023 89.442 35.856 89.9552 36.7861C90.1874 37.2099 90.7031 37.5268 91.0436 37.8631C91.4677 38.281 91.8522 38.7328 92.2134 39.2061C95.0201 42.8702 95.5616 47.4701 95.7278 51.9315L95.7426 52.3311C95.7784 53.2244 95.8678 54.2586 95.7992 55.2532C98.9797 57.8362 99.8783 63.4219 96.5663 66.2547C95.753 66.9519 94.7813 67.4818 93.7351 67.726C93.1885 67.8512 92.6036 67.9292 92.0435 67.888C91.7638 67.8676 91.4809 67.8216 91.2336 67.6929C91.4341 70.3426 90.9699 72.957 90.1899 75.5079C89.7497 76.943 89.1862 78.4096 88.426 79.7072C87.6224 81.0769 86.0195 82.6341 84.3324 81.6659C83.7584 81.3371 83.7169 80.5977 84.1266 80.1295C84.8925 79.2488 85.7785 78.5972 86.3893 77.5745C87.0689 76.4368 87.6806 75.2411 88.2369 74.0391C89.0317 72.3252 89.6503 70.5223 90.2447 68.72L90.7292 67.2468C90.7264 67.243 90.7236 67.2395 90.7211 67.2358L90.7063 67.2118C90.7009 67.1996 90.6956 67.1876 90.6902 67.176L90.6358 67.0526C90.6285 67.0444 90.6191 67.0331 90.6081 67.0202L90.5555 66.9541C90.1745 66.5379 90.3387 65.8979 90.879 65.728C91.0549 65.6811 91.0775 65.6688 90.9476 65.6911L90.8947 65.7003C91.0527 65.541 91.2402 65.4316 91.4589 65.373C91.7144 65.3044 91.9815 65.3271 92.2421 65.3214C92.6269 65.3142 92.9651 65.2906 93.3364 65.1899C94.0988 64.9832 94.7747 64.5653 95.3099 63.9857C96.5449 62.6475 96.4338 60.5173 95.7517 58.9324C95.5581 58.4834 95.3275 58.0722 95.0579 57.7044C94.9046 57.9262 94.7218 58.1291 94.5053 58.312C94.4733 58.34 94.4298 58.2972 94.4575 58.2648C94.658 58.0439 94.8159 57.8016 94.937 57.5461C94.2121 56.6217 93.2326 55.9779 92.0035 55.6717C91.2276 55.4788 90.4174 55.505 89.6739 55.7318C89.6777 55.7545 89.6792 55.7774 89.6805 55.8004C89.7132 56.251 89.5685 56.5213 89.3426 56.8605L89.2614 56.9804C88.9502 57.4335 88.4257 57.5404 88.0125 57.3032L88.0075 57.3161C87.876 57.2415 87.7611 57.1688 87.6598 57.0955C87.5384 57.2497 87.4295 57.4158 87.3313 57.593C87.2951 57.6581 87.1922 57.6138 87.2095 57.5417C87.264 57.3202 87.3357 57.1056 87.4248 56.9011C87.173 56.6575 87.0239 56.3687 86.9025 55.9194C86.7316 55.2866 86.5856 54.6447 86.4311 54.0079C86.1325 52.7763 85.8673 51.5366 85.5869 50.3003C85.3497 49.2554 85.2294 48.0468 84.799 47.0594C84.5485 46.4849 84.1496 46.4405 83.6128 46.4289L82.9164 46.4147C81.2768 46.376 79.5871 46.2297 78.7747 44.5171C77.9079 42.6864 78.7024 40.6425 78.3084 38.7288C77.9639 37.052 77.0077 35.5064 75.706 34.3913C74.8611 34.8702 74.0244 35.3629 73.1516 35.7953C71.944 36.3947 70.725 36.968 69.4957 37.5205C67.0804 38.6064 64.6356 39.6123 62.1341 40.487C57.1211 42.2384 51.9165 43.4274 46.6376 44.0212C45.8865 44.1064 45.1336 44.1719 44.3778 44.2056C44.4146 44.3261 44.4533 44.4482 44.4929 44.5693C44.7166 45.2464 44.919 45.9248 45.1046 46.6123C45.1761 46.7854 45.2223 46.9817 45.2465 47.2026L45.2745 47.4606C45.2937 47.6406 45.2676 47.8168 45.2034 47.982C45.9803 51.856 46.4825 55.7809 47.0092 59.6983L47.136 60.6353C47.7703 65.3195 48.4358 70.0012 49.1919 74.6672C49.5572 76.9289 49.7454 79.4455 50.8256 81.5039C51.7007 83.1734 53.2028 84.2514 54.9082 84.9779C58.9162 86.6893 63.5286 87.2919 67.8541 87.2598C70.1703 87.2431 72.662 87.1774 74.9039 86.5487C75.7062 86.3234 76.5347 85.9971 77.1782 85.4524C77.7285 84.9877 77.9805 84.349 78.1876 83.6788L78.2272 83.5485C78.3975 82.9815 79.2826 82.7738 79.5727 83.3704C80.4336 85.135 79.0623 86.7444 77.5797 87.6238C75.8922 88.6244 73.9279 88.8957 72.0075 89.1077L71.6756 89.1436C66.6981 89.682 61.7213 89.3003 56.8247 88.3085C54.6574 87.8702 52.5354 87.066 50.774 85.7054C48.8099 84.1882 47.7555 82.0526 47.2493 79.655C46.6939 77.0126 46.4041 74.2918 46.0398 71.6185L45.9274 70.7919C45.593 68.3115 45.2726 65.829 44.9907 63.3423C44.4514 58.5782 43.9618 53.7712 43.9974 48.9719C43.9694 48.9766 43.941 48.9813 43.9127 48.9848C43.1025 49.0751 42.483 48.6025 42.2105 47.8517L41.6979 46.443L41.6309 46.4654C39.4066 47.2108 36.3926 47.7183 34.7202 45.6501C34.1369 44.9299 33.8024 44.046 33.752 43.1801C32.1376 43.1924 30.5174 42.7506 29.1346 41.9096C28.4168 41.4728 28.2296 40.6145 28.5908 39.8804C28.8051 39.4427 29.049 39.0365 29.3199 38.6586C28.24 38.5721 27.14 38.1621 26.3804 37.3833C25.4028 36.3808 25.2757 34.867 25.9449 33.6648C26.5204 32.6302 27.5405 31.9276 28.4791 31.2432L28.8123 31C32.6149 28.2358 36.8004 26.0399 41.1888 24.3634C50.0795 20.9649 59.975 19.8626 69.3802 21.428C74.3564 22.2549 79.1737 23.9386 83.6345 26.3048ZM94.1671 59.5454C93.1782 59.631 92.1115 60.1181 91.2877 60.6517C90.3705 61.247 90.014 62.0767 89.3671 62.9002C88.657 63.8042 87.0742 62.8347 87.4424 61.786C87.9084 60.4588 89.3356 59.4966 90.6106 59.0338C91.8799 58.5753 93.0504 58.7345 94.2291 59.322C94.3455 59.3786 94.276 59.535 94.1671 59.5454Z" fill="#010101"/>
<path d="M65.0725 80.3475C64.2733 80.9538 63.3171 81.3471 62.2967 81.4292C61.371 81.5035 60.31 81.293 59.4233 80.8154C58.6263 80.3852 57.9731 79.7399 57.6676 78.9026C57.6207 78.7739 57.6257 78.6493 57.6638 78.5398C57.7044 78.4243 57.784 78.324 57.8844 78.2557C57.9888 78.1846 58.1137 78.149 58.2349 78.1566C58.3441 78.1632 58.4514 78.2025 58.5429 78.2843C58.6751 78.3668 58.806 78.4467 58.9366 78.5235C59.9828 79.1301 60.9229 79.5313 62.0837 79.3563C62.6935 79.2645 63.2337 78.997 63.679 78.6138C64.1406 78.216 64.4999 77.695 64.727 77.116L64.7541 77.0459C64.8784 76.6997 65.0965 76.4902 65.3425 76.3816C65.626 76.2558 65.9564 76.2649 66.25 76.3838C66.5436 76.5021 66.7953 76.7284 66.9255 77.0172C67.0416 77.2743 67.0662 77.5826 66.9321 77.9174C66.5464 78.8784 65.8928 79.7248 65.0725 80.3475ZM55.8502 69.5846C54.057 74.8103 63.6409 76.8388 62.4622 68.2687C62.2743 67.2218 60.5022 67.3952 60.5759 68.4524C60.7615 69.6506 61.2558 72.1464 59.3566 72.653C57.3875 72.8887 56.8388 70.7289 56.7821 69.4769C56.74 69.134 56.0478 69.0091 55.8502 69.5846ZM71.1129 61.0298C71.4653 61.853 70.4735 62.9514 69.5 62.3863C68.4812 61.7944 67.7565 61.0088 67.3616 59.9267C66.9208 58.7181 69.0038 57.8512 69.746 58.9012C70.2086 59.5541 70.6409 59.9264 71.1129 61.0298ZM53.2854 63.0128C54.5765 63.3007 55.1654 65.0545 54.9568 66.2241C54.8275 66.9412 53.8477 67.3225 53.253 66.9358C52.1574 66.2225 50.5307 64.3982 51.7443 63.1292C52.1325 62.723 52.6621 62.7393 53.136 62.9372C53.1907 62.9599 53.2392 62.9857 53.2854 63.0128ZM68.1838 52.8996C69.7851 53.2341 71.5046 54.0251 72.6122 55.2532C72.7321 55.3863 72.6204 55.6424 72.4259 55.5763C70.9414 55.0694 69.5349 54.6223 67.9497 54.5962C67.2266 54.5842 66.5262 54.6484 65.8186 54.7954C64.9599 54.9731 64.2387 55.4036 63.38 55.0216C62.8917 54.8048 62.8253 54.1469 63.033 53.7274C63.4244 52.937 64.4496 52.8039 65.2815 52.7287L65.5505 52.7045C66.4224 52.6265 67.3299 52.7212 68.1838 52.8996ZM52.193 56.6282C52.4154 56.6562 52.6278 56.7512 52.8046 56.9233C53.0406 57.1527 53.1237 57.3761 53.129 57.6993C53.1338 57.9485 53.0535 58.1587 52.9204 58.3305C52.7807 58.5114 52.5791 58.6492 52.3547 58.7386C51.3204 59.1501 50.3321 59.6668 49.3992 60.2737C48.9621 60.5585 48.5666 60.8917 48.1777 61.2309L47.8426 61.5248C47.533 61.7948 47.2102 62.0606 46.7778 62.3073C46.7435 62.3271 46.7102 62.346 46.6765 62.364C46.5371 62.3573 46.5019 62.3146 46.4651 62.2866L46.45 62.2755C46.4053 62.2428 46.3477 62.1903 46.3068 61.8819C46.7574 59.5057 49.301 57.866 51.3223 56.8444L51.5089 56.7509C51.7279 56.6424 51.9658 56.5996 52.193 56.6282Z" fill="#010101"/>
<path d="M74.1871 78.8255C74.4228 79.3699 74.57 79.9454 74.6021 80.547C72.6821 82.843 70.0117 84.4949 67.0137 84.9354C65.8073 84.0541 64.2913 82.4063 62.7089 82.5935C60.9362 82.803 60.4746 84.8873 59.3305 86.0235C59.2663 86.0867 59.1953 86.1503 59.1213 86.2142C58.2346 86.3746 57.3098 86.4051 56.4477 86.105C55.5642 85.7979 55.0972 85.1868 54.748 84.4153C54.7448 84.2514 54.7442 84.0871 54.7477 83.9235C54.7672 82.7712 54.9239 81.6108 55.321 80.5268C55.6536 79.6131 56.195 78.7651 56.9817 78.183C57.903 77.5009 59.0521 77.1003 60.1172 76.702C62.1485 75.9399 64.2922 75.348 66.4759 75.3109C69.45 75.2628 72.3822 76.5239 74.1871 78.8255ZM52.1487 82.6177C52.1213 82.9534 52.1898 86.4914 53.2181 88.2531C54.208 89.9494 55.5755 91.4433 57.1264 92.6607C58.5499 93.7787 60.1854 94.5867 61.9966 94.7912C64.3596 95.0574 66.846 94.138 69.0196 93.3234C71.7334 92.3055 74.306 90.9515 76.7153 89.3446C77.9213 88.5426 79.0837 87.6776 80.2161 86.7764C81.3296 85.8916 82.5244 84.9939 83.5149 83.9682C84.3663 83.0859 84.9755 81.894 85.5809 80.8396C86.5358 79.1786 87.4474 77.4684 88.1818 75.6963C88.8683 74.0425 89.3158 72.5612 89.1179 70.7551C88.7847 67.7281 87.4782 64.7912 86.3168 62.0031C86.2819 61.9156 86.1265 61.9052 86.1217 62.0068C86.1107 61.9556 86.1 61.904 86.089 61.8527C86.0406 61.6334 85.7165 61.6891 85.7108 61.9008C85.6287 64.475 85.0346 66.956 83.8358 69.24C82.1842 72.3828 79.6799 74.9283 77.2798 77.5204C77.1583 77.4543 77.023 77.4213 76.8921 77.4301C75.9714 75.6639 74.1235 74.2883 72.4408 73.4655C67.5136 71.0615 60.7109 71.2831 56.331 74.7282C54.4796 76.185 53.1379 78.2268 52.518 80.5033C52.3296 81.1923 52.2062 81.9031 52.1487 82.6177Z" fill="#010101"/>
<path d="M68.2302 85.9675C68.2516 85.9508 68.2852 85.9439 68.3057 85.9675C68.6411 86.3589 68.5731 86.9577 68.5842 87.4542L68.5854 87.5001C68.6093 88.2257 68.6141 88.9488 68.6115 89.6747L68.6043 91.9855C68.6033 92.3033 68.5775 92.634 68.5939 92.953L68.6021 93.077C68.7789 93.2579 68.8604 93.5188 68.8009 93.7812C68.7902 94.1172 68.614 94.3982 68.3579 94.5744L68.9076 95.3544L69.4579 96.1342C70.5919 97.7433 71.7391 99.3379 72.9345 100.903C74.1531 102.498 75.4533 104.033 76.8138 105.51C77.4787 106.231 78.1546 106.942 78.8465 107.638C79.1275 107.92 79.4157 108.196 79.7004 108.475L79.9839 108.755C80.151 108.922 80.3618 109.088 80.4735 109.3C80.5387 109.425 80.5538 109.734 80.577 109.785C80.7869 110.247 80.4288 110.983 79.8338 110.752L79.8609 110.734C79.9691 110.659 79.8996 110.657 79.6523 110.73C79.4965 110.73 79.3502 110.694 79.2137 110.623L79.1728 110.601C78.9805 110.503 78.8087 110.314 78.6523 110.162L78.6136 110.125C78.2559 109.791 77.9151 109.435 77.5724 109.085C76.8575 108.354 76.1584 107.608 75.4813 106.842C74.1314 105.313 72.8517 103.723 71.6394 102.083C70.4047 100.412 69.2572 98.6558 68.2701 96.828C67.896 96.1342 67.5524 95.4271 67.2233 94.7116C66.5826 94.5061 66.4338 93.8246 66.4788 93.0566C66.2419 92.5059 66.0289 91.9443 65.9033 91.37C65.886 91.2914 65.9873 91.2174 66.0481 91.2857C66.2526 91.5185 66.4426 91.7665 66.6248 92.0207C66.7349 91.4827 66.8743 90.9871 66.9398 90.6712L67.2236 89.2776C65.623 89.1939 63.8688 89.8518 62.7653 91.0031C62.7062 91.303 62.4755 91.5176 62.2505 91.7973C61.9935 92.1183 61.7694 92.4773 61.602 92.8533C61.2311 93.6865 61.4403 94.9149 60.7207 95.5262C60.6458 95.5898 60.5618 95.6342 60.4756 95.6615C60.817 97.3361 60.6622 99.1819 60.6543 100.881L60.654 101.03C60.6559 102.932 60.5926 104.835 60.5187 106.735L60.4441 108.615C60.3472 111.123 60.2843 113.632 60.5285 116.126C61.6407 115.141 62.7908 114.2 63.9811 113.304C64.7637 112.715 65.5619 112.147 66.3743 111.6L67.0348 111.158C67.8258 110.628 68.6364 110.082 69.5026 109.702C70.636 109.205 71.7134 109.376 72.8071 109.885C73.8967 110.393 74.9536 110.982 76.0222 111.533C77.109 112.092 78.198 112.647 79.2867 113.203C80.0075 113.571 81.0641 113.904 81.5927 114.582C81.6267 114.432 81.6657 114.283 81.7117 114.133C81.6594 113.906 81.6796 113.66 81.8073 113.426C83.5842 110.161 85.2285 106.818 86.8609 103.478C87.6872 101.789 88.4729 100.079 89.301 98.3899L90.1059 96.7449C90.2406 96.4708 90.3753 96.1971 90.5112 95.9236C90.7141 95.5143 90.9253 95.109 91.131 94.7006C91.2173 94.5282 91.3264 94.3567 91.4111 94.1827L91.451 94.0955C91.4529 94.0908 91.648 93.4776 91.4973 93.5364L91.4844 93.5427C91.4073 93.5864 91.3459 93.4895 91.3956 93.4278C91.6087 93.1645 91.9054 93.3976 92.0269 93.6418C92.3617 94.3126 91.7481 95.3658 91.5121 96.0083L91.4992 96.0442C90.7667 98.1177 89.9373 100.153 89.0877 102.18C87.4584 106.067 85.708 109.894 83.9617 113.728L83.941 113.794C84.3135 113.509 84.7109 113.25 85.0514 112.998C85.9104 112.361 86.7945 111.756 87.6771 111.153C89.296 110.047 90.9586 109.014 92.6489 108.022L92.9868 107.824C93.8314 107.332 94.6677 106.933 95.6692 107.081C96.6003 107.218 97.4659 107.718 98.307 108.125L98.3938 108.166L100.992 109.402C100.715 108.294 100.414 107.191 100.1 106.093C99.4882 103.95 98.8145 101.825 98.0842 99.7199C97.402 97.7527 96.6648 95.8066 95.8848 93.8765L95.65 93.2973C95.3319 92.5025 95.0157 91.6356 94.107 91.3905C93.1986 91.146 92.1568 91.5088 91.3267 90.9909C91.2512 90.944 91.2607 90.8191 91.3519 90.7964L91.8642 90.6674C92.8261 90.428 93.9538 90.1873 94.8628 90.4201C95.8527 90.6737 96.6714 91.5044 97.1516 92.3681C97.6855 93.3287 98.0618 94.4039 98.4671 95.4281L98.5313 95.5898C98.9967 96.749 99.4435 97.9154 99.872 99.0887C100.728 101.434 101.506 103.808 102.212 106.204C102.552 107.359 102.874 108.518 103.184 109.681C103.273 110.016 103.42 110.422 103.54 110.844C103.678 110.979 103.809 111.129 103.932 111.301C104.135 111.585 103.99 111.919 103.736 112.089C103.727 112.38 103.662 112.654 103.507 112.889C102.904 113.805 101.308 113.569 101.373 112.337C101.383 112.149 101.457 111.969 101.568 111.817L101.565 111.792L101.552 111.747C101.275 111.614 100.997 111.466 100.704 111.321L97.9766 109.974C97.1865 109.583 96.3111 108.98 95.4326 108.831C94.6133 108.692 93.7495 109.303 93.046 109.671L93.0001 109.694C91.2994 110.566 89.611 111.467 87.9292 112.375C87.1082 112.819 86.2974 113.281 85.4799 113.729C84.7962 114.105 84.0577 114.643 83.2893 114.855C82.9612 115.111 82.5713 115.076 82.2579 114.883C82.4011 115.77 82.3922 116.681 82.4363 117.588C82.4951 118.8 82.5043 120.016 82.5235 121.23L82.5313 121.686C82.5829 124.37 82.6106 127.055 82.621 129.74C82.6572 139.3 82.5512 148.863 82.5269 158.424C82.5144 163.227 82.419 168.035 82.2944 172.836C82.2415 174.871 82.1308 176.903 82.0115 178.935L81.9458 180.043C81.807 182.381 81.7246 184.745 81.2916 187.051C81.2353 187.352 80.7262 187.36 80.6761 187.051C80.2778 184.58 80.2558 182.054 80.179 179.554L80.163 179.054C80.0711 176.369 80.0273 173.686 80.0371 171C80.0708 161.435 80.3193 151.877 80.5229 142.316C80.6249 137.511 80.6941 132.706 80.8527 127.903C80.9323 125.5 81.0223 123.098 81.1286 120.697C81.1764 119.624 81.2221 118.553 81.2932 117.482L81.3256 117.023C81.3476 116.724 81.3655 116.428 81.3873 116.135C80.4197 116.488 79.5346 115.834 78.6643 115.386C77.6612 114.87 76.6584 114.353 75.6546 113.838L74.6506 113.323L72.6403 112.298C71.7351 111.836 71.0378 111.376 70.0727 111.918C66.5949 113.869 63.3993 116.466 60.5033 119.19C59.9476 119.712 58.7743 119.572 58.6336 118.696C58.0327 114.956 58.3983 111.161 58.7054 107.408L58.818 106.015C58.9555 104.352 59.1044 102.688 59.3032 101.031C59.3923 100.289 59.481 99.5487 59.5789 98.8084L59.6544 98.2536C59.7768 97.3767 59.8567 96.5048 60.1182 95.6641C60.0357 95.6373 59.9564 95.5939 59.8856 95.5266C59.1003 94.7815 59.4791 93.4879 59.8375 92.6019C60.1912 91.7268 60.7308 90.9635 61.4067 90.3059C61.5539 90.1624 61.7616 90.0699 61.9705 90.0652C63.6089 88.9796 65.4062 88.4378 67.2765 89.0303C67.329 88.7792 67.3828 88.5281 67.4394 88.278L67.4967 88.0281C67.6408 87.4083 67.6946 86.3828 68.2302 85.9675Z" fill="#010101"/>
<path d="M85.0218 184.002C85.5302 183.863 86.0869 184.01 86.4594 184.382C86.8319 184.755 86.9789 185.311 86.8392 185.82C86.7687 186.07 86.6425 186.287 86.4594 186.472C86.2882 186.642 86.0881 186.763 85.8606 186.836L85.8075 186.852L85.7244 186.886C85.4692 186.955 85.2143 186.955 84.9595 186.886C84.7162 186.818 84.5045 186.695 84.3248 186.517C84.1464 186.337 84.0234 186.125 83.9551 185.882C83.8862 185.626 83.8862 185.372 83.9551 185.117L83.9894 185.034C84.0599 184.783 84.1861 184.566 84.3692 184.382C84.5542 184.199 84.7716 184.073 85.0218 184.002Z" fill="#010101"/>
<path d="M115.209 133.336C115.293 133.24 115.428 133.363 115.376 133.464C114.584 135.017 113.702 136.559 112.834 138.072C112.904 138.491 112.973 138.907 113.052 139.313C113.39 141.041 113.804 142.738 114.074 144.483C115.044 150.755 115.548 157.094 115.98 163.422C116.413 169.772 116.469 176.126 116.533 182.489C116.54 183.04 116.115 183.681 115.547 183.785C115.286 183.833 115.092 183.823 114.832 183.785C114.241 183.698 113.87 183.02 113.845 182.489C113.675 178.933 113.447 175.381 113.183 171.83C112.714 165.535 112.428 159.224 112.049 152.923L111.916 150.72C111.773 148.334 111.642 145.946 111.599 143.555C111.571 141.972 111.655 140.389 111.604 138.808C111.556 137.347 111.408 135.76 111.729 134.325C111.741 134.272 111.826 134.258 111.851 134.309C112.185 135.014 112.397 135.78 112.561 136.562C113.424 135.471 114.302 134.377 115.209 133.336Z" fill="#010101"/>
<path d="M102.546 95.1217C104.065 95.4005 105.56 95.8888 106.983 96.4879C109.805 97.6754 112.422 99.2518 114.826 101.143C119.996 105.212 123.914 110.626 126.9 116.447C130.117 122.717 132.375 129.464 134.281 136.232C136.302 143.407 137.844 150.718 138.873 158.101C139.452 162.253 139.856 166.431 140.102 170.617C140.223 172.68 140.305 174.745 140.345 176.811C140.367 177.889 140.38 178.967 140.376 180.045C140.374 180.58 140.405 181.129 140.361 181.662C140.32 182.159 140.04 182.522 139.753 182.902L139.654 183.035C139.385 183.399 138.909 183.419 138.644 183.035C138.42 182.711 138.118 182.369 138.011 181.98C137.895 181.56 137.972 181.016 137.973 180.583C137.974 179.64 137.97 178.697 137.959 177.754C137.936 175.912 137.882 174.071 137.797 172.231C137.629 168.642 137.342 165.058 136.937 161.488C136.115 154.269 134.848 147.106 133.067 140.061C129.861 127.381 125.485 113.888 115.883 104.532C113.478 102.188 110.759 100.14 107.796 98.5523C106.282 97.7402 104.707 97.059 103.093 96.4731L102.956 96.4231C101.357 95.8375 99.7219 95.1487 98.0294 94.9524C97.9133 94.9389 97.9082 94.757 98.0294 94.7658C99.5466 94.8844 101.042 94.846 102.546 95.1217Z" fill="#010101"/>
<path d="M85.3131 172.04C85.5818 172.038 85.8811 172.097 86.1114 172.245L86.4191 172.483C86.5028 172.59 86.5853 172.698 86.668 172.805C86.8606 173.056 86.8861 173.462 86.8458 173.761C86.8367 173.96 86.7775 174.146 86.668 174.318L86.4342 174.621C86.2086 174.805 86.0211 174.936 85.748 175.024C85.6054 175.07 85.4682 175.08 85.3317 175.073L85.2857 175.07L85.3131 175.074L85.2653 175.068C85.2206 175.065 85.1763 175.06 85.1313 175.054C85.1007 175.049 85.0705 175.047 85.0397 175.043C85.0101 175.041 84.9818 175.04 84.9525 175.042C84.6055 175.075 84.2575 174.878 84.0114 174.653C83.7899 174.449 83.5907 174.017 83.6219 173.712L83.6348 173.584C83.6584 173.368 83.6776 173.283 83.7688 173.067C83.8576 172.856 83.9818 172.67 84.1505 172.513C84.4736 172.212 84.8692 172.043 85.3131 172.04Z" fill="#010101"/>
<path d="M84.2399 156.257C84.6999 155.755 85.4903 155.718 86.0608 156.022C86.1995 156.096 86.3276 156.214 86.4497 156.313C86.758 156.563 86.8798 157.014 86.8968 157.393C86.9135 157.768 86.7159 158.213 86.4497 158.473L86.3852 158.535C86.2263 158.69 85.9985 158.824 85.7757 158.865C85.4173 158.931 85.1159 158.929 84.7824 158.788C84.4954 158.667 84.2481 158.472 84.0797 158.208L84.0527 158.163C84.0411 158.145 84.03 158.126 84.02 158.106L84.0049 158.078C83.6858 157.463 83.7717 156.767 84.2399 156.257Z" fill="#010101"/>
<path d="M84.4784 140.39C84.6858 140.325 84.8931 140.316 85.1007 140.362C85.2417 140.363 85.3729 140.398 85.4947 140.469C85.6269 140.506 85.7417 140.573 85.8389 140.67C85.956 140.739 86.0497 140.832 86.1193 140.95C86.2571 141.1 86.3499 141.277 86.3987 141.481L86.4541 141.895L86.3987 142.31L86.2414 142.683C86.1979 142.74 86.1545 142.796 86.1105 142.852C86.0409 142.97 85.9472 143.064 85.8298 143.133C85.7533 143.209 85.6659 143.266 85.5677 143.306C85.2203 143.555 84.7575 143.636 84.3453 143.522C84.1011 143.454 83.8887 143.33 83.7091 143.151C83.53 142.971 83.4064 142.758 83.3378 142.515L83.3094 142.319C83.2736 142.057 83.2673 141.913 83.3419 141.579C83.3743 141.433 83.4684 141.227 83.5181 141.14C83.7286 140.769 84.0734 140.514 84.4784 140.39Z" fill="#010101"/>
<path d="M102.494 128.976C103.089 128.971 103.685 128.973 104.281 128.979L104.727 128.986C105.476 128.997 106.116 128.92 106.704 129.439C107.131 129.816 106.943 130.447 106.538 130.731C105.924 131.161 105.154 130.945 104.448 130.898C103.704 130.848 102.959 130.806 102.214 130.773C100.771 130.708 99.328 130.667 97.8841 130.661C96.443 130.654 94.9999 130.668 93.5588 130.692C92.0929 130.715 90.5665 130.852 89.1085 130.7C88.908 130.68 88.8633 130.416 89.0609 130.348C90.4347 129.872 91.98 129.718 93.4198 129.537C94.9049 129.349 96.3895 129.216 97.8841 129.13C99.4192 129.042 100.956 128.986 102.494 128.976Z" fill="#010101"/>
<path d="M84.4758 124.308L84.5249 124.309C84.7873 124.309 85.0327 124.371 85.2615 124.494L85.3102 124.521L85.6249 124.764C85.8178 124.958 85.9512 125.187 86.0248 125.45L86.0808 125.864C86.0887 126.078 86.0444 126.278 85.9468 126.463C85.8842 126.656 85.7766 126.823 85.6252 126.964C85.4842 127.115 85.3172 127.223 85.1246 127.286C84.9534 127.375 84.7703 127.42 84.5746 127.421L84.5252 127.42C84.2445 127.419 83.9827 127.348 83.7405 127.207L83.4255 126.964C83.2326 126.77 83.0992 126.541 83.0256 126.277L82.9696 125.864C82.9617 125.65 83.0061 125.45 83.1039 125.265C83.1662 125.072 83.2738 124.905 83.4252 124.764C83.5662 124.612 83.7332 124.505 83.9258 124.442C84.0966 124.352 84.2798 124.307 84.4758 124.308Z" fill="#010101"/>
<path d="M89.0874 82.0567C89.4225 81.2024 90.0301 81.962 89.9429 82.6489C89.9662 84.579 90.0222 86.4508 90.2714 88.3409C90.3856 89.2059 90.5354 90.0721 90.7661 90.8647L90.863 91.1989C91.1616 92.2375 91.3938 93.2167 90.9914 94.3561C90.8016 94.8932 90.4593 95.2963 90.0877 95.2683C88.4408 95.1433 88.2143 91.1076 88.1142 88.8547C88.0107 86.5342 88.3316 83.9849 89.0874 82.0567Z" fill="#010101"/>
<path d="M91.3425 133.743C91.3191 133.75 91.306 133.753 91.306 133.753C91.306 133.753 91.3188 133.749 91.3425 133.743Z" fill="#010101"/>
<path d="M80.9301 117.964C79.2061 118.123 75.8092 118.347 74.2935 119.272C74.2935 119.272 74.2818 121.522 74.2985 122.918C74.325 125.149 74.3287 127.378 74.4366 129.608C74.6818 134.656 75.1556 145.141 74.9492 145.23C76.7006 146.341 80.5047 146.204 82.4307 146.255C84.7827 146.318 88.4914 146.548 90.6559 145.466C90.9706 145.309 92.1474 133.948 92.2213 131.624C92.2864 129.564 92.2298 127.504 92.3387 125.445C92.4211 123.894 92.4063 120.712 92.4586 119.165C92.4586 119.165 90.3674 118.406 87.4801 118.169C85.3043 117.989 83.1062 117.763 80.9301 117.964Z" fill="white"/>
<path d="M89.009 117.24C85.3241 116.938 81.5263 116.699 77.8597 116.965C75.3579 117.146 72.8652 116.578 72.6746 119.43C72.4398 122.937 72.8017 128.559 73.0222 132.06C73.2884 136.289 73.7897 140.501 74.4356 144.689C74.4558 144.818 74.52 144.925 74.6077 145.013C74.2207 145.184 74.0159 145.591 74.5099 145.952C76.1263 147.13 78.6035 147.202 80.5115 147.363C83.2544 147.594 86.0566 147.572 88.7853 147.188C89.6352 147.069 89.9026 147.151 90.6725 146.757C91.5256 146.321 92.8049 140.327 93.5129 133.457C93.7372 131.282 93.8159 129.864 93.8165 127.68C93.8165 125.962 93.9676 120.862 93.9676 119.141C93.9682 117.725 92.0454 117.489 89.009 117.24ZM92.3386 125.445C92.2298 127.504 92.2864 129.565 92.2212 131.625C92.1476 133.948 90.9705 145.309 90.6559 145.467C88.4914 146.548 84.7826 146.318 82.4306 146.256C80.5046 146.205 76.7005 146.342 74.9492 145.231C75.1556 145.141 74.6817 134.656 74.4366 129.608C74.3283 127.379 74.3249 125.15 74.2985 122.919C74.2818 121.522 74.2934 119.272 74.2934 119.272C75.8088 118.348 79.206 118.124 80.93 117.964C83.1061 117.763 85.3043 117.99 87.4798 118.169C90.367 118.407 92.4582 119.166 92.4582 119.166C92.4063 120.713 92.4207 123.895 92.3386 125.445Z" fill="#010101"/>
<path d="M73.5304 136.393C74.835 135.15 76.5532 134.247 78.123 133.367L78.2505 133.295C79.1013 132.816 79.9228 132.302 80.8319 131.937C81.7145 131.583 82.6084 131.257 83.5121 130.96L83.5998 130.933C84.5982 130.625 87.1998 130.088 86.7615 128.606C86.4714 127.625 84.8141 127.806 84.0715 127.956C80.6686 128.641 77.4494 130.286 74.4369 131.953L73.7645 132.326C72.5317 133.011 71.2992 133.708 70.1057 134.456C68.7534 135.303 67.777 136.377 66.9539 137.736C66.0411 139.243 65.1714 140.77 64.2054 142.243C63.5963 143.173 62.9742 144.091 62.3446 145.004C62.2162 145.274 62.1281 145.558 62.1004 145.906C62.0535 146.493 62.2039 146.998 62.3905 147.551C62.8619 148.948 63.2127 150.386 63.7234 151.769C64.1966 153.051 64.7542 154.365 65.5707 155.471C65.8939 155.91 66.2809 156.325 66.6956 156.681L67.0297 156.962C67.1754 157.085 67.3368 157.218 67.503 157.34C67.6461 157.059 67.895 156.842 68.232 156.809C68.9478 156.739 69.4928 156.6 70.1429 156.29C70.6457 156.05 71.14 155.79 71.6384 155.541C72.6167 155.05 73.6106 154.581 74.5697 154.054L74.7346 153.963C75.4476 153.561 76.1483 153.101 76.6769 152.468C77.2908 151.734 77.338 150.857 77.7294 150.022C78.5654 148.239 81.099 147.72 82.7182 146.929C84.0942 146.256 85.3713 145.39 86.147 144.116C86.147 144.116 87.0305 142.887 87.0286 142.962C87.174 142.721 86.9103 142.742 86.0356 143.044C83.7374 143.837 81.4061 144.595 79.0305 145.116C78.3754 145.259 78.1655 144.269 78.8096 144.102C81.3048 143.458 83.7789 142.778 86.2086 141.91C87.4647 141.461 88.7063 140.972 89.9328 140.448C90.4067 140.245 90.8774 140.038 91.3459 139.824L91.697 139.664C91.917 139.562 92.5548 139.346 92.8263 139.063C92.8657 138.941 92.905 138.82 92.9437 138.699C92.8311 138.329 91.8818 138.588 91.6568 138.637C91.0187 138.775 90.3812 138.919 89.7434 139.06C88.4678 139.342 87.1894 139.609 85.9103 139.878C83.3563 140.413 80.7771 140.882 78.253 141.547C77.6401 141.708 77.0989 140.787 77.6533 140.393C80.1006 138.652 83.042 137.748 85.8464 136.765C87.3215 136.248 88.7906 135.703 90.1902 135.003L90.536 134.83C91.4148 134.388 92.3789 133.873 93.0384 133.134C91.7565 132.914 90.3047 133.287 89.0691 133.487L88.9741 133.502C87.2416 133.769 85.5173 134.089 83.8038 134.46C80.2979 135.22 77.8119 135.843 74.3476 136.773C74.2607 136.797 74.1547 136.689 74.1018 136.617C73.8466 136.265 73.3898 136.527 73.5304 136.393Z" fill="#ECB989"/>
<path d="M94.6881 132.571C94.7228 132.387 94.4971 132.242 94.2816 132.148C92.8669 131.532 91.2424 131.869 89.7676 132.125L89.1323 132.233C87.4024 132.531 85.6813 132.881 83.9721 133.282C80.303 134.143 76.7282 135.319 73.3013 136.889C73.2198 136.926 73.2686 137.061 73.3554 137.038C76.8197 136.108 80.2985 135.219 83.8044 134.46C85.5176 134.089 87.2422 133.769 88.9747 133.501L89.0697 133.486C90.3054 133.287 91.7571 132.914 93.039 133.133C92.3795 133.873 91.4154 134.388 90.5366 134.83L90.1908 135.002C88.7916 135.703 87.3222 136.248 85.8471 136.765C83.0426 137.748 80.1012 138.652 77.6539 140.392C77.0995 140.787 77.6407 141.708 78.2536 141.547C80.7774 140.882 83.3569 140.413 85.911 139.878C87.1897 139.609 88.4684 139.342 89.744 139.059C90.3818 138.919 91.0193 138.775 91.6574 138.637C91.8824 138.588 92.8314 138.329 92.9443 138.699C92.9056 138.82 92.8663 138.941 92.827 139.063C92.5554 139.345 91.9176 139.562 91.6977 139.663L91.3465 139.824C90.878 140.038 90.4073 140.245 89.9334 140.447C88.7069 140.972 87.4653 141.462 86.2093 141.91C83.7795 142.778 81.3054 143.457 78.8102 144.102C78.1662 144.269 78.376 145.259 79.0311 145.115C81.4067 144.595 83.738 143.837 86.0362 143.044C86.9109 142.742 87.1746 142.721 87.0292 142.962C87.0311 142.887 86.1476 144.116 86.1476 144.116C85.3716 145.39 84.0948 146.256 82.7188 146.928C81.0996 147.72 78.5661 148.239 77.7301 150.022C77.3386 150.856 77.2914 151.733 76.6775 152.468C76.1489 153.101 75.4482 153.561 74.7352 153.962L74.5703 154.054C73.611 154.581 72.6173 155.05 71.639 155.54C71.1406 155.79 70.6463 156.05 70.1435 156.29C69.4934 156.599 68.9485 156.739 68.2326 156.809C67.8956 156.842 67.6467 157.058 67.5036 157.339C67.3374 157.217 67.1761 157.084 67.0304 156.962L66.6962 156.681C66.2815 156.325 65.8945 155.909 65.5713 155.471C64.7548 154.365 64.1972 153.051 63.724 151.769C63.2133 150.386 62.8625 148.947 62.3912 147.551C62.2046 146.998 62.0542 146.493 62.1011 145.905C62.1291 145.557 62.2168 145.274 62.3452 145.004C62.9748 144.09 63.5972 143.173 64.206 142.243C65.172 140.769 66.0417 139.243 66.9545 137.736C67.7773 136.377 68.754 135.303 70.1064 134.456C71.2999 133.708 72.5323 133.011 73.7651 132.326L74.4376 131.953C77.45 130.286 80.6692 128.641 84.0722 127.955C84.8144 127.806 86.472 127.625 86.7621 128.606C87.2007 130.088 84.5989 130.625 83.6005 130.932L83.5127 130.96C82.6093 131.256 81.7151 131.583 80.8325 131.937C79.9235 132.301 79.1019 132.816 78.2511 133.295L78.1237 133.366C76.5542 134.247 74.8356 135.149 73.531 136.392C73.3904 136.527 73.5508 136.735 73.7211 136.662C75.5479 135.88 77.215 134.769 79.0903 134.069C80.9033 133.394 82.732 132.707 84.5838 132.144C86.0661 131.693 87.7381 131.12 88.1896 129.445C88.5515 128.101 87.6806 126.902 86.4062 126.529C85.0334 126.127 83.5964 126.467 82.2575 126.852L82.0222 126.921C81.6616 127.026 77.0532 128.823 76.5769 129.051C74.7874 129.906 73.0506 130.867 71.325 131.842C70.7766 132.153 67.4451 134.343 66.9344 134.94C65.7906 136.275 64.9543 137.907 64.1771 139.504L63.7284 140.429C63.1208 141.679 62.5507 142.946 61.9947 144.218C61.4645 144.329 61.0023 144.629 60.6342 145.033C60.4429 144.896 60.2009 144.83 59.9608 144.89C59.1556 145.094 58.6566 145.599 58.0433 146.13L57.3876 146.699C56.9502 147.077 56.5129 147.456 56.0749 147.833C54.8241 148.909 53.5627 149.973 52.3097 151.047C51.7767 151.504 51.098 152.085 50.3265 152.734C48.1966 154.528 45.3381 156.863 42.7236 158.696C42.7784 156.24 42.8287 153.784 42.8646 151.327C42.8891 149.642 43.8353 138.512 43.7796 136.829C43.7229 135.123 43.6864 133.406 43.3161 131.74C43.2868 131.608 43.1129 131.632 43.0726 131.74C42.9433 132.083 42.767 132.977 42.5675 134.188L42.572 134.163C42.572 134.163 40.3405 132.863 39.7898 133.06C39.2392 133.256 40.6649 133.681 41.5796 134.163C42.4943 134.644 42.4939 134.644 42.4939 134.644L42.5075 134.561C41.7274 139.431 40.6441 148.603 40.6051 148.949C40.5573 149.37 40.5098 149.788 40.4604 150.202L40.3965 150.746C40.0611 153.647 39.8106 156.569 39.6259 159.481C39.6256 159.483 39.6256 159.486 39.6256 159.488C39.595 159.969 39.5724 160.451 39.5441 160.932C38.9686 161.245 38.3928 161.558 37.8132 161.861L37.715 161.913C35.7157 162.963 33.8061 164.112 32.3078 165.734C31.7955 166.288 32.0869 166.86 32.5894 166.424C34.0349 165.168 35.6622 164.078 37.4205 163.322L39.4591 162.433L40.1605 162.126C40.1602 162.146 40.1599 162.166 40.1592 162.186C40.489 162.025 40.8345 161.854 41.1837 161.679L41.729 161.441C42.0182 161.304 42.3394 161.149 42.6727 160.987C42.6733 160.964 42.6736 160.941 42.6742 160.917C43.1572 160.664 43.6147 160.418 44.0121 160.194C45.6763 159.256 48.1394 157.392 50.3262 155.639C51.2868 154.869 52.1946 154.12 52.957 153.481C54.355 152.31 55.7256 151.108 57.0899 149.898C57.7705 149.293 58.4502 148.686 59.1285 148.079C59.3173 147.909 59.509 147.748 59.6959 147.586C59.7182 148.438 59.9174 149.321 60.1247 150.161L60.2487 150.659C60.5335 151.805 60.8994 152.955 61.3733 154.037C62.1583 155.829 63.3099 157.481 64.8064 158.752C64.8983 158.83 64.993 158.908 65.089 158.987C64.8577 159.255 62.8046 163.52 57.4927 169.651C56.8266 170.419 56.112 171.216 55.3405 172.039C45.9796 182.027 40.1535 185.976 39.5255 186.49C39.3502 186.596 39.1844 186.694 39.017 186.784C38.49 187.063 37.9044 187.279 36.6572 187.551C34.8935 187.936 33.2388 187.502 32.7243 187.247C32.1064 186.942 31.5271 186.604 30.9796 186.181C29.8651 185.323 28.8872 184.28 28.0707 183.136C26.4058 180.805 25.0437 178.224 23.7952 175.645L23.5819 175.202C18.4477 163.095 21.8916 147.105 23.6731 140.06C26.8788 127.38 31.2549 113.888 40.8562 104.531C43.2613 102.187 45.9809 100.14 48.943 98.552C50.458 97.7399 52.0322 97.0587 53.647 96.4728L53.7839 96.4228C55.3823 95.8372 57.0176 95.1484 58.7101 94.9521C58.8265 94.9386 58.8312 94.7567 58.7101 94.7655C57.1931 94.8838 55.697 94.8454 54.1939 95.1211C52.6741 95.3998 51.1795 95.8882 49.7564 96.4873C46.9346 97.6748 44.3173 99.2512 41.9131 101.143C36.7431 105.211 32.825 110.626 29.8387 116.446C26.622 122.716 24.3641 129.464 22.458 136.232C20.4895 143.222 15.9299 157.956 19.0764 169.794C19.548 171.569 20.3822 173.226 21.1433 174.895C22.6338 178.163 24.3974 181.371 26.5308 184.267C27.5266 185.62 28.6062 186.945 29.9636 187.95C30.5986 188.42 31.3452 188.912 32.1026 189.157C32.5648 189.306 35.032 190.1 38.2547 189.13C38.2534 189.131 38.2502 189.133 38.2499 189.133C39.5491 189.008 40.6819 188.344 41.2983 187.84C41.3278 187.818 41.3565 187.793 41.3848 187.769C41.4002 187.755 41.42 187.741 41.4348 187.727C44.4278 185.344 49.3445 181.344 50.4596 180.228C53.2729 177.413 56.5742 174.4 60.2361 169.651C62.2618 167.024 64.398 163.868 66.6238 159.914C66.987 160.039 67.3683 160.096 67.7673 160.038C68.5265 159.926 69.3481 159.325 69.399 158.534C69.5973 158.308 69.7804 158.099 70.0582 157.931C70.2955 157.787 70.5453 157.655 70.7904 157.526C71.3662 157.225 71.9571 156.948 72.5396 156.659L72.7803 156.541C73.6635 156.107 74.5568 155.687 75.4145 155.206C76.2525 154.737 77.0768 154.188 77.7156 153.462C78.3084 152.788 78.5793 152.062 78.848 151.243L78.9317 150.986C79.292 149.878 80.4301 149.503 81.3926 149.027L81.7094 148.87C82.6071 148.423 83.4985 147.957 84.3207 147.382C85.3471 146.663 87.1985 144.75 87.8863 142.597C89.3749 142.248 94.5557 139.407 94.0853 138.156C93.528 136.673 82.6015 139.52 81.9011 139.704C82.6194 139.514 93.9525 136.446 94.6881 132.571Z" fill="#010101"/>
<path d="M79.6296 124.397C79.584 125.099 78.9789 125.631 78.2766 125.585L76.9359 125.498C76.2345 125.452 75.7021 124.847 75.7477 124.145L75.9476 121.068C75.9932 120.366 76.5986 119.834 77.3002 119.88L78.6413 119.967C79.343 120.012 79.8747 120.618 79.8291 121.319L79.6296 124.397Z" fill="#010101"/>
<path fill-rule="evenodd" clip-rule="evenodd" d="M4.30054 42.9769L42.8711 4.40634C55.8228 3.62604 69.7146 3 80.9485 3C93.0999 3 103.79 3.64212 113.027 4.62074L7.64791 110C7.11537 91.3173 6.45998 74.0559 5.68173 63.5048C5.13481 56.0899 4.6789 49.2038 4.30054 42.9769Z" fill="url(#paint0_linear)"/>
<path fill-rule="evenodd" clip-rule="evenodd" d="M7.46167 127.377L128.839 6C137.692 7.51729 144.517 9.24244 149.325 10.6716L7.99657 152C7.84186 144.12 7.66356 135.764 7.46167 127.377Z" fill="url(#paint1_linear)"/>
<path fill-rule="evenodd" clip-rule="evenodd" d="M9.0105 180.193L151.461 37.7432C150.416 44.9254 149.295 54.1263 148.185 65.8518L16.0372 198C12.1224 197.06 9.23913 196.291 9.23913 196.291C9.23913 196.291 9.16292 190.062 9.0105 180.193Z" fill="url(#paint2_linear)"/>
<path d="M153.547 201.053C152.639 201.053 151.838 200.396 151.686 199.471C151.604 198.97 141.378 148.852 144.503 100.216C148.381 39.8392 155.581 19.3995 157.434 13.6801C150.991 11.3017 125.715 3.15569 81.897 3.15569C55.1193 3.15569 12.9609 6.62156 3.83193 7.39969C4.03551 13.3718 4.08742 33.9426 6.91707 61.5715C11.1177 102.585 10.6856 194.704 10.6982 195.711C10.7111 196.753 9.87667 197.609 8.83392 197.622C8.82605 197.622 8.81787 197.622 8.81001 197.622C7.77827 197.622 6.93563 196.793 6.92241 195.758C6.91014 194.753 4.75196 95.4829 3.15197 61.855C1.57683 28.7506 0.0073464 5.95167 0.000738748 5.7248C-0.0269505 4.72705 0.726945 3.88033 1.72093 3.79159C2.21744 3.74723 36.6046 -0.935081 82.0194 0.218741C133.945 1.53776 159.533 10.397 160.601 10.8659C161.07 11.0717 161.436 11.4596 161.613 11.9398C161.791 12.4203 161.766 12.9523 161.543 13.4139C161.485 13.5395 155.04 28.211 150.399 100.465C147.302 148.676 155.331 198.363 155.413 198.859C155.581 199.888 154.884 200.859 153.855 201.028C153.751 201.045 153.648 201.053 153.547 201.053Z" fill="black"/>
<path d="M12.0837 266.422C19.5611 261.154 14.4892 261.284 28.4792 240.586C42.4689 219.887 57.3792 208.246 57.3792 208.246C57.3792 208.246 104.668 177.934 104.072 211.673C103.451 246.784 104.4 254.757 96.2539 266.027C88.1086 277.296 79.3805 279.034 66.4402 281.722C53.4999 284.408 30.0147 283.568 26.4148 286.276C22.8146 288.984 12.0837 266.422 12.0837 266.422Z" fill="#ECB989"/>
<path d="M25.738 288.389C23.9309 288.389 19.7118 287.854 15.7374 277.406C12.7448 269.539 9.69709 266.129 9.59829 265.921C9.20309 265.09 10.2449 265.408 10.9966 264.878C14.359 262.51 15.1106 261.682 16.1716 258.393C18.5133 251.133 22.3939 245.784 30.6796 236.344C39.1446 226.7 55.5989 207.241 56.2172 206.758C56.2631 206.722 56.311 206.688 56.36 206.657C57.1762 206.134 76.5074 193.847 90.6969 193.847C95.3776 193.847 99.0653 195.185 101.657 197.823C104.621 200.84 106.069 205.511 105.959 211.707C105.887 215.809 105.834 219.604 105.789 222.952C105.434 248.875 106.825 250.714 100.008 262.251C92.6156 274.761 79.9808 280.839 67.1208 283.509L66.8237 283.57C60.7022 284.841 52.5484 286.323 44.5629 285.787C34.5604 285.115 29.0078 286.688 27.5497 287.785C27.0236 288.18 26.3975 288.389 25.738 288.389ZM14.4706 267.007C15.3353 268.751 16.9331 271.893 18.7483 275.067C22.9974 282.499 25.8084 285.914 26.4148 286.276C28.9266 284.773 34.2033 282.604 44.3445 282.017C51.7454 281.588 60.134 281.102 66.0563 279.873L66.3533 279.811C78.8283 277.221 87.0699 275.51 94.7235 264.921C101.567 255.453 101.662 248.557 102.013 222.901C102.059 219.549 102.111 215.749 102.184 211.639C102.275 206.494 101.191 202.736 98.964 200.469C97.1085 198.58 94.327 197.622 90.6972 197.622C78.0237 197.622 59.8055 208.948 58.4742 209.787C57.376 210.664 43.2118 222.159 30.0436 241.643C23.2422 251.706 21.067 256.646 19.6275 259.914C18.2232 263.103 17.4299 264.708 14.4706 267.007Z" fill="black"/>
<path d="M67.437 155.573C61.3866 156.132 49.4629 156.918 44.1438 160.165C44.1438 160.165 44.1029 168.063 44.1611 172.963C44.2542 180.793 44.2668 188.617 44.6469 196.441C45.5069 214.158 47.1704 250.96 46.4454 251.274C52.5928 255.174 65.9446 254.693 72.7046 254.872C80.9594 255.091 93.9765 255.9 101.573 252.103C102.678 251.55 106.809 211.673 107.067 203.519C107.296 196.289 107.097 189.056 107.479 181.832C107.768 176.389 107.717 165.221 107.9 159.791C107.9 159.791 100.56 157.127 90.4263 156.292C82.7904 155.663 75.0749 154.866 67.437 155.573Z" fill="white"/>
<path d="M95.7926 153.032C82.8593 151.972 69.5294 151.135 56.6612 152.065C47.8802 152.701 39.1311 150.707 38.4624 160.717C37.6384 173.027 38.9092 192.76 39.6833 205.047C40.6178 219.891 42.3776 234.675 44.6447 249.371C44.7161 249.824 44.9404 250.201 45.2485 250.51C43.8898 251.11 43.1718 252.54 44.9061 253.805C50.5783 257.942 59.2731 258.192 65.971 258.758C75.5968 259.571 85.4331 259.491 95.0098 258.146C97.993 257.727 98.9313 258.014 101.634 256.632C104.628 255.101 109.119 234.065 111.604 209.952C112.391 202.318 112.667 197.343 112.669 189.677C112.669 183.643 113.2 165.745 113.2 159.703C113.199 154.734 106.45 153.905 95.7926 153.032ZM107.479 181.832C107.097 189.056 107.296 196.289 107.067 203.519C106.808 211.673 102.678 251.55 101.573 252.102C93.9762 255.9 80.9591 255.091 72.7042 254.872C65.9443 254.693 52.5924 255.174 46.4451 251.274C47.1701 250.96 45.5068 214.158 44.6466 196.441C44.2665 188.616 44.2539 180.793 44.1607 172.962C44.1025 168.063 44.1434 160.164 44.1434 160.164C49.4626 156.918 61.3866 156.132 67.4367 155.572C75.0742 154.866 82.79 155.663 90.4257 156.292C100.559 157.126 107.899 159.79 107.899 159.79C107.716 165.22 107.768 176.388 107.479 181.832Z" fill="#010101"/>
<path d="M63.5829 199.165C68.6387 199.165 72.7373 195.067 72.7373 190.011C72.7373 184.955 68.6387 180.856 63.5829 180.856C58.527 180.856 54.4285 184.955 54.4285 190.011C54.4285 195.067 58.527 199.165 63.5829 199.165Z" fill="#C4C4C3"/>
<path d="M87.811 199.165C92.8668 199.165 96.9654 195.067 96.9654 190.011C96.9654 184.955 92.8668 180.856 87.811 180.856C82.7551 180.856 78.6565 184.955 78.6565 190.011C78.6565 195.067 82.7551 199.165 87.811 199.165Z" fill="#C4C4C3"/>
<path d="M63.5829 222.449C68.6387 222.449 72.7373 218.351 72.7373 213.295C72.7373 208.239 68.6387 204.14 63.5829 204.14C58.527 204.14 54.4285 208.239 54.4285 213.295C54.4285 218.351 58.527 222.449 63.5829 222.449Z" fill="#C4C4C3"/>
<path d="M87.811 222.449C92.8668 222.449 96.9654 218.351 96.9654 213.295C96.9654 208.239 92.8668 204.14 87.811 204.14C82.7551 204.14 78.6565 208.239 78.6565 213.295C78.6565 218.351 82.7551 222.449 87.811 222.449Z" fill="#C4C4C3"/>
<path d="M39.7392 235.925C39.7392 235.925 65.8908 220.514 69.889 225.701C73.8876 230.888 61.9775 238.419 55.5347 244.42C49.0919 250.421 50.1888 249.046 50.0944 252.21C50.0944 252.21 48.4683 261.338 41.8169 266.335C35.1655 271.333 32.1801 267.584 32.1801 267.584" fill="#ECB989"/>
<path d="M35.4518 269.539C32.317 269.539 30.7938 268.902 30.7035 268.759C30.1975 267.963 28.4248 264.164 33.6571 266.407C33.67 266.413 33.6461 266.391 33.6218 266.364C33.7046 266.456 36.724 269.68 41.3254 265.501C49.8996 257.713 49.5066 253.545 48.2109 252.005C48.2172 251.667 48.2078 251.385 48.1999 251.133C48.1219 248.709 48.6162 248.252 52.4641 244.693C52.9826 244.213 53.5738 243.666 54.2481 243.038C55.6848 241.7 57.3317 240.332 59.0748 238.886C63.86 234.913 70.4139 229.473 68.3942 226.853C68.3778 226.832 66.4628 224.955 54.0974 230.585C47.2295 233.712 40.7622 237.513 40.6977 237.551C39.7997 238.081 37.7906 239.394 37.471 238.402C37.3382 237.989 38.3032 235.47 39.2015 234.941C39.4718 234.781 46.3139 232.25 53.3608 229.041C64.0381 224.18 70.7855 222.959 73.1051 226.052C74.0491 227.31 72.3578 231.204 69.1326 234.311C66.668 236.686 64.6268 239.184 61.4863 241.791C59.786 243.202 58.1794 244.536 56.8216 245.801C56.1439 246.432 55.5492 246.982 55.0275 247.464C53.3693 248.998 51.4934 250.176 51.2989 250.542C52.0368 254.2 49.2442 264.819 44.1299 267.389C40.7421 269.091 37.3545 269.539 35.4518 269.539Z" fill="black"/>
<circle cx="63.5" cy="190.5" r="9.5" fill="#55AF8A"/>
<path fill-rule="evenodd" clip-rule="evenodd" d="M68.4118 194.632L63.6618 184.182L58.9118 194.632L63.6618 193.682L68.4118 194.632Z" fill="#F1F5F1"/>
<circle cx="63.5" cy="190.5" r="9.5" fill="#C4C4C4"/>
<path fill-rule="evenodd" clip-rule="evenodd" d="M68.4118 194.632L63.6618 184.182L58.9118 194.632L63.6618 193.682L68.4118 194.632Z" fill="#F1F5F1"/>
<circle cx="63.5" cy="213.5" r="9.5" transform="rotate(-90 63.5 213.5)" fill="#55AF8A"/>
<path fill-rule="evenodd" clip-rule="evenodd" d="M67.6325 208.588L57.1825 213.338L67.6325 218.088L66.6825 213.338L67.6325 208.588Z" fill="#F1F5F1"/>
<circle cx="88.5" cy="190.5" r="9.5" transform="rotate(90 88.5 190.5)" fill="#C4C4C4"/>
<path fill-rule="evenodd" clip-rule="evenodd" d="M84.3675 195.412L94.8175 190.662L84.3675 185.912L85.3175 190.662L84.3675 195.412Z" fill="#F1F5F1"/>
<circle cx="88.5" cy="213.5" r="9.5" transform="rotate(-180 88.5 213.5)" fill="#C4C4C4"/>
<path fill-rule="evenodd" clip-rule="evenodd" d="M83.5882 209.368L88.3382 219.818L93.0882 209.368L88.3382 210.318L83.5882 209.368Z" fill="#F1F5F1"/>
<circle cx="50" cy="247" r="12" fill="#F2312F" fill-opacity="0.8"/>
<defs>
<linearGradient id="paint0_linear" x1="94.3928" y1="-21.5" x2="-2.60718" y2="72.5" gradientUnits="userSpaceOnUse">
<stop stop-color="#ADB9CD" stop-opacity="0.5"/>
<stop offset="1" stop-color="#E6ECF6" stop-opacity="0"/>
</linearGradient>
<linearGradient id="paint1_linear" x1="134.393" y1="11.5" x2="1.89283" y2="136" gradientUnits="userSpaceOnUse">
<stop stop-color="#ADB9CD" stop-opacity="0.5"/>
<stop offset="1" stop-color="#E6ECF6" stop-opacity="0"/>
</linearGradient>
<linearGradient id="paint2_linear" x1="80.2355" y1="37.7432" x2="80.2355" y2="198" gradientUnits="userSpaceOnUse">
<stop stop-color="#ADB9CD" stop-opacity="0.5"/>
<stop offset="1" stop-color="#E6ECF6" stop-opacity="0"/>
</linearGradient>
</defs>
</svg>
