<?xml version="1.0" encoding="UTF-8" standalone="no"?><!-- Generator: Gravit.io --><svg xmlns="http://www.w3.org/2000/svg" xmlns:xlink="http://www.w3.org/1999/xlink" style="isolation:isolate" viewBox="0 0 162 289" width="162pt" height="289pt"><defs><clipPath id="_clipPath_sQjbtWVEvGyJ5UL1AbSn2aEygovfGyDu"><rect width="162" height="289"/></clipPath></defs><g clip-path="url(#_clipPath_sQjbtWVEvGyJ5UL1AbSn2aEygovfGyDu)"><path d=" M 154.571 206 C 154.571 206 145.522 151.391 148.669 101.305 C 153.432 25.522 160 11.582 160 11.582 C 160 11.582 134.191 0 82.032 0 C 51.577 0 2 4.504 2 4.504 C 2 4.504 2.629 27.669 5.147 61.805 C 7.665 95.942 8.924 198.842 8.924 198.842 C 8.924 198.842 28.837 204.15 35.482 204.072 C 128.894 202.971 154.571 206 154.571 206 Z " fill="rgb(230,236,246)"/><path d=" M 97.941 99.097 C 97.354 97.597 96.746 95.998 95.85 95.161 C 94.484 93.885 92.459 94.342 89.95 94.753 C 90.411 88.522 87.535 86.935 83.573 85.751 C 83.182 85.601 82.792 85.467 82.401 85.343 C 79.147 85.191 72.908 82.788 69.916 83.116 C 67.579 84.346 68.753 89.164 67.979 92.906 C 66.165 92.906 64.795 93.342 63.595 93.961 C 65.377 101.125 69.428 113.938 76.172 117.064 C 83.206 120.323 92.883 108.103 97.941 99.097 Z " fill="rgb(236,185,137)"/><path d=" M 62.968 91.251 C 64.11 90.06 65.9 89.349 67.595 89.389 L 67.674 89.392 L 68.25 89.417 L 67.865 91.304 L 67.845 91.393 L 67.767 91.721 L 67.663 92.149 L 67.625 92.307 L 67.586 92.482 C 67.58 92.51 67.574 92.538 67.568 92.566 L 67.551 92.649 L 67.387 93.45 L 67.418 93.522 L 67.409 93.704 C 67.384 94.362 67.526 94.724 67.838 94.84 L 67.863 94.849 L 68.041 94.906 L 68.186 95.222 C 68.521 95.944 68.834 96.574 69.154 97.168 C 70.089 98.901 71.205 100.632 72.491 102.372 C 73.713 104.026 74.986 105.604 76.31 107.103 C 76.905 107.777 77.534 108.453 78.203 109.141 L 78.779 109.731 L 78.962 109.917 L 79.085 110.04 L 79.239 110.191 L 79.46 110.402 L 79.621 110.56 L 79.673 110.609 C 79.738 110.67 79.789 110.711 79.834 110.741 L 79.852 110.751 L 79.902 110.781 L 82.573 113.59 L 83.516 114.108 L 83.964 114.356 L 84.054 114.176 L 84.073 114.118 L 85.065 111.938 L 85.672 110.603 C 86.915 107.856 87.883 105.672 88.768 103.591 L 88.878 103.331 L 89.204 102.557 L 89.377 102.144 C 90.169 100.249 90.753 98.785 91.276 97.364 L 91.35 97.161 L 91.46 96.857 L 91.624 96.399 L 91.654 96.321 C 91.796 95.958 91.447 94.636 91.103 93.912 L 91.083 93.871 L 90.995 93.692 L 90.897 93.502 C 90.67 93.059 90.506 92.567 90.367 91.971 C 90.345 91.874 90.323 91.778 90.304 91.679 L 90.275 91.532 L 90.256 91.435 L 90.231 91.299 L 90.195 91.105 L 90.963 90.976 L 91.385 90.907 L 91.57 90.878 C 91.808 90.841 92.02 90.811 92.22 90.786 L 92.294 90.777 L 92.428 90.761 L 92.433 90.787 L 92.707 90.814 L 92.911 90.835 C 93.914 90.942 94.688 91.059 95.238 91.188 L 95.292 91.201 L 95.39 91.226 L 95.435 91.237 C 95.936 91.372 96.321 91.663 96.625 92.092 C 96.835 92.386 96.97 92.668 97.185 93.202 L 97.262 93.395 L 97.518 94.027 C 97.548 94.104 97.594 94.227 97.657 94.396 L 97.873 94.987 L 98.486 95.591 L 101.906 96.095 C 106.835 96.399 140.293 109.352 138.947 182.397 L 139.003 183.183 L 139.119 184.892 L 139.186 185.866 L 139.194 185.997 L 139.222 186.505 L 139.229 186.624 C 139.239 186.776 139.251 186.905 139.266 187.024 L 139.278 187.112 L 139.29 187.197 C 139.329 187.43 139.403 187.638 139.527 187.87 L 139.56 187.929 L 139.772 188.31 L 139.387 188.513 C 137.374 189.573 120.827 190.04 115.392 190.065 L 115.227 190.065 L 114.887 190.065 C 112.246 190.064 109.447 189.962 106.527 189.787 L 105.866 189.747 L 105.315 189.712 C 105.078 189.697 104.847 189.681 104.607 189.665 L 104.239 189.638 L 102.704 189.526 C 95.796 188.864 88.553 188.876 80.571 189.473 C 60.7 190.751 45.654 189.032 34.247 188.642 C 31.429 188.546 19.821 171.022 19.891 161.982 C 20.732 154.592 22.019 147.425 23.77 140.499 L 23.947 139.807 C 25.84 132.405 27.666 126.698 29.987 121.421 C 32.939 114.709 36.538 109.185 41.07 104.769 C 43.561 102.34 46.32 100.291 49.253 98.719 C 50.601 97.996 52.035 97.355 53.572 96.778 L 53.792 96.696 L 54.147 96.566 L 54.42 96.465 L 55.299 96.137 C 55.484 96.068 55.685 95.99 55.922 95.896 L 56.07 95.838 L 57.643 95.21 L 57.905 95.108 L 58.195 94.995 L 58.409 94.913 C 58.758 94.779 59.074 94.663 59.368 94.561 L 59.542 94.501 L 59.699 94.448 L 60.371 94.216 L 60.358 94.827 C 60.349 95.233 60.454 95.54 60.686 95.761 L 60.694 95.767 L 60.702 95.774 L 60.709 95.779 L 60.75 95.777 L 60.909 95.777 C 60.925 95.768 60.94 95.757 60.955 95.745 C 61.181 95.553 61.286 95.295 61.387 94.705 L 61.414 94.541 L 61.461 94.234 L 61.481 94.117 C 61.548 93.708 61.607 93.482 61.723 93.223 C 61.889 92.849 62.109 92.485 62.368 92.15 L 62.428 92.074 L 62.67 91.783 L 62.707 91.737 C 62.792 91.628 62.835 91.552 62.853 91.481 L 62.858 91.463 L 62.881 91.34 L 62.968 91.251 L 62.968 91.251 Z " fill="rgb(85,175,138)"/><path d=" M 90.735 38.948 C 89.35 35.889 90.904 34.761 88.885 32.042 C 84.697 27.123 77.468 29.32 71.999 30.321 C 65.967 31.691 60.136 34.101 55.274 37.974 C 54.114 38.898 53.029 39.911 52.022 41.001 C 51.151 41.944 51.633 43.164 52.477 43.673 C 49.524 51.714 54.682 60.062 52.787 68.201 C 52.426 69.662 51.802 71.052 51.546 72.54 C 51.158 74.802 51.871 77.701 54.334 78.474 C 57.726 79.274 58.534 75.674 61.217 79.861 C 72.768 93.87 87.635 90.85 99.29 78.809 C 100.311 77.817 101.335 76.731 101.96 75.437 C 103.397 72.563 102.279 69.362 101.547 66.449 C 101.118 64.743 100.666 63.042 100.194 61.347 C 98.285 54.481 93.449 45.54 90.735 38.948 Z " fill="rgb(236,185,137)"/><path d=" M 56.033 27.732 C 63.396 21.674 72.517 17.681 81.916 16.179 C 86.554 15.436 91.277 15.245 95.952 15.738 L 96.362 15.782 C 97.517 15.906 98.752 16.004 99.768 16.613 C 100.949 17.319 101.596 18.694 101.25 20.051 C 100.981 21.105 100.234 22.01 99.342 22.625 C 99.766 22.817 100.18 23.047 100.584 23.318 C 101.264 23.773 101.531 24.61 101.128 25.348 C 100.351 26.767 99.169 27.96 97.765 28.757 C 98.154 29.532 98.307 30.464 98.162 31.38 C 97.748 34.007 94.884 35.074 92.584 35.541 L 92.515 35.555 L 92.775 37.031 C 92.914 37.818 92.615 38.537 91.867 38.863 C 91.841 38.874 91.814 38.885 91.788 38.895 C 94.218 43.033 96.198 47.441 98.113 51.836 C 99.112 54.131 100.076 56.441 101.026 58.756 L 101.343 59.528 C 102.363 62.025 103.473 64.527 104.313 67.093 C 105.073 69.422 105.228 71.799 104.286 74.095 C 103.44 76.154 102.005 77.912 100.347 79.375 C 96.603 82.682 92.483 85.501 87.903 87.523 L 87.598 87.658 C 85.829 88.435 83.992 89.182 82.03 89.159 C 80.306 89.14 78.314 88.431 78.178 86.472 C 78.131 85.811 79.001 85.548 79.432 85.954 L 79.531 86.047 C 80.046 86.524 80.584 86.951 81.293 87.078 C 82.122 87.229 83.003 87.097 83.81 86.891 C 86.066 86.314 88.257 85.126 90.271 83.982 C 94.033 81.847 97.726 79.019 100.341 75.532 C 101.455 74.05 102.217 72.366 102.14 70.482 C 102.047 68.159 100.951 65.887 100.137 63.745 C 98.459 59.326 96.695 54.939 94.902 50.565 L 94.542 49.69 C 93.04 46.034 91.512 42.384 90.248 38.641 C 90.111 38.529 90 38.39 89.927 38.225 L 89.821 37.987 C 89.732 37.784 89.674 37.59 89.649 37.405 C 89.467 36.716 89.302 36.028 89.158 35.329 C 89.131 35.205 89.104 35.079 89.075 34.956 C 88.404 35.305 87.719 35.625 87.026 35.927 C 82.157 38.052 77.055 39.625 71.838 40.614 C 69.235 41.108 66.614 41.459 63.98 41.726 C 62.639 41.862 61.297 41.975 59.951 42.06 C 58.979 42.122 58.008 42.113 57.037 42.121 C 56.467 43.738 56.412 45.554 56.952 47.178 C 57.567 49.033 59.277 50.405 59.442 52.424 C 59.595 54.314 58.204 55.285 56.804 56.139 L 56.207 56.499 C 55.749 56.778 55.425 57.016 55.495 57.639 C 55.616 58.709 56.117 59.815 56.434 60.839 C 56.809 62.05 57.199 63.256 57.556 64.472 C 57.741 65.101 57.935 65.73 58.104 66.363 C 58.223 66.813 58.238 67.138 58.142 67.475 C 58.321 67.607 58.49 67.757 58.649 67.922 C 58.7 67.976 58.633 68.066 58.569 68.027 C 58.395 67.923 58.218 67.834 58.036 67.76 C 57.985 67.875 57.922 67.995 57.845 68.126 L 57.834 68.117 C 57.595 68.529 57.087 68.699 56.592 68.462 L 56.461 68.398 C 56.096 68.218 55.836 68.056 55.639 67.649 C 55.629 67.629 55.619 67.608 55.61 67.587 C 54.853 67.762 54.138 68.144 53.562 68.7 C 52.651 69.579 52.125 70.626 51.959 71.789 C 52.192 71.95 52.45 72.081 52.734 72.172 C 52.774 72.186 52.758 72.245 52.716 72.237 C 52.437 72.187 52.177 72.102 51.934 71.987 C 51.884 72.44 51.89 72.912 51.947 73.397 C 52.148 75.111 53.118 77.011 54.856 77.553 C 55.61 77.787 56.404 77.811 57.168 77.609 C 57.54 77.51 57.844 77.362 58.181 77.176 C 58.41 77.05 58.63 76.897 58.885 76.829 C 59.104 76.77 59.321 76.771 59.537 76.83 L 59.487 76.848 C 59.363 76.894 59.389 76.893 59.565 76.846 C 60.118 76.723 60.58 77.195 60.458 77.746 L 60.445 77.83 C 60.442 77.847 60.44 77.861 60.438 77.872 L 60.452 78.006 C 60.454 78.018 60.455 78.031 60.456 78.045 L 60.456 78.073 C 60.455 78.078 60.455 78.082 60.454 78.087 L 61.61 79.12 C 63.026 80.384 64.463 81.636 66.009 82.723 C 67.092 83.485 68.219 84.215 69.377 84.861 C 70.417 85.441 71.51 85.562 72.614 85.942 C 73.203 86.143 73.537 86.804 73.204 87.376 C 72.227 89.058 70.06 88.511 68.679 87.726 C 67.372 86.983 66.151 85.994 65.052 84.972 C 63.101 83.153 61.392 81.12 60.241 78.726 C 60.09 78.961 59.868 79.142 59.637 79.299 C 59.172 79.615 58.627 79.84 58.091 80.005 C 57.063 80.317 55.957 80.343 54.903 80.146 C 50.618 79.349 48.604 74.062 50.067 70.235 C 49.51 69.408 49.07 68.468 48.655 67.676 L 48.468 67.323 C 46.381 63.376 44.55 59.122 45.148 54.545 C 45.225 53.955 45.332 53.372 45.49 52.797 C 45.617 52.336 45.905 51.804 45.894 51.321 C 45.874 50.259 44.074 49.619 43.42 48.947 C 42.65 48.159 42.283 47.084 42.766 46.046 C 42.827 45.915 42.899 45.79 42.982 45.675 C 41.982 44.633 41.539 43.105 42.102 41.662 C 42.471 40.711 43.21 39.917 44.136 39.488 C 44.702 39.227 45.426 39.074 46.127 39.083 C 48.808 34.804 52.138 30.937 56.033 27.732 Z  M 53.461 72.974 C 54.188 71.877 55.122 71.153 56.451 70.916 C 57.786 70.679 59.503 70.799 60.571 71.715 C 61.414 72.439 60.528 74.07 59.461 73.642 C 58.489 73.253 57.766 72.712 56.674 72.655 C 55.694 72.605 54.526 72.717 53.627 73.137 C 53.527 73.182 53.388 73.082 53.461 72.974 Z " fill="rgb(1,1,1)"/><path d=" M 89.224 76.604 C 88.203 76.476 87.213 76.069 86.398 75.43 C 86.115 75.207 85.982 74.928 85.954 74.647 C 85.922 74.332 86.027 74.01 86.222 73.761 C 86.417 73.511 86.699 73.338 87.007 73.306 C 87.275 73.277 87.568 73.349 87.849 73.587 L 87.907 73.634 C 88.394 74.022 88.966 74.293 89.564 74.407 C 90.141 74.516 90.743 74.478 91.317 74.252 C 92.41 73.824 93.023 73.006 93.626 71.957 C 93.7 71.826 93.774 71.691 93.847 71.553 C 93.886 71.437 93.959 71.349 94.051 71.289 C 94.151 71.222 94.278 71.19 94.404 71.199 C 94.525 71.208 94.644 71.255 94.737 71.335 C 94.825 71.411 94.892 71.517 94.915 71.652 C 95.069 72.529 94.827 73.415 94.351 74.186 C 93.822 75.043 93.009 75.756 92.169 76.155 C 91.244 76.593 90.219 76.73 89.224 76.604 Z  M 90.969 63.045 C 91.545 64.158 92.15 66.302 90.327 67.083 C 88.429 67.594 87.609 65.185 87.171 64.055 C 86.706 63.103 85.085 63.838 85.446 64.839 C 88.71 72.85 95.996 66.302 91.83 62.672 C 91.371 62.273 90.834 62.727 90.969 63.045 Z  M 74.454 60.369 C 74.572 59.088 76.809 58.797 77.032 60.064 C 77.23 61.199 76.996 62.242 76.409 63.264 C 75.849 64.24 74.441 63.785 74.334 62.895 C 74.192 61.704 74.38 61.165 74.454 60.369 Z  M 90.856 55.558 C 91.168 55.15 91.618 54.871 92.158 55.029 C 93.843 55.521 93.347 57.914 92.755 59.079 C 92.433 59.712 91.394 59.872 90.924 59.315 C 90.158 58.407 89.791 56.593 90.765 55.698 C 90.791 55.652 90.82 55.606 90.856 55.558 Z  M 74.988 52.905 L 75.234 52.791 C 75.992 52.44 76.946 52.043 77.68 52.532 C 78.069 52.791 78.341 53.394 78.027 53.826 C 77.474 54.586 76.634 54.574 75.802 54.849 C 75.116 55.076 74.477 55.371 73.857 55.743 C 72.497 56.558 71.502 57.648 70.47 58.83 C 70.335 58.984 70.11 58.818 70.148 58.643 C 70.493 57.025 71.587 55.48 72.805 54.39 C 73.456 53.808 74.195 53.273 74.988 52.905 Z  M 89.172 49.388 L 89.38 49.375 C 91.642 49.249 94.665 49.398 96.243 51.23 C 96.361 51.518 96.338 51.592 96.315 51.643 L 96.308 51.66 C 96.29 51.703 96.281 51.758 96.164 51.833 C 96.125 51.834 96.087 51.835 96.048 51.835 C 95.55 51.837 95.137 51.768 94.734 51.689 L 94.297 51.603 C 93.79 51.503 93.281 51.413 92.761 51.385 C 91.649 51.325 90.535 51.372 89.433 51.533 C 89.195 51.567 88.951 51.549 88.74 51.462 C 88.538 51.38 88.364 51.238 88.243 51.02 C 88.087 50.738 88.047 50.502 88.136 50.186 C 88.203 49.948 88.34 49.76 88.519 49.624 C 88.701 49.485 88.928 49.403 89.172 49.388 Z " fill="rgb(1,1,1)"/><path d=" M 80.569 79.844 C 80.982 76.948 82.891 74.39 85.491 72.945 C 87.4 71.885 89.553 71.326 91.693 70.97 C 92.814 70.783 94.01 70.555 95.149 70.685 C 96.121 70.796 97.014 71.26 97.759 71.885 C 98.645 72.625 99.361 73.551 99.954 74.54 C 100.039 74.68 100.12 74.822 100.2 74.966 C 100.283 75.808 100.184 76.571 99.572 77.279 C 98.976 77.97 98.16 78.406 97.311 78.71 C 97.215 78.692 97.122 78.672 97.035 78.65 C 95.475 78.238 94.034 76.664 92.394 77.368 C 90.93 77.998 90.441 80.183 89.837 81.549 C 87.02 82.667 83.881 82.571 81.071 81.543 C 80.798 81.005 80.638 80.433 80.569 79.844 Z  M 101.552 72.109 C 101.145 71.519 100.682 70.965 100.176 70.463 C 98.5 68.801 96.317 67.704 93.986 67.368 C 88.47 66.574 82.468 69.784 79.403 74.329 C 78.357 75.883 77.444 77.998 77.53 79.988 C 77.412 80.046 77.312 80.142 77.239 80.26 C 73.865 79.215 70.423 78.263 67.422 76.367 C 65.241 74.988 63.486 73.136 62.128 70.948 C 62.017 70.768 61.709 70.881 61.776 71.096 C 61.793 71.146 61.809 71.196 61.825 71.246 C 61.77 71.161 61.641 71.247 61.654 71.34 C 62.042 74.336 62.379 77.533 63.604 80.321 C 64.336 81.984 65.464 83.043 66.885 84.132 C 68.408 85.3 70.052 86.325 71.71 87.285 C 72.761 87.896 73.884 88.624 75.063 88.962 C 76.434 89.355 77.917 89.535 79.324 89.744 C 80.755 89.959 82.195 90.126 83.64 90.218 C 86.53 90.405 89.435 90.291 92.294 89.816 C 94.584 89.435 97.197 88.988 99.11 87.575 C 100.576 86.493 101.588 84.975 102.262 83.295 C 102.996 81.466 103.434 79.488 103.443 77.524 C 103.453 75.484 101.744 72.386 101.552 72.109 Z " fill="rgb(1,1,1)"/><path d=" M 68.23 86.181 C 68.252 86.165 68.285 86.158 68.306 86.181 C 68.641 86.573 68.573 87.171 68.584 87.668 L 68.585 87.714 C 68.609 88.439 68.614 89.162 68.612 89.888 L 68.604 92.199 C 68.603 92.517 68.578 92.848 68.594 93.167 L 68.602 93.291 C 68.779 93.472 68.86 93.732 68.801 93.995 C 68.79 94.331 68.614 94.612 68.358 94.788 L 68.908 95.568 L 69.458 96.348 C 70.592 97.957 71.739 99.552 72.935 101.116 C 74.153 102.712 75.453 104.247 76.814 105.723 C 77.479 106.445 78.155 107.156 78.846 107.852 C 79.127 108.134 79.416 108.41 79.7 108.688 L 79.984 108.969 C 80.151 109.136 80.362 109.302 80.474 109.514 C 80.539 109.639 80.554 109.948 80.577 109.999 C 80.787 110.461 80.429 111.196 79.834 110.966 L 79.861 110.948 C 79.969 110.872 79.9 110.871 79.652 110.944 C 79.497 110.943 79.35 110.908 79.214 110.837 L 79.173 110.814 C 78.981 110.716 78.809 110.528 78.652 110.376 L 78.614 110.339 C 78.256 110.004 77.915 109.649 77.572 109.298 C 76.858 108.568 76.158 107.822 75.481 107.055 C 74.131 105.527 72.852 103.936 71.639 102.296 C 70.405 100.626 69.257 98.869 68.27 97.042 C 67.896 96.348 67.552 95.641 67.223 94.925 C 66.583 94.72 66.434 94.038 66.479 93.27 C 66.242 92.72 66.029 92.158 65.903 91.584 C 65.886 91.505 65.987 91.431 66.048 91.499 C 66.253 91.732 66.443 91.98 66.625 92.234 C 66.735 91.696 66.874 91.201 66.94 90.885 L 67.224 89.491 C 65.623 89.408 63.869 90.066 62.765 91.217 C 62.706 91.517 62.476 91.731 62.251 92.011 C 61.993 92.332 61.769 92.691 61.602 93.067 C 61.231 93.9 61.44 95.129 60.721 95.74 C 60.646 95.804 60.562 95.848 60.476 95.875 C 60.817 97.55 60.662 99.396 60.654 101.094 L 60.654 101.244 C 60.656 103.146 60.593 105.049 60.519 106.948 L 60.444 108.829 C 60.347 111.337 60.284 113.846 60.528 116.34 C 61.641 115.354 62.791 114.414 63.981 113.518 C 64.764 112.929 65.562 112.36 66.374 111.813 L 67.035 111.372 C 67.826 110.842 68.636 110.296 69.503 109.916 C 70.636 109.419 71.713 109.59 72.807 110.099 C 73.897 110.607 74.954 111.196 76.022 111.746 C 77.109 112.306 78.198 112.861 79.287 113.417 C 80.008 113.785 81.064 114.118 81.593 114.796 C 81.627 114.646 81.666 114.496 81.712 114.347 C 81.659 114.12 81.68 113.874 81.807 113.64 C 83.584 110.375 85.229 107.031 86.861 103.692 C 87.687 102.002 88.473 100.292 89.301 98.604 L 90.106 96.959 C 90.241 96.685 90.375 96.411 90.511 96.137 C 90.714 95.728 90.925 95.323 91.131 94.914 C 91.217 94.742 91.326 94.57 91.411 94.396 L 91.451 94.309 C 91.453 94.305 91.648 93.691 91.497 93.75 L 91.484 93.756 C 91.407 93.8 91.346 93.703 91.396 93.642 C 91.609 93.378 91.905 93.611 92.027 93.856 C 92.362 94.526 91.748 95.579 91.512 96.222 L 91.499 96.258 C 90.767 98.331 89.937 100.366 89.088 102.393 C 87.458 106.28 85.708 110.108 83.962 113.942 L 83.941 114.008 C 84.314 113.722 84.711 113.464 85.051 113.211 C 85.91 112.575 86.795 111.97 87.677 111.367 C 89.296 110.26 90.959 109.227 92.649 108.236 L 92.987 108.038 C 93.831 107.546 94.668 107.147 95.669 107.294 C 96.6 107.432 97.466 107.932 98.307 108.338 L 98.394 108.38 L 100.992 109.615 C 100.715 108.507 100.414 107.405 100.1 106.306 C 99.488 104.163 98.815 102.039 98.084 99.934 C 97.402 97.966 96.665 96.02 95.885 94.09 L 95.65 93.511 C 95.332 92.716 95.016 91.849 94.107 91.604 C 93.199 91.36 92.157 91.722 91.327 91.205 C 91.251 91.158 91.261 91.033 91.352 91.01 L 91.864 90.881 C 92.826 90.642 93.954 90.401 94.863 90.634 C 95.853 90.887 96.671 91.718 97.152 92.582 C 97.686 93.542 98.062 94.618 98.467 95.642 L 98.531 95.804 C 98.997 96.963 99.443 98.129 99.872 99.302 C 100.728 101.648 101.506 104.022 102.212 106.418 C 102.552 107.572 102.874 108.732 103.184 109.895 C 103.273 110.23 103.42 110.635 103.54 111.058 C 103.678 111.193 103.809 111.343 103.932 111.515 C 104.135 111.799 103.99 112.133 103.736 112.303 C 103.727 112.594 103.662 112.868 103.507 113.102 C 102.904 114.018 101.308 113.782 101.373 112.551 C 101.383 112.362 101.457 112.182 101.568 112.03 L 101.564 112.006 L 101.552 111.96 C 101.275 111.828 100.997 111.68 100.704 111.535 L 97.977 110.187 C 97.187 109.797 96.311 109.194 95.433 109.045 C 94.613 108.906 93.75 109.516 93.046 109.884 L 93 109.908 C 91.299 110.78 89.611 111.681 87.929 112.589 C 87.108 113.032 86.297 113.494 85.48 113.943 C 84.796 114.318 84.058 114.857 83.289 115.069 C 82.961 115.324 82.571 115.29 82.258 115.097 C 82.401 115.984 82.392 116.894 82.436 117.801 C 82.495 119.014 82.504 120.23 82.523 121.444 L 82.531 121.899 C 82.583 124.584 82.611 127.268 82.621 129.953 C 82.657 139.514 82.551 149.077 82.527 158.637 C 82.514 163.441 82.419 168.248 82.294 173.05 C 82.242 175.085 82.131 177.117 82.012 179.149 L 81.946 180.257 C 81.807 182.595 81.725 184.959 81.292 187.265 C 81.235 187.566 80.726 187.573 80.676 187.265 C 80.278 184.793 80.256 182.268 80.179 179.767 L 80.163 179.268 C 80.071 176.583 80.027 173.899 80.037 171.214 C 80.071 161.649 80.319 152.091 80.523 142.529 C 80.625 137.725 80.694 132.919 80.853 128.116 C 80.932 125.713 81.022 123.312 81.129 120.91 C 81.176 119.838 81.222 118.766 81.293 117.695 L 81.326 117.236 C 81.348 116.937 81.366 116.641 81.387 116.349 C 80.42 116.702 79.535 116.048 78.664 115.6 C 77.661 115.083 76.658 114.567 75.655 114.051 L 74.651 113.537 L 72.64 112.511 C 71.735 112.049 71.038 111.59 70.073 112.132 C 66.595 114.083 63.399 116.679 60.503 119.403 C 59.948 119.926 58.774 119.785 58.634 118.91 C 58.033 115.169 58.398 111.374 58.705 107.622 L 58.818 106.229 C 58.956 104.565 59.104 102.901 59.303 101.244 C 59.392 100.503 59.481 99.762 59.579 99.022 L 59.654 98.467 C 59.777 97.59 59.857 96.719 60.118 95.878 C 60.036 95.851 59.956 95.808 59.886 95.74 C 59.1 94.995 59.479 93.702 59.838 92.816 C 60.191 91.941 60.731 91.177 61.407 90.52 C 61.554 90.376 61.762 90.284 61.971 90.279 C 63.609 89.193 65.406 88.652 67.276 89.244 C 67.329 88.993 67.383 88.742 67.439 88.492 L 67.497 88.242 C 67.641 87.622 67.695 86.597 68.23 86.181 Z " fill="rgb(1,1,1)"/><path d=" M 85.022 184.216 C 85.531 184.076 86.087 184.223 86.46 184.596 C 86.832 184.969 86.979 185.525 86.84 186.034 C 86.769 186.284 86.643 186.501 86.46 186.685 C 86.289 186.856 86.089 186.977 85.861 187.049 L 85.808 187.066 L 85.725 187.1 C 85.47 187.168 85.215 187.168 84.96 187.1 C 84.717 187.032 84.505 186.909 84.325 186.73 C 84.147 186.55 84.024 186.339 83.955 186.095 C 83.887 185.84 83.887 185.585 83.955 185.33 L 83.99 185.247 C 84.06 184.997 84.186 184.78 84.37 184.595 C 84.554 184.413 84.772 184.286 85.022 184.216 Z " fill="rgb(1,1,1)"/><path d=" M 115.21 133.55 C 115.294 133.453 115.429 133.576 115.377 133.678 C 114.585 135.231 113.702 136.772 112.835 138.286 C 112.905 138.705 112.973 139.121 113.052 139.527 C 113.39 141.254 113.804 142.952 114.074 144.697 C 115.044 150.968 115.548 157.308 115.98 163.636 C 116.413 169.986 116.469 176.339 116.534 182.703 C 116.54 183.254 116.116 183.895 115.547 183.999 C 115.287 184.046 115.092 184.037 114.832 183.999 C 114.241 183.912 113.87 183.234 113.845 182.703 C 113.675 179.147 113.447 175.595 113.183 172.044 C 112.714 165.749 112.428 159.438 112.049 153.136 L 111.916 150.934 C 111.773 148.547 111.642 146.159 111.6 143.769 C 111.571 142.186 111.656 140.603 111.604 139.021 C 111.556 137.561 111.408 135.974 111.73 134.539 C 111.742 134.485 111.827 134.472 111.851 134.523 C 112.186 135.228 112.398 135.993 112.561 136.775 C 113.424 135.685 114.303 134.591 115.21 133.55 Z " fill="rgb(1,1,1)"/><path d=" M 102.546 95.335 C 104.066 95.614 105.56 96.102 106.983 96.701 C 109.805 97.889 112.422 99.465 114.827 101.357 C 119.996 105.425 123.915 110.84 126.901 116.66 C 130.117 122.93 132.376 129.677 134.282 136.446 C 136.302 143.62 137.844 150.931 138.874 158.314 C 139.453 162.467 139.857 166.644 140.102 170.83 C 140.223 172.893 140.305 174.958 140.346 177.024 C 140.367 178.102 140.381 179.18 140.377 180.258 C 140.374 180.793 140.406 181.342 140.361 181.875 C 140.321 182.372 140.04 182.735 139.753 183.115 L 139.655 183.248 C 139.386 183.612 138.909 183.633 138.644 183.248 C 138.42 182.924 138.118 182.582 138.011 182.193 C 137.896 181.773 137.972 181.229 137.973 180.796 C 137.974 179.853 137.971 178.91 137.96 177.967 C 137.937 176.125 137.883 174.284 137.797 172.445 C 137.629 168.856 137.342 165.272 136.937 161.702 C 136.115 154.483 134.849 147.319 133.067 140.274 C 129.861 127.594 125.485 114.101 115.884 104.745 C 113.479 102.401 110.759 100.354 107.797 98.766 C 106.282 97.954 104.708 97.272 103.093 96.686 L 102.956 96.636 C 101.357 96.051 99.722 95.362 98.03 95.166 C 97.914 95.152 97.909 94.97 98.03 94.979 C 99.547 95.098 101.043 95.059 102.546 95.335 Z " fill="rgb(1,1,1)"/><path d=" M 85.313 172.253 C 85.582 172.252 85.881 172.31 86.111 172.459 L 86.419 172.697 C 86.503 172.804 86.585 172.911 86.668 173.019 C 86.861 173.269 86.886 173.675 86.846 173.974 C 86.837 174.174 86.778 174.359 86.668 174.531 L 86.434 174.835 C 86.209 175.019 86.021 175.15 85.748 175.238 C 85.606 175.284 85.468 175.294 85.332 175.286 L 85.286 175.283 L 85.313 175.287 L 85.265 175.282 C 85.221 175.278 85.176 175.273 85.131 175.267 C 85.101 175.263 85.071 175.261 85.04 175.257 C 85.01 175.254 84.982 175.253 84.953 175.256 C 84.606 175.289 84.258 175.092 84.012 174.866 C 83.79 174.663 83.591 174.231 83.622 173.925 L 83.635 173.797 C 83.658 173.582 83.678 173.497 83.769 173.28 C 83.858 173.069 83.982 172.883 84.151 172.726 C 84.474 172.426 84.87 172.256 85.313 172.253 Z " fill="rgb(1,1,1)"/><path d=" M 84.24 156.47 C 84.7 155.969 85.491 155.932 86.061 156.235 C 86.2 156.309 86.328 156.428 86.45 156.527 C 86.758 156.776 86.88 157.227 86.897 157.606 C 86.914 157.981 86.716 158.427 86.45 158.686 L 86.386 158.748 C 86.227 158.903 85.999 159.038 85.776 159.078 C 85.418 159.144 85.116 159.142 84.783 159.001 C 84.496 158.88 84.248 158.686 84.08 158.421 L 84.053 158.376 C 84.041 158.358 84.03 158.34 84.02 158.32 L 84.005 158.291 C 83.686 157.676 83.772 156.98 84.24 156.47 Z " fill="rgb(1,1,1)"/><path d=" M 84.479 140.604 C 84.686 140.539 84.893 140.53 85.101 140.576 C 85.242 140.576 85.373 140.612 85.495 140.683 C 85.627 140.719 85.742 140.786 85.839 140.883 C 85.956 140.953 86.05 141.046 86.12 141.163 C 86.257 141.314 86.35 141.491 86.399 141.694 L 86.454 142.109 L 86.399 142.524 L 86.242 142.897 C 86.198 142.953 86.155 143.009 86.111 143.065 C 86.041 143.183 85.948 143.277 85.83 143.347 C 85.754 143.423 85.666 143.48 85.568 143.519 C 85.221 143.768 84.758 143.849 84.346 143.736 C 84.101 143.667 83.889 143.544 83.709 143.365 C 83.53 143.185 83.407 142.972 83.338 142.728 L 83.31 142.533 C 83.274 142.271 83.268 142.126 83.342 141.793 C 83.375 141.647 83.469 141.44 83.518 141.354 C 83.729 140.982 84.074 140.728 84.479 140.604 Z " fill="rgb(1,1,1)"/><path d=" M 102.494 129.189 C 103.09 129.185 103.685 129.186 104.281 129.193 L 104.728 129.199 C 105.476 129.211 106.117 129.133 106.705 129.652 C 107.131 130.029 106.943 130.661 106.538 130.945 C 105.924 131.374 105.155 131.158 104.449 131.111 C 103.704 131.061 102.96 131.019 102.214 130.986 C 100.772 130.922 99.328 130.88 97.884 130.874 C 96.443 130.868 95 130.882 93.559 130.905 C 92.093 130.929 90.567 131.065 89.109 130.914 C 88.908 130.893 88.864 130.63 89.061 130.561 C 90.435 130.086 91.98 129.932 93.42 129.75 C 94.905 129.562 96.39 129.43 97.884 129.344 C 99.419 129.255 100.956 129.2 102.494 129.189 Z " fill="rgb(1,1,1)"/><path d=" M 84.476 124.521 L 84.525 124.522 C 84.787 124.523 85.033 124.584 85.262 124.707 L 85.31 124.734 L 85.625 124.977 C 85.818 125.171 85.951 125.4 86.025 125.664 L 86.081 126.077 C 86.089 126.292 86.044 126.491 85.947 126.676 C 85.884 126.869 85.777 127.036 85.625 127.177 C 85.484 127.329 85.317 127.436 85.125 127.499 C 84.954 127.589 84.77 127.634 84.575 127.634 L 84.525 127.633 C 84.245 127.632 83.983 127.561 83.741 127.42 L 83.426 127.177 C 83.233 126.983 83.099 126.754 83.026 126.491 L 82.97 126.077 C 82.962 125.863 83.006 125.663 83.104 125.478 C 83.166 125.285 83.274 125.118 83.425 124.977 C 83.566 124.826 83.733 124.718 83.926 124.656 C 84.097 124.566 84.28 124.521 84.476 124.521 Z " fill="rgb(1,1,1)"/><path d=" M 89.087 87.976 C 89.423 87.49 90.03 87.922 89.943 88.312 C 89.966 89.409 90.022 90.472 90.271 91.546 C 90.386 92.038 90.535 92.53 90.766 92.98 L 90.863 93.17 C 91.162 93.76 91.394 94.317 90.991 94.964 C 90.802 95.269 90.459 95.498 90.088 95.482 C 88.441 95.411 88.214 93.118 88.114 91.838 C 88.011 90.52 88.332 89.071 89.087 87.976 Z " fill="rgb(1,1,1)"/><path d=" M 91.343 133.957 C 91.319 133.963 91.306 133.966 91.306 133.966 C 91.306 133.966 91.319 133.963 91.343 133.957 Z " fill="rgb(1,1,1)"/><path d=" M 80.93 118.177 C 79.206 118.337 75.809 118.561 74.294 119.486 C 74.294 119.486 74.282 121.736 74.299 123.132 C 74.325 125.363 74.329 127.592 74.437 129.821 C 74.682 134.869 75.156 145.355 74.95 145.444 C 76.701 146.555 80.505 146.418 82.431 146.469 C 84.783 146.531 88.492 146.762 90.656 145.68 C 90.971 145.523 92.148 134.161 92.222 131.838 C 92.287 129.778 92.23 127.717 92.339 125.659 C 92.421 124.108 92.407 120.926 92.459 119.379 C 92.459 119.379 90.368 118.62 87.48 118.382 C 85.305 118.203 83.107 117.976 80.93 118.177 Z " fill="rgb(255,255,255)"/><path d=" M 89.009 117.453 C 85.324 117.151 81.526 116.913 77.86 117.178 C 75.358 117.359 72.865 116.791 72.675 119.643 C 72.44 123.15 72.802 128.773 73.022 132.273 C 73.289 136.502 73.79 140.715 74.436 144.902 C 74.456 145.031 74.52 145.138 74.608 145.227 C 74.221 145.397 74.016 145.805 74.51 146.165 C 76.126 147.343 78.604 147.415 80.512 147.576 C 83.254 147.808 86.057 147.785 88.785 147.402 C 89.635 147.282 89.903 147.364 90.673 146.97 C 91.526 146.534 92.805 140.54 93.513 133.67 C 93.737 131.495 93.816 130.078 93.817 127.894 C 93.817 126.175 93.968 121.075 93.968 119.354 C 93.969 117.938 92.046 117.702 89.009 117.453 Z  M 92.339 125.659 C 92.23 127.717 92.286 129.778 92.221 131.838 C 92.148 134.162 90.971 145.523 90.656 145.68 C 88.491 146.762 84.783 146.532 82.431 146.469 C 80.505 146.418 76.701 146.555 74.949 145.444 C 75.156 145.355 74.682 134.869 74.437 129.822 C 74.328 127.592 74.325 125.363 74.299 123.132 C 74.282 121.736 74.294 119.486 74.294 119.486 C 75.809 118.561 79.206 118.337 80.93 118.178 C 83.106 117.976 85.304 118.203 87.48 118.382 C 90.367 118.62 92.458 119.379 92.458 119.379 C 92.406 120.926 92.421 124.108 92.339 125.659 Z " fill="rgb(1,1,1)"/><path d=" M 73.531 136.606 C 74.835 135.363 76.554 134.46 78.123 133.58 L 78.251 133.509 C 79.102 133.03 79.923 132.515 80.832 132.15 C 81.715 131.797 82.609 131.47 83.512 131.174 L 83.6 131.146 C 84.599 130.838 87.2 130.301 86.762 128.819 C 86.472 127.838 84.814 128.02 84.072 128.169 C 80.669 128.854 77.45 130.499 74.437 132.167 L 73.765 132.539 C 72.532 133.224 71.3 133.921 70.106 134.669 C 68.754 135.516 67.777 136.591 66.954 137.95 C 66.041 139.456 65.172 140.983 64.206 142.457 C 63.597 143.386 62.975 144.304 62.345 145.217 C 62.217 145.487 62.128 145.771 62.101 146.119 C 62.054 146.707 62.204 147.212 62.391 147.764 C 62.862 149.161 63.213 150.599 63.724 151.983 C 64.197 153.264 64.754 154.578 65.571 155.684 C 65.894 156.123 66.281 156.538 66.696 156.895 L 67.03 157.176 C 67.176 157.298 67.337 157.431 67.503 157.553 C 67.647 157.272 67.895 157.055 68.232 157.022 C 68.948 156.952 69.493 156.813 70.143 156.503 C 70.646 156.263 71.14 156.004 71.639 155.754 C 72.617 155.264 73.611 154.794 74.57 154.267 L 74.735 154.176 C 75.448 153.775 76.149 153.314 76.677 152.682 C 77.291 151.947 77.338 151.07 77.73 150.235 C 78.566 148.453 81.099 147.933 82.719 147.142 C 84.095 146.469 85.372 145.603 86.147 144.329 C 86.147 144.329 87.031 143.1 87.029 143.176 C 87.174 142.935 86.911 142.955 86.036 143.257 C 83.738 144.051 81.406 144.809 79.031 145.329 C 78.376 145.473 78.166 144.482 78.81 144.316 C 81.305 143.671 83.779 142.992 86.209 142.124 C 87.465 141.675 88.707 141.185 89.933 140.661 C 90.407 140.458 90.878 140.251 91.346 140.038 L 91.697 139.877 C 91.917 139.775 92.555 139.559 92.827 139.276 C 92.866 139.155 92.905 139.034 92.944 138.912 C 92.831 138.542 91.882 138.801 91.657 138.85 C 91.019 138.988 90.382 139.132 89.744 139.273 C 88.468 139.555 87.19 139.823 85.911 140.091 C 83.357 140.626 80.778 141.095 78.253 141.76 C 77.64 141.922 77.099 141 77.654 140.606 C 80.101 138.865 83.042 137.961 85.847 136.979 C 87.322 136.462 88.791 135.916 90.191 135.216 L 90.536 135.043 C 91.415 134.601 92.379 134.086 93.039 133.347 C 91.757 133.127 90.305 133.501 89.069 133.7 L 88.974 133.715 C 87.242 133.982 85.518 134.302 83.804 134.673 C 80.298 135.433 77.812 136.057 74.348 136.986 C 74.261 137.01 74.155 136.902 74.102 136.83 C 73.847 136.479 73.39 136.741 73.531 136.606 Z " fill="rgb(236,185,137)"/><path d=" M 94.688 132.784 C 94.723 132.601 94.497 132.455 94.282 132.362 C 92.867 131.746 91.242 132.083 89.768 132.338 L 89.132 132.446 C 87.402 132.744 85.681 133.095 83.972 133.495 C 80.303 134.356 76.728 135.533 73.301 137.103 C 73.22 137.14 73.269 137.275 73.356 137.251 C 76.82 136.322 80.299 135.433 83.804 134.673 C 85.518 134.302 87.242 133.982 88.975 133.715 L 89.07 133.7 C 90.305 133.501 91.757 133.127 93.039 133.347 C 92.38 134.086 91.416 134.601 90.537 135.043 L 90.191 135.216 C 88.792 135.916 87.322 136.462 85.847 136.979 C 83.043 137.961 80.101 138.865 77.654 140.606 C 77.1 141 77.641 141.922 78.254 141.76 C 80.778 141.095 83.357 140.626 85.911 140.091 C 87.19 139.823 88.468 139.556 89.744 139.273 C 90.382 139.133 91.019 138.988 91.657 138.85 C 91.882 138.802 92.831 138.542 92.944 138.912 C 92.906 139.034 92.866 139.155 92.827 139.276 C 92.555 139.559 91.918 139.776 91.698 139.877 L 91.347 140.038 C 90.878 140.251 90.407 140.459 89.934 140.661 C 88.707 141.185 87.465 141.675 86.209 142.124 C 83.78 142.992 81.305 143.671 78.81 144.316 C 78.166 144.482 78.376 145.473 79.031 145.329 C 81.407 144.809 83.738 144.051 86.036 143.257 C 86.911 142.955 87.175 142.935 87.029 143.176 C 87.031 143.1 86.148 144.329 86.148 144.329 C 85.372 145.603 84.095 146.47 82.719 147.142 C 81.1 147.933 78.566 148.453 77.73 150.235 C 77.339 151.07 77.291 151.947 76.678 152.682 C 76.149 153.314 75.448 153.775 74.735 154.176 L 74.57 154.267 C 73.611 154.794 72.617 155.264 71.639 155.754 C 71.141 156.004 70.646 156.263 70.144 156.503 C 69.494 156.813 68.949 156.953 68.233 157.022 C 67.896 157.055 67.647 157.272 67.504 157.553 C 67.338 157.431 67.176 157.298 67.03 157.176 L 66.696 156.895 C 66.282 156.538 65.895 156.123 65.571 155.684 C 64.755 154.578 64.197 153.264 63.724 151.983 C 63.213 150.599 62.863 149.161 62.391 147.764 C 62.205 147.211 62.054 146.707 62.101 146.119 C 62.129 145.771 62.217 145.487 62.345 145.217 C 62.975 144.304 63.597 143.386 64.206 142.457 C 65.172 140.983 66.042 139.456 66.955 137.95 C 67.777 136.591 68.754 135.517 70.106 134.669 C 71.3 133.921 72.532 133.224 73.765 132.54 L 74.438 132.167 C 77.45 130.499 80.669 128.854 84.072 128.169 C 84.814 128.02 86.472 127.838 86.762 128.819 C 87.201 130.301 84.599 130.838 83.601 131.146 L 83.513 131.174 C 82.609 131.47 81.715 131.796 80.833 132.15 C 79.924 132.515 79.102 133.03 78.251 133.509 L 78.124 133.58 C 76.554 134.46 74.836 135.363 73.531 136.606 C 73.39 136.741 73.551 136.949 73.721 136.876 C 75.548 136.093 77.215 134.982 79.09 134.283 C 80.903 133.607 82.732 132.921 84.584 132.358 C 86.066 131.907 87.738 131.333 88.19 129.659 C 88.552 128.315 87.681 127.115 86.406 126.742 C 85.033 126.34 83.596 126.68 82.258 127.066 L 82.022 127.134 C 81.662 127.24 77.053 129.037 76.577 129.264 C 74.787 130.12 73.051 131.08 71.325 132.056 C 70.777 132.366 67.445 134.557 66.934 135.153 C 65.791 136.489 64.954 138.121 64.177 139.718 L 63.728 140.643 C 63.121 141.892 62.551 143.159 61.995 144.432 C 61.465 144.543 61.002 144.843 60.634 145.247 C 60.443 145.109 60.201 145.043 59.961 145.104 C 59.156 145.307 58.657 145.812 58.043 146.344 L 57.388 146.912 C 56.95 147.291 56.513 147.669 56.075 148.046 C 54.824 149.123 53.563 150.186 52.31 151.261 C 51.777 151.718 51.098 152.298 50.327 152.948 C 48.197 154.742 45.338 157.077 42.724 158.91 C 42.778 156.454 42.829 153.998 42.865 151.541 C 42.889 149.856 43.835 138.726 43.78 137.043 C 43.723 135.336 43.687 133.62 43.316 131.953 C 43.287 131.821 43.113 131.846 43.073 131.953 C 42.943 132.296 42.767 133.191 42.568 134.402 L 42.572 134.376 C 42.572 134.376 40.341 133.077 39.79 133.273 C 39.239 133.47 40.665 133.895 41.58 134.376 C 42.494 134.858 42.494 134.858 42.494 134.858 L 42.508 134.775 C 41.728 139.645 40.644 148.817 40.605 149.163 C 40.557 149.583 40.51 150.002 40.46 150.416 L 40.397 150.96 C 40.061 153.861 39.811 156.782 39.626 159.694 C 39.626 159.697 39.626 159.699 39.626 159.701 C 39.595 160.182 39.572 160.664 39.544 161.145 C 38.969 161.459 38.393 161.771 37.813 162.074 L 37.715 162.126 C 35.716 163.177 33.806 164.326 32.308 165.947 C 31.796 166.502 32.087 167.074 32.589 166.638 C 34.035 165.381 35.662 164.291 37.421 163.536 L 39.459 162.646 L 40.161 162.34 C 40.16 162.36 40.16 162.379 40.159 162.399 C 40.489 162.238 40.835 162.068 41.184 161.893 L 41.729 161.655 C 42.018 161.518 42.34 161.363 42.673 161.201 C 42.673 161.177 42.674 161.154 42.674 161.131 C 43.157 160.878 43.615 160.631 44.012 160.407 C 45.676 159.47 48.139 157.605 50.326 155.852 C 51.287 155.082 52.195 154.333 52.957 153.695 C 54.355 152.524 55.726 151.322 57.09 150.111 C 57.771 149.506 58.45 148.9 59.129 148.292 C 59.317 148.123 59.509 147.961 59.696 147.799 C 59.718 148.652 59.917 149.535 60.125 150.375 L 60.249 150.873 C 60.534 152.019 60.899 153.169 61.373 154.25 C 62.158 156.042 63.31 157.695 64.806 158.965 C 64.898 159.043 64.993 159.121 65.089 159.2 C 64.858 159.468 62.805 163.734 57.493 169.864 C 56.827 170.633 56.112 171.43 55.341 172.253 C 45.98 182.24 40.154 186.189 39.526 186.704 C 39.35 186.81 39.185 186.908 39.017 186.997 C 38.49 187.277 37.905 187.493 36.657 187.764 C 34.894 188.149 33.239 187.715 32.724 187.461 C 32.106 187.155 31.527 186.817 30.98 186.395 C 29.865 185.536 28.887 184.494 28.071 183.35 C 26.406 181.019 25.044 178.438 23.795 175.858 L 23.582 175.416 C 18.448 163.309 21.892 147.319 23.673 140.274 C 26.879 127.594 31.255 114.101 40.856 104.745 C 43.261 102.401 45.981 100.354 48.943 98.766 C 50.458 97.954 52.032 97.272 53.647 96.686 L 53.784 96.636 C 55.382 96.051 57.018 95.362 58.71 95.166 C 58.827 95.152 58.831 94.97 58.71 94.979 C 57.193 95.097 55.697 95.059 54.194 95.335 C 52.674 95.613 51.18 96.102 49.756 96.701 C 46.935 97.888 44.317 99.465 41.913 101.356 C 36.743 105.425 32.825 110.839 29.839 116.66 C 26.622 122.929 24.364 129.677 22.458 136.445 C 20.49 143.436 15.93 158.17 19.076 170.007 C 19.548 171.782 20.382 173.439 21.143 175.108 C 22.634 178.377 24.398 181.585 26.531 184.481 C 27.527 185.833 28.606 187.158 29.964 188.164 C 30.599 188.633 31.345 189.126 32.103 189.37 C 32.565 189.52 35.032 190.313 38.255 189.344 C 38.253 189.345 38.25 189.346 38.25 189.347 C 39.549 189.222 40.682 188.558 41.298 188.054 C 41.328 188.031 41.357 188.007 41.385 187.982 C 41.4 187.969 41.42 187.954 41.435 187.941 C 44.428 185.558 49.345 181.558 50.46 180.442 C 53.273 177.626 56.574 174.614 60.236 169.865 C 62.262 167.238 64.398 164.081 66.624 160.128 C 66.987 160.253 67.368 160.31 67.767 160.251 C 68.527 160.14 69.348 159.538 69.399 158.748 C 69.597 158.521 69.78 158.313 70.058 158.144 C 70.296 158 70.545 157.868 70.79 157.74 C 71.366 157.438 71.957 157.162 72.54 156.873 L 72.78 156.754 C 73.664 156.32 74.557 155.901 75.415 155.42 C 76.253 154.95 77.077 154.401 77.716 153.676 C 78.308 153.002 78.579 152.275 78.848 151.457 L 78.932 151.2 C 79.292 150.092 80.43 149.717 81.393 149.241 L 81.709 149.084 C 82.607 148.636 83.499 148.171 84.321 147.595 C 85.347 146.877 87.199 144.963 87.886 142.811 C 89.375 142.461 94.556 139.621 94.085 138.369 C 93.528 136.887 82.602 139.734 81.901 139.918 C 82.62 139.727 93.953 136.66 94.688 132.784 Z " fill="rgb(1,1,1)"/><path d=" M 79.63 124.577 C 79.584 125.279 78.979 125.811 78.277 125.765 L 76.936 125.678 C 76.235 125.633 75.703 125.028 75.748 124.326 L 75.948 121.248 C 75.994 120.547 76.599 120.015 77.301 120.06 L 78.642 120.147 C 79.343 120.193 79.875 120.798 79.829 121.5 L 79.63 124.577 L 79.63 124.577 Z " fill="rgb(1,1,1)"/><path d=" M 153.547 201.053 C 152.639 201.053 151.838 200.396 151.686 199.471 C 151.604 198.97 141.378 148.852 144.503 100.216 C 148.381 39.839 155.581 19.4 157.434 13.68 C 150.991 11.302 125.715 3.156 81.897 3.156 C 55.119 3.156 12.961 6.622 3.832 7.4 C 4.036 13.372 4.087 33.943 6.917 61.572 C 11.118 102.585 10.686 194.704 10.698 195.711 C 10.711 196.753 9.877 197.609 8.834 197.622 C 8.826 197.622 8.818 197.622 8.81 197.622 C 7.778 197.622 6.936 196.793 6.922 195.758 C 6.91 194.753 4.752 95.483 3.152 61.855 C 1.577 28.751 0.007 5.952 0.001 5.725 C -0.027 4.727 0.727 3.88 1.721 3.792 C 2.217 3.747 36.605 -0.935 82.019 0.219 C 133.945 1.538 159.533 10.397 160.601 10.866 C 161.07 11.072 161.436 11.46 161.613 11.94 C 161.791 12.42 161.766 12.952 161.543 13.414 C 161.485 13.54 155.04 28.211 150.399 100.465 C 147.302 148.676 155.331 198.363 155.413 198.859 C 155.581 199.888 154.884 200.859 153.855 201.028 C 153.751 201.045 153.648 201.053 153.547 201.053 Z " fill="rgb(0,0,0)"/><path d=" M 12.084 266.422 C 19.561 261.154 14.489 261.284 28.479 240.586 C 42.469 219.887 57.379 208.246 57.379 208.246 C 57.379 208.246 104.668 177.934 104.072 211.673 C 103.451 246.784 104.4 254.757 96.254 266.027 C 88.109 277.296 79.381 279.034 66.44 281.722 C 53.5 284.408 30.015 283.568 26.415 286.276 C 22.815 288.984 12.084 266.422 12.084 266.422 Z " fill="rgb(236,185,137)"/><path d=" M 25.738 288.389 C 23.931 288.389 19.712 287.854 15.737 277.406 C 12.745 269.539 9.697 266.129 9.598 265.921 C 9.203 265.09 10.245 265.408 10.997 264.878 C 14.359 262.51 15.111 261.682 16.172 258.393 C 18.513 251.133 22.394 245.784 30.68 236.344 C 39.145 226.7 55.599 207.241 56.217 206.758 C 56.263 206.722 56.311 206.688 56.36 206.657 C 57.176 206.134 76.507 193.847 90.697 193.847 C 95.378 193.847 99.065 195.185 101.657 197.823 C 104.621 200.84 106.069 205.511 105.959 211.707 C 105.887 215.809 105.834 219.604 105.789 222.952 C 105.434 248.875 106.825 250.714 100.008 262.251 C 92.616 274.761 79.981 280.839 67.121 283.509 L 66.824 283.57 C 60.702 284.841 52.548 286.323 44.563 285.787 C 34.56 285.115 29.008 286.688 27.55 287.785 C 27.024 288.18 26.398 288.389 25.738 288.389 Z  M 14.471 267.007 C 15.335 268.751 16.933 271.893 18.748 275.067 C 22.997 282.499 25.808 285.914 26.415 286.276 C 28.927 284.773 34.203 282.604 44.345 282.017 C 51.745 281.588 60.134 281.102 66.056 279.873 L 66.353 279.811 C 78.828 277.221 87.07 275.51 94.724 264.921 C 101.567 255.453 101.662 248.557 102.013 222.901 C 102.059 219.549 102.111 215.749 102.184 211.639 C 102.275 206.494 101.191 202.736 98.964 200.469 C 97.109 198.58 94.327 197.622 90.697 197.622 C 78.024 197.622 59.806 208.948 58.474 209.787 C 57.376 210.664 43.212 222.159 30.044 241.643 C 23.242 251.706 21.067 256.646 19.628 259.914 C 18.223 263.103 17.43 264.708 14.471 267.007 Z " fill="rgb(0,0,0)"/><path d=" M 67.437 155.573 C 61.387 156.132 49.463 156.918 44.144 160.165 C 44.144 160.165 44.103 168.063 44.161 172.963 C 44.254 180.793 44.267 188.617 44.647 196.441 C 45.507 214.158 47.17 250.96 46.445 251.274 C 52.593 255.174 65.945 254.693 72.705 254.872 C 80.959 255.091 93.977 255.9 101.573 252.103 C 102.678 251.55 106.809 211.673 107.067 203.519 C 107.296 196.289 107.097 189.056 107.479 181.832 C 107.768 176.389 107.717 165.221 107.9 159.791 C 107.9 159.791 100.56 157.127 90.426 156.292 C 82.79 155.663 75.075 154.866 67.437 155.573 Z " fill="rgb(255,255,255)"/><path d=" M 95.793 153.032 C 82.859 151.972 69.529 151.135 56.661 152.065 C 47.88 152.701 39.131 150.707 38.462 160.717 C 37.638 173.027 38.909 192.76 39.683 205.047 C 40.618 219.891 42.378 234.675 44.645 249.371 C 44.716 249.824 44.94 250.201 45.249 250.51 C 43.89 251.11 43.172 252.54 44.906 253.805 C 50.578 257.942 59.273 258.192 65.971 258.758 C 75.597 259.571 85.433 259.491 95.01 258.146 C 97.993 257.727 98.931 258.014 101.634 256.632 C 104.628 255.101 109.119 234.065 111.604 209.952 C 112.391 202.318 112.667 197.343 112.669 189.677 C 112.669 183.643 113.2 165.745 113.2 159.703 C 113.199 154.734 106.45 153.905 95.793 153.032 Z  M 107.479 181.832 C 107.097 189.056 107.296 196.289 107.067 203.519 C 106.808 211.673 102.678 251.55 101.573 252.102 C 93.976 255.9 80.959 255.091 72.704 254.872 C 65.944 254.693 52.592 255.174 46.445 251.274 C 47.17 250.96 45.507 214.158 44.647 196.441 C 44.267 188.616 44.254 180.793 44.161 172.962 C 44.103 168.063 44.143 160.164 44.143 160.164 C 49.463 156.918 61.387 156.132 67.437 155.572 C 75.074 154.866 82.79 155.663 90.426 156.292 C 100.559 157.126 107.899 159.79 107.899 159.79 C 107.716 165.22 107.768 176.388 107.479 181.832 Z " fill="rgb(1,1,1)"/><path d=" M 63.583 199.165 C 68.639 199.165 72.737 195.067 72.737 190.011 C 72.737 184.955 68.639 180.856 63.583 180.856 C 58.527 180.856 54.429 184.955 54.429 190.011 C 54.429 195.067 58.527 199.165 63.583 199.165 Z " fill="rgb(196,196,195)"/><path d=" M 87.811 199.165 C 92.867 199.165 96.965 195.067 96.965 190.011 C 96.965 184.955 92.867 180.856 87.811 180.856 C 82.755 180.856 78.657 184.955 78.657 190.011 C 78.657 195.067 82.755 199.165 87.811 199.165 Z " fill="rgb(196,196,195)"/><path d=" M 63.583 222.449 C 68.639 222.449 72.737 218.351 72.737 213.295 C 72.737 208.239 68.639 204.14 63.583 204.14 C 58.527 204.14 54.429 208.239 54.429 213.295 C 54.429 218.351 58.527 222.449 63.583 222.449 Z " fill="rgb(196,196,195)"/><path d=" M 87.811 222.449 C 92.867 222.449 96.965 218.351 96.965 213.295 C 96.965 208.239 92.867 204.14 87.811 204.14 C 82.755 204.14 78.657 208.239 78.657 213.295 C 78.657 218.351 82.755 222.449 87.811 222.449 Z " fill="rgb(196,196,195)"/><path d=" M 39.739 235.925 C 39.739 235.925 65.891 220.514 69.889 225.701 C 73.888 230.888 61.978 238.419 55.535 244.42 C 49.092 250.421 50.189 249.046 50.094 252.21 C 50.094 252.21 48.468 261.338 41.817 266.335 C 35.166 271.333 32.18 267.584 32.18 267.584" fill="rgb(236,185,137)"/><path d=" M 35.452 269.539 C 32.317 269.539 30.794 268.902 30.704 268.759 C 30.198 267.963 28.425 264.164 33.657 266.407 C 33.67 266.413 33.646 266.391 33.622 266.364 C 33.705 266.456 36.724 269.68 41.325 265.501 C 49.9 257.713 49.507 253.545 48.211 252.005 C 48.217 251.667 48.208 251.385 48.2 251.133 C 48.122 248.709 48.616 248.252 52.464 244.693 C 52.983 244.213 53.574 243.666 54.248 243.038 C 55.685 241.7 57.332 240.332 59.075 238.886 C 63.86 234.913 70.414 229.473 68.394 226.853 C 68.378 226.832 66.463 224.955 54.097 230.585 C 47.23 233.712 40.762 237.513 40.698 237.551 C 39.8 238.081 37.791 239.394 37.471 238.402 C 37.338 237.989 38.303 235.47 39.202 234.941 C 39.472 234.781 46.314 232.25 53.361 229.041 C 64.038 224.18 70.786 222.959 73.105 226.052 C 74.049 227.31 72.358 231.204 69.133 234.311 C 66.668 236.686 64.627 239.184 61.486 241.791 C 59.786 243.202 58.179 244.536 56.822 245.801 C 56.144 246.432 55.549 246.982 55.028 247.464 C 53.369 248.998 51.493 250.176 51.299 250.542 C 52.037 254.2 49.244 264.819 44.13 267.389 C 40.742 269.091 37.355 269.539 35.452 269.539 Z " fill="rgb(0,0,0)"/><circle vector-effect="non-scaling-stroke" cx="63.5" cy="190.5" r="9.5" fill="rgb(85,175,138)"/><path d=" M 68.412 194.632 L 63.662 184.182 L 58.912 194.632 L 63.662 193.682 L 68.412 194.632 L 68.412 194.632 Z " fill-rule="evenodd" fill="rgb(241,245,241)"/><circle vector-effect="non-scaling-stroke" cx="63.5" cy="190.5" r="9.5" fill="rgb(196,196,196)"/><path d=" M 68.412 194.632 L 63.662 184.182 L 58.912 194.632 L 63.662 193.682 L 68.412 194.632 L 68.412 194.632 Z " fill-rule="evenodd" fill="rgb(241,245,241)"/><path d=" M 63.5 223 C 58.257 223 54 218.743 54 213.5 C 54 208.257 58.257 204 63.5 204 C 68.743 204 73 208.257 73 213.5 C 73 218.743 68.743 223 63.5 223 Z " fill="rgb(196,196,196)"/><path d=" M 67.633 208.588 L 57.183 213.338 L 67.633 218.088 L 66.683 213.338 L 67.633 208.588 L 67.633 208.588 Z " fill-rule="evenodd" fill="rgb(241,245,241)"/><path d=" M 88.5 181 C 93.743 181 98 185.257 98 190.5 C 98 195.743 93.743 200 88.5 200 C 83.257 200 79 195.743 79 190.5 C 79 185.257 83.257 181 88.5 181 Z " fill="rgb(85,175,138)"/><path d=" M 84.368 195.412 L 94.818 190.662 L 84.368 185.912 L 85.318 190.662 L 84.368 195.412 L 84.368 195.412 Z " fill-rule="evenodd" fill="rgb(241,245,241)"/><path d=" M 98 213.5 C 98 218.743 93.743 223 88.5 223 C 83.257 223 79 218.743 79 213.5 C 79 208.257 83.257 204 88.5 204 C 93.743 204 98 208.257 98 213.5 Z " fill="rgb(196,196,196)"/><path d=" M 83.588 209.368 L 88.338 219.818 L 93.088 209.368 L 88.338 210.318 L 83.588 209.368 L 83.588 209.368 Z " fill-rule="evenodd" fill="rgb(241,245,241)"/><circle vector-effect="non-scaling-stroke" cx="109" cy="160" r="12" fill="rgb(242,49,47)" fill-opacity="0.8"/></g></svg>