<svg width="162" height="289" viewBox="0 0 162 289" fill="none" xmlns="http://www.w3.org/2000/svg">
<path d="M154.571 206C154.571 206 145.522 151.391 148.669 101.305C153.432 25.5224 160 11.5822 160 11.5822C160 11.5822 134.191 0 82.032 0C51.5771 0 2 4.5042 2 4.5042C2 4.5042 2.62948 27.6686 5.14741 61.8053C7.66534 95.9419 8.9243 198.842 8.9243 198.842C8.9243 198.842 28.837 204.15 35.4818 204.072C128.894 202.971 154.571 206 154.571 206Z" fill="#E6ECF6"/>
<path d="M97.9407 99.0972C97.3542 97.5972 96.7456 95.9979 95.8498 95.1612C94.4836 93.885 92.4588 94.3419 89.9495 94.7525C90.4105 88.5218 87.5349 86.935 83.5734 85.7507C83.1823 85.6012 82.7915 85.4665 82.4014 85.3429C79.1472 85.1909 72.9084 82.7879 69.916 83.1158C67.5794 84.3458 68.7525 89.1643 67.979 92.9055C66.1651 92.9055 64.7954 93.3419 63.5953 93.9605C65.3769 101.125 69.4277 113.938 76.1722 117.064C83.2062 120.323 92.883 108.103 97.9407 99.0972Z" fill="#ECB989"/>
<path d="M62.9682 91.2508C64.1098 90.0601 65.8998 89.3487 67.5949 89.3887L67.6741 89.3915L68.2496 89.4173L67.8648 91.3036L67.8453 91.393L67.767 91.7206L67.6625 92.1494L67.6254 92.3071L67.5864 92.482C67.5801 92.5103 67.5741 92.5383 67.5681 92.566L67.5511 92.6488L67.3872 93.4502L67.4177 93.5219L67.4092 93.7038C67.3837 94.3624 67.5256 94.7242 67.8378 94.84L67.8629 94.8488L68.041 94.9061L68.1864 95.222C68.5212 95.9438 68.8336 96.5744 69.1543 97.1684C70.0891 98.9006 71.2048 100.632 72.4908 102.372C73.7129 104.026 74.986 105.604 76.3097 107.103C76.905 107.777 77.5337 108.453 78.2027 109.141L78.7788 109.731L78.9619 109.917L79.0849 110.04L79.2388 110.191L79.4603 110.402L79.6208 110.56L79.6727 110.609C79.7382 110.67 79.7888 110.711 79.8344 110.741L79.8517 110.751L79.9024 110.781L82.5725 113.59L83.5155 114.108L83.9636 114.356L84.0542 114.176L84.0728 114.118L85.0652 111.938L85.6715 110.603C86.9153 107.856 87.8829 105.672 88.768 103.591L88.8781 103.331L89.2044 102.557L89.3772 102.144C90.1685 100.249 90.7528 98.7851 91.2758 97.3641L91.35 97.1609L91.4601 96.8572L91.6241 96.3994L91.6537 96.3211C91.7959 95.9576 91.4469 94.6358 91.103 93.9118L91.0832 93.8712L90.9945 93.6922L90.8972 93.5024C90.6701 93.0594 90.5055 92.5667 90.3671 91.9707C90.3447 91.8741 90.3233 91.7775 90.3038 91.679L90.2749 91.5315L90.2563 91.4345L90.2308 91.2989L90.1946 91.1045L90.9633 90.9761L91.3853 90.9072L91.5696 90.8782C91.8081 90.8414 92.0202 90.8112 92.2197 90.786L92.294 90.7766L92.4277 90.7609L92.4327 90.7873L92.7071 90.8144L92.9107 90.8354C93.9141 90.9415 94.6881 91.0585 95.2378 91.1882L95.292 91.2011L95.3904 91.2259L95.4354 91.2373C95.9357 91.3722 96.3205 91.6633 96.6254 92.0922C96.8347 92.3864 96.9703 92.668 97.1852 93.2019L97.262 93.3945L97.5178 94.0266C97.548 94.1037 97.5939 94.2267 97.6566 94.396L97.873 94.9866L98.4857 95.5911L101.906 96.0948C106.835 96.3985 140.293 109.352 138.947 182.397L139.003 183.183L139.119 184.892L139.186 185.866L139.194 185.997L139.222 186.505L139.229 186.624C139.239 186.776 139.251 186.905 139.266 187.024L139.278 187.112L139.29 187.197C139.329 187.43 139.403 187.638 139.527 187.87L139.56 187.929L139.772 188.31L139.387 188.513C137.374 189.573 120.827 190.04 115.392 190.065L115.227 190.065H114.887C112.246 190.064 109.447 189.962 106.527 189.787L105.866 189.747L105.315 189.712C105.078 189.697 104.847 189.681 104.607 189.665L104.239 189.638L102.704 189.526C95.7963 188.864 88.5525 188.876 80.571 189.473C60.6999 190.751 45.6537 189.032 34.247 188.642C31.4286 188.546 19.8206 171.022 19.8907 161.982C20.7315 154.592 22.019 147.425 23.7704 140.499L23.9466 139.807C25.8404 132.405 27.666 126.698 29.9869 121.421C32.939 114.709 36.5379 109.185 41.0698 104.769C43.5612 102.34 46.3204 100.291 49.2526 98.7193C50.6012 97.9963 52.0345 97.3547 53.5715 96.7776L53.7918 96.6958L54.1473 96.5659L54.4198 96.4652L55.299 96.1367C55.4837 96.0675 55.6847 95.99 55.9223 95.8963L56.0695 95.8384L57.6434 95.2103L57.9049 95.1078L58.1953 94.9945L58.409 94.9127C58.7582 94.7793 59.0744 94.6632 59.368 94.5606L59.542 94.5011L59.6993 94.4483L60.3711 94.2157L60.3582 94.8265C60.3494 95.2327 60.4539 95.5401 60.6864 95.7607L60.6943 95.7673L60.7018 95.7739L60.7091 95.7786L60.75 95.7773L60.9085 95.7767C60.9249 95.7676 60.9403 95.7569 60.9545 95.7446C61.1807 95.553 61.2855 95.2953 61.3871 94.7053L61.4142 94.5414L61.4614 94.2337L61.4806 94.1172C61.5482 93.7079 61.6071 93.4817 61.7225 93.223C61.889 92.8492 62.1089 92.4848 62.3676 92.1504L62.428 92.0736L62.6696 91.7832L62.7068 91.7372C62.7917 91.6284 62.8348 91.5519 62.8531 91.4814L62.8575 91.4625L62.8814 91.3401L62.9682 91.2508Z" fill="#55AF8A"/>
<path d="M90.7351 38.9477C89.3497 35.8893 90.9038 34.761 88.8847 32.0418C84.697 27.1226 77.4676 29.3201 71.9989 30.321C65.9668 31.6913 60.1357 34.1006 55.274 37.9736C54.1136 38.8983 53.029 39.9109 52.0218 41.0011C51.1508 41.9438 51.6326 43.1637 52.4771 43.6732C49.5238 51.7137 54.6822 60.0623 52.787 68.2011C52.4255 69.662 51.8022 71.0521 51.5464 72.5398C51.1578 74.8015 51.8711 77.7013 54.3342 78.4741C57.7258 79.2743 58.5341 75.674 61.2168 79.8605C72.7676 93.8696 87.6346 90.8496 99.2898 78.8086C100.311 77.8174 101.335 76.7313 101.96 75.4368C103.397 72.5628 102.279 69.3618 101.547 66.4494C101.118 64.7434 100.666 63.0424 100.194 61.3471C98.2848 54.4805 93.449 45.5397 90.7351 38.9477Z" fill="#ECB989"/>
<path d="M56.0333 27.732C63.3955 21.6744 72.5166 17.6811 81.9155 16.1787C86.5544 15.4364 91.277 15.2451 95.9521 15.7379L96.3624 15.7822C97.5171 15.9059 98.7521 16.0041 99.7675 16.6126C100.949 17.3193 101.596 18.6937 101.25 20.0508C100.981 21.1052 100.234 22.0101 99.3421 22.6249C99.766 22.8169 100.18 23.0466 100.584 23.3184C101.264 23.7734 101.531 24.6104 101.128 25.3476C100.351 26.767 99.1691 27.9601 97.7651 28.7565C98.1543 29.5318 98.3066 30.4644 98.1616 31.3798C97.7475 34.0071 94.8835 35.0744 92.5844 35.541L92.5148 35.5552L92.7754 37.0312C92.9144 37.8175 92.6146 38.5365 91.8673 38.8634C91.8412 38.8744 91.8144 38.8845 91.7877 38.8946C94.2184 43.0331 96.1978 47.4408 98.1125 51.8364C99.1121 54.1309 100.076 56.441 101.026 58.7562L101.343 59.5284C102.363 62.0254 103.473 64.5266 104.313 67.0926C105.073 69.4219 105.228 71.7988 104.286 74.0951C103.44 76.1542 102.005 77.9118 100.347 79.3749C96.6025 82.6819 92.4834 85.5009 87.9033 87.5234L87.5978 87.6581C85.8288 88.4347 83.9919 89.182 82.0304 89.1593C80.3064 89.1395 78.3144 88.4312 78.1778 86.4722C78.1312 85.8105 79.0012 85.5481 79.432 85.954L79.5314 86.0468C80.0459 86.5241 80.5836 86.9511 81.2925 87.0782C82.1222 87.2286 83.003 87.0968 83.8104 86.8907C86.0661 86.3142 88.257 85.1255 90.2711 83.9817C94.0327 81.8465 97.7258 79.0188 100.341 75.5321C101.455 74.0504 102.217 72.3658 102.14 70.4823C102.047 68.1592 100.951 65.8865 100.137 63.745C98.4586 59.3257 96.6946 54.9389 94.9015 50.5649L94.5424 49.6902C93.04 46.0343 91.5124 42.3837 90.2484 38.6406C90.1106 38.5292 89.9998 38.3899 89.9265 38.2247L89.8214 37.9871C89.7321 37.7838 89.6742 37.5903 89.649 37.4047C89.4665 36.7162 89.3023 36.0278 89.1575 35.3292C89.1314 35.2046 89.1037 35.0794 89.0751 34.9564C88.4039 35.3047 87.7189 35.625 87.0261 35.9268C82.1572 38.0519 77.0554 39.6245 71.8382 40.6141C69.2351 41.1075 66.6144 41.459 63.9798 41.7258C62.6388 41.8617 61.2965 41.9747 59.9507 42.0596C58.9788 42.1216 58.0078 42.1134 57.0368 42.1207C56.4666 43.7376 56.4115 45.5541 56.9515 47.1784C57.5673 49.0326 59.2771 50.4054 59.4416 52.4242C59.5945 54.314 58.2044 55.2853 56.8036 56.1387L56.2073 56.4992C55.7486 56.7777 55.4251 57.0156 55.4953 57.6386C55.6164 58.7087 56.1167 59.8153 56.4336 60.8392C56.8089 62.05 57.1994 63.2564 57.5562 64.4722C57.7409 65.1008 57.9354 65.7298 58.1037 66.3632C58.223 66.8132 58.2381 67.1379 58.1421 67.4746C58.3212 67.6073 58.4904 67.7571 58.6487 67.922C58.7 67.9758 58.633 68.0655 58.5688 68.0271C58.3951 67.9226 58.2179 67.8336 58.0358 67.7603C57.9845 67.8748 57.9216 67.995 57.8451 68.1256L57.8341 68.1168C57.5953 68.5289 57.0874 68.6985 56.5915 68.4616L56.4613 68.3984C56.0963 68.2178 55.8357 68.056 55.6388 67.6492C55.6287 67.6287 55.6186 67.608 55.6101 67.5866C54.8528 67.7618 54.1376 68.1441 53.5624 68.6995C52.6512 69.5789 52.1248 70.6261 51.9589 71.7894C52.1921 71.9498 52.4498 72.0807 52.7336 72.172C52.7739 72.1861 52.7575 72.245 52.7157 72.2368C52.4369 72.1868 52.177 72.1024 51.9338 71.987C51.884 72.4404 51.8897 72.9117 51.947 73.3972C52.1484 75.1108 53.1175 77.011 54.8562 77.5525C55.6095 77.7869 56.4037 77.8105 57.1676 77.6088C57.5396 77.5103 57.8438 77.3615 58.1808 77.1755C58.4096 77.0503 58.6295 76.8971 58.885 76.8285C59.1037 76.7696 59.3208 76.7706 59.5373 76.8301L59.4866 76.8483C59.363 76.8942 59.3888 76.8933 59.5647 76.8458C60.1178 76.7228 60.58 77.195 60.4579 77.746L60.4454 77.8297C60.4422 77.8467 60.4397 77.8608 60.4378 77.8719L60.4523 78.0056C60.4539 78.0182 60.4548 78.0314 60.4564 78.0446L60.4557 78.0729C60.4554 78.0776 60.4548 78.082 60.4542 78.0868L61.6102 79.1201C63.0264 80.384 64.4634 81.6357 66.0087 82.7225C67.0917 83.4852 68.2191 84.2152 69.3767 84.8609C70.4173 85.4411 71.51 85.5622 72.6141 85.9423C73.2025 86.1428 73.5367 86.8035 73.2035 87.3759C72.2268 89.0577 70.0601 88.5105 68.6791 87.7264C67.3724 86.9826 66.1509 85.9942 65.0522 84.9716C63.101 83.1526 61.3918 81.1203 60.2405 78.7255C60.0904 78.9606 59.8683 79.1418 59.6367 79.2994C59.172 79.615 58.627 79.84 58.0908 80.0046C57.0625 80.3167 55.9566 80.3431 54.9031 80.1462C50.6182 79.3491 48.6035 74.0624 50.0669 70.235C49.5097 69.4084 49.0704 68.4679 48.6548 67.6762L48.4676 67.3232C46.3805 63.3759 44.5499 59.1215 45.1483 54.5453C45.2245 53.955 45.3318 53.3716 45.49 52.7974C45.6165 52.3358 45.9047 51.8037 45.894 51.3207C45.8736 50.2585 44.0741 49.6188 43.4196 48.947C42.6503 48.1594 42.2834 47.084 42.7658 46.0459C42.8271 45.9153 42.8989 45.7901 42.9823 45.675C41.9823 44.6331 41.539 43.1049 42.1016 41.6616C42.4713 40.711 43.2104 39.9169 44.1361 39.4883C44.7018 39.2265 45.4258 39.0739 46.1269 39.0827C48.808 34.8038 52.1377 30.9367 56.0333 27.732ZM53.4611 72.9743C54.1882 71.8765 55.1221 71.1531 56.4509 70.9159C57.7863 70.6786 59.5033 70.7985 60.5709 71.7151C61.4139 72.4391 60.5278 74.0699 59.4611 73.642C58.4892 73.2525 57.7655 72.7122 56.6736 72.655C55.6935 72.6049 54.5262 72.7166 53.6266 73.1367C53.5271 73.1823 53.3884 73.0816 53.4611 72.9743Z" fill="#010101"/>
<path d="M89.2242 76.6044C88.2025 76.4757 87.2132 76.0692 86.3983 75.4298C86.1148 75.2074 85.9817 74.9276 85.9537 74.6473C85.9219 74.332 86.0273 74.0101 86.2221 73.7612C86.4172 73.5114 86.6988 73.338 87.0071 73.3056C87.2746 73.2767 87.5682 73.349 87.8488 73.5869L87.9074 73.6338C88.3938 74.0215 88.9655 74.2933 89.5643 74.4069C90.1414 74.5161 90.7433 74.4777 91.3169 74.2524C92.4097 73.8235 93.023 73.0061 93.6261 71.9573C93.7004 71.8255 93.774 71.6905 93.8473 71.5533C93.886 71.4369 93.959 71.3491 94.0506 71.2887C94.1513 71.2217 94.2778 71.1902 94.4036 71.1994C94.5251 71.2082 94.6443 71.2554 94.7369 71.3353C94.825 71.4111 94.8917 71.5165 94.9153 71.6515C95.0694 72.5291 94.8265 73.4148 94.3508 74.186C93.8222 75.0434 93.0085 75.7558 92.1693 76.1545C91.2442 76.5925 90.2194 76.7303 89.2242 76.6044ZM90.9686 63.0449C91.5454 64.1575 92.1504 66.3024 90.3273 67.0828C88.4294 67.5941 87.6091 65.1851 87.1711 64.0546C86.706 63.1025 85.0849 63.8381 85.4455 64.839C88.7097 72.8497 95.9955 66.3015 91.8298 62.6723C91.3707 62.273 90.8336 62.7274 90.9686 63.0449ZM74.4535 60.3685C74.5719 59.0881 76.8087 58.7971 77.0315 60.0642C77.2303 61.1985 76.9959 62.2419 76.4091 63.2636C75.8487 64.2399 74.4406 63.7846 74.334 62.8954C74.1918 61.7038 74.3796 61.1648 74.4535 60.3685ZM90.8563 55.5581C91.1678 55.15 91.6184 54.8712 92.158 55.0285C93.8432 55.5206 93.3467 57.9142 92.7546 59.0793C92.4333 59.7118 91.3937 59.8719 90.9236 59.3153C90.1577 58.4066 89.7909 56.5933 90.7647 55.6984C90.7911 55.6522 90.8201 55.6056 90.8563 55.5581ZM74.9881 52.9046L75.2336 52.7911C75.9916 52.4402 76.9459 52.0431 77.68 52.5318C78.0692 52.7911 78.341 53.3939 78.0267 53.8259C77.4739 54.5861 76.6344 54.5739 75.8021 54.8492C75.1156 55.0757 74.4768 55.3706 73.8567 55.7425C72.4967 56.558 71.5024 57.6483 70.4704 58.8295C70.3348 58.984 70.1098 58.8182 70.1476 58.6429C70.4927 57.0253 71.5865 55.4804 72.8054 54.3901C73.4561 53.8083 74.1946 53.2725 74.9881 52.9046ZM89.1719 49.3875L89.3799 49.3752C91.6416 49.2493 94.6645 49.3975 96.2428 51.2304C96.3614 51.5177 96.3378 51.5919 96.3151 51.6429L96.3079 51.6599C96.29 51.7027 96.2812 51.7577 96.1635 51.8326C96.1254 51.8342 96.087 51.8345 96.0477 51.8345C95.5499 51.8373 95.1374 51.7681 94.7343 51.6891L94.297 51.6026C93.7904 51.5032 93.2813 51.4126 92.7605 51.3846C91.6492 51.3254 90.535 51.3717 89.4334 51.5328C89.1946 51.5674 88.9511 51.5491 88.7396 51.462C88.5382 51.3798 88.3639 51.2379 88.2434 51.0199C88.0867 50.7376 88.0471 50.5023 88.1364 50.1861C88.2034 49.9482 88.3397 49.7597 88.5187 49.6244C88.7009 49.4853 88.9284 49.4032 89.1719 49.3875Z" fill="#010101"/>
<path d="M80.5694 79.8438C80.9823 76.9484 82.8909 74.3899 85.4906 72.9448C87.4002 71.885 89.5527 71.3256 91.6929 70.97C92.8144 70.7825 94.01 70.555 95.1488 70.6853C96.1213 70.7963 97.0143 71.2595 97.7591 71.885C98.6448 72.6251 99.361 73.5514 99.9541 74.5397C100.039 74.6797 100.12 74.822 100.2 74.9658C100.283 75.8084 100.184 76.5714 99.5724 77.2791C98.9758 77.97 98.1596 78.4058 97.3113 78.7104C97.2154 78.6922 97.1216 78.6723 97.0348 78.6497C95.4754 78.2378 94.0336 76.6636 92.3937 77.3684C90.9302 77.9977 90.441 80.1827 89.8368 81.5489C87.0204 82.6668 83.8811 82.5712 81.071 81.5426C80.7982 81.0052 80.6377 80.4334 80.5694 79.8438ZM101.552 72.1087C101.145 71.5188 100.682 70.965 100.176 70.4628C98.5004 68.8008 96.3174 67.7036 93.9855 67.3676C88.4703 66.5743 82.468 69.7838 79.4027 74.3292C78.3565 75.883 77.4437 77.9984 77.5299 79.9879C77.4119 80.0458 77.3115 80.1424 77.2392 80.2597C73.8646 79.2154 70.4232 78.2627 67.4215 76.3669C65.2412 74.9884 63.4858 73.1364 62.1281 70.9483C62.017 70.7683 61.7087 70.8813 61.7763 71.0959C61.7927 71.1459 61.809 71.1956 61.8251 71.246C61.77 71.1607 61.6407 71.2469 61.6539 71.3404C62.0419 74.3361 62.3792 77.5327 63.6041 80.3205C64.3357 81.9837 65.464 83.0428 66.8853 84.1318C68.4076 85.2995 70.0516 86.3246 71.7095 87.2853C72.7614 87.8957 73.8844 88.6238 75.0631 88.962C76.4337 89.3547 77.9172 89.5347 79.324 89.7443C80.7554 89.9588 82.1946 90.1262 83.6398 90.2181C86.5302 90.405 89.435 90.2911 92.2939 89.816C94.5836 89.4346 97.1968 88.9875 99.1102 87.5754C100.576 86.493 101.588 84.9754 102.262 83.2949C102.996 81.4655 103.434 79.4879 103.443 77.5239C103.453 75.484 101.744 72.3859 101.552 72.1087Z" fill="#010101"/>
<path d="M68.2301 86.1811C68.2515 86.1645 68.2852 86.1575 68.3056 86.1811C68.6411 86.5726 68.5731 87.1713 68.5841 87.6679L68.5854 87.7138C68.6093 88.4394 68.614 89.1624 68.6115 89.8883L68.6042 92.1991C68.6033 92.5169 68.5775 92.8476 68.5939 93.1667L68.602 93.2907C68.7789 93.4716 68.8604 93.7324 68.8009 93.9948C68.7902 94.3309 68.614 94.6119 68.3579 94.7881L68.9076 95.5681L69.4579 96.3478C70.5919 97.9569 71.7391 99.5516 72.9345 101.116C74.1531 102.712 75.4532 104.247 76.8138 105.723C77.4786 106.445 78.1545 107.156 78.8464 107.852C79.1274 108.134 79.4156 108.41 79.7004 108.688L79.9839 108.969C80.151 109.136 80.3618 109.302 80.4735 109.514C80.5386 109.639 80.5537 109.948 80.577 109.999C80.7869 110.461 80.4288 111.196 79.8338 110.966L79.8609 110.948C79.9691 110.872 79.8996 110.871 79.6522 110.944C79.4965 110.943 79.3502 110.908 79.2136 110.837L79.1727 110.814C78.9805 110.716 78.8087 110.528 78.6523 110.376L78.6136 110.339C78.2558 110.004 77.9151 109.649 77.5724 109.298C76.8575 108.568 76.1584 107.822 75.4812 107.055C74.1314 105.527 72.8517 103.936 71.6394 102.296C70.4047 100.626 69.2571 98.8694 68.2701 97.0416C67.896 96.3478 67.5524 95.6408 67.2232 94.9253C66.5826 94.7198 66.4338 94.0383 66.4788 93.2702C66.2419 92.7196 66.0288 92.1579 65.9033 91.5837C65.886 91.505 65.9873 91.4311 66.048 91.4994C66.2525 91.7322 66.4426 91.9801 66.6248 92.2344C66.7349 91.6963 66.8743 91.2008 66.9397 90.8848L67.2236 89.4913C65.6229 89.4076 63.8688 90.0655 62.7653 91.2168C62.7061 91.5167 62.4755 91.7313 62.2505 92.011C61.9934 92.3319 61.7694 92.6909 61.602 93.0669C61.231 93.9001 61.4403 95.1285 60.7207 95.7399C60.6458 95.8035 60.5618 95.8478 60.4756 95.8752C60.817 97.5498 60.6622 99.3955 60.6543 101.094L60.654 101.244C60.6559 103.146 60.5926 105.049 60.5187 106.948L60.4441 108.829C60.3472 111.337 60.2843 113.846 60.5284 116.34C61.6407 115.354 62.7908 114.414 63.9811 113.518C64.7636 112.929 65.5619 112.36 66.3743 111.813L67.0348 111.372C67.8258 110.842 68.6363 110.296 69.5026 109.916C70.6359 109.419 71.7133 109.59 72.807 110.099C73.8967 110.607 74.9536 111.196 76.0221 111.746C77.1089 112.306 78.1979 112.861 79.2866 113.417C80.0075 113.785 81.0641 114.118 81.5927 114.796C81.6267 114.646 81.6657 114.496 81.7116 114.347C81.6594 114.12 81.6795 113.874 81.8073 113.64C83.5841 110.375 85.2285 107.031 86.8609 103.692C87.6872 102.002 88.4728 100.292 89.301 98.6035L90.1059 96.9585C90.2405 96.6845 90.3752 96.4107 90.5111 96.1373C90.7141 95.7279 90.9252 95.3227 91.131 94.9143C91.2172 94.7418 91.3264 94.5703 91.411 94.3963L91.451 94.3092C91.4529 94.3045 91.648 93.6912 91.4973 93.75L91.4844 93.7563C91.4073 93.8001 91.3459 93.7032 91.3956 93.6415C91.6086 93.3781 91.9054 93.6113 92.0268 93.8555C92.3616 94.5263 91.748 95.5794 91.512 96.2219L91.4991 96.2578C90.7666 98.3314 89.9372 100.366 89.0877 102.393C87.4584 106.28 85.708 110.108 83.9617 113.942L83.9409 114.008C84.3135 113.722 84.7109 113.464 85.0513 113.211C85.9103 112.575 86.7945 111.97 87.6771 111.367C89.296 110.26 90.9586 109.227 92.6489 108.236L92.9868 108.038C93.8313 107.546 94.6677 107.147 95.6692 107.294C96.6003 107.432 97.4659 107.932 98.3069 108.338L98.3938 108.38L100.992 109.615C100.715 108.507 100.414 107.405 100.1 106.306C99.4881 104.163 98.8145 102.039 98.0842 99.9336C97.402 97.9664 96.6648 96.0203 95.8847 94.0902L95.65 93.5109C95.3319 92.7161 95.0157 91.8492 94.107 91.6041C93.1986 91.3597 92.1568 91.7224 91.3267 91.2045C91.2512 91.1576 91.2606 91.0327 91.3519 91.0101L91.8641 90.8811C92.826 90.6416 93.9537 90.4009 94.8628 90.6338C95.8526 90.8874 96.6714 91.718 97.1515 92.5818C97.6855 93.5424 98.0618 94.6175 98.4671 95.6417L98.5313 95.8035C98.9966 96.9626 99.4434 98.129 99.872 99.3024C100.728 101.648 101.506 104.022 102.212 106.418C102.552 107.572 102.874 108.732 103.184 109.895C103.273 110.23 103.42 110.635 103.54 111.058C103.678 111.193 103.809 111.343 103.932 111.515C104.135 111.799 103.99 112.133 103.736 112.303C103.727 112.594 103.662 112.868 103.507 113.102C102.904 114.018 101.308 113.782 101.373 112.551C101.383 112.362 101.457 112.182 101.568 112.03L101.564 112.006L101.552 111.96C101.275 111.828 100.997 111.68 100.704 111.535L97.9765 110.187C97.1865 109.797 96.3111 109.194 95.4326 109.045C94.6132 108.906 93.7495 109.516 93.046 109.884L93 109.908C91.2993 110.78 89.6109 111.681 87.9291 112.589C87.1082 113.032 86.2974 113.494 85.4799 113.943C84.7962 114.318 84.0577 114.857 83.2893 115.069C82.9611 115.324 82.5713 115.29 82.2579 115.097C82.401 115.984 82.3922 116.894 82.4363 117.801C82.4951 119.014 82.5042 120.23 82.5234 121.444L82.5313 121.899C82.5829 124.584 82.6106 127.268 82.621 129.953C82.6572 139.514 82.5511 149.077 82.5269 158.637C82.5143 163.441 82.419 168.248 82.2944 173.05C82.2415 175.085 82.1307 177.117 82.0115 179.149L81.9457 180.257C81.807 182.595 81.7245 184.959 81.2916 187.265C81.2353 187.566 80.7261 187.573 80.6761 187.265C80.2778 184.793 80.2557 182.268 80.179 179.767L80.1629 179.268C80.071 176.583 80.0273 173.899 80.0371 171.214C80.0707 161.649 80.3193 152.091 80.5229 142.529C80.6248 137.725 80.6941 132.919 80.8526 128.116C80.9322 125.713 81.0222 123.312 81.1286 120.91C81.1764 119.838 81.222 118.766 81.2932 117.695L81.3256 117.236C81.3476 116.937 81.3655 116.641 81.3872 116.349C80.4197 116.702 79.5346 116.048 78.6642 115.6C77.6611 115.083 76.6583 114.567 75.6546 114.051L74.6506 113.537L72.6403 112.511C71.735 112.049 71.0378 111.59 70.0727 112.132C66.5949 114.083 63.3993 116.679 60.5033 119.403C59.9476 119.926 58.7743 119.785 58.6336 118.91C58.0326 115.169 58.3982 111.374 58.7053 107.622L58.818 106.229C58.9555 104.565 59.1043 102.901 59.3032 101.244C59.3922 100.503 59.481 99.7624 59.5788 99.022L59.6543 98.4673C59.7767 97.5904 59.8567 96.7185 60.1181 95.8777C60.0357 95.851 59.9564 95.8076 59.8856 95.7402C59.1002 94.9951 59.4791 93.7016 59.8375 92.8155C60.1911 91.9405 60.7308 91.1772 61.4066 90.5195C61.5539 90.3761 61.7615 90.2835 61.9705 90.2788C63.6089 89.1933 65.4061 88.6515 67.2764 89.2439C67.329 88.9929 67.3828 88.7418 67.4394 88.4916L67.4967 88.2418C67.6408 87.6219 67.6946 86.5965 68.2301 86.1811Z" fill="#010101"/>
<path d="M85.0221 184.216C85.5306 184.076 86.0872 184.223 86.4597 184.596C86.8323 184.969 86.9792 185.525 86.8395 186.034C86.769 186.284 86.6429 186.501 86.4597 186.685C86.2886 186.856 86.0885 186.977 85.861 187.049L85.8078 187.066L85.7247 187.1C85.4695 187.168 85.2147 187.168 84.9598 187.1C84.7166 187.032 84.5048 186.909 84.3252 186.73C84.1467 186.55 84.0237 186.339 83.9554 186.095C83.8865 185.84 83.8865 185.585 83.9554 185.33L83.9897 185.247C84.0602 184.997 84.1864 184.78 84.3695 184.595C84.5542 184.413 84.772 184.286 85.0221 184.216Z" fill="#010101"/>
<path d="M115.21 133.55C115.294 133.453 115.429 133.576 115.377 133.678C114.585 135.231 113.702 136.772 112.835 138.286C112.905 138.705 112.973 139.121 113.052 139.527C113.39 141.254 113.804 142.952 114.074 144.697C115.044 150.968 115.548 157.308 115.98 163.636C116.413 169.986 116.469 176.339 116.534 182.703C116.54 183.254 116.116 183.895 115.547 183.999C115.287 184.046 115.092 184.037 114.832 183.999C114.241 183.912 113.87 183.234 113.845 182.703C113.675 179.147 113.447 175.595 113.183 172.044C112.714 165.749 112.428 159.438 112.049 153.136L111.916 150.934C111.773 148.547 111.642 146.159 111.6 143.769C111.571 142.186 111.656 140.603 111.604 139.021C111.556 137.561 111.408 135.974 111.73 134.539C111.742 134.485 111.827 134.472 111.851 134.523C112.186 135.228 112.398 135.993 112.561 136.775C113.424 135.685 114.303 134.591 115.21 133.55Z" fill="#010101"/>
<path d="M102.546 95.3349C104.066 95.6137 105.56 96.1021 106.983 96.7012C109.805 97.8886 112.422 99.465 114.827 101.357C119.996 105.425 123.915 110.84 126.901 116.66C130.117 122.93 132.376 129.677 134.282 136.446C136.302 143.62 137.844 150.931 138.874 158.314C139.453 162.467 139.857 166.644 140.102 170.83C140.223 172.893 140.305 174.958 140.346 177.024C140.367 178.102 140.381 179.18 140.377 180.258C140.374 180.793 140.406 181.342 140.361 181.875C140.321 182.372 140.04 182.735 139.753 183.115L139.655 183.248C139.386 183.612 138.909 183.633 138.644 183.248C138.42 182.924 138.118 182.582 138.011 182.193C137.896 181.773 137.972 181.229 137.973 180.796C137.974 179.853 137.971 178.91 137.96 177.967C137.937 176.125 137.883 174.284 137.797 172.445C137.629 168.856 137.342 165.272 136.937 161.702C136.115 154.483 134.849 147.319 133.067 140.274C129.861 127.594 125.485 114.101 115.884 104.745C113.479 102.401 110.759 100.354 107.797 98.7656C106.282 97.9535 104.708 97.2722 103.093 96.6864L102.956 96.6363C101.357 96.0508 99.7223 95.362 98.0298 95.1657C97.9136 95.1521 97.9086 94.9703 98.0298 94.9791C99.547 95.098 101.043 95.0593 102.546 95.3349Z" fill="#010101"/>
<path d="M85.3132 172.253C85.5819 172.252 85.8811 172.31 86.1114 172.459L86.4192 172.697C86.5029 172.804 86.5853 172.911 86.668 173.019C86.8606 173.269 86.8861 173.675 86.8458 173.974C86.8367 174.174 86.7775 174.359 86.668 174.531L86.4343 174.835C86.2087 175.019 86.0211 175.15 85.748 175.238C85.6055 175.284 85.4683 175.294 85.3317 175.286L85.2858 175.283L85.3132 175.287L85.2653 175.282C85.2207 175.278 85.1763 175.273 85.1313 175.267C85.1008 175.263 85.0706 175.261 85.0397 175.257C85.0102 175.254 84.9818 175.253 84.9526 175.256C84.6055 175.289 84.2575 175.092 84.0115 174.866C83.7899 174.663 83.5908 174.231 83.6219 173.925L83.6348 173.797C83.6584 173.582 83.6776 173.497 83.7689 173.28C83.8576 173.069 83.9819 172.883 84.1505 172.726C84.4737 172.426 84.8695 172.256 85.3132 172.253Z" fill="#010101"/>
<path d="M84.2402 156.47C84.7002 155.969 85.4906 155.932 86.0611 156.235C86.1998 156.309 86.3279 156.428 86.45 156.527C86.7583 156.776 86.8801 157.227 86.8971 157.606C86.9138 157.981 86.7162 158.427 86.45 158.686L86.3855 158.748C86.2266 158.903 85.9988 159.038 85.776 159.078C85.4176 159.144 85.1162 159.142 84.7827 159.001C84.4957 158.88 84.2484 158.686 84.08 158.421L84.053 158.376C84.0413 158.358 84.0303 158.34 84.0203 158.32L84.0052 158.291C83.6858 157.676 83.772 156.98 84.2402 156.47Z" fill="#010101"/>
<path d="M84.4787 140.604C84.686 140.539 84.8934 140.53 85.1011 140.576C85.242 140.576 85.3732 140.612 85.495 140.683C85.6271 140.719 85.742 140.786 85.8392 140.883C85.9563 140.953 86.05 141.046 86.1196 141.163C86.2574 141.314 86.3502 141.491 86.399 141.694L86.4544 142.109L86.399 142.524L86.2417 142.897C86.1982 142.953 86.1548 143.009 86.1108 143.065C86.0412 143.183 85.9475 143.277 85.8301 143.347C85.7536 143.423 85.6662 143.48 85.568 143.519C85.2206 143.768 84.7578 143.849 84.3456 143.736C84.1014 143.667 83.889 143.544 83.7094 143.365C83.5303 143.185 83.4067 142.972 83.3381 142.728L83.3098 142.533C83.2739 142.271 83.2676 142.126 83.3422 141.793C83.3746 141.647 83.4686 141.44 83.5184 141.354C83.7286 140.982 84.0737 140.728 84.4787 140.604Z" fill="#010101"/>
<path d="M102.494 129.189C103.09 129.185 103.685 129.186 104.281 129.193L104.728 129.199C105.476 129.211 106.117 129.133 106.705 129.652C107.131 130.029 106.943 130.661 106.538 130.945C105.924 131.374 105.155 131.158 104.449 131.111C103.704 131.061 102.96 131.019 102.214 130.986C100.772 130.922 99.3283 130.88 97.8844 130.874C96.4433 130.868 95.0003 130.882 93.5592 130.905C92.0932 130.929 90.5668 131.065 89.1088 130.914C88.9083 130.893 88.8636 130.63 89.0612 130.561C90.435 130.086 91.9803 129.932 93.4201 129.75C94.9052 129.562 96.3898 129.43 97.8844 129.344C99.4192 129.255 100.956 129.2 102.494 129.189Z" fill="#010101"/>
<path d="M84.4758 124.521L84.5249 124.522C84.7874 124.523 85.0328 124.584 85.2615 124.707L85.3103 124.734L85.625 124.977C85.8178 125.171 85.9512 125.4 86.0249 125.664L86.0809 126.077C86.0887 126.292 86.0444 126.491 85.9468 126.676C85.8842 126.869 85.7766 127.036 85.6253 127.177C85.4843 127.329 85.3172 127.436 85.1247 127.499C84.9535 127.589 84.7704 127.634 84.5747 127.634L84.5252 127.633C84.2446 127.632 83.9828 127.561 83.7405 127.42L83.4255 127.177C83.2327 126.983 83.0993 126.754 83.0256 126.491L82.9696 126.077C82.9617 125.863 83.0061 125.663 83.104 125.478C83.1663 125.285 83.2739 125.118 83.4252 124.977C83.5662 124.826 83.7333 124.718 83.9258 124.656C84.097 124.566 84.2801 124.521 84.4758 124.521Z" fill="#010101"/>
<path d="M89.0874 87.9759C89.4225 87.4904 90.0301 87.9221 89.9429 88.3122C89.9662 89.4085 90.0222 90.4723 90.2714 91.5462C90.3856 92.0377 90.5354 92.5298 90.766 92.9801L90.863 93.1701C91.1616 93.7601 91.3938 94.3167 90.9913 94.9639C90.8016 95.2692 90.4593 95.4982 90.0877 95.4822C88.4408 95.4111 88.2142 93.1182 88.1142 91.8382C88.011 90.5198 88.3319 89.0712 89.0874 87.9759Z" fill="#010101"/>
<path d="M91.3425 133.957C91.3191 133.963 91.306 133.966 91.306 133.966C91.306 133.966 91.3188 133.963 91.3425 133.957Z" fill="#010101"/>
<path d="M80.9304 118.177C79.2064 118.337 75.8094 118.561 74.2938 119.486C74.2938 119.486 74.2821 121.736 74.2988 123.132C74.3252 125.363 74.329 127.592 74.4369 129.821C74.682 134.869 75.1559 145.355 74.9495 145.444C76.7008 146.555 80.5049 146.418 82.4309 146.469C84.7829 146.531 88.4917 146.762 90.6562 145.68C90.9708 145.523 92.1476 134.161 92.2216 131.838C92.2867 129.778 92.2301 127.717 92.3389 125.659C92.4214 124.108 92.4066 120.926 92.4588 119.379C92.4588 119.379 90.3677 118.62 87.4804 118.382C85.3046 118.203 83.1065 117.976 80.9304 118.177Z" fill="white"/>
<path d="M89.009 117.453C85.3242 117.151 81.5263 116.913 77.8597 117.178C75.3579 117.359 72.8653 116.791 72.6746 119.643C72.4399 123.15 72.8017 128.773 73.0223 132.273C73.2885 136.502 73.7897 140.715 74.4357 144.902C74.4558 145.031 74.52 145.138 74.6078 145.227C74.2208 145.397 74.0159 145.805 74.5099 146.165C76.1263 147.343 78.6035 147.415 80.5116 147.576C83.2544 147.808 86.0567 147.785 88.7853 147.402C89.6352 147.282 89.9026 147.364 90.6726 146.97C91.5256 146.534 92.805 140.54 93.5129 133.67C93.7373 131.495 93.8159 130.078 93.8166 127.894C93.8166 126.175 93.9676 121.075 93.9676 119.354C93.9685 117.938 92.0457 117.702 89.009 117.453ZM92.3387 125.659C92.2298 127.717 92.2864 129.778 92.2213 131.838C92.1477 134.162 90.9706 145.523 90.6559 145.68C88.4914 146.762 84.7826 146.532 82.4306 146.469C80.5047 146.418 76.7005 146.555 74.9492 145.444C75.1556 145.355 74.6817 134.869 74.4366 129.822C74.3284 127.592 74.3249 125.363 74.2985 123.132C74.2818 121.736 74.2935 119.486 74.2935 119.486C75.8088 118.561 79.2061 118.337 80.9301 118.178C83.1062 117.976 85.3043 118.203 87.4798 118.382C90.3671 118.62 92.4582 119.379 92.4582 119.379C92.4063 120.926 92.4211 124.108 92.3387 125.659Z" fill="#010101"/>
<path d="M73.5307 136.606C74.8353 135.363 76.5536 134.46 78.1234 133.58L78.2508 133.509C79.1016 133.03 79.9232 132.515 80.8322 132.15C81.7148 131.797 82.6087 131.47 83.5124 131.174L83.6002 131.146C84.5986 130.838 87.2001 130.301 86.7618 128.819C86.4717 127.838 84.8144 128.02 84.0718 128.169C80.6689 128.854 77.4497 130.499 74.4372 132.167L73.7648 132.539C72.532 133.224 71.2996 133.921 70.1061 134.669C68.7537 135.516 67.7774 136.591 66.9542 137.95C66.0414 139.456 65.1717 140.983 64.2058 142.457C63.5966 143.386 62.9745 144.304 62.3449 145.217C62.2165 145.487 62.1284 145.771 62.1008 146.119C62.0539 146.707 62.2043 147.212 62.3909 147.764C62.8622 149.161 63.213 150.599 63.7237 151.983C64.197 153.264 64.7545 154.578 65.571 155.684C65.8942 156.123 66.2812 156.538 66.6959 156.895L67.0301 157.176C67.1757 157.298 67.3372 157.431 67.5033 157.553C67.6465 157.272 67.8954 157.055 68.2323 157.022C68.9482 156.952 69.4931 156.813 70.1432 156.503C70.646 156.263 71.1403 156.004 71.6387 155.754C72.617 155.264 73.611 154.794 74.57 154.267L74.7349 154.176C75.4479 153.775 76.1486 153.314 76.6772 152.682C77.2911 151.947 77.3383 151.07 77.7297 150.235C78.5658 148.453 81.0993 147.933 82.7185 147.142C84.0945 146.469 85.3717 145.603 86.1473 144.329C86.1473 144.329 87.0308 143.1 87.0289 143.176C87.1743 142.935 86.9106 142.955 86.0359 143.257C83.7377 144.051 81.4064 144.809 79.0308 145.329C78.3757 145.473 78.1659 144.482 78.8099 144.316C81.3051 143.671 83.7792 142.992 86.2089 142.124C87.465 141.675 88.7066 141.185 89.9331 140.661C90.407 140.458 90.8777 140.251 91.3462 140.038L91.6974 139.877C91.9173 139.775 92.5551 139.559 92.8267 139.276C92.866 139.155 92.9053 139.034 92.944 138.912C92.8314 138.542 91.8821 138.801 91.6571 138.85C91.019 138.988 90.3815 139.132 89.7437 139.273C88.4681 139.555 87.1897 139.823 85.9107 140.091C83.3566 140.626 80.7775 141.095 78.2533 141.76C77.6404 141.922 77.0992 141 77.6536 140.606C80.101 138.865 83.0423 137.961 85.8468 136.979C87.3219 136.462 88.791 135.916 90.1905 135.216L90.5363 135.043C91.4151 134.601 92.3792 134.086 93.0387 133.347C91.7569 133.127 90.3051 133.501 89.0694 133.7L88.9744 133.715C87.2419 133.982 85.5177 134.302 83.8041 134.673C80.2982 135.433 77.8122 136.057 74.3479 136.986C74.261 137.01 74.155 136.902 74.1021 136.83C73.847 136.479 73.3901 136.741 73.5307 136.606Z" fill="#ECB989"/>
<path d="M94.6881 132.784C94.7228 132.601 94.4971 132.455 94.2816 132.362C92.8669 131.746 91.2424 132.083 89.7676 132.338L89.1324 132.446C87.4024 132.744 85.6813 133.095 83.9721 133.495C80.303 134.356 76.7282 135.533 73.3014 137.103C73.2199 137.14 73.2686 137.275 73.3555 137.251C76.8198 136.322 80.2985 135.433 83.8044 134.673C85.5177 134.302 87.2423 133.982 88.9747 133.715L89.0697 133.7C90.3054 133.501 91.7572 133.127 93.0391 133.347C92.3795 134.086 91.4155 134.601 90.5366 135.043L90.1908 135.216C88.7916 135.916 87.3222 136.462 85.8471 136.979C83.0426 137.961 80.1013 138.865 77.6539 140.606C77.0995 141 77.6407 141.922 78.2536 141.76C80.7775 141.095 83.357 140.626 85.911 140.091C87.1897 139.823 88.4684 139.556 89.744 139.273C90.3818 139.133 91.0193 138.988 91.6574 138.85C91.8824 138.802 92.8314 138.542 92.9443 138.912C92.9056 139.034 92.8663 139.155 92.827 139.276C92.5554 139.559 91.9176 139.776 91.6977 139.877L91.3466 140.038C90.878 140.251 90.4073 140.459 89.9335 140.661C88.707 141.185 87.4653 141.675 86.2093 142.124C83.7795 142.992 81.3054 143.671 78.8103 144.316C78.1662 144.482 78.376 145.473 79.0311 145.329C81.4067 144.809 83.738 144.051 86.0362 143.257C86.9109 142.955 87.1746 142.935 87.0292 143.176C87.0311 143.1 86.1476 144.329 86.1476 144.329C85.3717 145.603 84.0948 146.47 82.7188 147.142C81.0997 147.933 78.5661 148.453 77.7301 150.235C77.3386 151.07 77.2914 151.947 76.6776 152.682C76.1489 153.314 75.4482 153.775 74.7352 154.176L74.5703 154.267C73.611 154.794 72.6173 155.264 71.6391 155.754C71.1407 156.004 70.6463 156.263 70.1435 156.503C69.4935 156.813 68.9485 156.953 68.2327 157.022C67.8957 157.055 67.6468 157.272 67.5036 157.553C67.3375 157.431 67.1761 157.298 67.0304 157.176L66.6962 156.895C66.2815 156.538 65.8945 156.123 65.5713 155.684C64.7548 154.578 64.1973 153.264 63.724 151.983C63.2134 150.599 62.8625 149.161 62.3912 147.764C62.2046 147.211 62.0542 146.707 62.1011 146.119C62.1291 145.771 62.2169 145.487 62.3452 145.217C62.9749 144.304 63.5972 143.386 64.2061 142.457C65.1721 140.983 66.0417 139.456 66.9545 137.95C67.7774 136.591 68.754 135.517 70.1064 134.669C71.2999 133.921 72.5324 133.224 73.7652 132.54L74.4376 132.167C77.45 130.499 80.6692 128.854 84.0722 128.169C84.8144 128.02 86.472 127.838 86.7621 128.819C87.2007 130.301 84.5989 130.838 83.6005 131.146L83.5127 131.174C82.6093 131.47 81.7151 131.796 80.8325 132.15C79.9235 132.515 79.1019 133.03 78.2511 133.509L78.1237 133.58C76.5542 134.46 74.8356 135.363 73.5311 136.606C73.3904 136.741 73.5509 136.949 73.7211 136.876C75.548 136.093 77.215 134.982 79.0903 134.283C80.9033 133.607 82.7321 132.921 84.5838 132.358C86.0661 131.907 87.7381 131.333 88.1897 129.659C88.5515 128.315 87.6806 127.115 86.4062 126.742C85.0334 126.34 83.5964 126.68 82.2576 127.066L82.0222 127.134C81.6616 127.24 77.0532 129.037 76.5769 129.264C74.7874 130.12 73.0506 131.08 71.325 132.056C70.7766 132.366 67.4451 134.557 66.9344 135.153C65.7907 136.489 64.9543 138.121 64.1771 139.718L63.7284 140.643C63.1209 141.892 62.5507 143.159 61.9947 144.432C61.4645 144.543 61.0023 144.843 60.6342 145.247C60.4429 145.109 60.2009 145.043 59.9608 145.104C59.1556 145.307 58.6566 145.812 58.0433 146.344L57.3876 146.912C56.9502 147.291 56.5129 147.669 56.0749 148.046C54.8242 149.123 53.5627 150.186 52.3098 151.261C51.7768 151.718 51.0981 152.298 50.3265 152.948C48.1967 154.742 45.3381 157.077 42.7236 158.91C42.7784 156.454 42.8287 153.998 42.8646 151.541C42.8891 149.856 43.8353 138.726 43.7796 137.043C43.723 135.336 43.6865 133.62 43.3161 131.953C43.2869 131.821 43.1129 131.846 43.0726 131.953C42.9433 132.296 42.7671 133.191 42.5676 134.402L42.572 134.376C42.572 134.376 40.3405 133.077 39.7898 133.273C39.2392 133.47 40.6649 133.895 41.5796 134.376C42.4943 134.858 42.4939 134.858 42.4939 134.858L42.5075 134.775C41.7275 139.645 40.6441 148.817 40.6051 149.163C40.5573 149.583 40.5098 150.002 40.4604 150.416L40.3965 150.96C40.0611 153.861 39.8106 156.782 39.6259 159.694C39.6256 159.697 39.6256 159.699 39.6256 159.701C39.5951 160.182 39.5724 160.664 39.5441 161.145C38.9686 161.459 38.3928 161.771 37.8132 162.074L37.715 162.126C35.7158 163.177 33.8061 164.326 32.3078 165.947C31.7955 166.502 32.0869 167.074 32.5894 166.638C34.0349 165.381 35.6623 164.291 37.4205 163.536L39.4591 162.646L40.1605 162.34C40.1602 162.36 40.1599 162.379 40.1592 162.399C40.489 162.238 40.8345 162.068 41.1837 161.893L41.729 161.655C42.0182 161.518 42.3395 161.363 42.6727 161.201C42.6733 161.177 42.6736 161.154 42.6742 161.131C43.1572 160.878 43.6147 160.631 44.0121 160.407C45.6763 159.47 48.1394 157.605 50.3262 155.852C51.2869 155.082 52.1946 154.333 52.957 153.695C54.355 152.524 55.7256 151.322 57.0899 150.111C57.7705 149.506 58.4502 148.9 59.1286 148.292C59.3174 148.123 59.509 147.961 59.6959 147.799C59.7182 148.652 59.9174 149.535 60.1247 150.375L60.2487 150.873C60.5335 152.019 60.8994 153.169 61.3733 154.25C62.1583 156.042 63.31 157.695 64.8064 158.965C64.8983 159.043 64.993 159.121 65.089 159.2C64.8577 159.468 62.8046 163.734 57.4927 169.864C56.8266 170.633 56.112 171.43 55.3405 172.253C45.9796 182.24 40.1536 186.189 39.5255 186.704C39.3503 186.81 39.1845 186.908 39.0171 186.997C38.49 187.277 37.9045 187.493 36.6572 187.764C34.8936 188.149 33.2388 187.715 32.7244 187.461C32.1064 187.155 31.5271 186.817 30.9796 186.395C29.8651 185.536 28.8872 184.494 28.0707 183.35C26.4059 181.019 25.0438 178.438 23.7952 175.858L23.5819 175.416C18.4477 163.309 21.8916 147.319 23.6731 140.274C26.8788 127.594 31.255 114.101 40.8562 104.745C43.2614 102.401 45.9809 100.354 48.943 98.7656C50.4581 97.9535 52.0323 97.2722 53.647 96.6864L53.7839 96.6363C55.3823 96.0508 57.0176 95.362 58.7101 95.1657C58.8265 95.1521 58.8312 94.9703 58.7101 94.9791C57.1932 95.0974 55.697 95.059 54.1939 95.3346C52.6741 95.6134 51.1796 96.1017 49.7564 96.7008C46.9346 97.8883 44.3173 99.4647 41.9131 101.356C36.7431 105.425 32.8251 110.839 29.8387 116.66C26.622 122.929 24.3641 129.677 22.458 136.445C20.4895 143.436 15.9299 158.17 19.0764 170.007C19.5481 171.782 20.3822 173.439 21.1434 175.108C22.6339 178.377 24.3975 181.585 26.5308 184.481C27.5267 185.833 28.6062 187.158 29.9636 188.164C30.5986 188.633 31.3453 189.126 32.1026 189.37C32.5648 189.52 35.032 190.313 38.2547 189.344C38.2534 189.345 38.2503 189.346 38.2499 189.347C39.5491 189.222 40.6819 188.558 41.2983 188.054C41.3279 188.031 41.3565 188.007 41.3848 187.982C41.4002 187.969 41.42 187.954 41.4348 187.941C44.4278 185.558 49.3445 181.558 50.4596 180.442C53.2729 177.626 56.5742 174.614 60.2361 169.865C62.2619 167.238 64.398 164.081 66.6239 160.128C66.987 160.253 67.3683 160.31 67.7673 160.251C68.5265 160.14 69.3481 159.538 69.3991 158.748C69.5973 158.521 69.7804 158.313 70.0583 158.144C70.2955 158 70.5453 157.868 70.7904 157.74C71.3663 157.438 71.9572 157.162 72.5396 156.873L72.7803 156.754C73.6635 156.32 74.5568 155.901 75.4145 155.42C76.2525 154.95 77.0768 154.401 77.7156 153.676C78.3084 153.002 78.5793 152.275 78.848 151.457L78.9317 151.2C79.292 150.092 80.4301 149.717 81.3926 149.241L81.7094 149.084C82.6071 148.636 83.4985 148.171 84.3207 147.595C85.3471 146.877 87.1985 144.963 87.8863 142.811C89.375 142.461 94.5557 139.621 94.0853 138.369C93.528 136.887 82.6015 139.734 81.9011 139.918C82.6197 139.727 93.9525 136.66 94.6881 132.784Z" fill="#010101"/>
<path d="M79.6299 124.577C79.5843 125.279 78.9792 125.811 78.2769 125.765L76.9362 125.678C76.2349 125.633 75.7025 125.028 75.7481 124.326L75.9479 121.248C75.9935 120.547 76.5989 120.015 77.3006 120.06L78.6416 120.147C79.3433 120.193 79.875 120.798 79.8294 121.5L79.6299 124.577Z" fill="#010101"/>
<path fill-rule="evenodd" clip-rule="evenodd" d="M4.30054 42.9769L42.8711 4.40634C55.8228 3.62604 69.7146 3 80.9485 3C93.0999 3 103.79 3.64212 113.027 4.62074L7.64791 110C7.11537 91.3173 6.45998 74.0559 5.68173 63.5048C5.13481 56.0899 4.6789 49.2038 4.30054 42.9769Z" fill="url(#paint0_linear)"/>
<path fill-rule="evenodd" clip-rule="evenodd" d="M7.46167 127.377L128.839 6C137.692 7.51729 144.517 9.24244 149.325 10.6716L7.99657 152C7.84186 144.12 7.66356 135.764 7.46167 127.377Z" fill="url(#paint1_linear)"/>
<path fill-rule="evenodd" clip-rule="evenodd" d="M9.0105 180.193L151.461 37.7432C150.416 44.9254 149.295 54.1263 148.185 65.8518L16.0372 198C12.1224 197.06 9.23913 196.291 9.23913 196.291C9.23913 196.291 9.16292 190.062 9.0105 180.193Z" fill="url(#paint2_linear)"/>
<path d="M153.547 201.053C152.639 201.053 151.838 200.396 151.686 199.471C151.604 198.97 141.378 148.852 144.503 100.216C148.381 39.8392 155.581 19.3995 157.434 13.6801C150.991 11.3017 125.715 3.15569 81.897 3.15569C55.1193 3.15569 12.9609 6.62156 3.83193 7.39969C4.03551 13.3718 4.08742 33.9426 6.91707 61.5715C11.1177 102.585 10.6856 194.704 10.6982 195.711C10.7111 196.753 9.87667 197.609 8.83392 197.622C8.82605 197.622 8.81787 197.622 8.81001 197.622C7.77827 197.622 6.93563 196.793 6.92241 195.758C6.91014 194.753 4.75196 95.4829 3.15197 61.855C1.57683 28.7506 0.0073464 5.95167 0.000738748 5.7248C-0.0269505 4.72705 0.726945 3.88033 1.72093 3.79159C2.21744 3.74723 36.6046 -0.935081 82.0194 0.218741C133.945 1.53776 159.533 10.397 160.601 10.8659C161.07 11.0717 161.436 11.4596 161.613 11.9398C161.791 12.4203 161.766 12.9523 161.543 13.4139C161.485 13.5395 155.04 28.211 150.399 100.465C147.302 148.676 155.331 198.363 155.413 198.859C155.581 199.888 154.884 200.859 153.855 201.028C153.751 201.045 153.648 201.053 153.547 201.053Z" fill="black"/>
<path d="M12.0837 266.422C19.5611 261.154 14.4892 261.284 28.4792 240.586C42.4689 219.887 57.3792 208.246 57.3792 208.246C57.3792 208.246 104.668 177.934 104.072 211.673C103.451 246.784 104.4 254.757 96.2539 266.027C88.1086 277.296 79.3805 279.034 66.4402 281.722C53.4999 284.408 30.0147 283.568 26.4148 286.276C22.8146 288.984 12.0837 266.422 12.0837 266.422Z" fill="#ECB989"/>
<path d="M25.738 288.389C23.9309 288.389 19.7118 287.854 15.7374 277.406C12.7448 269.539 9.69709 266.129 9.59829 265.921C9.20309 265.09 10.2449 265.408 10.9966 264.878C14.359 262.51 15.1106 261.682 16.1716 258.393C18.5133 251.133 22.3939 245.784 30.6796 236.344C39.1446 226.7 55.5989 207.241 56.2172 206.758C56.2631 206.722 56.311 206.688 56.36 206.657C57.1762 206.134 76.5074 193.847 90.6969 193.847C95.3776 193.847 99.0653 195.185 101.657 197.823C104.621 200.84 106.069 205.511 105.959 211.707C105.887 215.809 105.834 219.604 105.789 222.952C105.434 248.875 106.825 250.714 100.008 262.251C92.6156 274.761 79.9808 280.839 67.1208 283.509L66.8237 283.57C60.7022 284.841 52.5484 286.323 44.5629 285.787C34.5604 285.115 29.0078 286.688 27.5497 287.785C27.0236 288.18 26.3975 288.389 25.738 288.389ZM14.4706 267.007C15.3353 268.751 16.9331 271.893 18.7483 275.067C22.9974 282.499 25.8084 285.914 26.4148 286.276C28.9266 284.773 34.2033 282.604 44.3445 282.017C51.7454 281.588 60.134 281.102 66.0563 279.873L66.3533 279.811C78.8283 277.221 87.0699 275.51 94.7235 264.921C101.567 255.453 101.662 248.557 102.013 222.901C102.059 219.549 102.111 215.749 102.184 211.639C102.275 206.494 101.191 202.736 98.964 200.469C97.1085 198.58 94.327 197.622 90.6972 197.622C78.0237 197.622 59.8055 208.948 58.4742 209.787C57.376 210.664 43.2118 222.159 30.0436 241.643C23.2422 251.706 21.067 256.646 19.6275 259.914C18.2232 263.103 17.4299 264.708 14.4706 267.007Z" fill="black"/>
<path d="M67.437 155.573C61.3866 156.132 49.4629 156.918 44.1438 160.165C44.1438 160.165 44.1029 168.063 44.1611 172.963C44.2542 180.793 44.2668 188.617 44.6469 196.441C45.5069 214.158 47.1704 250.96 46.4454 251.274C52.5928 255.174 65.9446 254.693 72.7046 254.872C80.9594 255.091 93.9765 255.9 101.573 252.103C102.678 251.55 106.809 211.673 107.067 203.519C107.296 196.289 107.097 189.056 107.479 181.832C107.768 176.389 107.717 165.221 107.9 159.791C107.9 159.791 100.56 157.127 90.4263 156.292C82.7904 155.663 75.0749 154.866 67.437 155.573Z" fill="white"/>
<path d="M95.7926 153.032C82.8593 151.972 69.5294 151.135 56.6612 152.065C47.8802 152.701 39.1311 150.707 38.4624 160.717C37.6384 173.027 38.9092 192.76 39.6833 205.047C40.6178 219.891 42.3776 234.675 44.6447 249.371C44.7161 249.824 44.9404 250.201 45.2485 250.51C43.8898 251.11 43.1718 252.54 44.9061 253.805C50.5783 257.942 59.2731 258.192 65.971 258.758C75.5968 259.571 85.4331 259.491 95.0098 258.146C97.993 257.727 98.9313 258.014 101.634 256.632C104.628 255.101 109.119 234.065 111.604 209.952C112.391 202.318 112.667 197.343 112.669 189.677C112.669 183.643 113.2 165.745 113.2 159.703C113.199 154.734 106.45 153.905 95.7926 153.032ZM107.479 181.832C107.097 189.056 107.296 196.289 107.067 203.519C106.808 211.673 102.678 251.55 101.573 252.102C93.9762 255.9 80.9591 255.091 72.7042 254.872C65.9443 254.693 52.5924 255.174 46.4451 251.274C47.1701 250.96 45.5068 214.158 44.6466 196.441C44.2665 188.616 44.2539 180.793 44.1607 172.962C44.1025 168.063 44.1434 160.164 44.1434 160.164C49.4626 156.918 61.3866 156.132 67.4367 155.572C75.0742 154.866 82.79 155.663 90.4257 156.292C100.559 157.126 107.899 159.79 107.899 159.79C107.716 165.22 107.768 176.388 107.479 181.832Z" fill="#010101"/>
<path d="M63.5829 199.165C68.6387 199.165 72.7373 195.067 72.7373 190.011C72.7373 184.955 68.6387 180.856 63.5829 180.856C58.527 180.856 54.4285 184.955 54.4285 190.011C54.4285 195.067 58.527 199.165 63.5829 199.165Z" fill="#C4C4C3"/>
<path d="M87.811 199.165C92.8668 199.165 96.9654 195.067 96.9654 190.011C96.9654 184.955 92.8668 180.856 87.811 180.856C82.7551 180.856 78.6565 184.955 78.6565 190.011C78.6565 195.067 82.7551 199.165 87.811 199.165Z" fill="#C4C4C3"/>
<path d="M63.5829 222.449C68.6387 222.449 72.7373 218.351 72.7373 213.295C72.7373 208.239 68.6387 204.14 63.5829 204.14C58.527 204.14 54.4285 208.239 54.4285 213.295C54.4285 218.351 58.527 222.449 63.5829 222.449Z" fill="#C4C4C3"/>
<path d="M87.811 222.449C92.8668 222.449 96.9654 218.351 96.9654 213.295C96.9654 208.239 92.8668 204.14 87.811 204.14C82.7551 204.14 78.6565 208.239 78.6565 213.295C78.6565 218.351 82.7551 222.449 87.811 222.449Z" fill="#C4C4C3"/>
<path d="M39.7392 235.925C39.7392 235.925 65.8908 220.514 69.889 225.701C73.8876 230.888 61.9775 238.419 55.5347 244.42C49.0919 250.421 50.1888 249.046 50.0944 252.21C50.0944 252.21 48.4683 261.338 41.8169 266.335C35.1655 271.333 32.1801 267.584 32.1801 267.584" fill="#ECB989"/>
<path d="M35.4518 269.539C32.317 269.539 30.7938 268.902 30.7035 268.759C30.1975 267.963 28.4248 264.164 33.6571 266.407C33.67 266.413 33.6461 266.391 33.6218 266.364C33.7046 266.456 36.724 269.68 41.3254 265.501C49.8996 257.713 49.5066 253.545 48.2109 252.005C48.2172 251.667 48.2078 251.385 48.1999 251.133C48.1219 248.709 48.6162 248.252 52.4641 244.693C52.9826 244.213 53.5738 243.666 54.2481 243.038C55.6848 241.7 57.3317 240.332 59.0748 238.886C63.86 234.913 70.4139 229.473 68.3942 226.853C68.3778 226.832 66.4628 224.955 54.0974 230.585C47.2295 233.712 40.7622 237.513 40.6977 237.551C39.7997 238.081 37.7906 239.394 37.471 238.402C37.3382 237.989 38.3032 235.47 39.2015 234.941C39.4718 234.781 46.3139 232.25 53.3608 229.041C64.0381 224.18 70.7855 222.959 73.1051 226.052C74.0491 227.31 72.3578 231.204 69.1326 234.311C66.668 236.686 64.6268 239.184 61.4863 241.791C59.786 243.202 58.1794 244.536 56.8216 245.801C56.1439 246.432 55.5492 246.982 55.0275 247.464C53.3693 248.998 51.4934 250.176 51.2989 250.542C52.0368 254.2 49.2442 264.819 44.1299 267.389C40.7421 269.091 37.3545 269.539 35.4518 269.539Z" fill="black"/>
<circle cx="63.5" cy="190.5" r="9.5" fill="#55AF8A"/>
<path fill-rule="evenodd" clip-rule="evenodd" d="M68.4118 194.632L63.6618 184.182L58.9118 194.632L63.6618 193.682L68.4118 194.632Z" fill="#F1F5F1"/>
<circle cx="63.5" cy="190.5" r="9.5" fill="#C4C4C4"/>
<path fill-rule="evenodd" clip-rule="evenodd" d="M68.4118 194.632L63.6618 184.182L58.9118 194.632L63.6618 193.682L68.4118 194.632Z" fill="#F1F5F1"/>
<circle cx="63.5" cy="213.5" r="9.5" transform="rotate(-90 63.5 213.5)" fill="#C4C4C4"/>
<path fill-rule="evenodd" clip-rule="evenodd" d="M67.6325 208.588L57.1825 213.338L67.6325 218.088L66.6825 213.338L67.6325 208.588Z" fill="#F1F5F1"/>
<circle cx="88.5" cy="190.5" r="9.5" transform="rotate(90 88.5 190.5)" fill="#55AF8A"/>
<path fill-rule="evenodd" clip-rule="evenodd" d="M84.3675 195.412L94.8175 190.662L84.3675 185.912L85.3175 190.662L84.3675 195.412Z" fill="#F1F5F1"/>
<circle cx="88.5" cy="213.5" r="9.5" transform="rotate(-180 88.5 213.5)" fill="#C4C4C4"/>
<path fill-rule="evenodd" clip-rule="evenodd" d="M83.5882 209.368L88.3382 219.818L93.0882 209.368L88.3382 210.318L83.5882 209.368Z" fill="#F1F5F1"/>
<circle cx="109" cy="160" r="12" fill="#F2312F" fill-opacity="0.8"/>
<defs>
<linearGradient id="paint0_linear" x1="94.3928" y1="-21.5" x2="-2.60718" y2="72.5" gradientUnits="userSpaceOnUse">
<stop stop-color="#ADB9CD" stop-opacity="0.5"/>
<stop offset="1" stop-color="#E6ECF6" stop-opacity="0"/>
</linearGradient>
<linearGradient id="paint1_linear" x1="134.393" y1="11.5" x2="1.89283" y2="136" gradientUnits="userSpaceOnUse">
<stop stop-color="#ADB9CD" stop-opacity="0.5"/>
<stop offset="1" stop-color="#E6ECF6" stop-opacity="0"/>
</linearGradient>
<linearGradient id="paint2_linear" x1="80.2355" y1="37.7432" x2="80.2355" y2="198" gradientUnits="userSpaceOnUse">
<stop stop-color="#ADB9CD" stop-opacity="0.5"/>
<stop offset="1" stop-color="#E6ECF6" stop-opacity="0"/>
</linearGradient>
</defs>
</svg>
