<svg width="162" height="289" viewBox="0 0 162 289" fill="none" xmlns="http://www.w3.org/2000/svg">
<path d="M154.571 206C154.571 206 145.522 151.391 148.669 101.305C153.432 25.5224 160 11.5822 160 11.5822C160 11.5822 134.191 0 82.032 0C51.5771 0 2 4.5042 2 4.5042C2 4.5042 2.62948 27.6686 5.14741 61.8053C7.66534 95.9419 8.9243 198.842 8.9243 198.842C8.9243 198.842 28.837 204.15 35.4818 204.072C128.894 202.971 154.571 206 154.571 206Z" fill="#E6ECF6"/>
<path d="M97.5134 99.0972C96.9269 97.5972 96.3184 95.9979 95.4226 95.1612C94.0563 93.885 92.0316 94.3419 89.5222 94.7525C89.9832 88.5218 87.1076 86.935 83.1462 85.7507C82.7551 85.6012 82.3642 85.4665 81.9741 85.3429C78.72 85.1909 75.4262 85.2579 72.4342 85.5858C70.0976 86.8158 68.3252 89.164 67.5518 92.9055C65.7378 92.9055 64.3681 93.3419 63.1681 93.9605C64.9496 101.125 69.0004 113.938 75.7449 117.064C82.7786 120.323 92.4554 108.103 97.5134 99.0972Z" fill="#ECB989"/>
<path d="M62.0438 91.2508C63.1854 90.0601 64.9754 89.3487 66.6704 89.3887L66.7497 89.3915L67.3252 89.4173L66.9404 91.3036L66.9209 91.393L66.8426 91.7206L66.7381 92.1494L66.701 92.3071L66.6619 92.482C66.6556 92.5103 66.6497 92.5383 66.6437 92.566L66.6267 92.6488L66.4628 93.4502L66.4933 93.5219L66.4848 93.7038C66.4593 94.3624 66.6012 94.7242 66.9133 94.84L66.9385 94.8488L67.1166 94.9061L67.262 95.222C67.5968 95.9438 67.9092 96.5744 68.2298 97.1684C69.1647 98.9006 70.2804 100.632 71.5664 102.372C72.7885 104.026 74.0616 105.604 75.3853 107.103C75.9806 107.777 76.6093 108.453 77.2782 109.141L77.8544 109.731L78.0375 109.917L78.1605 110.04L78.3144 110.191L78.5359 110.402L78.6964 110.56L78.7483 110.609C78.8137 110.67 78.8644 110.711 78.91 110.741L78.9273 110.751L78.978 110.781L81.6481 113.59L82.5911 114.108L83.0392 114.356L83.1298 114.176L83.1484 114.118L84.1408 111.938L84.7471 110.603C85.9909 107.856 86.9584 105.672 87.8436 103.591L87.9537 103.331L88.28 102.557L88.4527 102.144C89.2441 100.249 89.8284 98.7851 90.3513 97.3641L90.4256 97.1609L90.5357 96.8572L90.6997 96.3994L90.7292 96.3211C90.8714 95.9576 90.5225 94.6358 90.1786 93.9118L90.1588 93.8712L90.07 93.6922L89.9728 93.5024C89.7456 93.0594 89.5811 92.5667 89.4426 91.9707C89.4203 91.8741 89.3989 91.7775 89.3794 91.679L89.3504 91.5315L89.3319 91.4345L89.3064 91.2989L89.2702 91.1045L90.0389 90.9761L90.4608 90.9072L90.6452 90.8782C90.8837 90.8414 91.0958 90.8112 91.2953 90.786L91.3695 90.7766L91.5033 90.7609L91.5083 90.7873L91.7827 90.8144L91.9863 90.8354C92.9897 90.9415 93.7637 91.0585 94.3134 91.1882L94.3675 91.2011L94.466 91.2259L94.511 91.2373C95.0113 91.3722 95.3961 91.6633 95.701 92.0922C95.9103 92.3864 96.0459 92.668 96.2608 93.2019L96.3375 93.3945L96.5934 94.0266C96.6236 94.1037 96.6695 94.2267 96.7321 94.396L96.9486 94.9866L97.5612 95.5911L100.981 96.0948C105.91 96.3985 139.369 109.352 138.023 182.397L138.079 183.183L138.194 184.892L138.262 185.866L138.27 185.997L138.297 186.505L138.305 186.624C138.315 186.776 138.327 186.905 138.341 187.024L138.353 187.112L138.366 187.197C138.404 187.43 138.479 187.638 138.603 187.87L138.635 187.929L138.848 188.31L138.462 188.513C136.45 189.573 119.902 190.04 114.468 190.065L114.303 190.065H113.963C111.322 190.064 108.523 189.962 105.603 189.787L104.942 189.747L104.391 189.712C104.153 189.697 103.922 189.681 103.683 189.665L103.315 189.638L101.779 189.526C94.8719 188.864 87.628 188.876 79.6466 189.473C59.7755 190.751 44.7292 189.032 33.3225 188.642C30.5042 188.546 18.8961 171.022 18.9663 161.982C19.807 154.592 21.0946 147.425 22.8459 140.499L23.0221 139.807C24.916 132.405 26.7416 126.698 29.0625 121.421C32.0145 114.709 35.6135 109.185 40.1454 104.769C42.6368 102.34 45.396 100.291 48.3282 98.7193C49.6768 97.9963 51.11 97.3547 52.6471 96.7776L52.8673 96.6958L53.2229 96.5659L53.4954 96.4652L54.3745 96.1367C54.5592 96.0675 54.7603 95.99 54.9978 95.8963L55.1451 95.8384L56.719 95.2103L56.9805 95.1078L57.2709 94.9945L57.4845 94.9127C57.8338 94.7793 58.15 94.6632 58.4436 94.5606L58.6176 94.5011L58.7749 94.4483L59.4467 94.2157L59.4338 94.8265C59.425 95.2327 59.5294 95.5401 59.762 95.7607L59.7698 95.7673L59.7774 95.7739L59.7846 95.7786L59.8255 95.7773L59.9841 95.7767C60.0005 95.7676 60.0159 95.7569 60.0301 95.7446C60.2563 95.553 60.3611 95.2953 60.4627 94.7053L60.4898 94.5414L60.5369 94.2337L60.5562 94.1172C60.6238 93.7079 60.6826 93.4817 60.7981 93.223C60.9646 92.8492 61.1845 92.4848 61.4431 92.1504L61.5036 92.0736L61.7452 91.7832L61.7823 91.7372C61.8673 91.6284 61.9104 91.5519 61.9287 91.4814L61.9331 91.4625L61.957 91.3401L62.0438 91.2508Z" fill="#55AF8A"/>
<path d="M103.567 60.8574C103.349 60.6916 103.116 60.5368 102.865 60.3974C102.238 60.05 101.538 59.8672 100.84 59.8524C100.76 59.8509 100.679 59.8499 100.599 59.8528C100.596 59.8754 100.592 59.8981 100.587 59.9207C100.502 60.3644 100.292 60.5881 99.9868 60.8571L99.877 60.9521C99.4595 61.3096 98.9249 61.2769 98.5876 60.9408C98.5876 60.9408 97.8938 60.3049 97.873 59.3169C97.8592 58.6615 97.8969 58.0036 97.9127 57.3485C97.9429 56.0817 98.0077 54.8152 98.0571 53.5487C98.0983 52.478 98.295 51.2795 98.1348 50.2144C98.0417 49.5942 97.6679 49.4482 97.1525 49.2981L96.4832 49.1043C94.9093 48.6424 93.3153 48.0641 92.9739 46.1995C92.6105 44.2068 93.9066 42.4381 94.0214 40.4879C94.0765 39.5613 93.9421 38.6271 93.6583 37.7391C89.2463 38.2391 84.7908 38.33 80.3627 38.0003C79.959 37.9701 79.5563 37.9304 79.1532 37.8939C78.7502 37.9304 78.3474 37.9701 77.9434 38.0003C73.5153 38.33 69.0602 38.2391 64.6478 37.7391C64.364 38.6271 64.2297 39.5613 64.2847 40.4879C64.3996 42.4381 65.6956 44.2068 65.3322 46.1995C64.9908 48.0644 63.3968 48.6427 61.8229 49.1043L61.1537 49.2981C60.6383 49.4485 60.2645 49.5942 60.1713 50.2144C60.0112 51.2795 60.2078 52.4777 60.249 53.5487C60.2984 54.8152 60.3632 56.0817 60.3935 57.3485C60.4092 58.0036 60.4696 58.6624 60.4331 59.3169C60.3721 60.4128 59.7185 60.9408 59.7185 60.9408C59.3815 61.2769 58.8466 61.3096 58.4291 60.9521L58.3193 60.8571C58.0134 60.5884 57.8036 60.3647 57.7189 59.9207C57.7142 59.8981 57.7101 59.8754 57.7076 59.8528C57.627 59.8499 57.5462 59.8509 57.4656 59.8524C56.7674 59.8675 56.0683 60.0504 55.4415 60.3974C55.1898 60.5368 54.9572 60.6916 54.7395 60.8574C53.9982 61.4213 52.7858 62.6346 52.665 64.5175C52.5731 65.9516 52.7339 67.6221 53.7203 68.7076C53.9183 68.9254 54.1426 69.1214 54.3997 69.2841C54.9868 69.6554 55.6482 69.8763 56.3373 69.9253C56.4304 69.932 56.5239 69.936 56.6177 69.9364C57.0025 69.9376 57.3348 69.8725 57.7086 69.7803C57.9619 69.7183 58.2136 69.6274 58.4785 69.6274C58.705 69.6274 58.9143 69.6843 59.1081 69.7976L59.0543 69.8023C58.9234 69.8146 58.9486 69.8203 59.1305 69.8203C59.6965 69.8445 60.0206 70.4203 59.7604 70.9209L59.7264 70.9983C59.7192 71.014 59.7132 71.0269 59.7082 71.037L59.6877 71.1701C59.6858 71.1827 59.6833 71.1956 59.6811 71.2088L59.6735 71.2359C59.672 71.2403 59.6701 71.2444 59.6682 71.2488L60.5174 72.5461C61.5583 74.1335 62.6221 75.7146 63.8332 77.1642C64.6821 78.1811 65.5824 79.1783 66.5332 80.1015C67.2648 80.8116 68.1203 81.2078 68.9586 81.7159H68.9592C68.9592 81.7159 68.9611 81.7175 68.9614 81.7175C69.1017 81.8028 69.2421 81.8902 69.3805 81.984C69.4469 82.0287 69.5067 82.0797 69.5608 82.1354C70.9528 83.0346 74.6946 85.0688 80.0685 85.0688C83.9403 85.0688 87.8593 82.6863 88.8916 82.0114C88.9033 82.0029 88.9124 81.9919 88.9247 81.9837C88.9911 81.939 89.0581 81.8981 89.1245 81.8556C89.1437 81.8424 89.1566 81.8336 89.1566 81.8336C89.1566 81.8336 89.1591 81.8336 89.1594 81.8336C90.0568 81.2663 90.986 80.8648 91.7723 80.1015C92.7231 79.1783 93.6234 78.1811 94.4723 77.1642C95.6834 75.7149 96.7472 74.1335 97.7881 72.5461L98.6373 71.2488C98.6354 71.2444 98.6335 71.2403 98.632 71.2359L98.6244 71.2088C98.6222 71.1956 98.6197 71.1827 98.6178 71.1701L98.5973 71.037C98.5923 71.0269 98.5867 71.014 98.5791 70.9983L98.5451 70.9209C98.2849 70.4203 98.609 69.8445 99.175 69.8203C99.3569 69.8203 99.3821 69.8146 99.2512 69.8023L99.1974 69.7976C99.3912 69.6843 99.6005 69.6274 99.827 69.6274C100.092 69.6274 100.344 69.7183 100.597 69.7803C100.971 69.8725 101.303 69.9376 101.688 69.9364C101.782 69.936 101.875 69.932 101.968 69.9253C102.657 69.8763 103.318 69.6554 103.906 69.2841C104.163 69.1214 104.387 68.9254 104.585 68.7076C105.572 67.6221 105.886 65.9334 105.64 64.5175C105.306 62.5842 104.308 61.4213 103.567 60.8574ZM57.908 66.6986C57.3612 66.0706 56.9959 65.3613 56.3168 65.0237C56.2064 64.969 56.09 64.9196 55.9717 64.8733C55.4365 64.665 54.8367 64.5587 54.3138 64.7003C54.287 64.7072 54.2603 64.6921 54.2411 64.6657C54.1936 64.6235 54.1753 64.553 54.2354 64.5008C54.242 64.4945 54.2493 64.4891 54.2562 64.4835C54.2565 64.481 54.2565 64.4781 54.2568 64.4759C54.7987 63.7503 55.3899 63.3218 56.0865 63.2768C56.2111 63.2689 56.3382 63.2692 56.4701 63.2862C57.352 63.4026 58.4146 63.9624 58.9325 65.1244C59.3425 66.0419 58.5084 67.388 57.908 66.6986ZM104.05 64.4841C104.057 64.4898 104.063 64.4945 104.07 64.5008C104.13 64.553 104.112 64.6238 104.064 64.6657C104.046 64.6921 104.021 64.7075 103.995 64.7003C103.499 64.5587 102.93 64.665 102.422 64.8733C102.31 64.9193 102.199 64.969 102.094 65.0237C101.45 65.3613 101.104 66.0706 100.585 66.6986C100.015 67.388 99.2232 66.0419 99.6115 65.1244C100.103 63.9627 101.111 63.4026 101.949 63.2862C102.074 63.2689 102.194 63.2686 102.313 63.2768C102.974 63.3218 103.535 63.7503 104.049 64.4762C104.05 64.4787 104.05 64.4816 104.05 64.4841Z" fill="#ECB989"/>
<path d="M77.7769 79.0717C76.8236 78.6828 75.9734 78.0339 75.3513 77.2052C75.1348 76.9169 75.0788 76.6124 75.1241 76.3342C75.1754 76.0214 75.3604 75.7376 75.6128 75.5476C75.8661 75.3569 76.1829 75.2625 76.4891 75.3106C76.755 75.3522 77.0199 75.4979 77.2295 75.8002L77.2738 75.8607C77.6435 76.3609 78.1253 76.7716 78.674 77.0359C79.2033 77.2907 79.7948 77.4097 80.4071 77.3405C81.5735 77.2089 82.3774 76.5781 83.2317 75.7213C83.3378 75.6133 83.4435 75.502 83.5502 75.3884C83.6178 75.2858 83.7109 75.2197 83.8148 75.1851C83.9293 75.1464 84.0596 75.1486 84.1788 75.1901C84.2937 75.2304 84.3966 75.3066 84.4655 75.4076C84.5309 75.5038 84.568 75.6228 84.5561 75.759C84.4777 76.6467 84.0136 77.4393 83.3547 78.061C82.6226 78.752 81.6522 79.2299 80.7384 79.3976C79.7312 79.583 78.7058 79.4505 77.7769 79.0717ZM82.3796 65.823C82.5143 66.906 82.3384 68.9201 80.5204 69.3537C78.725 69.534 78.1721 67.2518 78.1621 66.1729C78.0715 65.25 77.0702 65.6732 77.0555 66.6244C77.2622 74.2934 85.64 69.483 83.2393 65.615C82.9746 65.1893 82.3667 65.5181 82.3796 65.823ZM68.7543 59.3887C68.8727 57.9199 71.1095 57.5861 71.332 59.0398C71.5311 60.3418 71.2967 61.5378 70.7099 62.7102C70.1495 63.83 68.7411 63.3074 68.6348 62.2876C68.4922 60.9207 68.6807 60.3025 68.7543 59.3887ZM85.781 58.7383C86.0925 58.3299 86.5431 58.0511 87.0827 58.2088C88.768 58.7009 88.2715 61.0944 87.6793 62.2593C87.358 62.8917 86.3184 63.0522 85.8487 62.4953C85.0825 61.5865 84.7159 59.7732 85.6898 58.8784C85.7159 58.8321 85.7451 58.7855 85.781 58.7383ZM70.6866 52.9617L70.9531 52.9154C71.7762 52.7729 72.8007 52.636 73.3835 53.2983C73.6925 53.6495 73.7988 54.3021 73.3835 54.6381C72.6529 55.2297 71.8448 55.0003 70.9695 55.0509C70.248 55.0922 69.5545 55.2117 68.8594 55.4103C67.3346 55.8461 66.0921 56.6418 64.7894 57.5156C64.6186 57.6298 64.4443 57.4115 64.5258 57.2516C65.2778 55.7787 66.7346 54.5695 68.1936 53.832C68.9724 53.4377 69.8248 53.1114 70.6866 52.9617ZM84.4416 52.3022L84.6753 52.3446C87.2136 52.816 90.5118 53.7565 91.7138 55.97C91.7597 56.2831 91.7112 56.3498 91.6716 56.3936L91.6587 56.4083C91.626 56.4458 91.6002 56.4974 91.4476 56.5402C91.4048 56.5317 91.3623 56.5216 91.3192 56.5112C90.7679 56.3832 90.3321 56.2067 89.9099 56.0232L89.452 55.8231C88.9212 55.5921 88.3854 55.3697 87.8178 55.2048C86.6067 54.8543 85.361 54.6073 84.0954 54.4754C83.8211 54.4465 83.5571 54.3644 83.3491 54.2237C83.1512 54.09 82.9998 53.905 82.9312 53.6592C82.8419 53.3408 82.8677 53.0998 83.0599 52.8128C83.2047 52.5967 83.4117 52.4478 83.6496 52.3616C83.8922 52.2742 84.1675 52.2537 84.4416 52.3022Z" fill="#010101"/>
<path d="M98.8824 66.2701C98.8739 66.1763 98.7632 66.1266 98.7399 66.2232C98.7421 66.1707 98.744 66.1184 98.7462 66.0659C98.7534 65.8412 98.5077 65.8116 98.4617 66.0146C97.9017 68.4796 96.9866 70.7227 95.6714 72.6182C93.8593 75.2266 91.5445 77.0374 89.2963 78.9193C89.2214 78.8246 89.1295 78.7573 89.0323 78.7318C88.8101 77.4043 88.2387 76.141 87.56 75.0809C86.6705 73.3025 85.4078 71.8831 83.9299 71.0405C82.9048 70.4571 81.7994 70.1406 80.6708 70.0544C78.6161 69.555 76.4853 69.7382 74.6204 70.8001C72.992 71.7286 71.6195 73.3529 70.7262 75.3921C70.5415 75.8128 70.3786 76.2524 70.2348 76.7029C69.9066 77.4175 69.6505 78.1831 69.5183 78.9719C69.4211 78.9974 69.3295 79.0647 69.254 79.1594C67.0058 77.2775 64.6909 75.4667 62.8795 72.8582C61.5636 70.9628 60.6489 68.7196 60.0885 66.2547C60.0429 66.0517 59.7969 66.0813 59.8041 66.306C59.8066 66.3585 59.8088 66.4107 59.8107 66.4633C59.7874 66.3667 59.6767 66.4167 59.6679 66.5102C59.3708 69.4666 59.1808 74.7288 60.1641 77.954C60.6914 79.6833 62.8518 83.1574 63.8694 84.5148C64.5147 85.3766 65.1887 86.3703 65.9791 87.0021C66.8988 87.7362 67.9413 88.294 68.9227 88.8607C69.9204 89.4384 70.9336 89.9724 71.9657 90.4352C72.7548 90.7905 73.554 91.1026 74.3614 91.3697C74.514 91.4698 74.6704 91.5623 74.8312 91.6463C75.8415 92.1737 76.9702 92.2898 78.0897 92.2504C78.1699 92.2618 78.2505 92.2762 78.3307 92.2866C80.0685 92.511 82.0543 92.7555 83.7191 91.8867C84.2622 91.6035 84.7578 91.2181 85.2143 90.7625C85.674 90.5869 86.1312 90.3994 86.5846 90.1951C87.6167 89.7323 88.6295 89.1983 89.6279 88.6206C90.6087 88.054 91.6518 87.4961 92.5712 86.762C93.3619 86.1302 94.0359 85.1365 94.6812 84.2747C95.6985 82.9176 97.5568 79.357 97.7645 77.561C98.1115 74.551 99.1838 69.2643 98.8824 66.2701ZM86.6347 81.2638C85.9037 81.9258 85.1089 82.4595 84.2764 82.8393C84.2301 82.8455 84.1841 82.8528 84.1382 82.8581C84.0721 82.816 84.0079 82.7725 83.9488 82.7279C82.8963 81.9265 82.0927 80.3881 79.0157 80.2308C76.1776 80.0857 75.2688 81.227 74.6012 82.4875C74.5621 82.5608 74.4778 82.5756 74.4121 82.6177C73.7362 82.5432 73.0581 82.3336 72.4908 81.8204C72.0777 81.4476 71.8489 80.98 71.7124 80.4419C71.7105 80.1676 71.7237 79.8932 71.7545 79.6204C72.6176 76.9301 74.5024 74.9532 76.6725 74.2301C78.2659 73.7005 79.9389 73.7175 81.5631 73.9277C81.622 73.9353 81.6814 73.9428 81.7403 73.9501C81.7859 73.9642 81.8318 73.9746 81.8778 73.9897C84.0476 74.7128 85.932 76.6897 86.7954 79.38C86.8486 79.8539 86.8521 80.3318 86.8036 80.8088C86.758 80.9674 86.7014 81.1191 86.6347 81.2638Z" fill="#010101"/>
<path d="M110.162 25.7484C110.847 24.5273 110.578 23.0324 109.62 22.0441C108.797 21.1936 108.258 20.7789 107.175 20.3607L106.79 20.2115C102.402 18.526 100.937 17.4882 96.2639 17.0046C90.5316 16.4103 84.6631 16.7309 78.9968 17.947C75.3047 18.7396 71.6979 19.9085 68.2736 21.4654C63.6812 23.5531 59.4643 26.4265 55.7681 29.866C55.0929 29.6759 54.3544 29.636 53.7402 29.742C52.7355 29.9169 51.8155 30.4927 51.2126 31.3149C50.2957 32.5635 50.3281 34.1543 51.0244 35.4195C50.9137 35.5089 50.8124 35.6112 50.7189 35.7216C50.5229 35.9557 50.3863 36.2084 50.2992 36.4708C50.0594 37.1923 50.2041 37.989 50.5997 38.6932C51.0581 39.5116 52.2651 40.5701 52.3758 41.6263C52.5511 43.2984 53.3771 43.0624 52.9838 44.085C51.3268 48.3926 52.8724 53.3968 53.8667 57.7496L53.9557 58.1392C54.1527 59.0111 52.3938 59.5029 51.5112 60.9761C49.4641 64.3929 49.6554 69.6082 53.2956 71.6339C53.4004 71.6924 53.5073 71.7488 53.6171 71.8013C54.3695 72.1616 55.1879 72.3972 56.0201 72.468C56.2574 72.4882 56.4953 72.4976 56.7331 72.4894C57.2935 72.4693 57.8785 72.3928 58.4086 72.2081C58.6733 72.116 58.9351 71.9983 59.1405 71.8098C59.6326 74.4208 60.7578 76.8263 62.1715 79.0883C62.8748 80.2113 63.6781 81.333 64.5925 82.3075C64.7139 82.4368 64.8366 82.5639 64.9622 82.6879C65.0868 82.8109 65.2218 82.933 65.3643 83.0519C67.1934 84.6302 70.1067 89.0536 79.7026 89.0536C87.6475 89.0536 92.6945 82.9969 92.6945 82.9969H92.6933C92.8119 82.8952 92.9255 82.792 93.0312 82.6879C93.1564 82.5639 93.2795 82.4368 93.4009 82.3075C94.3156 81.3327 95.1186 80.2113 95.8218 79.0883C97.2355 76.8266 98.3604 74.4208 98.8528 71.8098C99.0583 71.9983 99.3201 72.116 99.5847 72.2081C100.115 72.3928 100.7 72.469 101.26 72.4894C101.498 72.4973 101.736 72.4882 101.973 72.468C102.805 72.3969 103.624 72.1613 104.376 71.8013C104.487 71.7488 104.593 71.6921 104.698 71.6339C108.338 69.6082 108.819 64.2019 106.482 60.9761C105.04 59.1517 103.841 58.6967 104.038 57.8245L104.127 57.435C105.121 53.0821 105.788 48.4989 104.026 44.2332C103.799 43.6829 106.935 39.5113 107.393 38.6932C107.789 37.9893 107.933 37.1923 107.694 36.4708C107.815 36.2914 107.928 36.1023 108.022 35.8918C108.398 35.0454 108.493 34.1049 108.318 33.2554C109.88 32.8495 109.841 29.3477 109.302 28.7323C108.982 28.3651 108.641 28.036 108.282 27.7411C109.303 27.378 109.63 26.6974 110.162 25.7484ZM105.485 64.5175C105.73 65.9334 105.416 67.6221 104.43 68.7077C104.231 68.9254 104.008 69.1214 103.75 69.2841C103.163 69.6554 102.502 69.8763 101.813 69.9254C101.72 69.932 101.626 69.9361 101.532 69.9364C101.148 69.9376 100.815 69.8725 100.442 69.7803C100.188 69.7183 99.9365 69.6274 99.6716 69.6274C99.445 69.6274 99.2358 69.6843 99.042 69.7976L99.0958 69.8023C99.2267 69.8146 99.2015 69.8203 99.0196 69.8203C98.4536 69.8445 98.1295 70.4203 98.3897 70.9209L98.4237 70.9983C98.4309 71.014 98.4369 71.0269 98.4419 71.037L98.4624 71.1701C98.4643 71.1827 98.4668 71.1956 98.469 71.2088L98.4765 71.2359C98.4781 71.2403 98.48 71.2444 98.4819 71.2488L97.6326 72.5461C96.5918 74.1335 95.5279 75.7146 94.3168 77.1642C93.4679 78.1811 92.5677 79.1783 91.6168 80.1015C90.8305 80.8648 89.9014 81.2663 89.004 81.8336C89.0037 81.8336 89.0011 81.8336 89.0011 81.8336C89.0011 81.8336 88.9883 81.8424 88.9691 81.8556C88.9027 81.8981 88.8356 81.9393 88.7693 81.9837C88.757 81.9919 88.7479 82.0029 88.7362 82.0114C87.7039 82.6863 83.7849 85.0688 79.9131 85.0688C74.5395 85.0688 70.7974 83.0346 69.4054 82.1354C69.3512 82.0794 69.2915 82.0284 69.2251 81.984C69.0866 81.8902 68.9463 81.8031 68.806 81.7175C68.8056 81.7175 68.8037 81.7159 68.8037 81.7159H68.8031C67.9649 81.2078 67.1093 80.8116 66.3778 80.1015C65.4269 79.1783 64.5267 78.1811 63.6778 77.1642C62.4667 75.7149 61.4029 74.1335 60.362 72.5461L59.5127 71.2488C59.5146 71.2444 59.5165 71.2403 59.5181 71.2359L59.5257 71.2088C59.5279 71.1956 59.5304 71.1827 59.5323 71.1701L59.5527 71.037C59.5577 71.0269 59.5634 71.014 59.571 70.9983L59.605 70.9209C59.8652 70.4203 59.5411 69.8445 58.975 69.8203C58.7931 69.8203 58.768 69.8146 58.8989 69.8023L58.9527 69.7976C58.7589 69.6843 58.5496 69.6274 58.3231 69.6274C58.0581 69.6274 57.8061 69.7183 57.5531 69.7803C57.1793 69.8725 56.847 69.9376 56.4622 69.9364C56.3684 69.9361 56.275 69.932 56.1819 69.9254C55.4928 69.8763 54.8314 69.6554 54.2443 69.2841C53.9872 69.1214 53.7628 68.9254 53.5649 68.7077C52.5782 67.6221 52.4177 65.9513 52.5096 64.5175C52.6304 62.6349 53.8424 61.4213 54.5841 60.8574C54.8018 60.6916 55.0347 60.5368 55.2861 60.3974C55.9125 60.0501 56.612 59.8672 57.3102 59.8525C57.3907 59.8509 57.4716 59.8499 57.5522 59.8528C57.5547 59.8754 57.5588 59.8981 57.5635 59.9207C57.6484 60.3644 57.8583 60.5881 58.1638 60.8571L58.2737 60.9522C58.6912 61.3096 59.2258 61.2769 59.5631 60.9408C59.5631 60.9408 60.2166 60.4128 60.2777 59.3169C60.3142 58.6624 60.2537 58.0036 60.238 57.3485C60.2078 56.0817 60.143 54.8152 60.0936 53.5487C60.0524 52.478 59.8557 51.2795 60.0159 50.2144C60.109 49.5942 60.4828 49.4482 60.9982 49.2981L61.6675 49.1043C63.2414 48.6424 64.8354 48.0641 65.1768 46.1995C65.5402 44.2068 64.2441 42.4381 64.1293 40.4879C64.0742 39.5613 64.2086 38.6271 64.4924 37.7391C68.9044 38.2391 73.3599 38.3301 77.7879 38.0003C78.192 37.9701 78.5944 37.9304 78.9978 37.894C79.4005 37.9304 79.8036 37.9701 80.2073 38.0003C84.6354 38.3301 89.0905 38.2391 93.5029 37.7391C93.7867 38.6271 93.921 39.5613 93.866 40.4879C93.7511 42.4381 92.4551 44.2068 92.8185 46.1995C93.1599 48.0644 94.7539 48.6427 96.3278 49.1043L96.997 49.2981C97.5124 49.4485 97.8862 49.5942 97.9794 50.2144C98.1395 51.2795 97.9429 52.4777 97.9017 53.5487C97.8523 54.8152 97.7874 56.0817 97.7572 57.3485C97.7415 58.0036 97.7038 58.6615 97.7176 59.3169C97.7384 60.3049 98.4322 60.9408 98.4322 60.9408C98.7692 61.2769 99.3041 61.3096 99.7216 60.9522L99.8314 60.8571C100.137 60.5884 100.347 60.3647 100.432 59.9207C100.436 59.8981 100.441 59.8754 100.443 59.8528C100.524 59.8499 100.604 59.8509 100.685 59.8525C101.383 59.8676 102.082 60.0504 102.709 60.3974C102.961 60.5368 103.193 60.6916 103.412 60.8574C104.152 61.4213 105.15 62.5842 105.485 64.5175Z" fill="#010101"/>
<path d="M102.157 63.2768C102.038 63.269 101.918 63.2693 101.793 63.2863C100.956 63.4027 99.9478 63.9624 99.4557 65.1244C99.0674 66.042 99.8591 67.388 100.429 66.6986C100.948 66.0706 101.294 65.3614 101.939 65.0238C102.043 64.969 102.154 64.9196 102.266 64.8734C102.774 64.6651 103.343 64.5587 103.839 64.7003C103.865 64.7072 103.89 64.6921 103.909 64.6657C103.956 64.6235 103.974 64.553 103.914 64.5008C103.908 64.4945 103.901 64.4898 103.894 64.4841C103.894 64.4816 103.894 64.4788 103.894 64.4763C103.379 63.7504 102.818 63.3215 102.157 63.2768Z" fill="#010101"/>
<path d="M56.3146 63.2862C56.1828 63.2689 56.056 63.2686 55.9311 63.2768C55.2341 63.3218 54.6429 63.7504 54.1014 64.4759C54.1011 64.4785 54.1011 64.4813 54.1008 64.4835C54.0939 64.4891 54.0866 64.4945 54.08 64.5008C54.0199 64.553 54.0378 64.6238 54.0857 64.6657C54.1052 64.6921 54.1316 64.7075 54.1584 64.7003C54.681 64.5587 55.2807 64.665 55.8162 64.8733C55.9346 64.9193 56.051 64.969 56.1614 65.0237C56.8401 65.3614 57.2054 66.0706 57.7526 66.6986C58.3526 67.388 59.1871 66.0419 58.7777 65.1244C58.2592 63.9624 57.1966 63.4027 56.3146 63.2862Z" fill="#010101"/>
<path d="M68.2302 86.1811C68.2516 86.1645 68.2852 86.1575 68.3057 86.1811C68.6411 86.5726 68.5731 87.1713 68.5841 87.6679L68.5854 87.7138C68.6093 88.4394 68.614 89.1624 68.6115 89.8883L68.6043 92.1991C68.6033 92.5169 68.5775 92.8476 68.5939 93.1667L68.6021 93.2907C68.7789 93.4716 68.8604 93.7324 68.8009 93.9948C68.7902 94.3309 68.614 94.6119 68.3579 94.7881L68.9076 95.5681L69.4579 96.3478C70.5919 97.9569 71.7391 99.5516 72.9345 101.116C74.1531 102.712 75.4533 104.247 76.8138 105.723C77.4787 106.445 78.1545 107.156 78.8465 107.852C79.1274 108.134 79.4157 108.41 79.7004 108.688L79.9839 108.969C80.151 109.136 80.3618 109.302 80.4735 109.514C80.5387 109.639 80.5537 109.948 80.577 109.999C80.7869 110.461 80.4288 111.196 79.8338 110.966L79.8609 110.948C79.9691 110.872 79.8996 110.871 79.6523 110.944C79.4965 110.943 79.3502 110.908 79.2136 110.837L79.1727 110.814C78.9805 110.716 78.8087 110.528 78.6523 110.376L78.6136 110.339C78.2559 110.004 77.9151 109.649 77.5724 109.298C76.8575 108.568 76.1584 107.822 75.4813 107.055C74.1314 105.527 72.8517 103.936 71.6394 102.296C70.4047 100.626 69.2572 98.8694 68.2701 97.0416C67.896 96.3478 67.5524 95.6408 67.2233 94.9253C66.5826 94.7198 66.4338 94.0383 66.4788 93.2702C66.2419 92.7196 66.0289 92.1579 65.9033 91.5837C65.886 91.505 65.9873 91.4311 66.0481 91.4994C66.2526 91.7322 66.4426 91.9801 66.6248 92.2344C66.7349 91.6963 66.8743 91.2008 66.9398 90.8848L67.2236 89.4913C65.623 89.4076 63.8688 90.0655 62.7653 91.2168C62.7062 91.5167 62.4755 91.7313 62.2506 92.011C61.9935 92.3319 61.7694 92.6909 61.602 93.0669C61.2311 93.9001 61.4403 95.1285 60.7207 95.7399C60.6458 95.8035 60.5618 95.8478 60.4756 95.8752C60.817 97.5498 60.6622 99.3955 60.6543 101.094L60.654 101.244C60.6559 103.146 60.5926 105.049 60.5187 106.948L60.4441 108.829C60.3472 111.337 60.2843 113.846 60.5285 116.34C61.6408 115.354 62.7908 114.414 63.9811 113.518C64.7637 112.929 65.5619 112.36 66.3743 111.813L67.0348 111.372C67.8258 110.842 68.6364 110.296 69.5026 109.916C70.636 109.419 71.7133 109.59 72.8071 110.099C73.8967 110.607 74.9536 111.196 76.0221 111.746C77.109 112.306 78.198 112.861 79.2866 113.417C80.0075 113.785 81.0641 114.118 81.5927 114.796C81.6267 114.646 81.6657 114.496 81.7117 114.347C81.6594 114.12 81.6796 113.874 81.8073 113.64C83.5842 110.375 85.2285 107.031 86.8609 103.692C87.6872 102.002 88.4729 100.292 89.301 98.6035L90.1059 96.9585C90.2406 96.6845 90.3752 96.4107 90.5112 96.1373C90.7141 95.7279 90.9252 95.3227 91.131 94.9143C91.2172 94.7418 91.3264 94.5703 91.4111 94.3963L91.451 94.3092C91.4529 94.3045 91.648 93.6912 91.4973 93.75L91.4844 93.7563C91.4073 93.8001 91.3459 93.7032 91.3957 93.6415C91.6087 93.3781 91.9054 93.6113 92.0269 93.8555C92.3616 94.5263 91.7481 95.5794 91.5121 96.2219L91.4992 96.2578C90.7667 98.3314 89.9373 100.366 89.0877 102.393C87.4584 106.28 85.708 110.108 83.9617 113.942L83.941 114.008C84.3135 113.722 84.7109 113.464 85.0514 113.211C85.9104 112.575 86.7945 111.97 87.6771 111.367C89.296 110.26 90.9586 109.227 92.6489 108.236L92.9868 108.038C93.8314 107.546 94.6677 107.147 95.6692 107.294C96.6003 107.432 97.4659 107.932 98.307 108.338L98.3938 108.38L100.992 109.615C100.715 108.507 100.414 107.405 100.1 106.306C99.4881 104.163 98.8145 102.039 98.0842 99.9336C97.402 97.9664 96.6648 96.0203 95.8848 94.0902L95.65 93.5109C95.3319 92.7161 95.0157 91.8492 94.107 91.6041C93.1986 91.3597 92.1568 91.7224 91.3267 91.2045C91.2512 91.1576 91.2607 91.0327 91.3519 91.0101L91.8642 90.8811C92.8261 90.6416 93.9538 90.4009 94.8628 90.6338C95.8527 90.8874 96.6714 91.718 97.1516 92.5818C97.6855 93.5424 98.0618 94.6175 98.4671 95.6417L98.5313 95.8035C98.9967 96.9626 99.4435 98.129 99.872 99.3024C100.728 101.648 101.506 104.022 102.212 106.418C102.552 107.572 102.874 108.732 103.184 109.895C103.273 110.23 103.42 110.635 103.54 111.058C103.678 111.193 103.809 111.343 103.932 111.515C104.135 111.799 103.99 112.133 103.736 112.303C103.727 112.594 103.662 112.868 103.507 113.102C102.904 114.018 101.308 113.782 101.373 112.551C101.383 112.362 101.457 112.182 101.568 112.03L101.565 112.006L101.552 111.96C101.275 111.828 100.997 111.68 100.704 111.535L97.9766 110.187C97.1865 109.797 96.3111 109.194 95.4326 109.045C94.6133 108.906 93.7496 109.516 93.046 109.884L93.0001 109.908C91.2994 110.78 89.611 111.681 87.9292 112.589C87.1082 113.032 86.2974 113.494 85.4799 113.943C84.7962 114.318 84.0577 114.857 83.2893 115.069C82.9611 115.324 82.5713 115.29 82.2579 115.097C82.4011 115.984 82.3922 116.894 82.4363 117.801C82.4951 119.014 82.5043 120.23 82.5235 121.444L82.5313 121.899C82.5829 124.584 82.6106 127.268 82.621 129.953C82.6572 139.514 82.5512 149.077 82.5269 158.637C82.5143 163.441 82.419 168.248 82.2944 173.05C82.2415 175.085 82.1308 177.117 82.0115 179.149L81.9458 180.257C81.807 182.595 81.7246 184.959 81.2916 187.265C81.2353 187.566 80.7262 187.573 80.6761 187.265C80.2778 184.793 80.2558 182.268 80.179 179.767L80.163 179.268C80.0711 176.583 80.0273 173.899 80.0371 171.214C80.0708 161.649 80.3193 152.091 80.5229 142.529C80.6249 137.725 80.6941 132.919 80.8527 128.116C80.9323 125.713 81.0223 123.312 81.1286 120.91C81.1764 119.838 81.2221 118.766 81.2932 117.695L81.3256 117.236C81.3476 116.937 81.3655 116.641 81.3873 116.349C80.4197 116.702 79.5346 116.048 78.6643 115.6C77.6612 115.083 76.6584 114.567 75.6546 114.051L74.6506 113.537L72.6403 112.511C71.735 112.049 71.0378 111.59 70.0728 112.132C66.5949 114.083 63.3993 116.679 60.5033 119.403C59.9476 119.926 58.7743 119.785 58.6336 118.91C58.0326 115.169 58.3983 111.374 58.7054 107.622L58.818 106.229C58.9555 104.565 59.1044 102.901 59.3032 101.244C59.3923 100.503 59.481 99.7624 59.5788 99.022L59.6544 98.4673C59.7768 97.5904 59.8567 96.7185 60.1182 95.8777C60.0357 95.851 59.9564 95.8076 59.8856 95.7402C59.1003 94.9951 59.4791 93.7016 59.8375 92.8155C60.1912 91.9405 60.7308 91.1772 61.4067 90.5195C61.5539 90.3761 61.7616 90.2835 61.9705 90.2788C63.6089 89.1933 65.4062 88.6515 67.2764 89.2439C67.329 88.9929 67.3828 88.7418 67.4394 88.4916L67.4967 88.2418C67.6408 87.6219 67.6946 86.5965 68.2302 86.1811Z" fill="#010101"/>
<path d="M85.0218 184.216C85.5302 184.076 86.0868 184.223 86.4594 184.596C86.8319 184.969 86.9789 185.525 86.8392 186.034C86.7687 186.284 86.6425 186.501 86.4594 186.685C86.2882 186.856 86.0881 186.977 85.8606 187.049L85.8074 187.066L85.7244 187.1C85.4692 187.168 85.2143 187.168 84.9595 187.1C84.7162 187.032 84.5045 186.909 84.3248 186.73C84.1464 186.55 84.0234 186.339 83.9551 186.095C83.8862 185.84 83.8862 185.585 83.9551 185.33L83.9894 185.247C84.0599 184.997 84.186 184.78 84.3692 184.595C84.5542 184.413 84.7716 184.286 85.0218 184.216Z" fill="#010101"/>
<path d="M115.21 133.55C115.294 133.453 115.429 133.576 115.377 133.678C114.585 135.231 113.702 136.772 112.835 138.286C112.905 138.705 112.973 139.121 113.052 139.527C113.39 141.254 113.804 142.952 114.074 144.697C115.044 150.968 115.548 157.308 115.98 163.635C116.413 169.986 116.469 176.339 116.534 182.703C116.54 183.254 116.116 183.895 115.547 183.999C115.287 184.046 115.092 184.037 114.832 183.999C114.241 183.912 113.87 183.234 113.845 182.703C113.675 179.146 113.447 175.595 113.183 172.044C112.714 165.749 112.428 159.438 112.049 153.136L111.916 150.934C111.773 148.547 111.642 146.159 111.6 143.769C111.571 142.186 111.656 140.603 111.604 139.021C111.556 137.561 111.408 135.974 111.73 134.539C111.742 134.485 111.827 134.471 111.851 134.523C112.186 135.228 112.398 135.993 112.561 136.775C113.424 135.685 114.303 134.591 115.21 133.55Z" fill="#010101"/>
<path d="M102.546 95.3349C104.066 95.6137 105.56 96.1021 106.983 96.7012C109.805 97.8886 112.422 99.465 114.827 101.357C119.996 105.425 123.915 110.84 126.901 116.66C130.117 122.93 132.376 129.677 134.282 136.446C136.302 143.62 137.844 150.931 138.874 158.314C139.452 162.467 139.857 166.644 140.102 170.83C140.223 172.893 140.305 174.958 140.346 177.024C140.367 178.102 140.381 179.18 140.377 180.258C140.374 180.793 140.406 181.342 140.361 181.875C140.321 182.372 140.04 182.735 139.753 183.115L139.655 183.248C139.386 183.612 138.909 183.633 138.644 183.248C138.42 182.924 138.118 182.582 138.011 182.193C137.896 181.773 137.972 181.229 137.973 180.796C137.974 179.853 137.97 178.91 137.959 177.967C137.937 176.125 137.883 174.284 137.797 172.445C137.629 168.856 137.342 165.272 136.937 161.702C136.115 154.483 134.849 147.319 133.067 140.274C129.861 127.594 125.485 114.101 115.884 104.745C113.479 102.401 110.759 100.354 107.797 98.7656C106.282 97.9535 104.708 97.2722 103.093 96.6864L102.956 96.6363C101.357 96.0508 99.7222 95.362 98.0297 95.1657C97.9136 95.1521 97.9086 94.9703 98.0297 94.9791C99.5467 95.098 101.043 95.0593 102.546 95.3349Z" fill="#010101"/>
<path d="M85.3131 172.253C85.5818 172.252 85.881 172.31 86.1114 172.459L86.4191 172.697C86.5028 172.804 86.5853 172.911 86.668 173.019C86.8606 173.269 86.8861 173.675 86.8458 173.974C86.8367 174.174 86.7775 174.359 86.668 174.531L86.4342 174.835C86.2086 175.019 86.0211 175.15 85.748 175.238C85.6054 175.284 85.4682 175.294 85.3317 175.286L85.2857 175.283L85.3131 175.287L85.2653 175.282C85.2206 175.278 85.1762 175.273 85.1312 175.267C85.1007 175.263 85.0705 175.261 85.0397 175.257C85.0101 175.254 84.9818 175.253 84.9525 175.256C84.6055 175.289 84.2575 175.092 84.0114 174.866C83.7899 174.663 83.5907 174.231 83.6219 173.925L83.6348 173.797C83.6584 173.582 83.6776 173.497 83.7688 173.28C83.8576 173.069 83.9818 172.883 84.1505 172.726C84.4736 172.426 84.8695 172.256 85.3131 172.253Z" fill="#010101"/>
<path d="M84.2402 156.47C84.7002 155.969 85.4906 155.932 86.0611 156.235C86.1998 156.309 86.3279 156.428 86.45 156.527C86.7583 156.776 86.8801 157.227 86.8971 157.606C86.9138 157.981 86.7162 158.427 86.45 158.686L86.3855 158.748C86.2266 158.903 85.9988 159.038 85.776 159.078C85.4176 159.144 85.1162 159.142 84.7826 159.001C84.4957 158.88 84.2484 158.686 84.08 158.421L84.053 158.376C84.0413 158.358 84.0303 158.34 84.0202 158.32L84.0051 158.291C83.6858 157.676 83.772 156.98 84.2402 156.47Z" fill="#010101"/>
<path d="M84.4787 140.604C84.686 140.539 84.8934 140.53 85.101 140.576C85.242 140.576 85.3732 140.612 85.495 140.683C85.6271 140.719 85.742 140.786 85.8392 140.883C85.9563 140.953 86.05 141.046 86.1196 141.163C86.2574 141.314 86.3502 141.491 86.399 141.694L86.4544 142.109L86.399 142.524L86.2417 142.897C86.1982 142.953 86.1548 143.009 86.1108 143.065C86.0412 143.183 85.9475 143.277 85.8301 143.347C85.7536 143.423 85.6662 143.48 85.568 143.519C85.2206 143.768 84.7578 143.849 84.3456 143.736C84.1014 143.667 83.889 143.544 83.7094 143.365C83.5303 143.185 83.4067 142.972 83.3381 142.728L83.3097 142.533C83.2739 142.271 83.2676 142.126 83.3422 141.793C83.3746 141.647 83.4686 141.44 83.5184 141.354C83.7285 140.982 84.0737 140.728 84.4787 140.604Z" fill="#010101"/>
<path d="M102.494 129.189C103.09 129.185 103.685 129.186 104.281 129.193L104.728 129.199C105.476 129.211 106.117 129.133 106.705 129.652C107.131 130.029 106.943 130.661 106.538 130.945C105.924 131.374 105.155 131.158 104.449 131.111C103.704 131.061 102.96 131.019 102.214 130.986C100.772 130.922 99.3283 130.88 97.8843 130.874C96.4432 130.868 95.0003 130.882 93.5592 130.905C92.0932 130.929 90.5668 131.065 89.1087 130.914C88.9083 130.893 88.8636 130.63 89.0612 130.561C90.435 130.086 91.9802 129.932 93.4201 129.75C94.9052 129.562 96.3898 129.43 97.8843 129.344C99.4192 129.255 100.956 129.2 102.494 129.189Z" fill="#010101"/>
<path d="M84.4759 124.521L84.525 124.522C84.7874 124.523 85.0328 124.584 85.2615 124.707L85.3103 124.734L85.625 124.977C85.8179 125.171 85.9513 125.4 86.0249 125.664L86.0809 126.077C86.0888 126.292 86.0444 126.491 85.9469 126.676C85.8843 126.869 85.7766 127.036 85.6253 127.177C85.4843 127.329 85.3172 127.436 85.1247 127.499C84.9535 127.589 84.7704 127.634 84.5747 127.634L84.5253 127.633C84.2446 127.632 83.9828 127.561 83.7405 127.42L83.4256 127.177C83.2327 126.983 83.0993 126.754 83.0257 126.491L82.9696 126.077C82.9618 125.863 83.0061 125.663 83.104 125.478C83.1663 125.285 83.2739 125.118 83.4253 124.977C83.5662 124.826 83.7333 124.718 83.9259 124.656C84.097 124.566 84.2802 124.521 84.4759 124.521Z" fill="#010101"/>
<path d="M89.0874 87.9759C89.4225 87.4904 90.0301 87.9221 89.9429 88.3122C89.9662 89.4085 90.0222 90.4723 90.2714 91.5462C90.3856 92.0377 90.5354 92.5298 90.766 92.9801L90.8629 93.1701C91.1615 93.7601 91.3938 94.3167 90.9913 94.9639C90.8016 95.2692 90.4592 95.4982 90.0876 95.4822C88.4408 95.4111 88.2142 93.1182 88.1142 91.8382C88.0106 90.5198 88.3319 89.0712 89.0874 87.9759Z" fill="#010101"/>
<path d="M91.3425 133.957C91.3191 133.963 91.306 133.966 91.306 133.966C91.306 133.966 91.3188 133.963 91.3425 133.957Z" fill="#010101"/>
<path d="M80.9301 118.177C79.2061 118.337 75.8091 118.561 74.2935 119.486C74.2935 119.486 74.2818 121.736 74.2985 123.132C74.3249 125.363 74.3287 127.592 74.4366 129.821C74.6817 134.869 75.1556 145.355 74.9492 145.444C76.7005 146.555 80.5047 146.418 82.4306 146.469C84.7826 146.531 88.4914 146.762 90.6559 145.68C90.9706 145.523 92.1474 134.161 92.2213 131.838C92.2864 129.778 92.2298 127.717 92.3387 125.659C92.4211 124.108 92.4063 120.926 92.4585 119.379C92.4585 119.379 90.3674 118.62 87.4802 118.382C85.3047 118.203 83.1062 117.976 80.9301 118.177Z" fill="white"/>
<path d="M89.009 117.453C85.3242 117.151 81.5263 116.913 77.8597 117.178C75.3579 117.359 72.8653 116.791 72.6746 119.643C72.4398 123.15 72.8017 128.773 73.0223 132.273C73.2885 136.502 73.7897 140.715 74.4357 144.902C74.4558 145.031 74.52 145.138 74.6078 145.227C74.2208 145.397 74.0159 145.805 74.5099 146.165C76.1263 147.343 78.6035 147.415 80.5116 147.576C83.2544 147.808 86.0567 147.785 88.7853 147.402C89.6352 147.282 89.9026 147.364 90.6726 146.97C91.5256 146.534 92.805 140.54 93.5129 133.67C93.7373 131.495 93.8159 130.078 93.8166 127.894C93.8166 126.175 93.9676 121.075 93.9676 119.354C93.9685 117.938 92.0457 117.702 89.009 117.453ZM92.3386 125.659C92.2298 127.717 92.2864 129.778 92.2213 131.838C92.1477 134.162 90.9706 145.523 90.6559 145.68C88.4914 146.762 84.7826 146.532 82.4306 146.469C80.5046 146.418 76.7005 146.555 74.9492 145.444C75.1556 145.355 74.6817 134.869 74.4366 129.822C74.3284 127.592 74.3249 125.363 74.2985 123.132C74.2818 121.736 74.2935 119.486 74.2935 119.486C75.8088 118.561 79.2061 118.337 80.9301 118.178C83.1062 117.976 85.3043 118.203 87.4798 118.382C90.367 118.62 92.4582 119.379 92.4582 119.379C92.4063 120.926 92.4211 124.108 92.3386 125.659Z" fill="#010101"/>
<path d="M73.5308 136.606C74.8353 135.363 76.5536 134.46 78.1234 133.58L78.2508 133.509C79.1016 133.03 79.9232 132.515 80.8322 132.15C81.7148 131.797 82.6087 131.47 83.5124 131.174L83.6002 131.146C84.5986 130.838 87.2001 130.301 86.7618 128.819C86.4717 127.838 84.8144 128.02 84.0719 128.169C80.6689 128.854 77.4497 130.499 74.4373 132.167L73.7649 132.539C72.5321 133.224 71.2996 133.921 70.1061 134.669C68.7537 135.516 67.7774 136.591 66.9543 137.95C66.0415 139.456 65.1718 140.983 64.2058 142.457C63.5966 143.386 62.9746 144.304 62.3449 145.217C62.2166 145.487 62.1285 145.771 62.1008 146.119C62.0539 146.707 62.2043 147.212 62.3909 147.764C62.8622 149.161 63.2131 150.599 63.7237 151.983C64.197 153.264 64.7545 154.578 65.5711 155.684C65.8942 156.123 66.2812 156.538 66.6959 156.895L67.0301 157.176C67.1758 157.298 67.3372 157.431 67.5033 157.553C67.6465 157.272 67.8954 157.055 68.2324 157.022C68.9482 156.952 69.4932 156.813 70.1432 156.503C70.6461 156.263 71.1404 156.004 71.6388 155.754C72.617 155.264 73.611 154.794 74.57 154.267L74.7349 154.176C75.4479 153.775 76.1487 153.314 76.6773 152.682C77.2911 151.947 77.3383 151.07 77.7298 150.235C78.5658 148.453 81.0994 147.933 82.7186 147.142C84.0945 146.469 85.3717 145.603 86.1473 144.329C86.1473 144.329 87.0308 143.1 87.0289 143.176C87.1743 142.935 86.9106 142.955 86.0359 143.257C83.7377 144.051 81.4065 144.809 79.0308 145.329C78.3757 145.473 78.1659 144.482 78.81 144.316C81.3051 143.671 83.7792 142.992 86.209 142.124C87.465 141.675 88.7067 141.185 89.9332 140.661C90.407 140.458 90.8777 140.251 91.3463 140.038L91.6974 139.877C91.9174 139.775 92.5552 139.559 92.8267 139.276C92.866 139.155 92.9054 139.034 92.9441 138.912C92.8314 138.542 91.8821 138.801 91.6571 138.85C91.019 138.988 90.3815 139.132 89.7437 139.273C88.4681 139.555 87.1897 139.823 85.9107 140.091C83.3567 140.626 80.7775 141.095 78.2533 141.76C77.6404 141.922 77.0992 141 77.6536 140.606C80.101 138.865 83.0423 137.961 85.8468 136.979C87.3219 136.462 88.791 135.916 90.1906 135.216L90.5364 135.043C91.4152 134.601 92.3793 134.086 93.0388 133.347C91.7569 133.127 90.3051 133.501 89.0694 133.7L88.9744 133.715C87.242 133.982 85.5177 134.302 83.8041 134.673C80.2983 135.433 77.8122 136.057 74.3479 136.986C74.2611 137.01 74.155 136.902 74.1022 136.83C73.847 136.479 73.3901 136.741 73.5308 136.606Z" fill="#ECB989"/>
<path d="M94.6881 132.784C94.7227 132.601 94.4971 132.455 94.2816 132.362C92.8669 131.746 91.2424 132.083 89.7676 132.338L89.1323 132.446C87.4024 132.744 85.6813 133.095 83.9721 133.495C80.303 134.356 76.7282 135.533 73.3013 137.103C73.2199 137.14 73.2686 137.275 73.3555 137.251C76.8198 136.322 80.2985 135.433 83.8044 134.673C85.5176 134.302 87.2422 133.982 88.9747 133.715L89.0697 133.7C90.3054 133.501 91.7572 133.127 93.039 133.347C92.3795 134.086 91.4155 134.601 90.5366 135.043L90.1908 135.216C88.7916 135.916 87.3222 136.462 85.8471 136.979C83.0426 137.961 80.1013 138.865 77.6539 140.606C77.0995 141 77.6407 141.922 78.2536 141.76C80.7774 141.095 83.3569 140.626 85.911 140.091C87.1897 139.823 88.4684 139.556 89.744 139.273C90.3818 139.133 91.0193 138.988 91.6574 138.85C91.8824 138.802 92.8314 138.542 92.9443 138.912C92.9056 139.034 92.8663 139.155 92.827 139.276C92.5554 139.559 91.9176 139.776 91.6977 139.877L91.3465 140.038C90.878 140.251 90.4073 140.459 89.9335 140.661C88.7069 141.185 87.4653 141.675 86.2092 142.124C83.7795 142.992 81.3054 143.671 78.8102 144.316C78.1662 144.482 78.376 145.473 79.0311 145.329C81.4067 144.809 83.738 144.051 86.0362 143.257C86.9109 142.955 87.1746 142.935 87.0292 143.176C87.0311 143.1 86.1476 144.329 86.1476 144.329C85.3717 145.603 84.0948 146.47 82.7188 147.142C81.0996 147.933 78.5661 148.453 77.7301 150.235C77.3386 151.07 77.2914 151.947 76.6775 152.682C76.1489 153.314 75.4482 153.775 74.7352 154.176L74.5703 154.267C73.611 154.794 72.6173 155.264 71.639 155.754C71.1406 156.004 70.6463 156.263 70.1435 156.503C69.4934 156.813 68.9485 156.953 68.2326 157.022C67.8957 157.055 67.6468 157.272 67.5036 157.553C67.3375 157.431 67.1761 157.298 67.0304 157.176L66.6962 156.895C66.2815 156.538 65.8945 156.123 65.5713 155.684C64.7548 154.578 64.1973 153.264 63.724 151.983C63.2133 150.599 62.8625 149.161 62.3912 147.764C62.2046 147.211 62.0542 146.707 62.1011 146.119C62.1291 145.771 62.2168 145.487 62.3452 145.217C62.9748 144.304 63.5972 143.386 64.2061 142.457C65.172 140.983 66.0417 139.456 66.9545 137.95C67.7773 136.591 68.754 135.517 70.1064 134.669C71.2999 133.921 72.5323 133.224 73.7651 132.54L74.4376 132.167C77.45 130.499 80.6692 128.854 84.0721 128.169C84.8144 128.02 86.472 127.838 86.7621 128.819C87.2007 130.301 84.5989 130.838 83.6005 131.146L83.5127 131.174C82.6093 131.47 81.7151 131.796 80.8325 132.15C79.9235 132.515 79.1019 133.03 78.2511 133.509L78.1237 133.58C76.5542 134.46 74.8356 135.363 73.531 136.606C73.3904 136.741 73.5509 136.949 73.7211 136.876C75.5479 136.093 77.215 134.982 79.0903 134.283C80.9033 133.607 82.732 132.921 84.5838 132.358C86.0661 131.907 87.7381 131.333 88.1897 129.659C88.5515 128.315 87.6805 127.115 86.4062 126.742C85.0334 126.34 83.5964 126.68 82.2576 127.066L82.0222 127.134C81.6616 127.24 77.0532 129.037 76.5768 129.264C74.7874 130.12 73.0506 131.08 71.325 132.056C70.7766 132.366 67.4451 134.557 66.9344 135.153C65.7906 136.489 64.9543 138.121 64.1771 139.718L63.7284 140.643C63.1208 141.892 62.5507 143.159 61.9947 144.432C61.4645 144.543 61.0023 144.843 60.6342 145.247C60.4428 145.109 60.2009 145.043 59.9608 145.104C59.1556 145.307 58.6566 145.812 58.0433 146.344L57.3876 146.912C56.9502 147.291 56.5129 147.669 56.0749 148.046C54.8241 149.123 53.5627 150.186 52.3098 151.261C51.7768 151.718 51.098 152.298 50.3265 152.948C48.1966 154.742 45.3381 157.077 42.7236 158.91C42.7784 156.454 42.8287 153.998 42.8646 151.541C42.8891 149.856 43.8353 138.726 43.7796 137.043C43.723 135.336 43.6865 133.62 43.3161 131.953C43.2869 131.821 43.1129 131.846 43.0726 131.953C42.9433 132.296 42.767 133.191 42.5676 134.402L42.572 134.376C42.572 134.376 40.3405 133.077 39.7898 133.273C39.2392 133.47 40.6649 133.895 41.5796 134.376C42.4943 134.858 42.4939 134.858 42.4939 134.858L42.5075 134.775C41.7274 139.645 40.6441 148.817 40.6051 149.163C40.5573 149.583 40.5098 150.002 40.4604 150.416L40.3965 150.96C40.0611 153.861 39.8106 156.782 39.6259 159.694C39.6256 159.697 39.6256 159.699 39.6256 159.701C39.5951 160.182 39.5724 160.664 39.5441 161.145C38.9686 161.459 38.3928 161.771 37.8132 162.074L37.715 162.126C35.7157 163.177 33.8061 164.326 32.3078 165.947C31.7955 166.502 32.0869 167.074 32.5894 166.638C34.0349 165.381 35.6623 164.291 37.4205 163.536L39.4591 162.646L40.1605 162.34C40.1602 162.36 40.1599 162.379 40.1592 162.399C40.489 162.238 40.8345 162.068 41.1837 161.893L41.729 161.655C42.0182 161.518 42.3394 161.363 42.6727 161.201C42.6733 161.177 42.6736 161.154 42.6742 161.131C43.1572 160.878 43.6147 160.631 44.0121 160.407C45.6763 159.47 48.1394 157.605 50.3262 155.852C51.2868 155.082 52.1946 154.333 52.957 153.695C54.355 152.524 55.7256 151.322 57.0899 150.111C57.7705 149.506 58.4502 148.9 59.1285 148.292C59.3173 148.123 59.509 147.961 59.6959 147.799C59.7182 148.652 59.9174 149.535 60.1247 150.375L60.2487 150.873C60.5335 152.019 60.8994 153.169 61.3733 154.25C62.1583 156.042 63.3099 157.695 64.8064 158.965C64.8983 159.043 64.993 159.121 65.089 159.2C64.8577 159.468 62.8046 163.734 57.4927 169.864C56.8266 170.633 56.112 171.43 55.3405 172.253C45.9796 182.24 40.1536 186.189 39.5255 186.704C39.3503 186.81 39.1844 186.908 39.017 186.997C38.49 187.277 37.9044 187.493 36.6572 187.764C34.8936 188.149 33.2388 187.715 32.7244 187.461C32.1064 187.155 31.5271 186.817 30.9796 186.395C29.8651 185.536 28.8872 184.494 28.0707 183.35C26.4059 181.019 25.0438 178.438 23.7952 175.858L23.5819 175.416C18.4477 163.309 21.8916 147.319 23.6731 140.274C26.8788 127.594 31.2549 114.101 40.8562 104.745C43.2614 102.401 45.9809 100.354 48.943 98.7656C50.4581 97.9535 52.0322 97.2722 53.647 96.6864L53.7839 96.6363C55.3823 96.0508 57.0176 95.362 58.7101 95.1657C58.8265 95.1521 58.8312 94.9703 58.7101 94.9791C57.1931 95.0974 55.697 95.059 54.1939 95.3346C52.6741 95.6134 51.1796 96.1017 49.7564 96.7008C46.9346 97.8883 44.3173 99.4647 41.9131 101.356C36.7431 105.425 32.825 110.839 29.8387 116.66C26.622 122.929 24.3641 129.677 22.458 136.445C20.4895 143.436 15.9299 158.17 19.0764 170.007C19.5481 171.782 20.3822 173.439 21.1433 175.108C22.6338 178.377 24.3975 181.585 26.5308 184.481C27.5267 185.833 28.6062 187.158 29.9636 188.164C30.5986 188.633 31.3452 189.126 32.1026 189.37C32.5648 189.52 35.032 190.313 38.2547 189.344C38.2534 189.345 38.2502 189.346 38.2499 189.347C39.5491 189.222 40.6819 188.558 41.2983 188.054C41.3278 188.031 41.3565 188.007 41.3848 187.982C41.4002 187.969 41.42 187.954 41.4348 187.941C44.4278 185.558 49.3445 181.558 50.4596 180.442C53.2729 177.626 56.5742 174.614 60.2361 169.865C62.2618 167.238 64.398 164.081 66.6238 160.128C66.987 160.253 67.3683 160.31 67.7673 160.251C68.5265 160.14 69.3481 159.538 69.3991 158.748C69.5973 158.521 69.7804 158.313 70.0582 158.144C70.2955 158 70.5453 157.868 70.7904 157.74C71.3663 157.438 71.9572 157.162 72.5396 156.873L72.7803 156.754C73.6635 156.32 74.5568 155.901 75.4145 155.42C76.2525 154.95 77.0768 154.401 77.7156 153.676C78.3084 153.002 78.5793 152.275 78.848 151.457L78.9317 151.2C79.292 150.092 80.4301 149.717 81.3926 149.241L81.7094 149.084C82.6071 148.636 83.4985 148.171 84.3207 147.595C85.3471 146.877 87.1985 144.963 87.8863 142.811C89.375 142.461 94.5557 139.621 94.0853 138.369C93.528 136.887 82.6015 139.734 81.9011 139.918C82.6197 139.727 93.9525 136.66 94.6881 132.784Z" fill="#010101"/>
<path d="M79.6299 124.61C79.5843 125.312 78.9792 125.844 78.2769 125.798L76.9362 125.711C76.2348 125.666 75.7025 125.061 75.7481 124.359L75.9479 121.281C75.9935 120.58 76.5989 120.048 77.3006 120.093L78.6416 120.18C79.3433 120.226 79.875 120.831 79.8294 121.533L79.6299 124.61Z" fill="#010101"/>
<path fill-rule="evenodd" clip-rule="evenodd" d="M4.30054 42.9769L42.8711 4.40634C55.8228 3.62604 69.7146 3 80.9485 3C93.0999 3 103.79 3.64212 113.027 4.62074L7.64791 110C7.11537 91.3173 6.45998 74.0559 5.68173 63.5048C5.13481 56.0899 4.6789 49.2038 4.30054 42.9769Z" fill="url(#paint0_linear)"/>
<path fill-rule="evenodd" clip-rule="evenodd" d="M7.46167 127.377L128.839 6C137.692 7.51729 144.517 9.24244 149.325 10.6716L7.99657 152C7.84186 144.12 7.66356 135.764 7.46167 127.377Z" fill="url(#paint1_linear)"/>
<path fill-rule="evenodd" clip-rule="evenodd" d="M9.0105 180.193L151.461 37.7432C150.416 44.9254 149.295 54.1263 148.185 65.8518L16.0372 198C12.1224 197.06 9.23913 196.291 9.23913 196.291C9.23913 196.291 9.16292 190.062 9.0105 180.193Z" fill="url(#paint2_linear)"/>
<path d="M153.547 201.053C152.639 201.053 151.838 200.396 151.686 199.471C151.604 198.97 141.378 148.852 144.503 100.216C148.381 39.8392 155.581 19.3995 157.434 13.6801C150.991 11.3017 125.715 3.15569 81.897 3.15569C55.1193 3.15569 12.9609 6.62156 3.83193 7.39969C4.03551 13.3718 4.08742 33.9426 6.91707 61.5715C11.1177 102.585 10.6856 194.704 10.6982 195.711C10.7111 196.753 9.87667 197.609 8.83392 197.622C8.82605 197.622 8.81787 197.622 8.81001 197.622C7.77827 197.622 6.93563 196.793 6.92241 195.758C6.91014 194.753 4.75196 95.4829 3.15197 61.855C1.57683 28.7506 0.0073464 5.95167 0.000738748 5.7248C-0.0269505 4.72705 0.726945 3.88033 1.72093 3.79159C2.21744 3.74723 36.6046 -0.935081 82.0194 0.218741C133.945 1.53776 159.533 10.397 160.601 10.8659C161.07 11.0717 161.436 11.4596 161.613 11.9398C161.791 12.4203 161.766 12.9523 161.543 13.4139C161.485 13.5395 155.04 28.211 150.399 100.465C147.302 148.676 155.331 198.363 155.413 198.859C155.581 199.888 154.884 200.859 153.855 201.028C153.751 201.045 153.648 201.053 153.547 201.053Z" fill="black"/>
<path d="M12.0837 266.422C19.5611 261.154 14.4892 261.284 28.4792 240.586C42.4689 219.887 57.3792 208.246 57.3792 208.246C57.3792 208.246 104.668 177.934 104.072 211.673C103.451 246.784 104.4 254.757 96.2539 266.027C88.1086 277.296 79.3805 279.034 66.4402 281.722C53.4999 284.408 30.0147 283.568 26.4148 286.276C22.8146 288.984 12.0837 266.422 12.0837 266.422Z" fill="#ECB989"/>
<path d="M25.738 288.389C23.9309 288.389 19.7118 287.854 15.7374 277.406C12.7448 269.539 9.69709 266.129 9.59829 265.921C9.20309 265.09 10.2449 265.408 10.9966 264.878C14.359 262.51 15.1106 261.682 16.1716 258.393C18.5133 251.133 22.3939 245.784 30.6796 236.344C39.1446 226.7 55.5989 207.241 56.2172 206.758C56.2631 206.722 56.311 206.688 56.36 206.657C57.1762 206.134 76.5074 193.847 90.6969 193.847C95.3776 193.847 99.0653 195.185 101.657 197.823C104.621 200.84 106.069 205.511 105.959 211.707C105.887 215.809 105.834 219.604 105.789 222.952C105.434 248.875 106.825 250.714 100.008 262.251C92.6156 274.761 79.9808 280.839 67.1208 283.509L66.8237 283.57C60.7022 284.841 52.5484 286.323 44.5629 285.787C34.5604 285.115 29.0078 286.688 27.5497 287.785C27.0236 288.18 26.3975 288.389 25.738 288.389ZM14.4706 267.007C15.3353 268.751 16.9331 271.893 18.7483 275.067C22.9974 282.499 25.8084 285.914 26.4148 286.276C28.9266 284.773 34.2033 282.604 44.3445 282.017C51.7454 281.588 60.134 281.102 66.0563 279.873L66.3533 279.811C78.8283 277.221 87.0699 275.51 94.7235 264.921C101.567 255.453 101.662 248.557 102.013 222.901C102.059 219.549 102.111 215.749 102.184 211.639C102.275 206.494 101.191 202.736 98.964 200.469C97.1085 198.58 94.327 197.622 90.6972 197.622C78.0237 197.622 59.8055 208.948 58.4742 209.787C57.376 210.664 43.2118 222.159 30.0436 241.643C23.2422 251.706 21.067 256.646 19.6275 259.914C18.2232 263.103 17.4299 264.708 14.4706 267.007Z" fill="black"/>
<path d="M67.437 155.573C61.3866 156.132 49.4629 156.918 44.1438 160.165C44.1438 160.165 44.1029 168.063 44.1611 172.963C44.2542 180.793 44.2668 188.617 44.6469 196.441C45.5069 214.158 47.1704 250.96 46.4454 251.274C52.5928 255.174 65.9446 254.693 72.7046 254.872C80.9594 255.091 93.9765 255.9 101.573 252.103C102.678 251.55 106.809 211.673 107.067 203.519C107.296 196.289 107.097 189.056 107.479 181.832C107.768 176.389 107.717 165.221 107.9 159.791C107.9 159.791 100.56 157.127 90.4263 156.292C82.7904 155.663 75.0749 154.866 67.437 155.573Z" fill="white"/>
<path d="M95.7926 153.032C82.8593 151.972 69.5294 151.135 56.6612 152.065C47.8802 152.701 39.1311 150.707 38.4624 160.717C37.6384 173.027 38.9092 192.76 39.6833 205.047C40.6178 219.891 42.3776 234.675 44.6447 249.371C44.7161 249.824 44.9404 250.201 45.2485 250.51C43.8898 251.11 43.1718 252.54 44.9061 253.805C50.5783 257.942 59.2731 258.192 65.971 258.758C75.5968 259.571 85.4331 259.491 95.0098 258.146C97.993 257.727 98.9313 258.014 101.634 256.632C104.628 255.101 109.119 234.065 111.604 209.952C112.391 202.318 112.667 197.343 112.669 189.677C112.669 183.643 113.2 165.745 113.2 159.703C113.199 154.734 106.45 153.905 95.7926 153.032ZM107.479 181.832C107.097 189.056 107.296 196.289 107.067 203.519C106.808 211.673 102.678 251.55 101.573 252.102C93.9762 255.9 80.9591 255.091 72.7042 254.872C65.9443 254.693 52.5924 255.174 46.4451 251.274C47.1701 250.96 45.5068 214.158 44.6466 196.441C44.2665 188.616 44.2539 180.793 44.1607 172.962C44.1025 168.063 44.1434 160.164 44.1434 160.164C49.4626 156.918 61.3866 156.132 67.4367 155.572C75.0742 154.866 82.79 155.663 90.4257 156.292C100.559 157.126 107.899 159.79 107.899 159.79C107.716 165.22 107.768 176.388 107.479 181.832Z" fill="#010101"/>
<path d="M63.5829 199.165C68.6387 199.165 72.7373 195.067 72.7373 190.011C72.7373 184.955 68.6387 180.856 63.5829 180.856C58.527 180.856 54.4285 184.955 54.4285 190.011C54.4285 195.067 58.527 199.165 63.5829 199.165Z" fill="#C4C4C3"/>
<path d="M87.811 199.165C92.8668 199.165 96.9654 195.067 96.9654 190.011C96.9654 184.955 92.8668 180.856 87.811 180.856C82.7551 180.856 78.6565 184.955 78.6565 190.011C78.6565 195.067 82.7551 199.165 87.811 199.165Z" fill="#C4C4C3"/>
<path d="M63.5829 222.449C68.6387 222.449 72.7373 218.351 72.7373 213.295C72.7373 208.239 68.6387 204.14 63.5829 204.14C58.527 204.14 54.4285 208.239 54.4285 213.295C54.4285 218.351 58.527 222.449 63.5829 222.449Z" fill="#C4C4C3"/>
<path d="M87.811 222.449C92.8668 222.449 96.9654 218.351 96.9654 213.295C96.9654 208.239 92.8668 204.14 87.811 204.14C82.7551 204.14 78.6565 208.239 78.6565 213.295C78.6565 218.351 82.7551 222.449 87.811 222.449Z" fill="#C4C4C3"/>
<path d="M39.7392 235.925C39.7392 235.925 65.8908 220.514 69.889 225.701C73.8876 230.888 61.9775 238.419 55.5347 244.42C49.0919 250.421 50.1888 249.046 50.0944 252.21C50.0944 252.21 48.4683 261.338 41.8169 266.335C35.1655 271.333 32.1801 267.584 32.1801 267.584" fill="#ECB989"/>
<path d="M35.4518 269.539C32.317 269.539 30.7938 268.902 30.7035 268.759C30.1975 267.963 28.4248 264.164 33.6571 266.407C33.67 266.413 33.6461 266.391 33.6218 266.364C33.7046 266.456 36.724 269.68 41.3254 265.501C49.8996 257.713 49.5066 253.545 48.2109 252.005C48.2172 251.667 48.2078 251.385 48.1999 251.133C48.1219 248.709 48.6162 248.252 52.4641 244.693C52.9826 244.213 53.5738 243.666 54.2481 243.038C55.6848 241.7 57.3317 240.332 59.0748 238.886C63.86 234.913 70.4139 229.473 68.3942 226.853C68.3778 226.832 66.4628 224.955 54.0974 230.585C47.2295 233.712 40.7622 237.513 40.6977 237.551C39.7997 238.081 37.7906 239.394 37.471 238.402C37.3382 237.989 38.3032 235.47 39.2015 234.941C39.4718 234.781 46.3139 232.25 53.3608 229.041C64.0381 224.18 70.7855 222.959 73.1051 226.052C74.0491 227.31 72.3578 231.204 69.1326 234.311C66.668 236.686 64.6268 239.184 61.4863 241.791C59.786 243.202 58.1794 244.536 56.8216 245.801C56.1439 246.432 55.5492 246.982 55.0275 247.464C53.3693 248.998 51.4934 250.176 51.2989 250.542C52.0368 254.2 49.2442 264.819 44.1299 267.389C40.7421 269.091 37.3545 269.539 35.4518 269.539Z" fill="black"/>
<circle cx="63.5" cy="190.5" r="9.5" fill="#C4C4C4"/>
<path fill-rule="evenodd" clip-rule="evenodd" d="M68.4118 194.632L63.6618 184.182L58.9118 194.632L63.6618 193.682L68.4118 194.632Z" fill="#F1F5F1"/>
<circle cx="63.5" cy="213.5" r="9.5" transform="rotate(-90 63.5 213.5)" fill="#C4C4C4"/>
<path fill-rule="evenodd" clip-rule="evenodd" d="M67.6325 208.588L57.1825 213.338L67.6325 218.088L66.6825 213.338L67.6325 208.588Z" fill="#F1F5F1"/>
<circle cx="88.5" cy="190.5" r="9.5" transform="rotate(90 88.5 190.5)" fill="#C4C4C4"/>
<path fill-rule="evenodd" clip-rule="evenodd" d="M84.3675 195.412L94.8175 190.662L84.3675 185.912L85.3175 190.662L84.3675 195.412Z" fill="#F1F5F1"/>
<circle cx="88.5" cy="213.5" r="9.5" transform="rotate(-180 88.5 213.5)" fill="#C4C4C4"/>
<path fill-rule="evenodd" clip-rule="evenodd" d="M83.5882 209.368L88.3382 219.818L93.0882 209.368L88.3382 210.318L83.5882 209.368Z" fill="#F1F5F1"/>
<defs>
<linearGradient id="paint0_linear" x1="94.3928" y1="-21.5" x2="-2.60718" y2="72.5" gradientUnits="userSpaceOnUse">
<stop stop-color="#ADB9CD" stop-opacity="0.5"/>
<stop offset="1" stop-color="#E6ECF6" stop-opacity="0"/>
</linearGradient>
<linearGradient id="paint1_linear" x1="134.393" y1="11.5" x2="1.89283" y2="136" gradientUnits="userSpaceOnUse">
<stop stop-color="#ADB9CD" stop-opacity="0.5"/>
<stop offset="1" stop-color="#E6ECF6" stop-opacity="0"/>
</linearGradient>
<linearGradient id="paint2_linear" x1="80.2355" y1="37.7432" x2="80.2355" y2="198" gradientUnits="userSpaceOnUse">
<stop stop-color="#ADB9CD" stop-opacity="0.5"/>
<stop offset="1" stop-color="#E6ECF6" stop-opacity="0"/>
</linearGradient>
</defs>
</svg>
