<?xml version="1.0" encoding="UTF-8" standalone="no"?><!-- Generator: Gravit.io --><svg xmlns="http://www.w3.org/2000/svg" xmlns:xlink="http://www.w3.org/1999/xlink" style="isolation:isolate" viewBox="0 0 162 289" width="162pt" height="289pt"><defs><clipPath id="_clipPath_0VvRBWtvQ5TPM4CALAdbqSSqTBz2hbCW"><rect width="162" height="289"/></clipPath></defs><g clip-path="url(#_clipPath_0VvRBWtvQ5TPM4CALAdbqSSqTBz2hbCW)"><path d=" M 154.571 206 C 154.571 206 145.522 151.391 148.669 101.305 C 153.432 25.522 160 11.582 160 11.582 C 160 11.582 134.191 0 82.032 0 C 51.577 0 2 4.504 2 4.504 C 2 4.504 2.629 27.669 5.147 61.805 C 7.665 95.942 8.924 198.842 8.924 198.842 C 8.924 198.842 28.837 204.15 35.482 204.072 C 128.894 202.971 154.571 206 154.571 206 Z " fill="rgb(230,236,246)"/><path d=" M 97.513 99.097 C 96.927 97.597 96.318 95.998 95.423 95.161 C 94.056 93.885 92.032 94.342 89.522 94.753 C 89.983 88.522 87.108 86.935 83.146 85.751 C 82.755 85.601 82.364 85.467 81.974 85.343 C 78.72 85.191 75.426 85.258 72.434 85.586 C 70.098 86.816 68.325 89.164 67.552 92.906 C 65.738 92.906 64.368 93.342 63.168 93.961 C 64.95 101.125 69 113.938 75.745 117.064 C 82.779 120.323 92.455 108.103 97.513 99.097 Z " fill="rgb(236,185,137)"/><path d=" M 62.044 91.251 C 63.185 90.06 64.975 89.349 66.67 89.389 L 66.75 89.392 L 67.325 89.417 L 66.94 91.304 L 66.921 91.393 L 66.843 91.721 L 66.738 92.149 L 66.701 92.307 L 66.662 92.482 C 66.656 92.51 66.65 92.538 66.644 92.566 L 66.627 92.649 L 66.463 93.45 L 66.493 93.522 L 66.485 93.704 C 66.459 94.362 66.601 94.724 66.913 94.84 L 66.939 94.849 L 67.117 94.906 L 67.262 95.222 C 67.597 95.944 67.909 96.574 68.23 97.168 C 69.165 98.901 70.28 100.632 71.566 102.372 C 72.789 104.026 74.062 105.604 75.385 107.103 C 75.981 107.777 76.609 108.453 77.278 109.141 L 77.854 109.731 L 78.038 109.917 L 78.161 110.04 L 78.314 110.191 L 78.536 110.402 L 78.696 110.56 L 78.748 110.609 C 78.814 110.67 78.864 110.711 78.91 110.741 L 78.927 110.751 L 78.978 110.781 L 81.648 113.59 L 82.591 114.108 L 83.039 114.356 L 83.13 114.176 L 83.148 114.118 L 84.141 111.938 L 84.747 110.603 C 85.991 107.856 86.958 105.672 87.844 103.591 L 87.954 103.331 L 88.28 102.557 L 88.453 102.144 C 89.244 100.249 89.828 98.785 90.351 97.364 L 90.426 97.161 L 90.536 96.857 L 90.7 96.399 L 90.729 96.321 C 90.871 95.958 90.523 94.636 90.179 93.912 L 90.159 93.871 L 90.07 93.692 L 89.973 93.502 C 89.746 93.059 89.581 92.567 89.443 91.971 C 89.42 91.874 89.399 91.778 89.379 91.679 L 89.35 91.532 L 89.332 91.435 L 89.306 91.299 L 89.27 91.105 L 90.039 90.976 L 90.461 90.907 L 90.645 90.878 C 90.884 90.841 91.096 90.811 91.295 90.786 L 91.37 90.777 L 91.503 90.761 L 91.508 90.787 L 91.783 90.814 L 91.986 90.835 C 92.99 90.942 93.764 91.059 94.313 91.188 L 94.368 91.201 L 94.466 91.226 L 94.511 91.237 C 95.011 91.372 95.396 91.663 95.701 92.092 C 95.91 92.386 96.046 92.668 96.261 93.202 L 96.338 93.395 L 96.593 94.027 C 96.624 94.104 96.67 94.227 96.732 94.396 L 96.949 94.987 L 97.561 95.591 L 100.981 96.095 C 105.91 96.399 139.369 109.352 138.023 182.397 L 138.079 183.183 L 138.194 184.892 L 138.262 185.866 L 138.27 185.997 L 138.297 186.505 L 138.305 186.624 C 138.315 186.776 138.327 186.905 138.341 187.024 L 138.353 187.112 L 138.366 187.197 C 138.404 187.43 138.479 187.638 138.603 187.87 L 138.635 187.929 L 138.848 188.31 L 138.462 188.513 C 136.45 189.573 119.902 190.04 114.468 190.065 L 114.303 190.065 L 113.963 190.065 C 111.322 190.064 108.523 189.962 105.603 189.787 L 104.942 189.747 L 104.391 189.712 C 104.153 189.697 103.922 189.681 103.683 189.665 L 103.315 189.638 L 101.779 189.526 C 94.872 188.864 87.628 188.876 79.647 189.473 C 59.776 190.751 44.729 189.032 33.323 188.642 C 30.504 188.546 18.896 171.022 18.966 161.982 C 19.807 154.592 21.095 147.425 22.846 140.499 L 23.022 139.807 C 24.916 132.405 26.742 126.698 29.063 121.421 C 32.015 114.709 35.614 109.185 40.145 104.769 C 42.637 102.34 45.396 100.291 48.328 98.719 C 49.677 97.996 51.11 97.355 52.647 96.778 L 52.867 96.696 L 53.223 96.566 L 53.495 96.465 L 54.375 96.137 C 54.559 96.068 54.76 95.99 54.998 95.896 L 55.145 95.838 L 56.719 95.21 L 56.981 95.108 L 57.271 94.995 L 57.485 94.913 C 57.834 94.779 58.15 94.663 58.444 94.561 L 58.618 94.501 L 58.775 94.448 L 59.447 94.216 L 59.434 94.827 C 59.425 95.233 59.529 95.54 59.762 95.761 L 59.77 95.767 L 59.777 95.774 L 59.785 95.779 L 59.826 95.777 L 59.984 95.777 C 60.001 95.768 60.016 95.757 60.03 95.745 C 60.256 95.553 60.361 95.295 60.463 94.705 L 60.49 94.541 L 60.537 94.234 L 60.556 94.117 C 60.624 93.708 60.683 93.482 60.798 93.223 C 60.965 92.849 61.185 92.485 61.443 92.15 L 61.504 92.074 L 61.745 91.783 L 61.782 91.737 C 61.867 91.628 61.91 91.552 61.929 91.481 L 61.933 91.463 L 61.957 91.34 L 62.044 91.251 L 62.044 91.251 Z " fill="rgb(85,175,138)"/><path d=" M 103.567 60.857 C 103.349 60.692 103.116 60.537 102.865 60.397 C 102.238 60.05 101.538 59.867 100.84 59.852 C 100.76 59.851 100.679 59.85 100.599 59.853 C 100.596 59.875 100.592 59.898 100.587 59.921 C 100.502 60.364 100.292 60.588 99.987 60.857 L 99.877 60.952 C 99.46 61.31 98.925 61.277 98.588 60.941 C 98.588 60.941 97.894 60.305 97.873 59.317 C 97.859 58.662 97.897 58.004 97.913 57.349 C 97.943 56.082 98.008 54.815 98.057 53.549 C 98.098 52.478 98.295 51.28 98.135 50.214 C 98.042 49.594 97.668 49.448 97.153 49.298 L 96.483 49.104 C 94.909 48.642 93.315 48.064 92.974 46.2 C 92.611 44.207 93.907 42.438 94.021 40.488 C 94.077 39.561 93.942 38.627 93.658 37.739 C 89.246 38.239 84.791 38.33 80.363 38 C 79.959 37.97 79.556 37.93 79.153 37.894 C 78.75 37.93 78.347 37.97 77.943 38 C 73.515 38.33 69.06 38.239 64.648 37.739 C 64.364 38.627 64.23 39.561 64.285 40.488 C 64.4 42.438 65.696 44.207 65.332 46.2 C 64.991 48.064 63.397 48.643 61.823 49.104 L 61.154 49.298 C 60.638 49.449 60.265 49.594 60.171 50.214 C 60.011 51.28 60.208 52.478 60.249 53.549 C 60.298 54.815 60.363 56.082 60.394 57.349 C 60.409 58.004 60.47 58.662 60.433 59.317 C 60.372 60.413 59.719 60.941 59.719 60.941 C 59.382 61.277 58.847 61.31 58.429 60.952 L 58.319 60.857 C 58.013 60.588 57.804 60.365 57.719 59.921 C 57.714 59.898 57.71 59.875 57.708 59.853 C 57.627 59.85 57.546 59.851 57.466 59.852 C 56.767 59.868 56.068 60.05 55.442 60.397 C 55.19 60.537 54.957 60.692 54.74 60.857 C 53.998 61.421 52.786 62.635 52.665 64.518 C 52.573 65.952 52.734 67.622 53.72 68.708 C 53.918 68.925 54.143 69.121 54.4 69.284 C 54.987 69.655 55.648 69.876 56.337 69.925 C 56.43 69.932 56.524 69.936 56.618 69.936 C 57.003 69.938 57.335 69.873 57.709 69.78 C 57.962 69.718 58.214 69.627 58.479 69.627 C 58.705 69.627 58.914 69.684 59.108 69.798 L 59.054 69.802 C 58.923 69.815 58.949 69.82 59.131 69.82 C 59.697 69.845 60.021 70.42 59.76 70.921 L 59.726 70.998 C 59.719 71.014 59.713 71.027 59.708 71.037 L 59.688 71.17 C 59.686 71.183 59.683 71.196 59.681 71.209 L 59.674 71.236 C 59.672 71.24 59.67 71.244 59.668 71.249 L 60.517 72.546 C 61.558 74.134 62.622 75.715 63.833 77.164 C 64.682 78.181 65.582 79.178 66.533 80.102 C 67.265 80.812 68.12 81.208 68.959 81.716 L 68.959 81.716 C 68.959 81.716 68.961 81.718 68.961 81.718 C 69.102 81.803 69.242 81.89 69.381 81.984 C 69.447 82.029 69.507 82.08 69.561 82.135 C 70.953 83.035 74.695 85.069 80.069 85.069 C 83.94 85.069 87.859 82.686 88.892 82.011 C 88.903 82.003 88.912 81.992 88.925 81.984 C 88.991 81.939 89.058 81.898 89.125 81.856 C 89.144 81.842 89.157 81.834 89.157 81.834 C 89.157 81.834 89.159 81.834 89.159 81.834 C 90.057 81.266 90.986 80.865 91.772 80.102 C 92.723 79.178 93.623 78.181 94.472 77.164 C 95.683 75.715 96.747 74.134 97.788 72.546 L 98.637 71.249 C 98.635 71.244 98.634 71.24 98.632 71.236 L 98.624 71.209 C 98.622 71.196 98.62 71.183 98.618 71.17 L 98.597 71.037 C 98.592 71.027 98.587 71.014 98.579 70.998 L 98.545 70.921 C 98.285 70.42 98.609 69.845 99.175 69.82 C 99.357 69.82 99.382 69.815 99.251 69.802 L 99.197 69.798 C 99.391 69.684 99.601 69.627 99.827 69.627 C 100.092 69.627 100.344 69.718 100.597 69.78 C 100.971 69.873 101.303 69.938 101.688 69.936 C 101.782 69.936 101.875 69.932 101.968 69.925 C 102.657 69.876 103.318 69.655 103.906 69.284 C 104.163 69.121 104.387 68.925 104.585 68.708 C 105.572 67.622 105.886 65.933 105.64 64.518 C 105.306 62.584 104.308 61.421 103.567 60.857 Z  M 57.908 66.699 C 57.361 66.071 56.996 65.361 56.317 65.024 C 56.206 64.969 56.09 64.92 55.972 64.873 C 55.437 64.665 54.837 64.559 54.314 64.7 C 54.287 64.707 54.26 64.692 54.241 64.666 C 54.194 64.624 54.175 64.553 54.235 64.501 C 54.242 64.495 54.249 64.489 54.256 64.484 C 54.257 64.481 54.257 64.478 54.257 64.476 C 54.799 63.75 55.39 63.322 56.087 63.277 C 56.211 63.269 56.338 63.269 56.47 63.286 C 57.352 63.403 58.415 63.962 58.933 65.124 C 59.343 66.042 58.508 67.388 57.908 66.699 Z  M 104.05 64.484 C 104.057 64.49 104.063 64.495 104.07 64.501 C 104.13 64.553 104.112 64.624 104.064 64.666 C 104.046 64.692 104.021 64.707 103.995 64.7 C 103.499 64.559 102.93 64.665 102.422 64.873 C 102.31 64.919 102.199 64.969 102.094 65.024 C 101.45 65.361 101.104 66.071 100.585 66.699 C 100.015 67.388 99.223 66.042 99.612 65.124 C 100.103 63.963 101.111 63.403 101.949 63.286 C 102.074 63.269 102.194 63.269 102.313 63.277 C 102.974 63.322 103.535 63.75 104.049 64.476 C 104.05 64.479 104.05 64.482 104.05 64.484 Z " fill="rgb(236,185,137)"/><path d=" M 77.777 79.072 C 76.824 78.683 75.973 78.034 75.351 77.205 C 75.135 76.917 75.079 76.612 75.124 76.334 C 75.175 76.021 75.36 75.738 75.613 75.548 C 75.866 75.357 76.183 75.263 76.489 75.311 C 76.755 75.352 77.02 75.498 77.23 75.8 L 77.274 75.861 C 77.644 76.361 78.125 76.772 78.674 77.036 C 79.203 77.291 79.795 77.41 80.407 77.341 C 81.574 77.209 82.377 76.578 83.232 75.721 C 83.338 75.613 83.444 75.502 83.55 75.388 C 83.618 75.286 83.711 75.22 83.815 75.185 C 83.929 75.146 84.06 75.149 84.179 75.19 C 84.294 75.23 84.397 75.307 84.466 75.408 C 84.531 75.504 84.568 75.623 84.556 75.759 C 84.478 76.647 84.014 77.439 83.355 78.061 C 82.623 78.752 81.652 79.23 80.738 79.398 C 79.731 79.583 78.706 79.451 77.777 79.072 Z  M 82.38 65.823 C 82.514 66.906 82.338 68.92 80.52 69.354 C 78.725 69.534 78.172 67.252 78.162 66.173 C 78.072 65.25 77.07 65.673 77.056 66.624 C 77.262 74.293 85.64 69.483 83.239 65.615 C 82.975 65.189 82.367 65.518 82.38 65.823 Z  M 68.754 59.389 C 68.873 57.92 71.11 57.586 71.332 59.04 C 71.531 60.342 71.297 61.538 70.71 62.71 C 70.15 63.83 68.741 63.307 68.635 62.288 C 68.492 60.921 68.681 60.303 68.754 59.389 Z  M 85.781 58.738 C 86.093 58.33 86.543 58.051 87.083 58.209 C 88.768 58.701 88.272 61.094 87.679 62.259 C 87.358 62.892 86.318 63.052 85.849 62.495 C 85.083 61.587 84.716 59.773 85.69 58.878 C 85.716 58.832 85.745 58.786 85.781 58.738 Z  M 70.687 52.962 L 70.953 52.915 C 71.776 52.773 72.801 52.636 73.384 53.298 C 73.693 53.65 73.799 54.302 73.384 54.638 C 72.653 55.23 71.845 55 70.97 55.051 C 70.248 55.092 69.555 55.212 68.859 55.41 C 67.335 55.846 66.092 56.642 64.789 57.516 C 64.619 57.63 64.444 57.412 64.526 57.252 C 65.278 55.779 66.735 54.57 68.194 53.832 C 68.972 53.438 69.825 53.111 70.687 52.962 Z  M 84.442 52.302 L 84.675 52.345 C 87.214 52.816 90.512 53.757 91.714 55.97 C 91.76 56.283 91.711 56.35 91.672 56.394 L 91.659 56.408 C 91.626 56.446 91.6 56.497 91.448 56.54 C 91.405 56.532 91.362 56.522 91.319 56.511 C 90.768 56.383 90.332 56.207 89.91 56.023 L 89.452 55.823 C 88.921 55.592 88.385 55.37 87.818 55.205 C 86.607 54.854 85.361 54.607 84.095 54.475 C 83.821 54.447 83.557 54.364 83.349 54.224 C 83.151 54.09 83 53.905 82.931 53.659 C 82.842 53.341 82.868 53.1 83.06 52.813 C 83.205 52.597 83.412 52.448 83.65 52.362 C 83.892 52.274 84.168 52.254 84.442 52.302 Z " fill="rgb(1,1,1)"/><path d=" M 98.882 66.27 C 98.874 66.176 98.763 66.127 98.74 66.223 C 98.742 66.171 98.744 66.118 98.746 66.066 C 98.753 65.841 98.508 65.812 98.462 66.015 C 97.902 68.48 96.987 70.723 95.671 72.618 C 93.859 75.227 91.545 77.037 89.296 78.919 C 89.221 78.825 89.13 78.757 89.032 78.732 C 88.81 77.404 88.239 76.141 87.56 75.081 C 86.671 73.303 85.408 71.883 83.93 71.041 C 82.905 70.457 81.799 70.141 80.671 70.054 C 78.616 69.555 76.485 69.738 74.62 70.8 C 72.992 71.729 71.62 73.353 70.726 75.392 C 70.542 75.813 70.379 76.252 70.235 76.703 C 69.907 77.418 69.651 78.183 69.518 78.972 C 69.421 78.997 69.33 79.065 69.254 79.159 C 67.006 77.278 64.691 75.467 62.88 72.858 C 61.564 70.963 60.649 68.72 60.089 66.255 C 60.043 66.052 59.797 66.081 59.804 66.306 C 59.807 66.359 59.809 66.411 59.811 66.463 C 59.787 66.367 59.677 66.417 59.668 66.51 C 59.371 69.467 59.181 74.729 60.164 77.954 C 60.691 79.683 62.852 83.157 63.869 84.515 C 64.515 85.377 65.189 86.37 65.979 87.002 C 66.899 87.736 67.941 88.294 68.923 88.861 C 69.92 89.438 70.934 89.972 71.966 90.435 C 72.755 90.791 73.554 91.103 74.361 91.37 C 74.514 91.47 74.67 91.562 74.831 91.646 C 75.842 92.174 76.97 92.29 78.09 92.25 C 78.17 92.262 78.251 92.276 78.331 92.287 C 80.069 92.511 82.054 92.756 83.719 91.887 C 84.262 91.604 84.758 91.218 85.214 90.763 C 85.674 90.587 86.131 90.399 86.585 90.195 C 87.617 89.732 88.63 89.198 89.628 88.621 C 90.609 88.054 91.652 87.496 92.571 86.762 C 93.362 86.13 94.036 85.137 94.681 84.275 C 95.699 82.918 97.557 79.357 97.765 77.561 C 98.112 74.551 99.184 69.264 98.882 66.27 Z  M 86.635 81.264 C 85.904 81.926 85.109 82.46 84.276 82.839 C 84.23 82.846 84.184 82.853 84.138 82.858 C 84.072 82.816 84.008 82.773 83.949 82.728 C 82.896 81.927 82.093 80.388 79.016 80.231 C 76.178 80.086 75.269 81.227 74.601 82.488 C 74.562 82.561 74.478 82.576 74.412 82.618 C 73.736 82.543 73.058 82.334 72.491 81.82 C 72.078 81.448 71.849 80.98 71.712 80.442 C 71.711 80.168 71.724 79.893 71.755 79.62 C 72.618 76.93 74.502 74.953 76.673 74.23 C 78.266 73.701 79.939 73.718 81.563 73.928 C 81.622 73.935 81.681 73.943 81.74 73.95 C 81.786 73.964 81.832 73.975 81.878 73.99 C 84.048 74.713 85.932 76.69 86.795 79.38 C 86.849 79.854 86.852 80.332 86.804 80.809 C 86.758 80.967 86.701 81.119 86.635 81.264 Z " fill="rgb(1,1,1)"/><path d=" M 110.162 25.748 C 110.847 24.527 110.578 23.032 109.62 22.044 C 108.797 21.194 108.258 20.779 107.175 20.361 L 106.79 20.212 C 102.402 18.526 100.937 17.488 96.264 17.005 C 90.532 16.41 84.663 16.731 78.997 17.947 C 75.305 18.74 71.698 19.909 68.274 21.465 C 63.681 23.553 59.464 26.427 55.768 29.866 C 55.093 29.676 54.354 29.636 53.74 29.742 C 52.736 29.917 51.816 30.493 51.213 31.315 C 50.296 32.563 50.328 34.154 51.024 35.42 C 50.914 35.509 50.812 35.611 50.719 35.722 C 50.523 35.956 50.386 36.208 50.299 36.471 C 50.059 37.192 50.204 37.989 50.6 38.693 C 51.058 39.512 52.265 40.57 52.376 41.626 C 52.551 43.298 53.377 43.062 52.984 44.085 C 51.327 48.393 52.872 53.397 53.867 57.75 L 53.956 58.139 C 54.153 59.011 52.394 59.503 51.511 60.976 C 49.464 64.393 49.655 69.608 53.296 71.634 C 53.4 71.692 53.507 71.749 53.617 71.801 C 54.37 72.162 55.188 72.397 56.02 72.468 C 56.257 72.488 56.495 72.498 56.733 72.489 C 57.294 72.469 57.879 72.393 58.409 72.208 C 58.673 72.116 58.935 71.998 59.141 71.81 C 59.633 74.421 60.758 76.826 62.172 79.088 C 62.875 80.211 63.678 81.333 64.593 82.308 C 64.714 82.437 64.837 82.564 64.962 82.688 C 65.087 82.811 65.222 82.933 65.364 83.052 C 67.193 84.63 70.107 89.054 79.703 89.054 C 87.648 89.054 92.695 82.997 92.695 82.997 L 92.693 82.997 C 92.812 82.895 92.926 82.792 93.031 82.688 C 93.156 82.564 93.28 82.437 93.401 82.308 C 94.316 81.333 95.119 80.211 95.822 79.088 C 97.236 76.827 98.36 74.421 98.853 71.81 C 99.058 71.998 99.32 72.116 99.585 72.208 C 100.115 72.393 100.7 72.469 101.26 72.489 C 101.498 72.497 101.736 72.488 101.973 72.468 C 102.805 72.397 103.624 72.161 104.376 71.801 C 104.487 71.749 104.593 71.692 104.698 71.634 C 108.338 69.608 108.819 64.202 106.482 60.976 C 105.04 59.152 103.841 58.697 104.038 57.825 L 104.127 57.435 C 105.121 53.082 105.788 48.499 104.026 44.233 C 103.799 43.683 106.935 39.511 107.393 38.693 C 107.789 37.989 107.933 37.192 107.694 36.471 C 107.815 36.291 107.928 36.102 108.022 35.892 C 108.398 35.045 108.493 34.105 108.318 33.255 C 109.88 32.85 109.841 29.348 109.302 28.732 C 108.982 28.365 108.641 28.036 108.282 27.741 C 109.303 27.378 109.63 26.697 110.162 25.748 Z  M 105.485 64.518 C 105.73 65.933 105.416 67.622 104.43 68.708 C 104.231 68.925 104.008 69.121 103.75 69.284 C 103.163 69.655 102.502 69.876 101.813 69.925 C 101.72 69.932 101.626 69.936 101.532 69.936 C 101.148 69.938 100.815 69.873 100.442 69.78 C 100.188 69.718 99.937 69.627 99.672 69.627 C 99.445 69.627 99.236 69.684 99.042 69.798 L 99.096 69.802 C 99.227 69.815 99.202 69.82 99.02 69.82 C 98.454 69.845 98.13 70.42 98.39 70.921 L 98.424 70.998 C 98.431 71.014 98.437 71.027 98.442 71.037 L 98.462 71.17 C 98.464 71.183 98.467 71.196 98.469 71.209 L 98.477 71.236 C 98.478 71.24 98.48 71.244 98.482 71.249 L 97.633 72.546 C 96.592 74.134 95.528 75.715 94.317 77.164 C 93.468 78.181 92.568 79.178 91.617 80.102 C 90.831 80.865 89.901 81.266 89.004 81.834 C 89.004 81.834 89.001 81.834 89.001 81.834 C 89.001 81.834 88.988 81.842 88.969 81.856 C 88.903 81.898 88.836 81.939 88.769 81.984 C 88.757 81.992 88.748 82.003 88.736 82.011 C 87.704 82.686 83.785 85.069 79.913 85.069 C 74.54 85.069 70.797 83.035 69.405 82.135 C 69.351 82.079 69.292 82.028 69.225 81.984 C 69.087 81.89 68.946 81.803 68.806 81.718 C 68.806 81.718 68.804 81.716 68.804 81.716 L 68.803 81.716 C 67.965 81.208 67.109 80.812 66.378 80.102 C 65.427 79.178 64.527 78.181 63.678 77.164 C 62.467 75.715 61.403 74.134 60.362 72.546 L 59.513 71.249 C 59.515 71.244 59.517 71.24 59.518 71.236 L 59.526 71.209 C 59.528 71.196 59.53 71.183 59.532 71.17 L 59.553 71.037 C 59.558 71.027 59.563 71.014 59.571 70.998 L 59.605 70.921 C 59.865 70.42 59.541 69.845 58.975 69.82 C 58.793 69.82 58.768 69.815 58.899 69.802 L 58.953 69.798 C 58.759 69.684 58.55 69.627 58.323 69.627 C 58.058 69.627 57.806 69.718 57.553 69.78 C 57.179 69.873 56.847 69.938 56.462 69.936 C 56.368 69.936 56.275 69.932 56.182 69.925 C 55.493 69.876 54.831 69.655 54.244 69.284 C 53.987 69.121 53.763 68.925 53.565 68.708 C 52.578 67.622 52.418 65.951 52.51 64.518 C 52.63 62.635 53.842 61.421 54.584 60.857 C 54.802 60.692 55.035 60.537 55.286 60.397 C 55.913 60.05 56.612 59.867 57.31 59.853 C 57.391 59.851 57.472 59.85 57.552 59.853 C 57.555 59.875 57.559 59.898 57.564 59.921 C 57.648 60.364 57.858 60.588 58.164 60.857 L 58.274 60.952 C 58.691 61.31 59.226 61.277 59.563 60.941 C 59.563 60.941 60.217 60.413 60.278 59.317 C 60.314 58.662 60.254 58.004 60.238 57.349 C 60.208 56.082 60.143 54.815 60.094 53.549 C 60.052 52.478 59.856 51.28 60.016 50.214 C 60.109 49.594 60.483 49.448 60.998 49.298 L 61.668 49.104 C 63.241 48.642 64.835 48.064 65.177 46.2 C 65.54 44.207 64.244 42.438 64.129 40.488 C 64.074 39.561 64.209 38.627 64.492 37.739 C 68.904 38.239 73.36 38.33 77.788 38 C 78.192 37.97 78.594 37.93 78.998 37.894 C 79.401 37.93 79.804 37.97 80.207 38 C 84.635 38.33 89.091 38.239 93.503 37.739 C 93.787 38.627 93.921 39.561 93.866 40.488 C 93.751 42.438 92.455 44.207 92.819 46.2 C 93.16 48.064 94.754 48.643 96.328 49.104 L 96.997 49.298 C 97.512 49.449 97.886 49.594 97.979 50.214 C 98.14 51.28 97.943 52.478 97.902 53.549 C 97.852 54.815 97.787 56.082 97.757 57.349 C 97.742 58.004 97.704 58.662 97.718 59.317 C 97.738 60.305 98.432 60.941 98.432 60.941 C 98.769 61.277 99.304 61.31 99.722 60.952 L 99.831 60.857 C 100.137 60.588 100.347 60.365 100.432 59.921 C 100.436 59.898 100.441 59.875 100.443 59.853 C 100.524 59.85 100.604 59.851 100.685 59.853 C 101.383 59.868 102.082 60.05 102.709 60.397 C 102.961 60.537 103.193 60.692 103.412 60.857 C 104.152 61.421 105.15 62.584 105.485 64.518 Z " fill="rgb(1,1,1)"/><path d=" M 102.157 63.277 C 102.038 63.269 101.918 63.269 101.793 63.286 C 100.956 63.403 99.948 63.962 99.456 65.124 C 99.067 66.042 99.859 67.388 100.429 66.699 C 100.948 66.071 101.294 65.361 101.939 65.024 C 102.043 64.969 102.154 64.92 102.266 64.873 C 102.774 64.665 103.343 64.559 103.839 64.7 C 103.865 64.707 103.89 64.692 103.909 64.666 C 103.956 64.624 103.974 64.553 103.914 64.501 C 103.908 64.495 103.901 64.49 103.894 64.484 C 103.894 64.482 103.894 64.479 103.894 64.476 C 103.379 63.75 102.818 63.322 102.157 63.277 Z " fill="rgb(1,1,1)"/><path d=" M 56.315 63.286 C 56.183 63.269 56.056 63.269 55.931 63.277 C 55.234 63.322 54.643 63.75 54.101 64.476 C 54.101 64.479 54.101 64.481 54.101 64.484 C 54.094 64.489 54.087 64.495 54.08 64.501 C 54.02 64.553 54.038 64.624 54.086 64.666 C 54.105 64.692 54.132 64.707 54.158 64.7 C 54.681 64.559 55.281 64.665 55.816 64.873 C 55.935 64.919 56.051 64.969 56.161 65.024 C 56.84 65.361 57.205 66.071 57.753 66.699 C 58.353 67.388 59.187 66.042 58.778 65.124 C 58.259 63.962 57.197 63.403 56.315 63.286 Z " fill="rgb(1,1,1)"/><path d=" M 68.23 86.181 C 68.252 86.165 68.285 86.158 68.306 86.181 C 68.641 86.573 68.573 87.171 68.584 87.668 L 68.585 87.714 C 68.609 88.439 68.614 89.162 68.612 89.888 L 68.604 92.199 C 68.603 92.517 68.578 92.848 68.594 93.167 L 68.602 93.291 C 68.779 93.472 68.86 93.732 68.801 93.995 C 68.79 94.331 68.614 94.612 68.358 94.788 L 68.908 95.568 L 69.458 96.348 C 70.592 97.957 71.739 99.552 72.935 101.116 C 74.153 102.712 75.453 104.247 76.814 105.723 C 77.479 106.445 78.155 107.156 78.847 107.852 C 79.127 108.134 79.416 108.41 79.7 108.688 L 79.984 108.969 C 80.151 109.136 80.362 109.302 80.474 109.514 C 80.539 109.639 80.554 109.948 80.577 109.999 C 80.787 110.461 80.429 111.196 79.834 110.966 L 79.861 110.948 C 79.969 110.872 79.9 110.871 79.652 110.944 C 79.497 110.943 79.35 110.908 79.214 110.837 L 79.173 110.814 C 78.981 110.716 78.809 110.528 78.652 110.376 L 78.614 110.339 C 78.256 110.004 77.915 109.649 77.572 109.298 C 76.858 108.568 76.158 107.822 75.481 107.055 C 74.131 105.527 72.852 103.936 71.639 102.296 C 70.405 100.626 69.257 98.869 68.27 97.042 C 67.896 96.348 67.552 95.641 67.223 94.925 C 66.583 94.72 66.434 94.038 66.479 93.27 C 66.242 92.72 66.029 92.158 65.903 91.584 C 65.886 91.505 65.987 91.431 66.048 91.499 C 66.253 91.732 66.443 91.98 66.625 92.234 C 66.735 91.696 66.874 91.201 66.94 90.885 L 67.224 89.491 C 65.623 89.408 63.869 90.066 62.765 91.217 C 62.706 91.517 62.476 91.731 62.251 92.011 C 61.994 92.332 61.769 92.691 61.602 93.067 C 61.231 93.9 61.44 95.129 60.721 95.74 C 60.646 95.804 60.562 95.848 60.476 95.875 C 60.817 97.55 60.662 99.396 60.654 101.094 L 60.654 101.244 C 60.656 103.146 60.593 105.049 60.519 106.948 L 60.444 108.829 C 60.347 111.337 60.284 113.846 60.529 116.34 C 61.641 115.354 62.791 114.414 63.981 113.518 C 64.764 112.929 65.562 112.36 66.374 111.813 L 67.035 111.372 C 67.826 110.842 68.636 110.296 69.503 109.916 C 70.636 109.419 71.713 109.59 72.807 110.099 C 73.897 110.607 74.954 111.196 76.022 111.746 C 77.109 112.306 78.198 112.861 79.287 113.417 C 80.008 113.785 81.064 114.118 81.593 114.796 C 81.627 114.646 81.666 114.496 81.712 114.347 C 81.659 114.12 81.68 113.874 81.807 113.64 C 83.584 110.375 85.229 107.031 86.861 103.692 C 87.687 102.002 88.473 100.292 89.301 98.604 L 90.106 96.959 C 90.241 96.685 90.375 96.411 90.511 96.137 C 90.714 95.728 90.925 95.323 91.131 94.914 C 91.217 94.742 91.326 94.57 91.411 94.396 L 91.451 94.309 C 91.453 94.305 91.648 93.691 91.497 93.75 L 91.484 93.756 C 91.407 93.8 91.346 93.703 91.396 93.642 C 91.609 93.378 91.905 93.611 92.027 93.856 C 92.362 94.526 91.748 95.579 91.512 96.222 L 91.499 96.258 C 90.767 98.331 89.937 100.366 89.088 102.393 C 87.458 106.28 85.708 110.108 83.962 113.942 L 83.941 114.008 C 84.314 113.722 84.711 113.464 85.051 113.211 C 85.91 112.575 86.795 111.97 87.677 111.367 C 89.296 110.26 90.959 109.227 92.649 108.236 L 92.987 108.038 C 93.831 107.546 94.668 107.147 95.669 107.294 C 96.6 107.432 97.466 107.932 98.307 108.338 L 98.394 108.38 L 100.992 109.615 C 100.715 108.507 100.414 107.405 100.1 106.306 C 99.488 104.163 98.815 102.039 98.084 99.934 C 97.402 97.966 96.665 96.02 95.885 94.09 L 95.65 93.511 C 95.332 92.716 95.016 91.849 94.107 91.604 C 93.199 91.36 92.157 91.722 91.327 91.205 C 91.251 91.158 91.261 91.033 91.352 91.01 L 91.864 90.881 C 92.826 90.642 93.954 90.401 94.863 90.634 C 95.853 90.887 96.671 91.718 97.152 92.582 C 97.686 93.542 98.062 94.618 98.467 95.642 L 98.531 95.804 C 98.997 96.963 99.444 98.129 99.872 99.302 C 100.728 101.648 101.506 104.022 102.212 106.418 C 102.552 107.572 102.874 108.732 103.184 109.895 C 103.273 110.23 103.42 110.635 103.54 111.058 C 103.678 111.193 103.809 111.343 103.932 111.515 C 104.135 111.799 103.99 112.133 103.736 112.303 C 103.727 112.594 103.662 112.868 103.507 113.102 C 102.904 114.018 101.308 113.782 101.373 112.551 C 101.383 112.362 101.457 112.182 101.568 112.03 L 101.565 112.006 L 101.552 111.96 C 101.275 111.828 100.997 111.68 100.704 111.535 L 97.977 110.187 C 97.187 109.797 96.311 109.194 95.433 109.045 C 94.613 108.906 93.75 109.516 93.046 109.884 L 93 109.908 C 91.299 110.78 89.611 111.681 87.929 112.589 C 87.108 113.032 86.297 113.494 85.48 113.943 C 84.796 114.318 84.058 114.857 83.289 115.069 C 82.961 115.324 82.571 115.29 82.258 115.097 C 82.401 115.984 82.392 116.894 82.436 117.801 C 82.495 119.014 82.504 120.23 82.524 121.444 L 82.531 121.899 C 82.583 124.584 82.611 127.268 82.621 129.953 C 82.657 139.514 82.551 149.077 82.527 158.637 C 82.514 163.441 82.419 168.248 82.294 173.05 C 82.242 175.085 82.131 177.117 82.012 179.149 L 81.946 180.257 C 81.807 182.595 81.725 184.959 81.292 187.265 C 81.235 187.566 80.726 187.573 80.676 187.265 C 80.278 184.793 80.256 182.268 80.179 179.767 L 80.163 179.268 C 80.071 176.583 80.027 173.899 80.037 171.214 C 80.071 161.649 80.319 152.091 80.523 142.529 C 80.625 137.725 80.694 132.919 80.853 128.116 C 80.932 125.713 81.022 123.312 81.129 120.91 C 81.176 119.838 81.222 118.766 81.293 117.695 L 81.326 117.236 C 81.348 116.937 81.366 116.641 81.387 116.349 C 80.42 116.702 79.535 116.048 78.664 115.6 C 77.661 115.083 76.658 114.567 75.655 114.051 L 74.651 113.537 L 72.64 112.511 C 71.735 112.049 71.038 111.59 70.073 112.132 C 66.595 114.083 63.399 116.679 60.503 119.403 C 59.948 119.926 58.774 119.785 58.634 118.91 C 58.033 115.169 58.398 111.374 58.705 107.622 L 58.818 106.229 C 58.956 104.565 59.104 102.901 59.303 101.244 C 59.392 100.503 59.481 99.762 59.579 99.022 L 59.654 98.467 C 59.777 97.59 59.857 96.719 60.118 95.878 C 60.036 95.851 59.956 95.808 59.886 95.74 C 59.1 94.995 59.479 93.702 59.838 92.816 C 60.191 91.941 60.731 91.177 61.407 90.52 C 61.554 90.376 61.762 90.284 61.971 90.279 C 63.609 89.193 65.406 88.652 67.276 89.244 C 67.329 88.993 67.383 88.742 67.439 88.492 L 67.497 88.242 C 67.641 87.622 67.695 86.597 68.23 86.181 Z " fill="rgb(1,1,1)"/><path d=" M 85.022 184.216 C 85.53 184.076 86.087 184.223 86.459 184.596 C 86.832 184.969 86.979 185.525 86.839 186.034 C 86.769 186.284 86.643 186.501 86.459 186.685 C 86.288 186.856 86.088 186.977 85.861 187.049 L 85.807 187.066 L 85.724 187.1 C 85.469 187.168 85.214 187.168 84.96 187.1 C 84.716 187.032 84.505 186.909 84.325 186.73 C 84.146 186.55 84.023 186.339 83.955 186.095 C 83.886 185.84 83.886 185.585 83.955 185.33 L 83.989 185.247 C 84.06 184.997 84.186 184.78 84.369 184.595 C 84.554 184.413 84.772 184.286 85.022 184.216 Z " fill="rgb(1,1,1)"/><path d=" M 115.21 133.55 C 115.294 133.453 115.429 133.576 115.377 133.678 C 114.585 135.231 113.702 136.772 112.835 138.286 C 112.905 138.705 112.973 139.121 113.052 139.527 C 113.39 141.254 113.804 142.952 114.074 144.697 C 115.044 150.968 115.548 157.308 115.98 163.635 C 116.413 169.986 116.469 176.339 116.534 182.703 C 116.54 183.254 116.116 183.895 115.547 183.999 C 115.287 184.046 115.092 184.037 114.832 183.999 C 114.241 183.912 113.87 183.234 113.845 182.703 C 113.675 179.146 113.447 175.595 113.183 172.044 C 112.714 165.749 112.428 159.438 112.049 153.136 L 111.916 150.934 C 111.773 148.547 111.642 146.159 111.6 143.769 C 111.571 142.186 111.656 140.603 111.604 139.021 C 111.556 137.561 111.408 135.974 111.73 134.539 C 111.742 134.485 111.827 134.471 111.851 134.523 C 112.186 135.228 112.398 135.993 112.561 136.775 C 113.424 135.685 114.303 134.591 115.21 133.55 Z " fill="rgb(1,1,1)"/><path d=" M 102.546 95.335 C 104.066 95.614 105.56 96.102 106.983 96.701 C 109.805 97.889 112.422 99.465 114.827 101.357 C 119.996 105.425 123.915 110.84 126.901 116.66 C 130.117 122.93 132.376 129.677 134.282 136.446 C 136.302 143.62 137.844 150.931 138.874 158.314 C 139.452 162.467 139.857 166.644 140.102 170.83 C 140.223 172.893 140.305 174.958 140.346 177.024 C 140.367 178.102 140.381 179.18 140.377 180.258 C 140.374 180.793 140.406 181.342 140.361 181.875 C 140.321 182.372 140.04 182.735 139.753 183.115 L 139.655 183.248 C 139.386 183.612 138.909 183.633 138.644 183.248 C 138.42 182.924 138.118 182.582 138.011 182.193 C 137.896 181.773 137.972 181.229 137.973 180.796 C 137.974 179.853 137.97 178.91 137.959 177.967 C 137.937 176.125 137.883 174.284 137.797 172.445 C 137.629 168.856 137.342 165.272 136.937 161.702 C 136.115 154.483 134.849 147.319 133.067 140.274 C 129.861 127.594 125.485 114.101 115.884 104.745 C 113.479 102.401 110.759 100.354 107.797 98.766 C 106.282 97.954 104.708 97.272 103.093 96.686 L 102.956 96.636 C 101.357 96.051 99.722 95.362 98.03 95.166 C 97.914 95.152 97.909 94.97 98.03 94.979 C 99.547 95.098 101.043 95.059 102.546 95.335 Z " fill="rgb(1,1,1)"/><path d=" M 85.313 172.253 C 85.582 172.252 85.881 172.31 86.111 172.459 L 86.419 172.697 C 86.503 172.804 86.585 172.911 86.668 173.019 C 86.861 173.269 86.886 173.675 86.846 173.974 C 86.837 174.174 86.778 174.359 86.668 174.531 L 86.434 174.835 C 86.209 175.019 86.021 175.15 85.748 175.238 C 85.605 175.284 85.468 175.294 85.332 175.286 L 85.286 175.283 L 85.313 175.287 L 85.265 175.282 C 85.221 175.278 85.176 175.273 85.131 175.267 C 85.101 175.263 85.071 175.261 85.04 175.257 C 85.01 175.254 84.982 175.253 84.953 175.256 C 84.606 175.289 84.258 175.092 84.011 174.866 C 83.79 174.663 83.591 174.231 83.622 173.925 L 83.635 173.797 C 83.658 173.582 83.678 173.497 83.769 173.28 C 83.858 173.069 83.982 172.883 84.151 172.726 C 84.474 172.426 84.87 172.256 85.313 172.253 Z " fill="rgb(1,1,1)"/><path d=" M 84.24 156.47 C 84.7 155.969 85.491 155.932 86.061 156.235 C 86.2 156.309 86.328 156.428 86.45 156.527 C 86.758 156.776 86.88 157.227 86.897 157.606 C 86.914 157.981 86.716 158.427 86.45 158.686 L 86.386 158.748 C 86.227 158.903 85.999 159.038 85.776 159.078 C 85.418 159.144 85.116 159.142 84.783 159.001 C 84.496 158.88 84.248 158.686 84.08 158.421 L 84.053 158.376 C 84.041 158.358 84.03 158.34 84.02 158.32 L 84.005 158.291 C 83.686 157.676 83.772 156.98 84.24 156.47 Z " fill="rgb(1,1,1)"/><path d=" M 84.479 140.604 C 84.686 140.539 84.893 140.53 85.101 140.576 C 85.242 140.576 85.373 140.612 85.495 140.683 C 85.627 140.719 85.742 140.786 85.839 140.883 C 85.956 140.953 86.05 141.046 86.12 141.163 C 86.257 141.314 86.35 141.491 86.399 141.694 L 86.454 142.109 L 86.399 142.524 L 86.242 142.897 C 86.198 142.953 86.155 143.009 86.111 143.065 C 86.041 143.183 85.948 143.277 85.83 143.347 C 85.754 143.423 85.666 143.48 85.568 143.519 C 85.221 143.768 84.758 143.849 84.346 143.736 C 84.101 143.667 83.889 143.544 83.709 143.365 C 83.53 143.185 83.407 142.972 83.338 142.728 L 83.31 142.533 C 83.274 142.271 83.268 142.126 83.342 141.793 C 83.375 141.647 83.469 141.44 83.518 141.354 C 83.729 140.982 84.074 140.728 84.479 140.604 Z " fill="rgb(1,1,1)"/><path d=" M 102.494 129.189 C 103.09 129.185 103.685 129.186 104.281 129.193 L 104.728 129.199 C 105.476 129.211 106.117 129.133 106.705 129.652 C 107.131 130.029 106.943 130.661 106.538 130.945 C 105.924 131.374 105.155 131.158 104.449 131.111 C 103.704 131.061 102.96 131.019 102.214 130.986 C 100.772 130.922 99.328 130.88 97.884 130.874 C 96.443 130.868 95 130.882 93.559 130.905 C 92.093 130.929 90.567 131.065 89.109 130.914 C 88.908 130.893 88.864 130.63 89.061 130.561 C 90.435 130.086 91.98 129.932 93.42 129.75 C 94.905 129.562 96.39 129.43 97.884 129.344 C 99.419 129.255 100.956 129.2 102.494 129.189 Z " fill="rgb(1,1,1)"/><path d=" M 84.476 124.521 L 84.525 124.522 C 84.787 124.523 85.033 124.584 85.262 124.707 L 85.31 124.734 L 85.625 124.977 C 85.818 125.171 85.951 125.4 86.025 125.664 L 86.081 126.077 C 86.089 126.292 86.044 126.491 85.947 126.676 C 85.884 126.869 85.777 127.036 85.625 127.177 C 85.484 127.329 85.317 127.436 85.125 127.499 C 84.954 127.589 84.77 127.634 84.575 127.634 L 84.525 127.633 C 84.245 127.632 83.983 127.561 83.741 127.42 L 83.426 127.177 C 83.233 126.983 83.099 126.754 83.026 126.491 L 82.97 126.077 C 82.962 125.863 83.006 125.663 83.104 125.478 C 83.166 125.285 83.274 125.118 83.425 124.977 C 83.566 124.826 83.733 124.718 83.926 124.656 C 84.097 124.566 84.28 124.521 84.476 124.521 Z " fill="rgb(1,1,1)"/><path d=" M 89.087 87.976 C 89.423 87.49 90.03 87.922 89.943 88.312 C 89.966 89.409 90.022 90.472 90.271 91.546 C 90.386 92.038 90.535 92.53 90.766 92.98 L 90.863 93.17 C 91.162 93.76 91.394 94.317 90.991 94.964 C 90.802 95.269 90.459 95.498 90.088 95.482 C 88.441 95.411 88.214 93.118 88.114 91.838 C 88.011 90.52 88.332 89.071 89.087 87.976 Z " fill="rgb(1,1,1)"/><path d=" M 91.343 133.957 C 91.319 133.963 91.306 133.966 91.306 133.966 C 91.306 133.966 91.319 133.963 91.343 133.957 Z " fill="rgb(1,1,1)"/><path d=" M 80.93 118.177 C 79.206 118.337 75.809 118.561 74.294 119.486 C 74.294 119.486 74.282 121.736 74.299 123.132 C 74.325 125.363 74.329 127.592 74.437 129.821 C 74.682 134.869 75.156 145.355 74.949 145.444 C 76.701 146.555 80.505 146.418 82.431 146.469 C 84.783 146.531 88.491 146.762 90.656 145.68 C 90.971 145.523 92.147 134.161 92.221 131.838 C 92.286 129.778 92.23 127.717 92.339 125.659 C 92.421 124.108 92.406 120.926 92.459 119.379 C 92.459 119.379 90.367 118.62 87.48 118.382 C 85.305 118.203 83.106 117.976 80.93 118.177 Z " fill="rgb(255,255,255)"/><path d=" M 89.009 117.453 C 85.324 117.151 81.526 116.913 77.86 117.178 C 75.358 117.359 72.865 116.791 72.675 119.643 C 72.44 123.15 72.802 128.773 73.022 132.273 C 73.289 136.502 73.79 140.715 74.436 144.902 C 74.456 145.031 74.52 145.138 74.608 145.227 C 74.221 145.397 74.016 145.805 74.51 146.165 C 76.126 147.343 78.604 147.415 80.512 147.576 C 83.254 147.808 86.057 147.785 88.785 147.402 C 89.635 147.282 89.903 147.364 90.673 146.97 C 91.526 146.534 92.805 140.54 93.513 133.67 C 93.737 131.495 93.816 130.078 93.817 127.894 C 93.817 126.175 93.968 121.075 93.968 119.354 C 93.969 117.938 92.046 117.702 89.009 117.453 Z  M 92.339 125.659 C 92.23 127.717 92.286 129.778 92.221 131.838 C 92.148 134.162 90.971 145.523 90.656 145.68 C 88.491 146.762 84.783 146.532 82.431 146.469 C 80.505 146.418 76.701 146.555 74.949 145.444 C 75.156 145.355 74.682 134.869 74.437 129.822 C 74.328 127.592 74.325 125.363 74.299 123.132 C 74.282 121.736 74.294 119.486 74.294 119.486 C 75.809 118.561 79.206 118.337 80.93 118.178 C 83.106 117.976 85.304 118.203 87.48 118.382 C 90.367 118.62 92.458 119.379 92.458 119.379 C 92.406 120.926 92.421 124.108 92.339 125.659 Z " fill="rgb(1,1,1)"/><path d=" M 73.531 136.606 C 74.835 135.363 76.554 134.46 78.123 133.58 L 78.251 133.509 C 79.102 133.03 79.923 132.515 80.832 132.15 C 81.715 131.797 82.609 131.47 83.512 131.174 L 83.6 131.146 C 84.599 130.838 87.2 130.301 86.762 128.819 C 86.472 127.838 84.814 128.02 84.072 128.169 C 80.669 128.854 77.45 130.499 74.437 132.167 L 73.765 132.539 C 72.532 133.224 71.3 133.921 70.106 134.669 C 68.754 135.516 67.777 136.591 66.954 137.95 C 66.042 139.456 65.172 140.983 64.206 142.457 C 63.597 143.386 62.975 144.304 62.345 145.217 C 62.217 145.487 62.129 145.771 62.101 146.119 C 62.054 146.707 62.204 147.212 62.391 147.764 C 62.862 149.161 63.213 150.599 63.724 151.983 C 64.197 153.264 64.754 154.578 65.571 155.684 C 65.894 156.123 66.281 156.538 66.696 156.895 L 67.03 157.176 C 67.176 157.298 67.337 157.431 67.503 157.553 C 67.647 157.272 67.895 157.055 68.232 157.022 C 68.948 156.952 69.493 156.813 70.143 156.503 C 70.646 156.263 71.14 156.004 71.639 155.754 C 72.617 155.264 73.611 154.794 74.57 154.267 L 74.735 154.176 C 75.448 153.775 76.149 153.314 76.677 152.682 C 77.291 151.947 77.338 151.07 77.73 150.235 C 78.566 148.453 81.099 147.933 82.719 147.142 C 84.095 146.469 85.372 145.603 86.147 144.329 C 86.147 144.329 87.031 143.1 87.029 143.176 C 87.174 142.935 86.911 142.955 86.036 143.257 C 83.738 144.051 81.407 144.809 79.031 145.329 C 78.376 145.473 78.166 144.482 78.81 144.316 C 81.305 143.671 83.779 142.992 86.209 142.124 C 87.465 141.675 88.707 141.185 89.933 140.661 C 90.407 140.458 90.878 140.251 91.346 140.038 L 91.697 139.877 C 91.917 139.775 92.555 139.559 92.827 139.276 C 92.866 139.155 92.905 139.034 92.944 138.912 C 92.831 138.542 91.882 138.801 91.657 138.85 C 91.019 138.988 90.382 139.132 89.744 139.273 C 88.468 139.555 87.19 139.823 85.911 140.091 C 83.357 140.626 80.778 141.095 78.253 141.76 C 77.64 141.922 77.099 141 77.654 140.606 C 80.101 138.865 83.042 137.961 85.847 136.979 C 87.322 136.462 88.791 135.916 90.191 135.216 L 90.536 135.043 C 91.415 134.601 92.379 134.086 93.039 133.347 C 91.757 133.127 90.305 133.501 89.069 133.7 L 88.974 133.715 C 87.242 133.982 85.518 134.302 83.804 134.673 C 80.298 135.433 77.812 136.057 74.348 136.986 C 74.261 137.01 74.155 136.902 74.102 136.83 C 73.847 136.479 73.39 136.741 73.531 136.606 Z " fill="rgb(236,185,137)"/><path d=" M 94.688 132.784 C 94.723 132.601 94.497 132.455 94.282 132.362 C 92.867 131.746 91.242 132.083 89.768 132.338 L 89.132 132.446 C 87.402 132.744 85.681 133.095 83.972 133.495 C 80.303 134.356 76.728 135.533 73.301 137.103 C 73.22 137.14 73.269 137.275 73.356 137.251 C 76.82 136.322 80.299 135.433 83.804 134.673 C 85.518 134.302 87.242 133.982 88.975 133.715 L 89.07 133.7 C 90.305 133.501 91.757 133.127 93.039 133.347 C 92.38 134.086 91.416 134.601 90.537 135.043 L 90.191 135.216 C 88.792 135.916 87.322 136.462 85.847 136.979 C 83.043 137.961 80.101 138.865 77.654 140.606 C 77.1 141 77.641 141.922 78.254 141.76 C 80.777 141.095 83.357 140.626 85.911 140.091 C 87.19 139.823 88.468 139.556 89.744 139.273 C 90.382 139.133 91.019 138.988 91.657 138.85 C 91.882 138.802 92.831 138.542 92.944 138.912 C 92.906 139.034 92.866 139.155 92.827 139.276 C 92.555 139.559 91.918 139.776 91.698 139.877 L 91.347 140.038 C 90.878 140.251 90.407 140.459 89.934 140.661 C 88.707 141.185 87.465 141.675 86.209 142.124 C 83.78 142.992 81.305 143.671 78.81 144.316 C 78.166 144.482 78.376 145.473 79.031 145.329 C 81.407 144.809 83.738 144.051 86.036 143.257 C 86.911 142.955 87.175 142.935 87.029 143.176 C 87.031 143.1 86.148 144.329 86.148 144.329 C 85.372 145.603 84.095 146.47 82.719 147.142 C 81.1 147.933 78.566 148.453 77.73 150.235 C 77.339 151.07 77.291 151.947 76.678 152.682 C 76.149 153.314 75.448 153.775 74.735 154.176 L 74.57 154.267 C 73.611 154.794 72.617 155.264 71.639 155.754 C 71.141 156.004 70.646 156.263 70.144 156.503 C 69.493 156.813 68.949 156.953 68.233 157.022 C 67.896 157.055 67.647 157.272 67.504 157.553 C 67.338 157.431 67.176 157.298 67.03 157.176 L 66.696 156.895 C 66.282 156.538 65.895 156.123 65.571 155.684 C 64.755 154.578 64.197 153.264 63.724 151.983 C 63.213 150.599 62.863 149.161 62.391 147.764 C 62.205 147.211 62.054 146.707 62.101 146.119 C 62.129 145.771 62.217 145.487 62.345 145.217 C 62.975 144.304 63.597 143.386 64.206 142.457 C 65.172 140.983 66.042 139.456 66.955 137.95 C 67.777 136.591 68.754 135.517 70.106 134.669 C 71.3 133.921 72.532 133.224 73.765 132.54 L 74.438 132.167 C 77.45 130.499 80.669 128.854 84.072 128.169 C 84.814 128.02 86.472 127.838 86.762 128.819 C 87.201 130.301 84.599 130.838 83.601 131.146 L 83.513 131.174 C 82.609 131.47 81.715 131.796 80.833 132.15 C 79.924 132.515 79.102 133.03 78.251 133.509 L 78.124 133.58 C 76.554 134.46 74.836 135.363 73.531 136.606 C 73.39 136.741 73.551 136.949 73.721 136.876 C 75.548 136.093 77.215 134.982 79.09 134.283 C 80.903 133.607 82.732 132.921 84.584 132.358 C 86.066 131.907 87.738 131.333 88.19 129.659 C 88.552 128.315 87.681 127.115 86.406 126.742 C 85.033 126.34 83.596 126.68 82.258 127.066 L 82.022 127.134 C 81.662 127.24 77.053 129.037 76.577 129.264 C 74.787 130.12 73.051 131.08 71.325 132.056 C 70.777 132.366 67.445 134.557 66.934 135.153 C 65.791 136.489 64.954 138.121 64.177 139.718 L 63.728 140.643 C 63.121 141.892 62.551 143.159 61.995 144.432 C 61.465 144.543 61.002 144.843 60.634 145.247 C 60.443 145.109 60.201 145.043 59.961 145.104 C 59.156 145.307 58.657 145.812 58.043 146.344 L 57.388 146.912 C 56.95 147.291 56.513 147.669 56.075 148.046 C 54.824 149.123 53.563 150.186 52.31 151.261 C 51.777 151.718 51.098 152.298 50.327 152.948 C 48.197 154.742 45.338 157.077 42.724 158.91 C 42.778 156.454 42.829 153.998 42.865 151.541 C 42.889 149.856 43.835 138.726 43.78 137.043 C 43.723 135.336 43.687 133.62 43.316 131.953 C 43.287 131.821 43.113 131.846 43.073 131.953 C 42.943 132.296 42.767 133.191 42.568 134.402 L 42.572 134.376 C 42.572 134.376 40.341 133.077 39.79 133.273 C 39.239 133.47 40.665 133.895 41.58 134.376 C 42.494 134.858 42.494 134.858 42.494 134.858 L 42.508 134.775 C 41.727 139.645 40.644 148.817 40.605 149.163 C 40.557 149.583 40.51 150.002 40.46 150.416 L 40.397 150.96 C 40.061 153.861 39.811 156.782 39.626 159.694 C 39.626 159.697 39.626 159.699 39.626 159.701 C 39.595 160.182 39.572 160.664 39.544 161.145 C 38.969 161.459 38.393 161.771 37.813 162.074 L 37.715 162.126 C 35.716 163.177 33.806 164.326 32.308 165.947 C 31.796 166.502 32.087 167.074 32.589 166.638 C 34.035 165.381 35.662 164.291 37.421 163.536 L 39.459 162.646 L 40.161 162.34 C 40.16 162.36 40.16 162.379 40.159 162.399 C 40.489 162.238 40.835 162.068 41.184 161.893 L 41.729 161.655 C 42.018 161.518 42.339 161.363 42.673 161.201 C 42.673 161.177 42.674 161.154 42.674 161.131 C 43.157 160.878 43.615 160.631 44.012 160.407 C 45.676 159.47 48.139 157.605 50.326 155.852 C 51.287 155.082 52.195 154.333 52.957 153.695 C 54.355 152.524 55.726 151.322 57.09 150.111 C 57.771 149.506 58.45 148.9 59.129 148.292 C 59.317 148.123 59.509 147.961 59.696 147.799 C 59.718 148.652 59.917 149.535 60.125 150.375 L 60.249 150.873 C 60.534 152.019 60.899 153.169 61.373 154.25 C 62.158 156.042 63.31 157.695 64.806 158.965 C 64.898 159.043 64.993 159.121 65.089 159.2 C 64.858 159.468 62.805 163.734 57.493 169.864 C 56.827 170.633 56.112 171.43 55.341 172.253 C 45.98 182.24 40.154 186.189 39.526 186.704 C 39.35 186.81 39.184 186.908 39.017 186.997 C 38.49 187.277 37.904 187.493 36.657 187.764 C 34.894 188.149 33.239 187.715 32.724 187.461 C 32.106 187.155 31.527 186.817 30.98 186.395 C 29.865 185.536 28.887 184.494 28.071 183.35 C 26.406 181.019 25.044 178.438 23.795 175.858 L 23.582 175.416 C 18.448 163.309 21.892 147.319 23.673 140.274 C 26.879 127.594 31.255 114.101 40.856 104.745 C 43.261 102.401 45.981 100.354 48.943 98.766 C 50.458 97.954 52.032 97.272 53.647 96.686 L 53.784 96.636 C 55.382 96.051 57.018 95.362 58.71 95.166 C 58.827 95.152 58.831 94.97 58.71 94.979 C 57.193 95.097 55.697 95.059 54.194 95.335 C 52.674 95.613 51.18 96.102 49.756 96.701 C 46.935 97.888 44.317 99.465 41.913 101.356 C 36.743 105.425 32.825 110.839 29.839 116.66 C 26.622 122.929 24.364 129.677 22.458 136.445 C 20.49 143.436 15.93 158.17 19.076 170.007 C 19.548 171.782 20.382 173.439 21.143 175.108 C 22.634 178.377 24.398 181.585 26.531 184.481 C 27.527 185.833 28.606 187.158 29.964 188.164 C 30.599 188.633 31.345 189.126 32.103 189.37 C 32.565 189.52 35.032 190.313 38.255 189.344 C 38.253 189.345 38.25 189.346 38.25 189.347 C 39.549 189.222 40.682 188.558 41.298 188.054 C 41.328 188.031 41.357 188.007 41.385 187.982 C 41.4 187.969 41.42 187.954 41.435 187.941 C 44.428 185.558 49.345 181.558 50.46 180.442 C 53.273 177.626 56.574 174.614 60.236 169.865 C 62.262 167.238 64.398 164.081 66.624 160.128 C 66.987 160.253 67.368 160.31 67.767 160.251 C 68.527 160.14 69.348 159.538 69.399 158.748 C 69.597 158.521 69.78 158.313 70.058 158.144 C 70.296 158 70.545 157.868 70.79 157.74 C 71.366 157.438 71.957 157.162 72.54 156.873 L 72.78 156.754 C 73.664 156.32 74.557 155.901 75.415 155.42 C 76.253 154.95 77.077 154.401 77.716 153.676 C 78.308 153.002 78.579 152.275 78.848 151.457 L 78.932 151.2 C 79.292 150.092 80.43 149.717 81.393 149.241 L 81.709 149.084 C 82.607 148.636 83.499 148.171 84.321 147.595 C 85.347 146.877 87.199 144.963 87.886 142.811 C 89.375 142.461 94.556 139.621 94.085 138.369 C 93.528 136.887 82.602 139.734 81.901 139.918 C 82.62 139.727 93.953 136.66 94.688 132.784 Z " fill="rgb(1,1,1)"/><path d=" M 79.63 124.61 C 79.584 125.312 78.979 125.844 78.277 125.798 L 76.936 125.711 C 76.235 125.666 75.703 125.061 75.748 124.359 L 75.948 121.281 C 75.994 120.58 76.599 120.048 77.301 120.093 L 78.642 120.18 C 79.343 120.226 79.875 120.831 79.829 121.533 L 79.63 124.61 L 79.63 124.61 Z " fill="rgb(1,1,1)"/><path d=" M 153.547 201.053 C 152.639 201.053 151.838 200.396 151.686 199.471 C 151.604 198.97 141.378 148.852 144.503 100.216 C 148.381 39.839 155.581 19.4 157.434 13.68 C 150.991 11.302 125.715 3.156 81.897 3.156 C 55.119 3.156 12.961 6.622 3.832 7.4 C 4.036 13.372 4.087 33.943 6.917 61.572 C 11.118 102.585 10.686 194.704 10.698 195.711 C 10.711 196.753 9.877 197.609 8.834 197.622 C 8.826 197.622 8.818 197.622 8.81 197.622 C 7.778 197.622 6.936 196.793 6.922 195.758 C 6.91 194.753 4.752 95.483 3.152 61.855 C 1.577 28.751 0.007 5.952 0.001 5.725 C -0.027 4.727 0.727 3.88 1.721 3.792 C 2.217 3.747 36.605 -0.935 82.019 0.219 C 133.945 1.538 159.533 10.397 160.601 10.866 C 161.07 11.072 161.436 11.46 161.613 11.94 C 161.791 12.42 161.766 12.952 161.543 13.414 C 161.485 13.54 155.04 28.211 150.399 100.465 C 147.302 148.676 155.331 198.363 155.413 198.859 C 155.581 199.888 154.884 200.859 153.855 201.028 C 153.751 201.045 153.648 201.053 153.547 201.053 Z " fill="rgb(0,0,0)"/><path d=" M 12.084 266.422 C 19.561 261.154 14.489 261.284 28.479 240.586 C 42.469 219.887 57.379 208.246 57.379 208.246 C 57.379 208.246 104.668 177.934 104.072 211.673 C 103.451 246.784 104.4 254.757 96.254 266.027 C 88.109 277.296 79.381 279.034 66.44 281.722 C 53.5 284.408 30.015 283.568 26.415 286.276 C 22.815 288.984 12.084 266.422 12.084 266.422 Z " fill="rgb(236,185,137)"/><path d=" M 25.738 288.389 C 23.931 288.389 19.712 287.854 15.737 277.406 C 12.745 269.539 9.697 266.129 9.598 265.921 C 9.203 265.09 10.245 265.408 10.997 264.878 C 14.359 262.51 15.111 261.682 16.172 258.393 C 18.513 251.133 22.394 245.784 30.68 236.344 C 39.145 226.7 55.599 207.241 56.217 206.758 C 56.263 206.722 56.311 206.688 56.36 206.657 C 57.176 206.134 76.507 193.847 90.697 193.847 C 95.378 193.847 99.065 195.185 101.657 197.823 C 104.621 200.84 106.069 205.511 105.959 211.707 C 105.887 215.809 105.834 219.604 105.789 222.952 C 105.434 248.875 106.825 250.714 100.008 262.251 C 92.616 274.761 79.981 280.839 67.121 283.509 L 66.824 283.57 C 60.702 284.841 52.548 286.323 44.563 285.787 C 34.56 285.115 29.008 286.688 27.55 287.785 C 27.024 288.18 26.398 288.389 25.738 288.389 Z  M 14.471 267.007 C 15.335 268.751 16.933 271.893 18.748 275.067 C 22.997 282.499 25.808 285.914 26.415 286.276 C 28.927 284.773 34.203 282.604 44.345 282.017 C 51.745 281.588 60.134 281.102 66.056 279.873 L 66.353 279.811 C 78.828 277.221 87.07 275.51 94.724 264.921 C 101.567 255.453 101.662 248.557 102.013 222.901 C 102.059 219.549 102.111 215.749 102.184 211.639 C 102.275 206.494 101.191 202.736 98.964 200.469 C 97.109 198.58 94.327 197.622 90.697 197.622 C 78.024 197.622 59.806 208.948 58.474 209.787 C 57.376 210.664 43.212 222.159 30.044 241.643 C 23.242 251.706 21.067 256.646 19.628 259.914 C 18.223 263.103 17.43 264.708 14.471 267.007 Z " fill="rgb(0,0,0)"/><path d=" M 67.437 155.573 C 61.387 156.132 49.463 156.918 44.144 160.165 C 44.144 160.165 44.103 168.063 44.161 172.963 C 44.254 180.793 44.267 188.617 44.647 196.441 C 45.507 214.158 47.17 250.96 46.445 251.274 C 52.593 255.174 65.945 254.693 72.705 254.872 C 80.959 255.091 93.977 255.9 101.573 252.103 C 102.678 251.55 106.809 211.673 107.067 203.519 C 107.296 196.289 107.097 189.056 107.479 181.832 C 107.768 176.389 107.717 165.221 107.9 159.791 C 107.9 159.791 100.56 157.127 90.426 156.292 C 82.79 155.663 75.075 154.866 67.437 155.573 Z " fill="rgb(255,255,255)"/><path d=" M 95.793 153.032 C 82.859 151.972 69.529 151.135 56.661 152.065 C 47.88 152.701 39.131 150.707 38.462 160.717 C 37.638 173.027 38.909 192.76 39.683 205.047 C 40.618 219.891 42.378 234.675 44.645 249.371 C 44.716 249.824 44.94 250.201 45.249 250.51 C 43.89 251.11 43.172 252.54 44.906 253.805 C 50.578 257.942 59.273 258.192 65.971 258.758 C 75.597 259.571 85.433 259.491 95.01 258.146 C 97.993 257.727 98.931 258.014 101.634 256.632 C 104.628 255.101 109.119 234.065 111.604 209.952 C 112.391 202.318 112.667 197.343 112.669 189.677 C 112.669 183.643 113.2 165.745 113.2 159.703 C 113.199 154.734 106.45 153.905 95.793 153.032 Z  M 107.479 181.832 C 107.097 189.056 107.296 196.289 107.067 203.519 C 106.808 211.673 102.678 251.55 101.573 252.102 C 93.976 255.9 80.959 255.091 72.704 254.872 C 65.944 254.693 52.592 255.174 46.445 251.274 C 47.17 250.96 45.507 214.158 44.647 196.441 C 44.267 188.616 44.254 180.793 44.161 172.962 C 44.103 168.063 44.143 160.164 44.143 160.164 C 49.463 156.918 61.387 156.132 67.437 155.572 C 75.074 154.866 82.79 155.663 90.426 156.292 C 100.559 157.126 107.899 159.79 107.899 159.79 C 107.716 165.22 107.768 176.388 107.479 181.832 Z " fill="rgb(1,1,1)"/><path d=" M 63.583 199.165 C 68.639 199.165 72.737 195.067 72.737 190.011 C 72.737 184.955 68.639 180.856 63.583 180.856 C 58.527 180.856 54.429 184.955 54.429 190.011 C 54.429 195.067 58.527 199.165 63.583 199.165 Z " fill="rgb(196,196,195)"/><path d=" M 87.811 199.165 C 92.867 199.165 96.965 195.067 96.965 190.011 C 96.965 184.955 92.867 180.856 87.811 180.856 C 82.755 180.856 78.657 184.955 78.657 190.011 C 78.657 195.067 82.755 199.165 87.811 199.165 Z " fill="rgb(196,196,195)"/><path d=" M 63.583 222.449 C 68.639 222.449 72.737 218.351 72.737 213.295 C 72.737 208.239 68.639 204.14 63.583 204.14 C 58.527 204.14 54.429 208.239 54.429 213.295 C 54.429 218.351 58.527 222.449 63.583 222.449 Z " fill="rgb(196,196,195)"/><path d=" M 87.811 222.449 C 92.867 222.449 96.965 218.351 96.965 213.295 C 96.965 208.239 92.867 204.14 87.811 204.14 C 82.755 204.14 78.657 208.239 78.657 213.295 C 78.657 218.351 82.755 222.449 87.811 222.449 Z " fill="rgb(196,196,195)"/><path d=" M 39.739 235.925 C 39.739 235.925 65.891 220.514 69.889 225.701 C 73.888 230.888 61.978 238.419 55.535 244.42 C 49.092 250.421 50.189 249.046 50.094 252.21 C 50.094 252.21 48.468 261.338 41.817 266.335 C 35.166 271.333 32.18 267.584 32.18 267.584" fill="rgb(236,185,137)"/><path d=" M 35.452 269.539 C 32.317 269.539 30.794 268.902 30.704 268.759 C 30.198 267.963 28.425 264.164 33.657 266.407 C 33.67 266.413 33.646 266.391 33.622 266.364 C 33.705 266.456 36.724 269.68 41.325 265.501 C 49.9 257.713 49.507 253.545 48.211 252.005 C 48.217 251.667 48.208 251.385 48.2 251.133 C 48.122 248.709 48.616 248.252 52.464 244.693 C 52.983 244.213 53.574 243.666 54.248 243.038 C 55.685 241.7 57.332 240.332 59.075 238.886 C 63.86 234.913 70.414 229.473 68.394 226.853 C 68.378 226.832 66.463 224.955 54.097 230.585 C 47.23 233.712 40.762 237.513 40.698 237.551 C 39.8 238.081 37.791 239.394 37.471 238.402 C 37.338 237.989 38.303 235.47 39.202 234.941 C 39.472 234.781 46.314 232.25 53.361 229.041 C 64.038 224.18 70.786 222.959 73.105 226.052 C 74.049 227.31 72.358 231.204 69.133 234.311 C 66.668 236.686 64.627 239.184 61.486 241.791 C 59.786 243.202 58.179 244.536 56.822 245.801 C 56.144 246.432 55.549 246.982 55.028 247.464 C 53.369 248.998 51.493 250.176 51.299 250.542 C 52.037 254.2 49.244 264.819 44.13 267.389 C 40.742 269.091 37.355 269.539 35.452 269.539 Z " fill="rgb(0,0,0)"/><circle vector-effect="non-scaling-stroke" cx="63.5" cy="190.5" r="9.5" fill="rgb(196,196,196)"/><path d=" M 68.412 194.632 L 63.662 184.182 L 58.912 194.632 L 63.662 193.682 L 68.412 194.632 L 68.412 194.632 Z " fill-rule="evenodd" fill="rgb(241,245,241)"/><path d=" M 63.5 223 C 58.257 223 54 218.743 54 213.5 C 54 208.257 58.257 204 63.5 204 C 68.743 204 73 208.257 73 213.5 C 73 218.743 68.743 223 63.5 223 Z " fill="rgb(196,196,196)"/><path d=" M 67.633 208.588 L 57.183 213.338 L 67.633 218.088 L 66.683 213.338 L 67.633 208.588 L 67.633 208.588 Z " fill-rule="evenodd" fill="rgb(241,245,241)"/><path d=" M 88.5 181 C 93.743 181 98 185.257 98 190.5 C 98 195.743 93.743 200 88.5 200 C 83.257 200 79 195.743 79 190.5 C 79 185.257 83.257 181 88.5 181 Z " fill="rgb(196,196,196)"/><path d=" M 84.368 195.412 L 94.818 190.662 L 84.368 185.912 L 85.318 190.662 L 84.368 195.412 L 84.368 195.412 Z " fill-rule="evenodd" fill="rgb(241,245,241)"/><path d=" M 98 213.5 C 98 218.743 93.743 223 88.5 223 C 83.257 223 79 218.743 79 213.5 C 79 208.257 83.257 204 88.5 204 C 93.743 204 98 208.257 98 213.5 Z " fill="rgb(196,196,196)"/><path d=" M 83.588 209.368 L 88.338 219.818 L 93.088 209.368 L 88.338 210.318 L 83.588 209.368 L 83.588 209.368 Z " fill-rule="evenodd" fill="rgb(241,245,241)"/></g></svg>