<?xml version="1.0" encoding="UTF-8" standalone="no"?><!-- Generator: Gravit.io --><svg xmlns="http://www.w3.org/2000/svg" xmlns:xlink="http://www.w3.org/1999/xlink" style="isolation:isolate" viewBox="0 0 162 289" width="162pt" height="289pt"><defs><clipPath id="_clipPath_ULKFot3H3CNcidZUQysQrQa97bC6OABT"><rect width="162" height="289"/></clipPath></defs><g clip-path="url(#_clipPath_ULKFot3H3CNcidZUQysQrQa97bC6OABT)"><path d=" M 154.571 206 C 154.571 206 145.522 151.391 148.669 101.305 C 153.432 25.522 160 11.582 160 11.582 C 160 11.582 134.191 0 82.032 0 C 51.577 0 2 4.504 2 4.504 C 2 4.504 2.629 27.669 5.147 61.805 C 7.665 95.942 8.924 198.842 8.924 198.842 C 8.924 198.842 28.837 204.15 35.482 204.072 C 128.894 202.971 154.571 206 154.571 206 Z " fill="rgb(230,236,246)"/><path d=" M 97.94 97.017 C 97.354 95.517 96.745 93.918 95.849 93.081 C 94.483 91.805 92.458 92.262 89.949 92.672 C 90.41 86.442 87.534 84.855 83.573 83.671 C 83.182 83.521 82.791 83.387 82.401 83.263 C 79.146 83.111 72.908 80.708 69.915 81.036 C 67.579 82.266 68.752 87.084 67.978 90.825 C 66.165 90.825 64.795 91.262 63.595 91.88 C 65.376 99.045 69.427 111.858 76.171 114.984 C 83.205 118.243 92.882 106.023 97.94 97.017 Z " fill="rgb(236,185,137)"/><path d=" M 62.968 91.251 C 64.109 90.06 65.899 89.349 67.594 89.389 L 67.673 89.392 L 68.249 89.417 L 67.864 91.304 L 67.844 91.393 L 67.766 91.721 L 67.662 92.149 L 67.624 92.307 L 67.586 92.482 C 67.579 92.51 67.573 92.538 67.567 92.566 L 67.55 92.649 L 67.386 93.45 L 67.417 93.522 L 67.408 93.704 C 67.383 94.362 67.525 94.724 67.837 94.84 L 67.862 94.849 L 68.04 94.906 L 68.185 95.222 C 68.52 95.944 68.833 96.574 69.153 97.168 C 70.088 98.901 71.204 100.632 72.49 102.372 C 73.712 104.026 74.985 105.604 76.309 107.103 C 76.904 107.777 77.533 108.453 78.202 109.141 L 78.778 109.731 L 78.961 109.917 L 79.084 110.04 L 79.238 110.191 L 79.459 110.402 L 79.62 110.56 L 79.672 110.609 C 79.737 110.67 79.788 110.711 79.834 110.741 L 79.851 110.751 L 79.901 110.781 L 82.571 113.59 L 83.515 114.108 L 83.963 114.356 L 84.053 114.176 L 84.072 114.118 L 85.064 111.938 L 85.671 110.603 C 86.915 107.856 87.882 105.672 88.767 103.591 L 88.877 103.331 L 89.203 102.557 L 89.376 102.144 C 90.168 100.249 90.752 98.785 91.275 97.364 L 91.349 97.161 L 91.459 96.857 L 91.623 96.399 L 91.653 96.321 C 91.795 95.958 91.446 94.636 91.102 93.912 L 91.082 93.871 L 90.994 93.692 L 90.897 93.502 C 90.669 93.059 90.504 92.567 90.366 91.971 C 90.344 91.874 90.322 91.778 90.303 91.679 L 90.274 91.532 L 90.255 91.435 L 90.23 91.299 L 90.194 91.105 L 90.963 90.976 L 91.384 90.907 L 91.569 90.878 C 91.807 90.841 92.019 90.811 92.219 90.786 L 92.293 90.777 L 92.427 90.761 L 92.432 90.787 L 92.706 90.814 L 92.91 90.835 C 93.913 90.942 94.687 91.059 95.237 91.188 L 95.291 91.201 L 95.39 91.226 L 95.435 91.237 C 95.935 91.372 96.32 91.663 96.624 92.092 C 96.834 92.386 96.969 92.668 97.184 93.202 L 97.261 93.395 L 97.517 94.027 C 97.547 94.104 97.593 94.227 97.655 94.396 L 97.872 94.987 L 98.485 95.591 L 101.905 96.095 C 106.834 96.399 140.292 109.352 138.946 182.397 L 139.002 183.183 L 139.118 184.892 L 139.186 185.866 L 139.193 185.997 L 139.221 186.505 L 139.228 186.624 C 139.239 186.776 139.25 186.905 139.265 187.024 L 139.277 187.112 L 139.29 187.197 C 139.328 187.43 139.403 187.638 139.526 187.87 L 139.559 187.929 L 139.772 188.31 L 139.386 188.513 C 137.373 189.573 120.826 190.04 115.391 190.065 L 115.226 190.065 L 114.886 190.065 C 112.245 190.064 109.447 189.962 106.526 189.787 L 105.866 189.747 L 105.314 189.712 C 105.077 189.697 104.846 189.681 104.606 189.665 L 104.238 189.638 L 102.703 189.526 C 95.796 188.864 88.552 188.876 80.57 189.473 C 60.699 190.751 45.653 189.032 34.246 188.642 C 31.428 188.546 19.82 171.022 19.89 161.982 C 20.73 154.592 22.018 147.425 23.769 140.499 L 23.946 139.807 C 25.839 132.405 27.665 126.698 29.986 121.421 C 32.938 114.709 36.537 109.185 41.069 104.769 C 43.561 102.34 46.319 100.291 49.252 98.719 C 50.6 97.996 52.033 97.355 53.57 96.778 L 53.791 96.696 L 54.146 96.566 L 54.419 96.465 L 55.298 96.137 C 55.483 96.068 55.684 95.99 55.922 95.896 L 56.068 95.838 L 57.642 95.21 L 57.904 95.108 L 58.194 94.995 L 58.408 94.913 C 58.757 94.779 59.074 94.663 59.367 94.561 L 59.541 94.501 L 59.698 94.448 L 60.37 94.216 L 60.357 94.827 C 60.349 95.233 60.453 95.54 60.685 95.761 L 60.693 95.767 L 60.701 95.774 L 60.708 95.779 L 60.749 95.777 L 60.907 95.777 C 60.924 95.768 60.94 95.757 60.953 95.745 C 61.18 95.553 61.285 95.295 61.386 94.705 L 61.413 94.541 L 61.46 94.234 L 61.48 94.117 C 61.547 93.708 61.606 93.482 61.722 93.223 C 61.888 92.849 62.108 92.485 62.367 92.15 L 62.427 92.074 L 62.669 91.783 L 62.706 91.737 C 62.791 91.628 62.834 91.552 62.852 91.481 L 62.856 91.463 L 62.88 91.34 L 62.968 91.251 L 62.968 91.251 Z " fill="rgb(85,175,138)"/><path d=" M 113.731 48.491 C 114.061 45.15 115.97 44.95 115.582 41.585 C 114.415 35.231 107.055 33.519 101.819 31.652 C 95.909 29.823 89.655 28.994 83.508 29.917 C 82.041 30.138 80.595 30.473 79.178 30.913 C 77.952 31.294 77.759 32.591 78.236 33.455 C 71.659 38.941 71.951 48.75 66.241 54.851 C 65.197 55.936 63.963 56.828 62.997 57.989 C 61.529 59.753 60.697 62.621 62.444 64.522 C 64.981 66.911 67.481 64.197 67.711 69.164 C 70.709 87.072 85.095 91.89 101.209 87.29 C 102.59 86.942 104.019 86.513 105.207 85.704 C 107.889 83.934 108.521 80.603 109.344 77.715 C 109.825 76.023 110.284 74.324 110.723 72.62 C 112.503 65.718 112.785 55.557 113.731 48.491 Z " fill="rgb(236,185,137)"/><path d=" M 89.286 21.427 C 98.692 19.862 108.587 20.964 117.478 24.363 C 121.866 26.039 126.052 28.235 129.854 30.999 L 130.188 31.243 C 131.126 31.927 132.147 32.63 132.722 33.664 C 133.391 34.867 133.264 36.381 132.287 37.383 C 131.527 38.162 130.427 38.571 129.347 38.658 C 129.618 39.036 129.862 39.442 130.076 39.88 C 130.437 40.614 130.25 41.473 129.533 41.909 C 128.149 42.75 126.529 43.192 124.915 43.18 C 124.864 44.045 124.529 44.929 123.947 45.65 C 122.274 47.718 119.26 47.211 117.036 46.465 L 116.969 46.442 L 116.456 47.851 C 116.184 48.602 115.564 49.074 114.754 48.984 C 114.726 48.981 114.697 48.976 114.669 48.971 C 114.705 53.771 114.215 58.578 113.676 63.342 C 113.394 65.828 113.074 68.311 112.739 70.791 L 112.627 71.618 C 112.263 74.291 111.973 77.012 111.418 79.654 C 110.912 82.052 109.857 84.187 107.893 85.705 C 106.131 87.065 104.009 87.87 101.842 88.308 C 96.945 89.3 91.969 89.681 86.991 89.143 L 86.659 89.107 C 84.739 88.895 82.774 88.624 81.087 87.623 C 79.604 86.744 78.234 85.135 79.095 83.37 C 79.385 82.773 80.269 82.981 80.44 83.548 L 80.48 83.678 C 80.686 84.348 80.939 84.987 81.489 85.452 C 82.132 85.996 82.961 86.323 83.763 86.548 C 86.005 87.177 88.497 87.243 90.813 87.259 C 95.138 87.291 99.75 86.689 103.758 84.977 C 105.464 84.251 106.966 83.173 107.842 81.503 C 108.922 79.445 109.109 76.929 109.475 74.667 C 110.231 70.001 110.897 65.319 111.531 60.635 L 111.658 59.698 C 112.184 55.78 112.687 51.855 113.463 47.982 C 113.399 47.816 113.373 47.64 113.392 47.46 L 113.42 47.202 C 113.445 46.981 113.491 46.785 113.562 46.612 C 113.748 45.924 113.95 45.246 114.174 44.569 C 114.214 44.448 114.253 44.325 114.289 44.205 C 113.534 44.171 112.781 44.106 112.03 44.021 C 106.75 43.427 101.546 42.238 96.532 40.486 C 94.031 39.612 91.586 38.606 89.171 37.52 C 87.942 36.967 86.723 36.394 85.515 35.795 C 84.643 35.362 83.805 34.87 82.961 34.391 C 81.659 35.506 80.703 37.051 80.359 38.728 C 79.965 40.642 80.759 42.686 79.892 44.516 C 79.08 46.229 77.391 46.375 75.751 46.414 L 75.054 46.428 C 74.518 46.44 74.119 46.484 73.868 47.059 C 73.438 48.046 73.317 49.255 73.08 50.3 C 72.8 51.536 72.535 52.776 72.236 54.008 C 72.082 54.644 71.936 55.286 71.765 55.919 C 71.643 56.368 71.494 56.657 71.242 56.9 C 71.331 57.105 71.403 57.32 71.458 57.541 C 71.475 57.613 71.372 57.658 71.336 57.592 C 71.237 57.415 71.129 57.249 71.007 57.095 C 70.906 57.168 70.791 57.241 70.659 57.316 L 70.654 57.303 C 70.241 57.54 69.717 57.433 69.406 56.98 L 69.324 56.86 C 69.099 56.521 68.954 56.25 68.987 55.8 C 68.988 55.777 68.99 55.754 68.993 55.731 C 68.25 55.504 67.439 55.478 66.664 55.671 C 65.435 55.977 64.455 56.621 63.73 57.546 C 63.852 57.801 64.01 58.043 64.21 58.264 C 64.237 58.297 64.194 58.34 64.162 58.311 C 63.946 58.129 63.763 57.926 63.61 57.704 C 63.34 58.072 63.109 58.483 62.916 58.932 C 62.233 60.516 62.122 62.647 63.358 63.985 C 63.893 64.565 64.569 64.983 65.331 65.189 C 65.702 65.29 66.041 65.314 66.425 65.321 C 66.686 65.327 66.953 65.304 67.209 65.372 C 67.427 65.431 67.615 65.54 67.773 65.7 L 67.72 65.691 C 67.59 65.669 67.613 65.68 67.789 65.727 C 68.329 65.898 68.493 66.537 68.112 66.954 L 68.059 67.02 C 68.048 67.033 68.039 67.044 68.031 67.052 L 67.977 67.175 C 67.972 67.187 67.966 67.199 67.961 67.211 L 67.946 67.235 C 67.944 67.239 67.941 67.242 67.938 67.246 L 68.422 68.719 C 69.017 70.522 69.636 72.325 70.43 74.039 C 70.987 75.24 71.598 76.436 72.278 77.574 C 72.889 78.597 73.775 79.248 74.541 80.129 C 74.951 80.597 74.909 81.337 74.335 81.665 C 72.649 82.634 71.045 81.076 70.241 79.707 C 69.482 78.409 68.917 76.942 68.478 75.508 C 67.697 72.957 67.233 70.342 67.434 67.692 C 67.187 67.821 66.903 67.867 66.624 67.887 C 66.064 67.929 65.479 67.851 64.932 67.725 C 63.886 67.482 62.915 66.951 62.101 66.254 C 58.789 63.421 59.687 57.836 62.869 55.253 C 62.799 54.258 62.889 53.224 62.925 52.33 L 62.939 51.931 C 63.105 47.469 63.647 42.869 66.454 39.205 C 66.815 38.732 67.199 38.281 67.624 37.863 C 67.964 37.526 68.48 37.21 68.712 36.786 C 69.225 35.855 67.987 34.402 67.756 33.492 C 67.483 32.426 67.704 31.311 68.64 30.653 C 68.759 30.571 68.883 30.498 69.013 30.441 C 68.668 29.039 69.048 27.493 70.257 26.525 C 71.052 25.887 72.09 25.568 73.106 25.66 C 73.727 25.716 74.43 25.945 75.033 26.304 C 79.494 23.939 84.31 22.255 89.286 21.427 Z  M 64.438 59.322 C 65.616 58.735 66.787 58.575 68.056 59.034 C 69.331 59.497 70.759 60.459 71.224 61.786 C 71.593 62.835 70.01 63.804 69.3 62.9 C 68.653 62.077 68.296 61.247 67.379 60.652 C 66.555 60.118 65.488 59.631 64.499 59.545 C 64.391 59.535 64.321 59.379 64.438 59.322 Z " fill="rgb(1,1,1)"/><path d=" M 93.594 80.348 C 92.774 79.725 92.12 78.879 91.735 77.917 C 91.6 77.583 91.624 77.274 91.741 77.017 C 91.871 76.728 92.123 76.502 92.416 76.384 C 92.71 76.265 93.04 76.256 93.324 76.381 C 93.57 76.49 93.789 76.7 93.912 77.046 L 93.939 77.116 C 94.167 77.695 94.526 78.216 94.987 78.614 C 95.432 78.997 95.973 79.264 96.583 79.356 C 97.743 79.531 98.683 79.13 99.73 78.523 C 99.86 78.447 99.991 78.366 100.124 78.284 C 100.215 78.202 100.322 78.163 100.432 78.156 C 100.552 78.149 100.677 78.185 100.782 78.256 C 100.883 78.324 100.963 78.424 101.003 78.54 C 101.041 78.649 101.046 78.774 100.999 78.903 C 100.694 79.74 100.041 80.385 99.243 80.815 C 98.357 81.293 97.296 81.504 96.37 81.429 C 95.35 81.347 94.394 80.954 93.594 80.348 Z  M 101.885 69.477 C 101.828 70.729 101.28 72.889 99.311 72.653 C 97.411 72.147 97.905 69.651 98.091 68.453 C 98.164 67.395 96.393 67.222 96.204 68.269 C 95.026 76.839 104.609 74.811 102.817 69.585 C 102.619 69.009 101.927 69.134 101.885 69.477 Z  M 88.921 58.901 C 89.664 57.851 91.746 58.718 91.306 59.927 C 90.91 61.008 90.186 61.795 89.167 62.386 C 88.193 62.951 87.202 61.853 87.554 61.03 C 88.026 59.927 88.458 59.554 88.921 58.901 Z  M 105.531 62.937 C 106.005 62.74 106.535 62.723 106.923 63.129 C 108.136 64.398 106.51 66.223 105.414 66.936 C 104.82 67.323 103.839 66.942 103.71 66.224 C 103.502 65.055 104.091 63.301 105.382 63.013 C 105.428 62.986 105.476 62.96 105.531 62.937 Z  M 93.116 52.705 L 93.385 52.729 C 94.217 52.804 95.242 52.938 95.633 53.728 C 95.841 54.147 95.775 54.805 95.286 55.022 C 94.427 55.404 93.706 54.974 92.849 54.796 C 92.14 54.648 91.439 54.584 90.717 54.596 C 89.131 54.622 87.725 55.07 86.241 55.576 C 86.046 55.643 85.934 55.386 86.054 55.253 C 87.162 54.026 88.882 53.234 90.483 52.9 C 91.337 52.721 92.244 52.627 93.116 52.705 Z  M 107.157 56.751 L 107.344 56.844 C 109.366 57.866 111.909 59.506 112.36 61.882 C 112.319 62.19 112.261 62.242 112.216 62.275 L 112.202 62.286 C 112.165 62.314 112.129 62.358 111.99 62.363 C 111.956 62.346 111.922 62.327 111.889 62.307 C 111.456 62.061 111.134 61.795 110.824 61.525 L 110.489 61.231 C 110.1 60.892 109.705 60.558 109.268 60.274 C 108.335 59.667 107.347 59.15 106.312 58.739 C 106.088 58.649 105.886 58.511 105.746 58.33 C 105.613 58.159 105.533 57.948 105.537 57.699 C 105.543 57.376 105.626 57.153 105.862 56.924 C 106.039 56.751 106.251 56.656 106.474 56.628 C 106.701 56.6 106.939 56.643 107.157 56.751 Z " fill="rgb(1,1,1)"/><path d=" M 84.479 78.826 C 86.285 76.524 89.217 75.263 92.191 75.311 C 94.375 75.348 96.518 75.94 98.55 76.702 C 99.614 77.101 100.763 77.501 101.685 78.183 C 102.472 78.766 103.013 79.614 103.346 80.527 C 103.743 81.611 103.9 82.772 103.919 83.924 C 103.922 84.088 103.922 84.252 103.918 84.416 C 103.569 85.187 103.102 85.799 102.219 86.106 C 101.357 86.406 100.431 86.375 99.545 86.215 C 99.472 86.151 99.4 86.087 99.337 86.024 C 98.192 84.887 97.73 82.803 95.958 82.594 C 94.376 82.407 92.859 84.055 91.653 84.936 C 88.655 84.495 85.984 82.843 84.064 80.547 C 84.097 79.945 84.244 79.37 84.479 78.826 Z  M 106.518 82.618 C 106.46 81.903 106.337 81.193 106.149 80.504 C 105.529 78.227 104.188 76.185 102.336 74.729 C 97.957 71.284 91.154 71.062 86.226 73.466 C 84.544 74.288 82.696 75.664 81.775 77.43 C 81.644 77.421 81.508 77.455 81.388 77.521 C 78.987 74.929 76.483 72.383 74.832 69.24 C 73.633 66.956 73.039 64.475 72.957 61.901 C 72.95 61.69 72.627 61.633 72.578 61.853 C 72.568 61.904 72.557 61.956 72.545 62.007 C 72.54 61.906 72.385 61.916 72.351 62.003 C 71.189 64.792 69.882 67.729 69.549 70.755 C 69.352 72.562 69.798 74.043 70.485 75.697 C 71.219 77.469 72.131 79.179 73.087 80.84 C 73.692 81.895 74.3 83.087 75.153 83.969 C 76.142 84.994 77.338 85.892 78.451 86.777 C 79.583 87.678 80.746 88.543 81.952 89.345 C 84.361 90.952 86.934 92.306 89.647 93.324 C 91.821 94.138 94.307 95.058 96.671 94.792 C 98.482 94.587 100.116 93.779 101.541 92.661 C 103.091 91.444 104.458 89.95 105.449 88.254 C 106.477 86.491 106.546 82.954 106.518 82.618 Z " fill="rgb(1,1,1)"/><path d=" M 69.173 80.619 C 69.195 80.602 69.229 80.595 69.249 80.619 C 69.584 81.01 69.516 81.609 69.527 82.105 L 69.529 82.151 C 69.552 82.877 68.614 88.949 68.611 89.675 L 68.604 91.986 C 68.603 92.303 68.577 92.634 68.593 92.953 L 68.601 93.077 C 68.778 93.258 68.86 93.519 68.8 93.781 C 68.789 94.117 68.614 94.398 68.357 94.575 L 68.907 95.355 L 69.457 96.134 C 70.591 97.743 71.739 99.338 72.934 100.903 C 74.153 102.498 75.452 104.033 76.813 105.51 C 77.478 106.231 78.154 106.942 78.846 107.638 C 79.127 107.92 79.415 108.196 79.7 108.475 L 79.983 108.755 C 80.15 108.923 80.361 109.088 80.473 109.3 C 80.538 109.425 80.553 109.734 80.577 109.785 C 80.786 110.247 80.428 110.983 79.833 110.752 L 79.86 110.734 C 79.968 110.659 79.899 110.657 79.652 110.73 C 79.496 110.73 79.349 110.694 79.213 110.623 L 79.172 110.601 C 78.98 110.503 78.808 110.314 78.652 110.162 L 78.613 110.125 C 78.255 109.791 77.914 109.435 77.572 109.085 C 76.857 108.354 76.158 107.608 75.481 106.842 C 74.131 105.313 72.851 103.723 71.639 102.083 C 70.405 100.412 69.257 98.656 68.27 96.828 C 67.895 96.134 67.552 95.427 67.223 94.712 C 66.582 94.506 66.433 93.825 66.478 93.057 C 66.242 92.506 66.028 91.944 65.903 91.37 C 65.886 91.291 65.987 91.218 66.048 91.286 C 66.252 91.519 66.442 91.767 66.625 92.021 C 66.735 91.483 66.874 90.987 66.939 90.671 L 67.223 89.278 C 65.623 89.194 63.868 89.852 62.765 91.003 C 62.706 91.303 62.475 91.518 62.25 91.797 C 61.993 92.118 61.769 92.477 61.602 92.853 C 61.231 93.687 61.44 94.915 60.72 95.526 C 60.645 95.59 60.562 95.634 60.475 95.662 C 60.817 97.336 60.662 99.182 60.654 100.881 L 60.654 101.03 C 60.656 102.932 60.592 104.835 60.518 106.735 L 60.444 108.615 C 60.347 111.123 60.284 113.632 60.528 116.126 C 61.64 115.141 62.791 114.2 63.981 113.304 C 64.763 112.715 65.562 112.147 66.374 111.6 L 67.034 111.158 C 67.825 110.628 68.636 110.082 69.502 109.702 C 70.636 109.205 71.713 109.376 72.807 109.885 C 73.896 110.393 74.953 110.983 76.022 111.533 C 77.109 112.092 78.198 112.647 79.286 113.203 C 80.007 113.571 81.064 113.904 81.593 114.582 C 81.626 114.432 81.666 114.283 81.711 114.133 C 81.659 113.906 81.679 113.661 81.807 113.426 C 83.584 110.161 85.228 106.818 86.861 103.478 C 87.687 101.789 88.473 100.079 89.301 98.39 L 90.106 96.745 C 90.24 96.471 90.375 96.197 90.511 95.924 C 90.714 95.514 90.925 95.109 91.131 94.701 C 91.217 94.528 91.326 94.357 91.411 94.183 L 91.451 94.096 C 91.452 94.091 91.648 93.478 91.497 93.536 L 91.484 93.543 C 91.407 93.587 91.345 93.49 91.395 93.428 C 91.608 93.165 91.905 93.398 92.026 93.642 C 92.361 94.313 91.748 95.366 91.512 96.008 L 91.499 96.044 C 90.766 98.118 89.937 100.153 89.087 102.18 C 87.458 106.067 85.708 109.894 83.962 113.728 L 83.941 113.794 C 84.313 113.509 84.711 113.25 85.051 112.998 C 85.91 112.361 86.794 111.756 87.677 111.153 C 89.295 110.047 90.958 109.014 92.648 108.022 L 92.986 107.824 C 93.831 107.332 94.667 106.933 95.669 107.081 C 96.6 107.218 97.466 107.718 98.306 108.125 L 98.394 108.166 L 100.992 109.402 C 100.714 108.294 100.414 107.191 100.1 106.093 C 99.488 103.95 98.814 101.825 98.084 99.72 C 97.402 97.753 96.664 95.807 95.885 93.877 L 95.65 93.297 C 95.331 92.503 95.016 91.636 94.107 91.391 C 93.198 91.146 92.156 91.509 91.327 90.991 C 91.251 90.944 91.26 90.819 91.352 90.796 L 91.864 90.667 C 92.826 90.428 93.953 90.187 94.863 90.42 C 95.852 90.674 96.671 91.504 97.151 92.368 C 97.685 93.329 98.061 94.404 98.467 95.428 L 98.531 95.59 C 98.996 96.749 99.443 97.915 99.872 99.089 C 100.727 101.434 101.506 103.808 102.211 106.204 C 102.551 107.359 102.874 108.518 103.183 109.681 C 103.272 110.016 103.419 110.422 103.54 110.844 C 103.678 110.979 103.809 111.129 103.931 111.301 C 104.135 111.585 103.989 111.919 103.736 112.089 C 103.727 112.38 103.661 112.654 103.507 112.889 C 102.903 113.805 101.308 113.569 101.373 112.337 C 101.382 112.149 101.456 111.969 101.567 111.817 L 101.564 111.792 L 101.551 111.747 C 101.275 111.614 100.996 111.466 100.703 111.321 L 97.976 109.974 C 97.186 109.583 96.311 108.98 95.432 108.831 C 94.613 108.692 93.749 109.303 93.045 109.671 L 93 109.694 C 91.299 110.566 89.611 111.467 87.929 112.375 C 87.108 112.819 86.297 113.281 85.48 113.729 C 84.796 114.105 84.057 114.643 83.289 114.855 C 82.961 115.111 82.571 115.076 82.258 114.883 C 82.401 115.77 82.392 116.681 82.436 117.588 C 82.495 118.8 82.504 120.016 82.523 121.23 L 82.531 121.686 C 82.582 124.37 82.61 127.055 82.62 129.74 C 82.657 139.3 82.551 148.863 82.526 158.424 C 82.514 163.227 82.419 168.035 82.294 172.836 C 82.241 174.871 82.131 176.903 82.011 178.935 L 81.945 180.043 C 81.806 182.381 81.724 184.745 81.291 187.051 C 81.235 187.352 80.726 187.36 80.676 187.051 C 80.277 184.58 80.255 182.054 80.178 179.554 L 80.162 179.054 C 80.071 176.369 80.027 173.686 80.037 171 C 80.07 161.435 80.319 151.877 80.523 142.316 C 80.625 137.511 80.694 132.706 80.852 127.903 C 80.932 125.5 81.022 123.098 81.128 120.697 C 81.176 119.624 81.222 118.553 81.293 117.482 L 81.325 117.023 C 81.347 116.724 81.365 116.428 81.387 116.135 C 80.42 116.488 79.534 115.834 78.664 115.386 C 77.661 114.87 76.658 114.353 75.654 113.838 L 74.65 113.324 L 72.64 112.298 C 71.735 111.836 71.037 111.376 70.073 111.918 C 66.595 113.869 63.399 116.466 60.503 119.19 C 59.947 119.712 58.774 119.572 58.633 118.696 C 58.032 114.956 58.398 111.161 58.705 107.408 L 58.818 106.015 C 58.955 104.352 59.104 102.688 59.303 101.031 C 59.392 100.289 59.481 99.549 59.579 98.808 L 59.654 98.254 C 59.777 97.377 59.856 96.505 60.118 95.664 C 60.035 95.637 59.956 95.594 59.885 95.527 C 59.1 94.782 59.479 93.488 59.837 92.602 C 60.191 91.727 60.731 90.964 61.406 90.306 C 61.553 90.162 61.761 90.07 61.97 90.065 C 63.608 88.98 65.406 88.438 67.276 89.03 C 67.329 88.779 67.382 88.528 67.439 88.278 L 68.44 82.679 C 68.584 82.059 68.638 81.034 69.173 80.619 Z " fill="rgb(1,1,1)"/><path d=" M 85.021 184.002 C 85.529 183.863 86.086 184.01 86.459 184.382 C 86.831 184.755 86.978 185.311 86.838 185.82 C 86.768 186.07 86.642 186.287 86.459 186.472 C 86.288 186.642 86.087 186.763 85.86 186.836 L 85.807 186.852 L 85.724 186.886 C 85.468 186.955 85.214 186.955 84.959 186.886 C 84.716 186.818 84.504 186.695 84.324 186.517 C 84.146 186.337 84.023 186.125 83.955 185.882 C 83.886 185.626 83.886 185.372 83.955 185.117 L 83.989 185.034 C 84.059 184.783 84.186 184.566 84.369 184.382 C 84.554 184.199 84.771 184.073 85.021 184.002 Z " fill="rgb(1,1,1)"/><path d=" M 115.209 133.336 C 115.293 133.24 115.428 133.363 115.376 133.464 C 114.584 135.017 113.702 136.559 112.834 138.072 C 112.904 138.491 112.972 138.907 113.052 139.313 C 113.389 141.041 113.804 142.738 114.074 144.483 C 115.043 150.755 115.547 157.094 115.979 163.422 C 116.413 169.772 116.469 176.125 116.533 182.489 C 116.539 183.04 116.115 183.681 115.546 183.785 C 115.286 183.833 115.091 183.823 114.832 183.785 C 114.24 183.698 113.87 183.02 113.844 182.489 C 113.675 178.933 113.446 175.381 113.182 171.83 C 112.714 165.535 112.428 159.224 112.049 152.923 L 111.915 150.72 C 111.772 148.334 111.641 145.946 111.599 143.555 C 111.571 141.972 111.655 140.389 111.603 138.808 C 111.555 137.347 111.407 135.76 111.729 134.325 C 111.741 134.272 111.826 134.258 111.85 134.309 C 112.185 135.014 112.397 135.78 112.561 136.562 C 113.423 135.471 114.302 134.377 115.209 133.336 Z " fill="rgb(1,1,1)"/><path d=" M 102.545 95.122 C 104.065 95.4 105.56 95.889 106.983 96.488 C 109.805 97.675 112.422 99.252 114.826 101.143 C 119.996 105.211 123.914 110.626 126.9 116.447 C 130.117 122.716 132.375 129.464 134.281 136.232 C 136.302 143.407 137.843 150.718 138.873 158.1 C 139.452 162.253 139.856 166.431 140.101 170.617 C 140.223 172.68 140.304 174.744 140.345 176.811 C 140.367 177.888 140.38 178.967 140.376 180.044 C 140.374 180.58 140.405 181.129 140.361 181.662 C 140.32 182.159 140.039 182.522 139.753 182.902 L 139.654 183.035 C 139.385 183.399 138.909 183.419 138.644 183.035 C 138.42 182.711 138.118 182.369 138.011 181.98 C 137.895 181.56 137.972 181.016 137.972 180.583 C 137.974 179.64 137.97 178.697 137.959 177.754 C 137.936 175.912 137.882 174.071 137.797 172.231 C 137.629 168.642 137.342 165.058 136.936 161.488 C 136.115 154.269 134.848 147.106 133.066 140.061 C 129.86 127.38 125.485 113.888 115.883 104.532 C 113.478 102.188 110.758 100.14 107.796 98.552 C 106.282 97.74 104.707 97.059 103.093 96.473 L 102.955 96.423 C 101.357 95.837 99.722 95.149 98.029 94.952 C 97.913 94.939 97.908 94.757 98.029 94.766 C 99.546 94.884 101.042 94.846 102.545 95.122 Z " fill="rgb(1,1,1)"/><path d=" M 85.313 172.04 C 85.581 172.038 85.881 172.097 86.111 172.245 L 86.418 172.483 C 86.502 172.59 86.585 172.698 86.667 172.805 C 86.86 173.056 86.885 173.462 86.845 173.761 C 86.836 173.96 86.777 174.146 86.667 174.318 L 86.434 174.621 C 86.208 174.805 86.02 174.936 85.747 175.024 C 85.605 175.07 85.467 175.08 85.331 175.073 L 85.285 175.07 L 85.313 175.074 L 85.265 175.068 C 85.22 175.064 85.176 175.059 85.131 175.053 C 85.1 175.049 85.07 175.047 85.04 175.043 C 85.01 175.041 84.982 175.04 84.952 175.042 C 84.605 175.075 84.257 174.878 84.011 174.653 C 83.79 174.449 83.591 174.017 83.621 173.711 L 83.634 173.584 C 83.658 173.368 83.677 173.283 83.768 173.066 C 83.857 172.856 83.982 172.67 84.15 172.513 C 84.473 172.212 84.869 172.043 85.313 172.04 Z " fill="rgb(1,1,1)"/><path d=" M 84.24 156.257 C 84.699 155.755 85.49 155.718 86.061 156.022 C 86.199 156.096 86.327 156.214 86.45 156.313 C 86.758 156.563 86.88 157.014 86.896 157.393 C 86.913 157.768 86.716 158.213 86.45 158.473 L 86.385 158.535 C 86.226 158.69 85.998 158.824 85.775 158.865 C 85.417 158.931 85.116 158.929 84.782 158.788 C 84.495 158.667 84.248 158.472 84.079 158.208 L 84.052 158.163 C 84.041 158.145 84.03 158.126 84.019 158.106 L 84.005 158.078 C 83.685 157.463 83.771 156.767 84.24 156.257 Z " fill="rgb(1,1,1)"/><path d=" M 84.478 140.39 C 84.685 140.325 84.893 140.316 85.1 140.362 C 85.242 140.363 85.372 140.398 85.494 140.469 C 85.626 140.506 85.741 140.573 85.838 140.67 C 85.956 140.739 86.049 140.832 86.119 140.95 C 86.257 141.1 86.35 141.277 86.399 141.481 L 86.454 141.895 L 86.399 142.31 L 86.241 142.683 C 86.197 142.74 86.154 142.796 86.11 142.852 C 86.041 142.97 85.947 143.064 85.829 143.133 C 85.753 143.209 85.665 143.266 85.568 143.306 C 85.22 143.555 84.757 143.636 84.345 143.522 C 84.101 143.454 83.889 143.33 83.709 143.151 C 83.53 142.971 83.406 142.758 83.337 142.515 L 83.309 142.319 C 83.273 142.057 83.267 141.913 83.342 141.579 C 83.374 141.433 83.468 141.227 83.518 141.14 C 83.728 140.769 84.073 140.514 84.478 140.39 Z " fill="rgb(1,1,1)"/><path d=" M 102.493 128.976 C 103.088 128.971 103.684 128.973 104.28 128.979 L 104.727 128.986 C 105.475 128.997 106.116 128.92 106.704 129.439 C 107.13 129.816 106.942 130.447 106.537 130.731 C 105.923 131.161 105.153 130.945 104.448 130.898 C 103.704 130.848 102.959 130.806 102.213 130.773 C 100.771 130.708 99.327 130.667 97.884 130.661 C 96.442 130.654 94.999 130.668 93.558 130.692 C 92.092 130.715 90.566 130.852 89.108 130.7 C 88.907 130.68 88.863 130.416 89.06 130.348 C 90.434 129.872 91.979 129.718 93.419 129.537 C 94.904 129.349 96.389 129.216 97.884 129.13 C 99.418 129.042 100.955 128.986 102.493 128.976 Z " fill="rgb(1,1,1)"/><path d=" M 84.475 124.308 L 84.524 124.309 C 84.787 124.309 85.032 124.371 85.261 124.494 L 85.31 124.521 L 85.624 124.764 C 85.817 124.958 85.951 125.187 86.024 125.45 L 86.08 125.864 C 86.088 126.078 86.043 126.278 85.946 126.463 C 85.883 126.656 85.776 126.823 85.624 126.964 C 85.484 127.115 85.316 127.223 85.124 127.286 C 84.952 127.375 84.769 127.42 84.574 127.421 L 84.524 127.42 C 84.244 127.419 83.982 127.348 83.739 127.207 L 83.425 126.964 C 83.232 126.77 83.099 126.541 83.025 126.277 L 82.969 125.864 C 82.961 125.65 83.006 125.45 83.104 125.265 C 83.166 125.072 83.273 124.905 83.425 124.764 C 83.565 124.612 83.733 124.505 83.925 124.442 C 84.097 124.352 84.28 124.307 84.475 124.308 Z " fill="rgb(1,1,1)"/><path d=" M 89.087 87.762 C 89.422 87.277 90.029 87.709 89.942 88.099 C 89.965 89.195 90.021 90.259 90.271 91.333 C 90.385 91.824 90.535 92.316 90.766 92.767 L 90.862 92.957 C 91.161 93.547 91.393 94.103 90.99 94.75 C 90.801 95.056 90.458 95.285 90.087 95.269 C 88.44 95.197 88.213 92.905 88.113 91.625 C 88.01 90.306 88.331 88.858 89.087 87.762 Z " fill="rgb(1,1,1)"/><path d=" M 91.342 133.743 C 91.318 133.749 91.305 133.753 91.305 133.753 C 91.305 133.753 91.318 133.749 91.342 133.743 Z " fill="rgb(1,1,1)"/><path d=" M 80.93 117.964 C 79.206 118.123 75.809 118.347 74.293 119.272 C 74.293 119.272 74.281 121.522 74.298 122.918 C 74.324 125.149 74.328 127.378 74.436 129.608 C 74.681 134.656 75.155 145.141 74.949 145.23 C 76.7 146.341 80.504 146.204 82.43 146.255 C 84.782 146.318 88.491 146.548 90.655 145.466 C 90.97 145.309 92.147 133.948 92.221 131.624 C 92.286 129.564 92.229 127.504 92.338 125.445 C 92.421 123.894 92.406 120.712 92.458 119.165 C 92.458 119.165 90.367 118.406 87.48 118.169 C 85.304 117.989 83.106 117.763 80.93 117.964 Z " fill="rgb(255,255,255)"/><path d=" M 89.009 117.24 C 85.324 116.938 81.526 116.699 77.859 116.965 C 75.357 117.146 72.865 116.578 72.674 119.43 C 72.439 122.937 72.801 128.559 73.022 132.06 C 73.288 136.289 73.789 140.501 74.435 144.689 C 74.455 144.818 74.52 144.925 74.607 145.013 C 74.22 145.184 74.015 145.591 74.509 145.952 C 76.126 147.13 78.603 147.202 80.511 147.363 C 83.254 147.594 86.056 147.572 88.785 147.188 C 89.635 147.069 89.902 147.151 90.672 146.757 C 91.525 146.321 92.804 140.327 93.512 133.457 C 93.737 131.282 93.815 129.864 93.816 127.68 C 93.816 125.962 93.967 120.862 93.967 119.141 C 93.968 117.725 92.045 117.489 89.009 117.24 Z  M 92.338 125.445 C 92.229 127.504 92.286 129.565 92.221 131.625 C 92.147 133.948 90.97 145.309 90.655 145.467 C 88.491 146.548 84.782 146.318 82.43 146.256 C 80.504 146.205 76.7 146.342 74.949 145.231 C 75.155 145.141 74.681 134.656 74.436 129.608 C 74.328 127.379 74.324 125.15 74.298 122.919 C 74.281 121.522 74.293 119.272 74.293 119.272 C 75.808 118.348 79.206 118.124 80.93 117.964 C 83.106 117.763 85.304 117.99 87.479 118.169 C 90.367 118.407 92.458 119.166 92.458 119.166 C 92.406 120.713 92.421 123.895 92.338 125.445 Z " fill="rgb(1,1,1)"/><path d=" M 73.53 136.393 C 74.834 135.15 76.553 134.247 78.123 133.367 L 78.25 133.295 C 79.101 132.816 79.922 132.302 80.831 131.937 C 81.714 131.583 82.608 131.257 83.512 130.96 L 83.599 130.933 C 84.598 130.625 87.199 130.088 86.761 128.606 C 86.471 127.625 84.814 127.806 84.071 127.956 C 80.668 128.641 77.449 130.286 74.436 131.953 L 73.764 132.326 C 72.531 133.011 71.299 133.708 70.106 134.456 C 68.753 135.303 67.777 136.377 66.953 137.736 C 66.041 139.243 65.171 140.769 64.205 142.243 C 63.596 143.173 62.974 144.091 62.344 145.004 C 62.216 145.274 62.128 145.558 62.1 145.906 C 62.053 146.493 62.204 146.998 62.39 147.551 C 62.861 148.948 63.212 150.386 63.723 151.769 C 64.196 153.051 64.754 154.365 65.57 155.471 C 65.893 155.91 66.281 156.325 66.695 156.681 L 67.029 156.962 C 67.175 157.085 67.337 157.218 67.502 157.34 C 67.646 157.059 67.895 156.842 68.232 156.809 C 68.948 156.739 69.492 156.6 70.142 156.29 C 70.645 156.05 71.14 155.79 71.638 155.54 C 72.616 155.05 73.61 154.581 74.57 154.054 L 74.734 153.962 C 75.447 153.561 76.148 153.101 76.677 152.468 C 77.291 151.733 77.338 150.857 77.729 150.022 C 78.565 148.239 81.099 147.72 82.718 146.928 C 84.094 146.256 85.371 145.389 86.147 144.116 C 86.147 144.116 87.03 142.887 87.028 142.962 C 87.174 142.721 86.91 142.742 86.035 143.044 C 83.737 143.837 81.406 144.595 79.03 145.115 C 78.375 145.259 78.165 144.269 78.809 144.102 C 81.304 143.458 83.778 142.778 86.208 141.91 C 87.465 141.461 88.706 140.972 89.933 140.448 C 90.407 140.245 90.877 140.038 91.345 139.824 L 91.697 139.663 C 91.917 139.562 92.554 139.346 92.826 139.063 C 92.865 138.941 92.905 138.82 92.943 138.699 C 92.831 138.328 91.881 138.588 91.656 138.637 C 91.019 138.775 90.381 138.919 89.743 139.06 C 88.467 139.342 87.189 139.609 85.91 139.878 C 83.356 140.413 80.777 140.882 78.253 141.547 C 77.64 141.708 77.099 140.787 77.653 140.393 C 80.1 138.652 83.041 137.748 85.846 136.765 C 87.321 136.248 88.79 135.703 90.19 135.003 L 90.536 134.83 C 91.414 134.388 92.378 133.873 93.038 133.134 C 91.756 132.914 90.304 133.287 89.069 133.487 L 88.974 133.502 C 87.241 133.769 85.517 134.089 83.804 134.46 C 80.297 135.22 77.812 135.843 74.347 136.773 C 74.26 136.797 74.154 136.689 74.102 136.617 C 73.846 136.265 73.389 136.527 73.53 136.393 Z " fill="rgb(236,185,137)"/><path d=" M 94.688 132.571 C 94.722 132.387 94.497 132.242 94.281 132.148 C 92.866 131.532 91.242 131.869 89.767 132.125 L 89.132 132.233 C 87.402 132.531 85.681 132.881 83.972 133.282 C 80.302 134.143 76.727 135.319 73.301 136.889 C 73.219 136.926 73.268 137.061 73.355 137.037 C 76.819 136.108 80.298 135.219 83.804 134.46 C 85.517 134.089 87.242 133.769 88.974 133.501 L 89.069 133.486 C 90.305 133.287 91.756 132.914 93.038 133.133 C 92.379 133.873 91.415 134.387 90.536 134.83 L 90.19 135.002 C 88.791 135.703 87.322 136.248 85.847 136.765 C 83.042 137.748 80.1 138.652 77.653 140.392 C 77.099 140.786 77.64 141.708 78.253 141.547 C 80.777 140.882 83.356 140.413 85.911 139.877 C 87.189 139.609 88.468 139.342 89.744 139.059 C 90.381 138.919 91.019 138.775 91.657 138.636 C 91.882 138.588 92.831 138.328 92.944 138.699 C 92.905 138.82 92.866 138.941 92.826 139.063 C 92.555 139.345 91.917 139.562 91.697 139.663 L 91.346 139.824 C 90.878 140.038 90.407 140.245 89.933 140.447 C 88.706 140.972 87.465 141.461 86.209 141.91 C 83.779 142.778 81.305 143.457 78.809 144.102 C 78.165 144.268 78.376 145.259 79.031 145.115 C 81.406 144.595 83.738 143.837 86.035 143.044 C 86.91 142.741 87.174 142.721 87.028 142.962 C 87.03 142.887 86.147 144.115 86.147 144.115 C 85.371 145.39 84.094 146.256 82.718 146.928 C 81.099 147.72 78.566 148.239 77.729 150.021 C 77.338 150.856 77.291 151.733 76.677 152.468 C 76.148 153.101 75.447 153.561 74.734 153.962 L 74.57 154.054 C 73.611 154.581 72.617 155.05 71.639 155.54 C 71.14 155.79 70.646 156.05 70.143 156.29 C 69.493 156.599 68.948 156.739 68.232 156.809 C 67.895 156.842 67.646 157.058 67.503 157.339 C 67.337 157.217 67.175 157.084 67.03 156.962 L 66.696 156.681 C 66.281 156.325 65.894 155.909 65.571 155.471 C 64.754 154.365 64.197 153.051 63.723 151.769 C 63.213 150.386 62.862 148.947 62.39 147.551 C 62.204 146.998 62.054 146.493 62.1 145.905 C 62.129 145.557 62.216 145.274 62.345 145.003 C 62.974 144.09 63.597 143.172 64.206 142.243 C 65.171 140.769 66.041 139.243 66.954 137.736 C 67.777 136.377 68.753 135.303 70.106 134.455 C 71.299 133.707 72.532 133.011 73.764 132.326 L 74.437 131.953 C 77.449 130.286 80.668 128.641 84.072 127.955 C 84.814 127.806 86.472 127.625 86.762 128.606 C 87.2 130.088 84.598 130.625 83.6 130.932 L 83.512 130.96 C 82.609 131.256 81.714 131.583 80.832 131.937 C 79.923 132.301 79.101 132.816 78.251 133.295 L 78.123 133.366 C 76.553 134.246 74.835 135.149 73.53 136.392 C 73.39 136.527 73.55 136.735 73.72 136.662 C 75.548 135.88 77.214 134.768 79.09 134.069 C 80.903 133.393 82.731 132.707 84.583 132.144 C 86.065 131.693 87.737 131.119 88.189 129.445 C 88.551 128.101 87.68 126.902 86.406 126.529 C 85.033 126.127 83.596 126.467 82.257 126.852 L 82.021 126.92 C 81.661 127.026 77.053 128.823 76.576 129.051 C 74.787 129.906 73.05 130.867 71.325 131.842 C 70.776 132.152 67.444 134.343 66.934 134.94 C 65.79 136.275 64.954 137.907 64.177 139.504 L 63.728 140.429 C 63.12 141.679 62.55 142.946 61.994 144.218 C 61.464 144.329 61.002 144.629 60.634 145.033 C 60.442 144.896 60.2 144.829 59.96 144.89 C 59.155 145.093 58.656 145.598 58.043 146.13 L 57.387 146.698 C 56.95 147.077 56.512 147.456 56.074 147.833 C 54.823 148.909 53.562 149.973 52.309 151.047 C 51.776 151.504 51.097 152.085 50.326 152.734 C 48.196 154.528 45.338 156.863 42.723 158.696 C 42.778 156.24 42.828 153.784 42.864 151.327 C 42.889 149.642 43.835 138.512 43.779 136.829 C 43.723 135.123 43.686 133.406 43.316 131.74 C 43.286 131.608 43.112 131.632 43.072 131.74 C 42.943 132.083 42.766 132.977 42.567 134.188 L 42.571 134.162 C 42.571 134.162 40.34 132.863 39.789 133.06 C 39.238 133.256 40.664 133.681 41.579 134.162 C 42.493 134.644 42.493 134.644 42.493 134.644 L 42.507 134.561 C 41.727 139.431 40.643 148.603 40.605 148.949 C 40.557 149.37 40.509 149.788 40.46 150.202 L 40.396 150.746 C 40.06 153.647 39.81 156.568 39.625 159.481 C 39.625 159.483 39.625 159.486 39.625 159.488 C 39.594 159.969 39.572 160.451 39.543 160.932 C 38.968 161.245 38.392 161.558 37.813 161.861 L 37.714 161.913 C 35.715 162.963 33.806 164.112 32.307 165.734 C 31.795 166.288 32.086 166.86 32.589 166.424 C 34.034 165.167 35.662 164.078 37.42 163.322 L 39.459 162.433 L 40.16 162.126 C 40.16 162.146 40.16 162.166 40.159 162.186 C 40.489 162.025 40.834 161.854 41.184 161.679 L 41.729 161.441 C 42.018 161.304 42.339 161.149 42.673 160.987 C 42.673 160.964 42.673 160.94 42.674 160.917 C 43.157 160.664 43.615 160.418 44.012 160.193 C 45.676 159.256 48.139 157.392 50.326 155.639 C 51.287 154.869 52.194 154.12 52.957 153.481 C 54.355 152.31 55.725 151.108 57.09 149.898 C 57.77 149.292 58.45 148.686 59.128 148.079 C 59.317 147.909 59.509 147.748 59.696 147.585 C 59.718 148.438 59.918 149.321 60.125 150.161 L 60.249 150.659 C 60.533 151.805 60.9 152.955 61.373 154.036 C 62.158 155.829 63.31 157.481 64.806 158.751 C 64.898 158.829 64.993 158.908 65.089 158.986 C 64.858 159.255 62.804 163.52 57.493 169.651 C 56.827 170.419 56.112 171.216 55.341 172.039 C 45.98 182.027 40.154 185.976 39.526 186.49 C 39.35 186.596 39.185 186.694 39.017 186.784 C 38.49 187.063 37.905 187.279 36.657 187.551 C 34.893 187.936 33.239 187.502 32.725 187.247 C 32.106 186.942 31.527 186.604 30.98 186.181 C 29.865 185.322 28.887 184.28 28.071 183.136 C 26.406 180.805 25.044 178.224 23.795 175.645 L 23.582 175.202 C 18.448 163.095 21.892 147.105 23.673 140.06 C 26.879 127.38 31.255 113.888 40.856 104.531 C 43.262 102.187 45.981 100.14 48.943 98.552 C 50.458 97.74 52.032 97.059 53.647 96.473 L 53.784 96.423 C 55.382 95.837 57.017 95.148 58.71 94.952 C 58.827 94.939 58.831 94.757 58.71 94.765 C 57.193 94.884 55.697 94.845 54.194 95.121 C 52.674 95.4 51.18 95.888 49.756 96.487 C 46.935 97.675 44.318 99.251 41.913 101.143 C 36.743 105.211 32.825 110.626 29.839 116.446 C 26.622 122.716 24.364 129.463 22.458 136.232 C 20.489 143.222 15.93 157.956 19.077 169.794 C 19.548 171.568 20.382 173.226 21.143 174.895 C 22.634 178.163 24.397 181.371 26.531 184.267 C 27.527 185.62 28.606 186.945 29.964 187.95 C 30.599 188.42 31.345 188.912 32.102 189.157 C 32.565 189.306 35.032 190.1 38.255 189.13 C 38.254 189.131 38.25 189.133 38.25 189.133 C 39.549 189.008 40.682 188.344 41.298 187.84 C 41.328 187.818 41.356 187.793 41.385 187.768 C 41.4 187.755 41.42 187.74 41.435 187.727 C 44.428 185.344 49.345 181.344 50.459 180.228 C 53.273 177.413 56.574 174.4 60.236 169.651 C 62.262 167.024 64.398 163.868 66.624 159.914 C 66.987 160.039 67.368 160.096 67.767 160.038 C 68.527 159.926 69.348 159.324 69.399 158.534 C 69.597 158.307 69.781 158.099 70.058 157.931 C 70.296 157.786 70.545 157.655 70.79 157.526 C 71.366 157.225 71.957 156.948 72.539 156.659 L 72.78 156.541 C 73.664 156.107 74.557 155.687 75.414 155.206 C 76.253 154.737 77.077 154.188 77.715 153.462 C 78.309 152.788 78.579 152.062 78.848 151.243 L 78.932 150.986 C 79.292 149.878 80.43 149.503 81.392 149.027 L 81.71 148.87 C 82.607 148.423 83.499 147.957 84.321 147.382 C 85.347 146.663 87.199 144.75 87.887 142.597 C 89.375 142.247 94.556 139.407 94.085 138.156 C 93.528 136.673 82.601 139.52 81.901 139.704 C 82.619 139.514 93.952 136.446 94.688 132.571 Z " fill="rgb(1,1,1)"/><path d=" M 79.629 124.397 C 79.584 125.099 78.978 125.631 78.276 125.585 L 76.935 125.498 C 76.234 125.452 75.701 124.847 75.747 124.145 L 75.947 121.068 C 75.992 120.366 76.598 119.834 77.299 119.88 L 78.641 119.967 C 79.342 120.012 79.874 120.618 79.828 121.319 L 79.629 124.397 L 79.629 124.397 Z " fill="rgb(1,1,1)"/><path d=" M 153.547 201.053 C 152.639 201.053 151.838 200.396 151.686 199.471 C 151.604 198.97 141.378 148.852 144.503 100.216 C 148.381 39.839 155.581 19.4 157.434 13.68 C 150.991 11.302 125.715 3.156 81.897 3.156 C 55.119 3.156 12.961 6.622 3.832 7.4 C 4.036 13.372 4.087 33.943 6.917 61.572 C 11.118 102.585 10.686 194.704 10.698 195.711 C 10.711 196.753 9.877 197.609 8.834 197.622 C 8.826 197.622 8.818 197.622 8.81 197.622 C 7.778 197.622 6.936 196.793 6.922 195.758 C 6.91 194.753 4.752 95.483 3.152 61.855 C 1.577 28.751 0.007 5.952 0.001 5.725 C -0.027 4.727 0.727 3.88 1.721 3.792 C 2.217 3.747 36.605 -0.935 82.019 0.219 C 133.945 1.538 159.533 10.397 160.601 10.866 C 161.07 11.072 161.436 11.46 161.613 11.94 C 161.791 12.42 161.766 12.952 161.543 13.414 C 161.485 13.54 155.04 28.211 150.399 100.465 C 147.302 148.676 155.331 198.363 155.413 198.859 C 155.581 199.888 154.884 200.859 153.855 201.028 C 153.751 201.045 153.648 201.053 153.547 201.053 Z " fill="rgb(0,0,0)"/><path d=" M 12.084 266.422 C 19.561 261.154 14.489 261.284 28.479 240.586 C 42.469 219.887 57.379 208.246 57.379 208.246 C 57.379 208.246 104.668 177.934 104.072 211.673 C 103.451 246.784 104.4 254.757 96.254 266.027 C 88.109 277.296 79.381 279.034 66.44 281.722 C 53.5 284.408 30.015 283.568 26.415 286.276 C 22.815 288.984 12.084 266.422 12.084 266.422 Z " fill="rgb(236,185,137)"/><path d=" M 25.738 288.389 C 23.931 288.389 19.712 287.854 15.737 277.406 C 12.745 269.539 9.697 266.129 9.598 265.921 C 9.203 265.09 10.245 265.408 10.997 264.878 C 14.359 262.51 15.111 261.682 16.172 258.393 C 18.513 251.133 22.394 245.784 30.68 236.344 C 39.145 226.7 55.599 207.241 56.217 206.758 C 56.263 206.722 56.311 206.688 56.36 206.657 C 57.176 206.134 76.507 193.847 90.697 193.847 C 95.378 193.847 99.065 195.185 101.657 197.823 C 104.621 200.84 106.069 205.511 105.959 211.707 C 105.887 215.809 105.834 219.604 105.789 222.952 C 105.434 248.875 106.825 250.714 100.008 262.251 C 92.616 274.761 79.981 280.839 67.121 283.509 L 66.824 283.57 C 60.702 284.841 52.548 286.323 44.563 285.787 C 34.56 285.115 29.008 286.688 27.55 287.785 C 27.024 288.18 26.398 288.389 25.738 288.389 Z  M 14.471 267.007 C 15.335 268.751 16.933 271.893 18.748 275.067 C 22.997 282.499 25.808 285.914 26.415 286.276 C 28.927 284.773 34.203 282.604 44.345 282.017 C 51.745 281.588 60.134 281.102 66.056 279.873 L 66.353 279.811 C 78.828 277.221 87.07 275.51 94.724 264.921 C 101.567 255.453 101.662 248.557 102.013 222.901 C 102.059 219.549 102.111 215.749 102.184 211.639 C 102.275 206.494 101.191 202.736 98.964 200.469 C 97.109 198.58 94.327 197.622 90.697 197.622 C 78.024 197.622 59.806 208.948 58.474 209.787 C 57.376 210.664 43.212 222.159 30.044 241.643 C 23.242 251.706 21.067 256.646 19.628 259.914 C 18.223 263.103 17.43 264.708 14.471 267.007 Z " fill="rgb(0,0,0)"/><path d=" M 67.437 155.573 C 61.387 156.132 49.463 156.918 44.144 160.165 C 44.144 160.165 44.103 168.063 44.161 172.963 C 44.254 180.793 44.267 188.617 44.647 196.441 C 45.507 214.158 47.17 250.96 46.445 251.274 C 52.593 255.174 65.945 254.693 72.705 254.872 C 80.959 255.091 93.977 255.9 101.573 252.103 C 102.678 251.55 106.809 211.673 107.067 203.519 C 107.296 196.289 107.097 189.056 107.479 181.832 C 107.768 176.389 107.717 165.221 107.9 159.791 C 107.9 159.791 100.56 157.127 90.426 156.292 C 82.79 155.663 75.075 154.866 67.437 155.573 Z " fill="rgb(255,255,255)"/><path d=" M 95.793 153.032 C 82.859 151.972 69.529 151.135 56.661 152.065 C 47.88 152.701 39.131 150.707 38.462 160.717 C 37.638 173.027 38.909 192.76 39.683 205.047 C 40.618 219.891 42.378 234.675 44.645 249.371 C 44.716 249.824 44.94 250.201 45.249 250.51 C 43.89 251.11 43.172 252.54 44.906 253.805 C 50.578 257.942 59.273 258.192 65.971 258.758 C 75.597 259.571 85.433 259.491 95.01 258.146 C 97.993 257.727 98.931 258.014 101.634 256.632 C 104.628 255.101 109.119 234.065 111.604 209.952 C 112.391 202.318 112.667 197.343 112.669 189.677 C 112.669 183.643 113.2 165.745 113.2 159.703 C 113.199 154.734 106.45 153.905 95.793 153.032 Z  M 107.479 181.832 C 107.097 189.056 107.296 196.289 107.067 203.519 C 106.808 211.673 102.678 251.55 101.573 252.102 C 93.976 255.9 80.959 255.091 72.704 254.872 C 65.944 254.693 52.592 255.174 46.445 251.274 C 47.17 250.96 45.507 214.158 44.647 196.441 C 44.267 188.616 44.254 180.793 44.161 172.962 C 44.103 168.063 44.143 160.164 44.143 160.164 C 49.463 156.918 61.387 156.132 67.437 155.572 C 75.074 154.866 82.79 155.663 90.426 156.292 C 100.559 157.126 107.899 159.79 107.899 159.79 C 107.716 165.22 107.768 176.388 107.479 181.832 Z " fill="rgb(1,1,1)"/><path d=" M 63.583 199.165 C 68.639 199.165 72.737 195.067 72.737 190.011 C 72.737 184.955 68.639 180.856 63.583 180.856 C 58.527 180.856 54.429 184.955 54.429 190.011 C 54.429 195.067 58.527 199.165 63.583 199.165 Z " fill="rgb(196,196,195)"/><path d=" M 87.811 199.165 C 92.867 199.165 96.965 195.067 96.965 190.011 C 96.965 184.955 92.867 180.856 87.811 180.856 C 82.755 180.856 78.657 184.955 78.657 190.011 C 78.657 195.067 82.755 199.165 87.811 199.165 Z " fill="rgb(196,196,195)"/><path d=" M 63.583 222.449 C 68.639 222.449 72.737 218.351 72.737 213.295 C 72.737 208.239 68.639 204.14 63.583 204.14 C 58.527 204.14 54.429 208.239 54.429 213.295 C 54.429 218.351 58.527 222.449 63.583 222.449 Z " fill="rgb(196,196,195)"/><path d=" M 87.811 222.449 C 92.867 222.449 96.965 218.351 96.965 213.295 C 96.965 208.239 92.867 204.14 87.811 204.14 C 82.755 204.14 78.657 208.239 78.657 213.295 C 78.657 218.351 82.755 222.449 87.811 222.449 Z " fill="rgb(196,196,195)"/><path d=" M 39.739 235.925 C 39.739 235.925 65.891 220.514 69.889 225.701 C 73.888 230.888 61.978 238.419 55.535 244.42 C 49.092 250.421 50.189 249.046 50.094 252.21 C 50.094 252.21 48.468 261.338 41.817 266.335 C 35.166 271.333 32.18 267.584 32.18 267.584" fill="rgb(236,185,137)"/><path d=" M 35.452 269.539 C 32.317 269.539 30.794 268.902 30.704 268.759 C 30.198 267.963 28.425 264.164 33.657 266.407 C 33.67 266.413 33.646 266.391 33.622 266.364 C 33.705 266.456 36.724 269.68 41.325 265.501 C 49.9 257.713 49.507 253.545 48.211 252.005 C 48.217 251.667 48.208 251.385 48.2 251.133 C 48.122 248.709 48.616 248.252 52.464 244.693 C 52.983 244.213 53.574 243.666 54.248 243.038 C 55.685 241.7 57.332 240.332 59.075 238.886 C 63.86 234.913 70.414 229.473 68.394 226.853 C 68.378 226.832 66.463 224.955 54.097 230.585 C 47.23 233.712 40.762 237.513 40.698 237.551 C 39.8 238.081 37.791 239.394 37.471 238.402 C 37.338 237.989 38.303 235.47 39.202 234.941 C 39.472 234.781 46.314 232.25 53.361 229.041 C 64.038 224.18 70.786 222.959 73.105 226.052 C 74.049 227.31 72.358 231.204 69.133 234.311 C 66.668 236.686 64.627 239.184 61.486 241.791 C 59.786 243.202 58.179 244.536 56.822 245.801 C 56.144 246.432 55.549 246.982 55.028 247.464 C 53.369 248.998 51.493 250.176 51.299 250.542 C 52.037 254.2 49.244 264.819 44.13 267.389 C 40.742 269.091 37.355 269.539 35.452 269.539 Z " fill="rgb(0,0,0)"/><circle vector-effect="non-scaling-stroke" cx="63.5" cy="190.5" r="9.5" fill="rgb(85,175,138)"/><path d=" M 68.412 194.632 L 63.662 184.182 L 58.912 194.632 L 63.662 193.682 L 68.412 194.632 L 68.412 194.632 Z " fill-rule="evenodd" fill="rgb(241,245,241)"/><circle vector-effect="non-scaling-stroke" cx="63.5" cy="190.5" r="9.5" fill="rgb(196,196,196)"/><path d=" M 68.412 194.632 L 63.662 184.182 L 58.912 194.632 L 63.662 193.682 L 68.412 194.632 L 68.412 194.632 Z " fill-rule="evenodd" fill="rgb(241,245,241)"/><path d=" M 63.5 223 C 58.257 223 54 218.743 54 213.5 C 54 208.257 58.257 204 63.5 204 C 68.743 204 73 208.257 73 213.5 C 73 218.743 68.743 223 63.5 223 Z " fill="rgb(196,196,196)"/><path d=" M 67.633 208.588 L 57.183 213.338 L 67.633 218.088 L 66.683 213.338 L 67.633 208.588 L 67.633 208.588 Z " fill-rule="evenodd" fill="rgb(241,245,241)"/><path d=" M 88.5 181 C 93.743 181 98 185.257 98 190.5 C 98 195.743 93.743 200 88.5 200 C 83.257 200 79 195.743 79 190.5 C 79 185.257 83.257 181 88.5 181 Z " fill="rgb(196,196,196)"/><path d=" M 84.368 195.412 L 94.818 190.662 L 84.368 185.912 L 85.318 190.662 L 84.368 195.412 L 84.368 195.412 Z " fill-rule="evenodd" fill="rgb(241,245,241)"/><path d=" M 98 213.5 C 98 218.743 93.743 223 88.5 223 C 83.257 223 79 218.743 79 213.5 C 79 208.257 83.257 204 88.5 204 C 93.743 204 98 208.257 98 213.5 Z " fill="rgb(85,175,138)"/><path d=" M 83.588 209.368 L 88.338 219.818 L 93.088 209.368 L 88.338 210.318 L 83.588 209.368 L 83.588 209.368 Z " fill-rule="evenodd" fill="rgb(241,245,241)"/><circle vector-effect="non-scaling-stroke" cx="100" cy="250" r="12" fill="rgb(242,49,47)" fill-opacity="0.8"/></g></svg>