<svg width="162" height="289" viewBox="0 0 162 289" fill="none" xmlns="http://www.w3.org/2000/svg">
<path d="M154.571 206C154.571 206 145.522 151.391 148.669 101.305C153.432 25.5224 160 11.5822 160 11.5822C160 11.5822 134.191 0 82.032 0C51.5771 0 2 4.5042 2 4.5042C2 4.5042 2.62948 27.6686 5.14741 61.8053C7.66534 95.9419 8.9243 198.842 8.9243 198.842C8.9243 198.842 28.837 204.15 35.4818 204.072C128.894 202.971 154.571 206 154.571 206Z" fill="#E6ECF6"/>
<path d="M99.0377 99.0972C98.3776 97.5973 97.6932 95.9979 96.6851 95.1613C95.148 93.8851 92.8693 94.3419 90.046 94.7526C89.0866 82.2704 89.6249 77.6088 82.9682 77.0985C82.5277 76.949 81.9915 85.4666 81.5529 85.3429C77.8913 85.191 70.8715 82.788 67.505 83.1158C64.8761 84.3458 66.1955 89.1644 65.3251 92.9056C63.2843 92.9056 61.7428 93.342 60.3927 93.9606C62.3973 101.125 66.9553 113.938 74.5441 117.064C82.4582 120.323 93.3469 108.103 99.0377 99.0972Z" fill="#ECB989"/>
<path d="M62.9678 91.2508C64.1091 90.0601 65.8991 89.3487 67.5941 89.3887L67.6734 89.3915L68.2492 89.4173L67.8644 91.3036L67.8446 91.393L67.7665 91.7206L67.6621 92.1494L67.6246 92.3071L67.5859 92.482C67.5796 92.5103 67.5737 92.5383 67.5674 92.566L67.5507 92.6488L67.3868 93.4502L67.417 93.5219L67.4085 93.7038C67.3833 94.3624 67.5252 94.7242 67.8373 94.84L67.8625 94.8488L68.0406 94.9061L68.1857 95.222C68.5205 95.9438 68.8329 96.5744 69.1535 97.1684C70.0884 98.9006 71.2044 100.632 72.4904 102.372C73.7122 104.026 74.9856 105.604 76.3093 107.103C76.9043 107.777 77.533 108.453 78.2022 109.141L78.7781 109.731L78.9612 109.917L79.0842 110.04L79.2384 110.191L79.4596 110.402L79.6201 110.56L79.6723 110.609C79.7374 110.67 79.7884 110.711 79.834 110.741L79.8513 110.751L79.9017 110.781L82.5718 113.59L83.5151 114.108L83.9632 114.356L84.0535 114.176L84.072 114.118L85.0645 111.938L85.6711 110.603C86.9149 107.856 87.8821 105.672 88.7673 103.591L88.8774 103.331L89.2037 102.557L89.3764 102.144C90.1681 100.249 90.7524 98.7851 91.2753 97.3641L91.3496 97.1609L91.4597 96.8572L91.6233 96.3994L91.6529 96.3211C91.7954 95.9576 91.4465 94.6358 91.1023 93.9118L91.0825 93.8712L90.994 93.6922L90.8968 93.5024C90.6693 93.0594 90.5048 92.5667 90.3663 91.9707C90.3443 91.8741 90.3226 91.7775 90.3031 91.679L90.2741 91.5315L90.2555 91.4345L90.2304 91.2989L90.1942 91.1045L90.9629 90.9761L91.3845 90.9072L91.5689 90.8782C91.8074 90.8414 92.0195 90.8112 92.219 90.786L92.2932 90.7766L92.4273 90.7609L92.4323 90.7873L92.7064 90.8144L92.9103 90.8354C93.9137 90.9415 94.6874 91.0585 95.2374 91.1882L95.2915 91.2011L95.39 91.2259L95.435 91.2373C95.9353 91.3722 96.3201 91.6633 96.6247 92.0922C96.8343 92.3864 96.9696 92.668 97.1845 93.2019L97.2612 93.3945L97.517 94.0266C97.5473 94.1037 97.5932 94.2267 97.6558 94.396L97.8726 94.9866L98.4852 95.5911L101.905 96.0948C106.834 96.3985 140.292 109.352 138.947 182.397L139.003 183.183L139.118 184.892L139.186 185.866L139.194 185.997L139.221 186.505L139.229 186.624C139.239 186.776 139.251 186.905 139.265 187.024L139.277 187.112L139.29 187.197C139.328 187.43 139.403 187.638 139.527 187.87L139.559 187.929L139.772 188.31L139.386 188.513C137.374 189.573 120.826 190.04 115.391 190.065L115.226 190.065H114.886C112.246 190.064 109.447 189.962 106.527 189.787L105.866 189.747L105.315 189.712C105.077 189.697 104.846 189.681 104.607 189.665L104.239 189.638L102.703 189.526C95.7959 188.864 88.552 188.876 80.5703 189.473C60.6995 190.751 45.6532 189.032 34.2465 188.642C31.4282 188.546 19.8198 171.022 19.89 161.982C20.7307 154.592 22.0183 147.425 23.7696 140.499L23.9461 139.807C25.8397 132.405 27.6653 126.698 29.9865 121.421C32.9382 114.709 36.5375 109.185 41.0694 104.769C43.5608 102.34 46.3197 100.291 49.2522 98.7193C50.6005 97.9963 52.0337 97.3547 53.5708 96.7776L53.7914 96.6958L54.1466 96.5659L54.4194 96.4652L55.2982 96.1367C55.4832 96.0675 55.6843 95.99 55.9218 95.8963L56.0688 95.8384L57.6427 95.2103L57.9045 95.1078L58.1946 94.9945L58.4085 94.9127C58.7575 94.7793 59.074 94.6632 59.3673 94.5606L59.5413 94.5011L59.6986 94.4483L60.3704 94.2157L60.3575 94.8265C60.349 95.2327 60.4534 95.5401 60.6857 95.7607L60.6935 95.7673L60.7014 95.7739L60.7086 95.7786L60.7492 95.7773L60.9078 95.7767C60.9245 95.7676 60.9399 95.7569 60.9537 95.7446C61.18 95.553 61.2851 95.2953 61.3864 94.7053L61.4134 94.5414L61.4606 94.2337L61.4798 94.1172C61.5475 93.7079 61.6063 93.4817 61.7221 93.223C61.8886 92.8492 62.1082 92.4848 62.3668 92.1504L62.4276 92.0736L62.6692 91.7832L62.706 91.7372C62.791 91.6284 62.8344 91.5519 62.8523 91.4814L62.8567 91.4625L62.8807 91.3401L62.9678 91.2508Z" fill="#55AF8A"/>
<path d="M46.5998 61.3479C46.1272 63.0433 45.676 64.7443 45.2465 66.4503C44.5152 69.3627 43.3973 72.5637 44.834 75.4377C45.4589 76.7321 46.4821 77.818 47.5041 78.8095C59.159 90.8505 74.0263 93.8705 85.5768 79.8613C88.2598 75.6746 89.0681 79.2751 92.4597 78.475C94.9228 77.7022 95.6365 74.8021 95.2472 72.5407C94.9914 71.0527 94.3684 69.6629 94.0066 68.202C92.1121 60.0632 97.2698 51.7146 94.3168 43.674C95.1613 43.1646 95.6431 41.9447 94.7721 41.002C93.7649 39.9118 92.6803 38.8992 91.5199 37.9745C86.6582 34.1011 80.8268 31.6921 74.795 30.3218C69.326 29.3206 62.0966 27.1234 57.9089 32.0427C55.8901 34.7622 57.4442 35.8905 56.0585 38.9486C53.3453 45.5396 48.5094 54.4804 46.5998 61.3479Z" fill="#ECB989"/>
<path d="M100.666 39.0827C101.367 39.0739 102.091 39.2265 102.657 39.4883C103.583 39.9169 104.322 40.7114 104.691 41.6616C105.254 43.1049 104.811 44.6332 103.811 45.675C103.894 45.7898 103.966 45.9154 104.027 46.0459C104.51 47.084 104.143 48.1594 103.374 48.947C102.719 49.6188 100.92 50.2585 100.899 51.3207C100.889 51.8037 101.177 52.3361 101.303 52.7974C101.461 53.3713 101.569 53.955 101.645 54.5453C102.243 59.1215 100.413 63.3759 98.3257 67.3232L98.1381 67.6763C97.7228 68.4679 97.2832 69.4084 96.726 70.235C98.1891 74.0624 96.1747 79.3492 91.8901 80.1462C90.8367 80.3431 89.7307 80.3167 88.7024 80.0046C88.1659 79.84 87.6206 79.615 87.1562 79.2994C86.9246 79.1418 86.7028 78.9606 86.5527 78.7255C85.4011 81.12 83.6919 83.1523 81.7408 84.9716C80.642 85.9943 79.4209 86.9826 78.1138 87.7264C76.7328 88.5105 74.5661 89.0574 73.5894 87.3759C73.2562 86.8038 73.5907 86.1428 74.1788 85.9423C75.2832 85.5622 76.3757 85.4411 77.4162 84.8609C78.5741 84.2152 79.7012 83.4852 80.7845 82.7225C82.3295 81.6357 83.7665 80.3837 85.183 79.1201L86.3391 78.0868C86.3384 78.0821 86.3378 78.0776 86.3372 78.0729L86.3366 78.0446C86.3384 78.0314 86.3391 78.0182 86.341 78.0056L86.3551 77.8719C86.3532 77.8609 86.3507 77.8467 86.3479 77.8297L86.335 77.746C86.2132 77.1951 86.6754 76.7228 87.2286 76.8458C87.4045 76.893 87.4303 76.8939 87.3066 76.8483L87.2556 76.8301C87.4724 76.7709 87.6896 76.77 87.9082 76.8285C88.164 76.8971 88.384 77.05 88.6124 77.1755C88.9491 77.3615 89.2534 77.5103 89.6253 77.6088C90.3892 77.8108 91.1837 77.7869 91.9367 77.5525C93.6758 77.011 94.6449 75.1108 94.846 73.3972C94.9032 72.9117 94.9092 72.4404 94.8595 71.987C94.6163 72.1024 94.356 72.1868 94.0773 72.2368C94.0354 72.245 94.0194 72.1861 94.0593 72.172C94.3431 72.0807 94.6008 71.9498 94.8343 71.7894C94.6685 70.6261 94.1424 69.5789 93.2309 68.6995C92.6557 68.1441 91.9402 67.7618 91.1831 67.5866C91.1746 67.608 91.1646 67.6287 91.1542 67.6492C90.9575 68.056 90.697 68.2178 90.332 68.3984L90.2017 68.4616C89.7058 68.6986 89.1977 68.529 88.9592 68.1168L88.9481 68.1256C88.8714 67.995 88.8088 67.8748 88.7572 67.7603C88.5753 67.8333 88.3975 67.9226 88.2245 68.0271C88.16 68.0655 88.0929 67.9758 88.1445 67.922C88.3025 67.7574 88.4721 67.6073 88.6508 67.4746C88.5548 67.1379 88.5703 66.8129 88.6895 66.3632C88.8578 65.7298 89.052 65.1008 89.237 64.4722C89.5941 63.2564 89.9843 62.05 90.3597 60.8392C90.6768 59.8153 91.1771 58.7087 91.298 57.6386C91.3681 57.0156 91.0447 56.7777 90.5856 56.4992L89.9893 56.1387C88.5888 55.2853 87.1987 54.314 87.3516 52.4242C87.5162 50.4054 89.226 49.0326 89.8418 47.1784C90.382 45.5541 90.3266 43.7373 89.7565 42.1207C88.7855 42.1134 87.8145 42.1216 86.8428 42.0596C85.4971 41.9747 84.1548 41.8617 82.8137 41.7258C80.1792 41.4586 77.5587 41.1075 74.9553 40.6141C69.7378 39.6242 64.6364 38.0516 59.7672 35.9268C59.0746 35.625 58.3893 35.3047 57.7182 34.9564C57.6898 35.0794 57.6622 35.2043 57.6357 35.3293C57.4913 36.0278 57.3274 36.7162 57.1446 37.4047C57.1194 37.5903 57.0615 37.7835 56.9718 37.9871L56.8667 38.2247C56.7937 38.3899 56.683 38.5296 56.5448 38.6406C55.2806 42.3837 53.7536 46.0343 52.2511 49.6902L51.8921 50.5649C50.0989 54.9386 48.335 59.3258 46.6566 63.745C45.8423 65.8865 44.7467 68.1592 44.6533 70.4823C44.5765 72.3658 45.3386 74.0504 46.4521 75.5321C49.0678 79.0185 52.7605 81.8462 56.5222 83.9817C58.5366 85.1255 60.7275 86.3143 62.9829 86.8907C63.7903 87.0965 64.671 87.2283 65.5007 87.0782C66.21 86.9511 66.7477 86.5238 67.2621 86.0468L67.3616 85.954C67.7923 85.5484 68.6626 85.8108 68.6158 86.4722C68.4786 88.4312 66.4868 89.1395 64.7632 89.1593C62.8017 89.182 60.9647 88.4347 59.1955 87.6581L58.8899 87.5235C54.3102 85.5006 50.1911 82.6816 46.4464 79.375C44.7882 77.9118 43.3534 76.1542 42.5077 74.0951C41.5656 71.7988 41.7198 69.4219 42.48 67.0926C43.3207 64.5266 44.4299 62.0255 45.4506 59.5284L45.7671 58.7562C46.7174 56.441 47.6814 54.1309 48.6808 51.8364C50.5957 47.4408 52.5752 43.0332 55.0059 38.8946C54.9788 38.8848 54.9524 38.8747 54.926 38.8634C54.1787 38.5365 53.8788 37.8175 54.0182 37.0312L54.2787 35.5552L54.2092 35.541C51.91 35.0747 49.0464 34.0071 48.632 31.3798C48.487 30.4645 48.6386 29.5318 49.0285 28.7565C47.6242 27.9602 46.4417 26.767 45.6652 25.3476C45.2621 24.6104 45.5292 23.7734 46.2092 23.3184C46.6129 23.0466 47.0279 22.8169 47.4511 22.6249C46.5594 22.0101 45.8115 21.1052 45.5434 20.0508C45.1973 18.6937 45.8445 17.3193 47.0257 16.6126C48.0411 16.0041 49.2761 15.9059 50.4309 15.7822L50.8409 15.7379C55.5162 15.2454 60.2385 15.4364 64.8777 16.1787C74.2766 17.6808 83.3971 21.6744 90.7596 27.732C94.6565 30.9367 97.9862 34.8038 100.666 39.0827ZM93.1679 73.137C92.2683 72.717 91.1013 72.6053 90.1208 72.6553C89.0287 72.7125 88.305 73.2525 87.3334 73.6423C86.2664 74.0703 85.3803 72.4394 86.2236 71.7154C87.2912 70.7988 89.0082 70.679 90.3436 70.9162C91.6724 71.1535 92.6063 71.8768 93.3334 72.9746C93.4058 73.0816 93.267 73.1823 93.1679 73.137Z" fill="#010101"/>
<path d="M57.5701 76.6043C56.5745 76.7299 55.55 76.5924 54.6253 76.1534C53.7864 75.7548 52.9727 75.0424 52.4441 74.185C51.9684 73.4138 51.7251 72.528 51.8793 71.6505C51.9032 71.5155 51.9696 71.4101 52.058 71.3343C52.1502 71.2543 52.2695 71.2075 52.3913 71.1983C52.5171 71.1892 52.6433 71.2207 52.744 71.2877C52.8355 71.3478 52.9085 71.4359 52.9472 71.5523C53.0202 71.6898 53.0942 71.8245 53.1684 71.9563C53.7713 73.005 54.3846 73.8225 55.4773 74.2514C56.0513 74.4767 56.6529 74.5151 57.2299 74.4059C57.8284 74.2923 58.4008 74.0204 58.8869 73.6328L58.9454 73.5859C59.2264 73.348 59.52 73.276 59.7874 73.3046C60.0958 73.3373 60.3774 73.5104 60.5722 73.7602C60.7669 74.0091 60.872 74.331 60.8409 74.6463C60.8126 74.9269 60.6798 75.2063 60.396 75.4288C59.581 76.0691 58.5918 76.4756 57.5701 76.6043ZM54.9645 62.6726C50.7991 66.3017 58.0845 72.8499 61.349 64.8392C61.7093 63.8383 60.0879 63.1024 59.6235 64.0548C59.1852 65.1854 58.3649 67.5943 56.4672 67.083C54.6438 66.3027 55.2492 64.1577 55.8257 63.0451C55.9606 62.7273 55.4235 62.273 54.9645 62.6726ZM72.4603 62.8953C72.3533 63.7845 70.9456 64.2395 70.3848 63.2635C69.7987 62.2418 69.5639 61.1984 69.7628 60.0641C69.9852 58.797 72.2221 59.0877 72.3407 60.3684C72.4147 61.1648 72.6028 61.7038 72.4603 62.8953ZM56.0296 55.6987C57.0037 56.5935 56.6368 58.4068 55.871 59.3156C55.4009 59.8722 54.361 59.712 54.0397 59.0796C53.4472 57.9144 52.9507 55.5209 54.6363 55.0288C55.1759 54.8714 55.6262 55.1502 55.938 55.5583C55.9742 55.6055 56.0031 55.6521 56.0296 55.6987ZM73.9885 54.39C75.2078 55.4803 76.3018 57.0252 76.6464 58.6428C76.6838 58.8181 76.4589 58.9839 76.3239 58.8294C75.2921 57.6482 74.2978 56.558 72.9376 55.7424C72.3174 55.3705 71.6784 55.0756 70.9918 54.8491C70.1596 54.5738 69.3201 54.586 68.7672 53.8259C68.4532 53.3938 68.7248 52.791 69.114 52.5317C69.8484 52.043 70.8027 52.4401 71.5604 52.791L71.8061 52.9046C72.5997 53.2724 73.3385 53.8082 73.9885 54.39ZM58.2758 49.6234C58.4546 49.7587 58.5911 49.9472 58.6581 50.185C58.7472 50.5016 58.7079 50.7366 58.5512 51.0189C58.4307 51.2369 58.256 51.3791 58.0546 51.4609C57.8432 51.5478 57.6 51.5663 57.3608 51.5317C56.2596 51.3706 55.1454 51.3244 54.0337 51.3835C53.5133 51.4115 53.0045 51.5022 52.4973 51.6016L52.0602 51.6881C51.6572 51.7671 51.2447 51.8363 50.7469 51.8335C50.7076 51.8335 50.6689 51.8332 50.6308 51.8316C50.5134 51.7567 50.5043 51.7016 50.4864 51.6589L50.4791 51.6419C50.4571 51.5912 50.4332 51.5169 50.5515 51.2294C52.1298 49.3968 55.1526 49.2483 57.4143 49.3742L57.6226 49.3865C57.8659 49.4031 58.0934 49.4853 58.2758 49.6234Z" fill="#010101"/>
<path d="M66.2248 79.8437C66.1565 80.4333 65.9961 81.0051 65.7233 81.5418C62.9128 82.5704 59.7738 82.6658 56.9574 81.5481C56.3533 80.1819 55.864 77.997 54.4002 77.3677C52.7606 76.6632 51.3189 78.2374 49.7592 78.649C49.6726 78.6716 49.5785 78.6917 49.4826 78.7097C48.6346 78.4051 47.8184 77.9693 47.2215 77.2783C46.6101 76.5707 46.511 75.8077 46.5947 74.965C46.674 74.8212 46.7558 74.679 46.8398 74.539C47.4329 73.5507 48.1488 72.6243 49.0351 71.8843C49.7799 71.2591 50.6729 70.7956 51.6452 70.6845C52.7839 70.5543 53.9799 70.7821 55.1013 70.9693C57.2412 71.3252 59.3941 71.8843 61.3034 72.944C63.903 74.3898 65.812 76.9483 66.2248 79.8437ZM45.2424 72.1086C45.0507 72.3858 43.3415 75.4839 43.3513 77.5241C43.3604 79.4881 43.7981 81.4654 44.5319 83.2951C45.2062 84.9756 46.2181 86.4929 47.684 87.5756C49.5977 88.9877 52.2109 89.4349 54.5006 89.8162C57.3595 90.2916 60.2644 90.4052 63.1548 90.2183C64.5996 90.1265 66.0388 89.9591 67.4702 89.7445C68.877 89.5349 70.3606 89.3549 71.7315 88.9622C72.9102 88.624 74.0329 87.8959 75.085 87.2855C76.7426 86.3245 78.387 85.2994 79.9093 84.132C81.3302 83.043 82.4586 81.9839 83.1904 80.3207C84.4154 77.5329 84.7527 74.336 85.1403 71.3406C85.1539 71.2471 85.0242 71.1609 84.9695 71.2462C84.9855 71.1961 85.0022 71.1464 85.0179 71.0961C85.0856 70.8815 84.7769 70.7685 84.6665 70.9485C83.3084 73.1366 81.553 74.9886 79.3728 76.3671C76.3713 78.2629 72.9297 79.2156 69.5554 80.26C69.483 80.1426 69.3826 80.0457 69.2646 79.9881C69.3505 77.9986 68.4381 75.8829 67.3915 74.3294C64.3268 69.784 58.3246 66.5746 52.8087 67.3678C50.4772 67.7038 48.2941 68.801 46.6189 70.463C46.1117 70.9649 45.6498 71.5187 45.2424 72.1086Z" fill="#010101"/>
<path d="M68.2294 86.1811C68.2508 86.1645 68.2848 86.1575 68.3049 86.1811C68.6403 86.5726 68.5724 87.1713 68.5834 87.6679L68.5846 87.7138C68.6086 88.4394 68.6136 89.1624 68.6111 89.8883L68.6038 92.1991C68.6026 92.5169 68.5768 92.8476 68.5934 93.1667L68.6013 93.2907C68.7785 93.4716 68.86 93.7324 68.8005 93.9948C68.7895 94.3309 68.6136 94.6119 68.3575 94.7881L68.9068 95.5681L69.4575 96.3478C70.5915 97.9569 71.7387 99.5516 72.934 101.116C74.1527 102.712 75.4525 104.247 76.8131 105.723C77.4779 106.445 78.1541 107.156 78.846 107.852C79.127 108.134 79.4152 108.41 79.6997 108.688L79.9835 108.969C80.1505 109.136 80.3614 109.302 80.4727 109.514C80.5379 109.639 80.5533 109.948 80.5766 109.999C80.7861 110.461 80.4284 111.196 79.8331 110.966L79.8601 110.948C79.9684 110.872 79.8988 110.871 79.6518 110.944C79.4958 110.943 79.3494 110.908 79.2129 110.837L79.1723 110.814C78.98 110.716 78.8079 110.528 78.6519 110.376L78.6132 110.339C78.2554 110.004 77.9143 109.649 77.572 109.298C76.8568 108.568 76.158 107.822 75.4808 107.055C74.1313 105.527 72.8513 103.936 71.6393 102.296C70.4046 100.626 69.2567 98.8694 68.2697 97.0416C67.8956 96.3478 67.552 95.6408 67.2231 94.9253C66.5822 94.7198 66.4334 94.0383 66.4784 93.2702C66.2418 92.7196 66.0284 92.1579 65.9032 91.5837C65.8859 91.505 65.9869 91.4311 66.0476 91.4994C66.2521 91.7322 66.4422 91.9801 66.6247 92.2344C66.7348 91.6963 66.8742 91.2008 66.9393 90.8848L67.2231 89.4913C65.6228 89.4076 63.8683 90.0655 62.7652 91.2168C62.706 91.5167 62.4751 91.7313 62.2501 92.011C61.9933 92.3319 61.769 92.6909 61.6016 93.0669C61.2309 93.9001 61.4399 95.1285 60.7203 95.7399C60.6454 95.8035 60.5617 95.8478 60.4752 95.8752C60.8169 97.5498 60.6621 99.3955 60.6539 101.094V101.244C60.6558 103.146 60.5925 105.049 60.5186 106.948L60.4437 108.829C60.3471 111.337 60.2838 113.846 60.528 116.34C61.6403 115.354 62.7907 114.414 63.9807 113.518C64.7635 112.929 65.5618 112.36 66.3742 111.813L67.0344 111.372C67.8254 110.842 68.6359 110.296 69.5025 109.916C70.6358 109.419 71.7129 109.59 72.8069 110.099C73.8966 110.607 74.9535 111.196 76.0217 111.746C77.1088 112.306 78.1978 112.861 79.2862 113.417C80.0071 113.785 81.064 114.118 81.5926 114.796C81.6263 114.646 81.6656 114.496 81.7112 114.347C81.659 114.12 81.6791 113.874 81.8072 113.64C83.5837 110.375 85.2284 107.031 86.8608 103.692C87.6867 102.002 88.4727 100.292 89.3006 98.6035L90.1058 96.9585C90.2404 96.6845 90.3748 96.4107 90.5107 96.1373C90.7137 95.7279 90.9248 95.3227 91.1309 94.9143C91.2168 94.7418 91.3263 94.5703 91.4106 94.3963L91.4506 94.3092C91.4525 94.3045 91.6479 93.6912 91.4972 93.75L91.4843 93.7563C91.4068 93.8001 91.3455 93.7032 91.3952 93.6415C91.6085 93.3781 91.9053 93.6113 92.0264 93.8555C92.3612 94.5263 91.7479 95.5794 91.5119 96.2219L91.499 96.2578C90.7665 98.3314 89.9368 100.366 89.0876 102.393C87.4583 106.28 85.7076 110.108 83.9616 113.942L83.9408 114.008C84.3134 113.722 84.7108 113.464 85.0512 113.211C85.9102 112.575 86.7941 111.97 87.6767 111.367C89.2955 110.26 90.9585 109.227 92.6485 108.236L92.9864 108.038C93.8309 107.546 94.6673 107.147 95.6688 107.294C96.5998 107.432 97.4658 107.932 98.3065 108.338L98.3937 108.38L100.992 109.615C100.714 108.507 100.414 107.405 100.1 106.306C99.4877 104.163 98.814 102.039 98.084 99.9336C97.4019 97.9664 96.6643 96.0203 95.8846 94.0902L95.6499 93.5109C95.3315 92.7161 95.0156 91.8492 94.1069 91.6041C93.1985 91.3597 92.1563 91.7224 91.3266 91.2045C91.2511 91.1576 91.2602 91.0327 91.3518 91.0101L91.8637 90.8811C92.8256 90.6416 93.9533 90.4009 94.8627 90.6338C95.8525 90.8874 96.6713 91.718 97.1511 92.5818C97.6851 93.5424 98.0614 94.6175 98.467 95.6417L98.5309 95.8035C98.9962 96.9626 99.4433 98.129 99.8719 99.3024C100.727 101.648 101.506 104.022 102.212 106.418C102.551 107.572 102.874 108.732 103.183 109.895C103.272 110.23 103.419 110.635 103.54 111.058C103.678 111.193 103.809 111.343 103.931 111.515C104.135 111.799 103.989 112.133 103.736 112.303C103.727 112.594 103.662 112.868 103.507 113.102C102.904 114.018 101.308 113.782 101.373 112.551C101.383 112.362 101.456 112.182 101.568 112.03L101.564 112.006L101.551 111.96C101.275 111.828 100.996 111.68 100.704 111.535L97.9761 110.187C97.1864 109.797 96.3107 109.194 95.4325 109.045C94.6131 108.906 93.7491 109.516 93.0455 109.884L92.9999 109.908C91.2989 110.78 89.6108 111.681 87.9287 112.589C87.1078 113.032 86.2969 113.494 85.4798 113.943C84.7957 114.318 84.0576 114.857 83.2889 115.069C82.9607 115.324 82.5712 115.29 82.2578 115.097C82.4009 115.984 82.3918 116.894 82.4359 117.801C82.495 119.014 82.5041 120.23 82.523 121.444L82.5309 121.899C82.5825 124.584 82.6102 127.268 82.6206 129.953C82.6567 139.514 82.551 149.077 82.5265 158.637C82.5142 163.441 82.4189 168.248 82.2943 173.05C82.2414 175.085 82.1306 177.117 82.0111 179.149L81.9453 180.257C81.8066 182.595 81.7241 184.959 81.2915 187.265C81.2348 187.566 80.726 187.573 80.6757 187.265C80.2774 184.793 80.2553 182.268 80.1786 179.767L80.1625 179.268C80.0709 176.583 80.0272 173.899 80.0366 171.214C80.0703 161.649 80.3192 152.091 80.5228 142.529C80.6247 137.725 80.6936 132.919 80.8522 128.116C80.9321 125.713 81.0218 123.312 81.1282 120.91C81.176 119.838 81.2216 118.766 81.2927 117.695L81.3255 117.236C81.3475 116.937 81.3654 116.641 81.3868 116.349C80.4196 116.702 79.5345 116.048 78.6638 115.6C77.6607 115.083 76.6579 114.567 75.6545 114.051L74.6505 113.537L72.6402 112.511C71.7349 112.049 71.0373 111.59 70.0726 112.132C66.5948 114.083 63.3992 116.679 60.5028 119.403C59.9472 119.926 58.7742 119.785 58.6335 118.91C58.0325 115.169 58.3981 111.374 58.7049 107.622L58.8179 106.229C58.9551 104.565 59.1042 102.901 59.3028 101.244C59.3918 100.503 59.4809 99.7624 59.5787 99.022L59.6542 98.4673C59.7766 97.5904 59.8566 96.7185 60.1177 95.8777C60.0353 95.851 59.956 95.8076 59.8855 95.7402C59.1001 94.9951 59.4787 93.7016 59.837 92.8155C60.191 91.9405 60.7306 91.1772 61.4065 90.5195C61.5535 90.3761 61.7611 90.2835 61.9701 90.2788C63.6084 89.1933 65.406 88.6515 67.276 89.2439C67.3289 88.9929 67.3824 88.7418 67.439 88.4916L67.4963 88.2418C67.6401 87.6219 67.6942 86.5965 68.2294 86.1811Z" fill="#010101"/>
<path d="M85.0216 184.216C85.5298 184.076 86.0867 184.223 86.4589 184.596C86.8315 184.969 86.9787 185.525 86.8387 186.034C86.7685 186.284 86.6421 186.501 86.4589 186.686C86.2881 186.856 86.0876 186.977 85.8605 187.049L85.807 187.066L85.7239 187.1C85.4687 187.168 85.2139 187.168 84.9593 187.1C84.7161 187.032 84.504 186.909 84.3243 186.73C84.1462 186.551 84.0232 186.339 83.9549 186.095C83.886 185.84 83.886 185.585 83.9549 185.33L83.9892 185.247C84.0594 184.997 84.1859 184.78 84.369 184.595C84.5537 184.413 84.7715 184.286 85.0216 184.216Z" fill="#010101"/>
<path d="M115.209 133.55C115.293 133.453 115.428 133.576 115.376 133.678C114.584 135.231 113.702 136.772 112.834 138.286C112.904 138.705 112.972 139.121 113.052 139.527C113.39 141.254 113.804 142.952 114.074 144.697C115.043 150.968 115.547 157.308 115.979 163.636C116.413 169.986 116.469 176.339 116.533 182.703C116.54 183.254 116.115 183.895 115.546 183.999C115.286 184.046 115.091 184.037 114.832 183.999C114.24 183.912 113.87 183.234 113.844 182.703C113.675 179.147 113.446 175.595 113.182 172.044C112.714 165.749 112.428 159.438 112.049 153.136L111.915 150.934C111.772 148.547 111.641 146.159 111.599 143.769C111.571 142.186 111.655 140.603 111.603 139.021C111.555 137.561 111.407 135.974 111.729 134.539C111.741 134.485 111.826 134.472 111.85 134.523C112.185 135.228 112.397 135.993 112.561 136.775C113.424 135.685 114.302 134.591 115.209 133.55Z" fill="#010101"/>
<path d="M102.545 95.335C104.065 95.6138 105.56 96.1021 106.983 96.7012C109.805 97.8887 112.422 99.4651 114.826 101.357C119.996 105.425 123.914 110.84 126.9 116.66C130.117 122.93 132.375 129.678 134.281 136.446C136.302 143.62 137.844 150.931 138.873 158.314C139.452 162.467 139.856 166.645 140.102 170.83C140.223 172.893 140.304 174.958 140.345 177.024C140.367 178.102 140.38 179.18 140.376 180.258C140.374 180.793 140.405 181.342 140.361 181.875C140.32 182.372 140.04 182.735 139.753 183.116L139.654 183.248C139.385 183.612 138.909 183.633 138.644 183.248C138.42 182.925 138.118 182.582 138.011 182.193C137.895 181.773 137.972 181.229 137.973 180.797C137.974 179.854 137.97 178.91 137.959 177.967C137.936 176.125 137.882 174.285 137.797 172.445C137.629 168.856 137.342 165.272 136.936 161.702C136.115 154.483 134.848 147.319 133.067 140.274C129.861 127.594 125.485 114.101 115.883 104.745C113.478 102.401 110.758 100.354 107.796 98.7656C106.282 97.9535 104.707 97.2723 103.093 96.6864L102.955 96.6364C101.357 96.0508 99.7218 95.3621 98.0293 95.1657C97.9132 95.1522 97.9081 94.9703 98.0293 94.9791C99.5465 95.0981 101.042 95.0594 102.545 95.335Z" fill="#010101"/>
<path d="M85.3127 172.253C85.5814 172.252 85.8806 172.31 86.1109 172.459L86.4183 172.697C86.502 172.804 86.5848 172.911 86.6672 173.019C86.8601 173.269 86.8853 173.675 86.8453 173.974C86.8362 174.174 86.7771 174.359 86.6672 174.531L86.4338 174.835C86.2082 175.019 86.0203 175.15 85.7472 175.238C85.6047 175.284 85.4675 175.294 85.3312 175.286L85.2853 175.284L85.313 175.287L85.2652 175.282C85.2202 175.278 85.1761 175.273 85.1311 175.267C85.1003 175.263 85.0704 175.261 85.0396 175.257C85.01 175.254 84.9817 175.253 84.9524 175.256C84.605 175.289 84.2573 175.092 84.011 174.866C83.7898 174.663 83.5906 174.231 83.6214 173.925L83.6343 173.797C83.6582 173.582 83.6774 173.497 83.7684 173.28C83.8574 173.069 83.9817 172.883 84.15 172.726C84.4732 172.426 84.869 172.256 85.3127 172.253Z" fill="#010101"/>
<path d="M84.2397 156.47C84.6994 155.969 85.4898 155.932 86.0606 156.235C86.1993 156.309 86.3274 156.428 86.4495 156.527C86.7578 156.776 86.8796 157.227 86.8963 157.606C86.9129 157.981 86.7157 158.427 86.4495 158.686L86.385 158.748C86.2257 158.903 85.9979 159.038 85.7752 159.078C85.4168 159.144 85.1157 159.142 84.7821 159.001C84.4952 158.88 84.2475 158.686 84.0792 158.421L84.0521 158.376C84.0405 158.358 84.0295 158.34 84.0194 158.32L84.0046 158.291C83.6856 157.676 83.7715 156.98 84.2397 156.47Z" fill="#010101"/>
<path d="M84.4782 140.604C84.6852 140.539 84.8929 140.53 85.1003 140.576C85.2415 140.576 85.3724 140.612 85.4942 140.683C85.6264 140.72 85.7412 140.787 85.8384 140.883C85.9558 140.953 86.0492 141.046 86.1188 141.163C86.2566 141.314 86.3497 141.491 86.3985 141.694L86.4539 142.109L86.3985 142.524L86.2412 142.897C86.1974 142.954 86.154 143.01 86.1103 143.066C86.0407 143.183 85.9467 143.277 85.8293 143.347C85.7532 143.423 85.6654 143.48 85.5675 143.519C85.2198 143.768 84.757 143.849 84.3451 143.736C84.1006 143.667 83.8885 143.544 83.7086 143.365C83.5298 143.185 83.4062 142.972 83.3373 142.728L83.309 142.533C83.2734 142.271 83.2671 142.126 83.3417 141.793C83.3738 141.647 83.4682 141.44 83.5176 141.354C83.7277 140.982 84.0732 140.728 84.4782 140.604Z" fill="#010101"/>
<path d="M102.493 129.189C103.089 129.185 103.684 129.186 104.28 129.193L104.727 129.199C105.475 129.211 106.116 129.133 106.704 129.652C107.131 130.029 106.943 130.661 106.538 130.945C105.924 131.374 105.154 131.158 104.448 131.111C103.704 131.061 102.959 131.019 102.214 130.986C100.771 130.922 99.3275 130.88 97.8839 130.874C96.4428 130.868 94.9998 130.882 93.5587 130.905C92.0925 130.929 90.5664 131.065 89.108 130.914C88.9076 130.893 88.8629 130.63 89.0608 130.561C90.4343 130.086 91.9798 129.932 93.4193 129.75C94.9048 129.562 96.3893 129.43 97.8839 129.344C99.4185 129.255 100.956 129.2 102.493 129.189Z" fill="#010101"/>
<path d="M84.4751 124.521L84.5242 124.522C84.7866 124.523 85.0324 124.584 85.2611 124.707L85.3096 124.734L85.6242 124.977C85.8171 125.171 85.9505 125.4 86.0241 125.664L86.0801 126.077C86.088 126.292 86.0433 126.491 85.9461 126.676C85.8835 126.869 85.7759 127.036 85.6242 127.177C85.4836 127.329 85.3162 127.436 85.1239 127.499C84.9524 127.589 84.7693 127.634 84.5739 127.634L84.5242 127.633C84.2438 127.632 83.9821 127.561 83.7395 127.42L83.4248 127.177C83.2319 126.983 83.0985 126.754 83.0249 126.491L82.9689 126.077C82.961 125.863 83.0057 125.663 83.1036 125.478C83.1655 125.285 83.2731 125.118 83.4248 124.977C83.5655 124.826 83.7328 124.718 83.9251 124.656C84.0966 124.566 84.2797 124.521 84.4751 124.521Z" fill="#010101"/>
<path d="M89.0869 82.2703C89.4224 81.4161 90.0296 82.1756 89.9425 82.8625C89.9657 84.7926 90.0218 86.6644 90.2713 88.5545C90.3855 89.4195 90.535 90.2857 90.7659 91.0783L90.8625 91.4125C91.1611 92.4512 91.3936 93.4304 90.9909 94.5697C90.8015 95.1068 90.4588 95.5099 90.0875 95.4819C88.4406 95.357 88.2138 91.3213 88.1137 89.0684C88.0102 86.7475 88.3315 84.1985 89.0869 82.2703Z" fill="#010101"/>
<path d="M91.3424 133.957C91.3187 133.963 91.3055 133.966 91.3055 133.966C91.3055 133.966 91.3183 133.963 91.3424 133.957Z" fill="#010101"/>
<path d="M80.9299 118.177C79.206 118.337 75.809 118.561 74.2933 119.486C74.2933 119.486 74.2817 121.736 74.2984 123.132C74.3248 125.363 74.3286 127.592 74.4365 129.821C74.6816 134.869 75.1555 145.355 74.9491 145.444C76.7004 146.555 80.5045 146.418 82.4305 146.469C84.7825 146.531 88.4913 146.762 90.6558 145.68C90.9704 145.523 92.1472 134.161 92.2212 131.838C92.2863 129.778 92.2296 127.717 92.3385 125.659C92.421 124.108 92.4062 120.926 92.4584 119.379C92.4584 119.379 90.3672 118.62 87.48 118.382C85.3042 118.203 83.106 117.976 80.9299 118.177Z" fill="white"/>
<path d="M89.0088 117.453C85.324 117.151 81.5261 116.913 77.8595 117.178C75.3577 117.359 72.8651 116.791 72.6744 119.643C72.4397 123.15 72.8015 128.773 73.0221 132.273C73.2883 136.502 73.7895 140.715 74.4355 144.902C74.4556 145.031 74.5198 145.138 74.6076 145.227C74.2206 145.397 74.0158 145.805 74.5098 146.165C76.1261 147.343 78.6034 147.415 80.5114 147.576C83.2542 147.808 86.0565 147.785 88.7851 147.402C89.635 147.282 89.9024 147.364 90.6724 146.97C91.5254 146.534 92.8048 140.54 93.5127 133.67C93.7371 131.495 93.8158 130.078 93.8164 127.894C93.8164 126.175 93.9674 121.075 93.9674 119.354C93.968 117.938 92.0452 117.702 89.0088 117.453ZM92.3385 125.659C92.2296 127.717 92.2862 129.778 92.2211 131.838C92.1475 134.162 90.9704 145.523 90.6557 145.68C88.4912 146.762 84.7825 146.532 82.4304 146.469C80.5045 146.418 76.7003 146.555 74.949 145.444C75.1554 145.355 74.6815 134.869 74.4364 129.822C74.3282 127.592 74.3247 125.363 74.2983 123.132C74.2816 121.736 74.2933 119.486 74.2933 119.486C75.8086 118.561 79.2059 118.337 80.9299 118.178C83.106 117.976 85.3041 118.203 87.4796 118.382C90.3669 118.62 92.458 119.379 92.458 119.379C92.4058 120.926 92.4206 124.108 92.3385 125.659Z" fill="#010101"/>
<path d="M73.53 136.606C74.8345 135.363 76.5528 134.46 78.1226 133.58L78.2504 133.509C79.1009 133.03 79.9224 132.515 80.8314 132.15C81.714 131.797 82.608 131.47 83.5116 131.174L83.5994 131.146C84.5981 130.838 87.1993 130.301 86.7613 128.819C86.4712 127.838 84.814 128.02 84.0714 128.169C80.6681 128.854 77.449 130.499 74.4365 132.167L73.7641 132.54C72.5313 133.224 71.2991 133.921 70.1056 134.669C68.753 135.516 67.7766 136.591 66.9535 137.95C66.041 139.457 65.1713 140.983 64.2053 142.457C63.5962 143.386 62.9738 144.304 62.3445 145.217C62.2161 145.487 62.128 145.771 62.1 146.119C62.0534 146.707 62.2038 147.212 62.3901 147.765C62.8615 149.161 63.2123 150.599 63.723 151.983C64.1962 153.264 64.7541 154.578 65.5703 155.684C65.8934 156.123 66.2808 156.538 66.6955 156.895L67.0293 157.176C67.175 157.298 67.3367 157.431 67.5025 157.553C67.6457 157.272 67.8946 157.055 68.2319 157.023C68.9477 156.952 69.4924 156.813 70.1425 156.503C70.6453 156.263 71.1399 156.004 71.6383 155.754C72.6166 155.264 73.6105 154.794 74.5696 154.267L74.7342 154.176C75.4472 153.775 76.1482 153.314 76.6768 152.682C77.2907 151.947 77.3376 151.07 77.729 150.235C78.5653 148.453 81.0986 147.934 82.7178 147.142C84.0937 146.469 85.3709 145.603 86.1468 144.329C86.1468 144.329 87.0301 143.1 87.0282 143.176C87.1739 142.935 86.9102 142.955 86.0351 143.258C83.7372 144.051 81.4057 144.809 79.0304 145.329C78.3753 145.473 78.1651 144.482 78.8092 144.316C81.3044 143.671 83.7785 142.992 86.2085 142.124C87.4646 141.675 88.7062 141.185 89.9327 140.661C90.4066 140.458 90.8773 140.251 91.3455 140.038L91.6969 139.877C91.9169 139.776 92.5544 139.559 92.8259 139.276C92.8652 139.155 92.9046 139.034 92.9433 138.912C92.8309 138.542 91.8813 138.801 91.6564 138.85C91.0186 138.988 90.3811 139.132 89.7433 139.273C88.4674 139.555 87.1893 139.823 85.9102 140.091C83.3562 140.626 80.777 141.095 78.2529 141.76C77.6396 141.922 77.0987 141 77.6532 140.606C80.1002 138.865 83.0415 137.961 85.8463 136.979C87.3214 136.462 88.7905 135.916 90.1901 135.216L90.5356 135.043C91.4144 134.601 92.3785 134.086 93.038 133.347C91.7561 133.127 90.3043 133.501 89.0687 133.7L88.974 133.715C87.2415 133.983 85.5172 134.303 83.8036 134.674C80.2975 135.433 77.8118 136.057 74.3475 136.987C74.2603 137.01 74.1546 136.903 74.1017 136.83C73.8465 136.479 73.3893 136.741 73.53 136.606Z" fill="#ECB989"/>
<path d="M94.6877 132.784C94.722 132.601 94.4967 132.456 94.2808 132.362C92.8662 131.746 91.2419 132.083 89.7669 132.339L89.1319 132.446C87.402 132.744 85.6805 133.095 83.9716 133.495C80.3022 134.356 76.7274 135.533 73.3006 137.103C73.2194 137.14 73.2679 137.275 73.3547 137.251C76.819 136.322 80.2978 135.433 83.8039 134.674C85.5172 134.303 87.2418 133.983 88.9743 133.715L89.069 133.7C90.3049 133.501 91.7564 133.127 93.0383 133.347C92.3788 134.086 91.4147 134.601 90.5359 135.043L90.1904 135.216C88.7911 135.916 87.3217 136.462 85.8466 136.979C83.0418 137.961 80.1005 138.865 77.6535 140.606C77.099 141 77.6399 141.922 78.2532 141.76C80.777 141.096 83.3565 140.626 85.9105 140.091C87.1892 139.823 88.4677 139.556 89.7436 139.273C90.3814 139.133 91.0189 138.988 91.6567 138.85C91.8816 138.802 92.8309 138.542 92.9436 138.912C92.9049 139.034 92.8655 139.155 92.8262 139.276C92.5547 139.559 91.9172 139.776 91.6972 139.877L91.3458 140.038C90.8776 140.251 90.4069 140.459 89.933 140.661C88.7065 141.185 87.4649 141.675 86.2088 142.124C83.7788 142.992 81.3047 143.671 78.8095 144.316C78.1654 144.482 78.3756 145.473 79.0307 145.329C81.406 144.809 83.7375 144.051 86.0354 143.258C86.9105 142.955 87.1741 142.935 87.0285 143.176C87.0304 143.1 86.1471 144.329 86.1471 144.329C85.3709 145.603 84.094 146.47 82.7181 147.142C81.0989 147.934 78.5656 148.453 77.7293 150.235C77.3379 151.07 77.291 151.947 76.6771 152.682C76.1485 153.314 75.4474 153.775 74.7344 154.176L74.5699 154.267C73.6105 154.794 72.6168 155.264 71.6386 155.754C71.1402 156.004 70.6456 156.263 70.1428 156.503C69.4927 156.813 68.948 156.953 68.2322 157.023C67.8949 157.055 67.646 157.272 67.5028 157.553C67.337 157.431 67.1753 157.298 67.0296 157.176L66.6958 156.895C66.281 156.538 65.8937 156.123 65.5706 155.684C64.7544 154.578 64.1965 153.264 63.7233 151.983C63.2126 150.599 62.8617 149.161 62.3904 147.765C62.2041 147.211 62.0537 146.707 62.1003 146.119C62.1286 145.771 62.2164 145.487 62.3448 145.217C62.9741 144.304 63.5968 143.386 64.2056 142.457C65.1716 140.983 66.0413 139.457 66.9538 137.95C67.7766 136.591 68.7533 135.517 70.1059 134.669C71.2994 133.921 72.5316 133.224 73.7644 132.54L74.4368 132.167C77.4492 130.499 80.6684 128.854 84.0717 128.169C84.814 128.02 86.4715 127.838 86.7616 128.819C87.1999 130.301 84.5984 130.838 83.5997 131.146L83.5119 131.174C82.6086 131.47 81.7143 131.796 80.8317 132.15C79.9227 132.515 79.1012 133.03 78.2507 133.509L78.1229 133.58C76.5534 134.46 74.8351 135.363 73.5303 136.606C73.3896 136.741 73.5504 136.949 73.7203 136.876C75.5475 136.094 77.2142 134.982 79.0895 134.283C80.9025 133.607 82.7313 132.921 84.583 132.358C86.0653 131.907 87.7374 131.333 88.1892 129.659C88.5511 128.315 87.6798 127.115 86.4058 126.742C85.033 126.34 83.5959 126.68 82.2568 127.066L82.0214 127.134C81.6612 127.24 77.0528 129.037 76.5764 129.264C74.7867 130.12 73.0501 131.081 71.3246 132.056C70.7758 132.366 67.4443 134.557 66.9336 135.153C65.7899 136.489 64.9535 138.121 64.1767 139.718L63.728 140.643C63.1201 141.893 62.5499 143.159 61.9943 144.432C61.4638 144.543 61.0018 144.843 60.6337 145.247C60.4421 145.109 60.2004 145.043 59.96 145.104C59.1548 145.307 58.6558 145.812 58.0426 146.344L57.3868 146.912C56.9498 147.291 56.5124 147.669 56.0741 148.046C54.8234 149.123 53.5619 150.186 52.3093 151.261C51.776 151.718 51.0973 152.298 50.3261 152.948C48.1959 154.742 45.3376 157.077 42.7229 158.91C42.7776 156.454 42.828 153.998 42.8641 151.541C42.8887 149.856 43.8345 138.726 43.7791 137.043C43.7225 135.337 43.6857 133.62 43.3157 131.953C43.2861 131.821 43.1124 131.846 43.0718 131.953C42.9428 132.296 42.7663 133.191 42.5668 134.402L42.5712 134.376C42.5712 134.376 40.3397 133.077 39.7891 133.273C39.2384 133.47 40.6641 133.895 41.5788 134.376C42.4935 134.858 42.4932 134.858 42.4932 134.858L42.5067 134.775C41.7267 139.645 40.6433 148.817 40.6046 149.163C40.5568 149.583 40.5093 150.002 40.4596 150.416L40.3957 150.96C40.0603 153.861 39.8101 156.782 39.6251 159.695C39.6251 159.697 39.6251 159.7 39.6251 159.701C39.5943 160.183 39.5716 160.664 39.5433 161.145C38.9681 161.459 38.3923 161.772 37.8127 162.075L37.7143 162.126C35.715 163.177 33.8057 164.326 32.3073 165.947C31.7947 166.502 32.0861 167.074 32.5889 166.638C34.0344 165.381 35.6618 164.291 37.4201 163.536L39.4587 162.646L40.1604 162.34C40.1597 162.36 40.1597 162.379 40.1591 162.399C40.4885 162.238 40.834 162.068 41.1836 161.893L41.7286 161.655C42.018 161.518 42.3393 161.363 42.6725 161.201C42.6731 161.177 42.6731 161.154 42.6738 161.131C43.1568 160.878 43.6146 160.631 44.0117 160.407C45.6759 159.47 48.1389 157.605 50.3261 155.852C51.2867 155.082 52.1945 154.334 52.9569 153.695C54.3549 152.524 55.7255 151.322 57.0898 150.111C57.7701 149.506 58.4497 148.9 59.1284 148.293C59.3172 148.123 59.5088 147.962 59.6957 147.799C59.7184 148.652 59.9176 149.535 60.1246 150.375L60.2489 150.873C60.5333 152.019 60.8996 153.169 61.3734 154.25C62.1582 156.042 63.3098 157.695 64.8063 158.965C64.8985 159.043 64.9932 159.122 65.0888 159.2C64.8579 159.468 62.8045 163.734 57.4929 169.864C56.8267 170.633 56.1119 171.43 55.3407 172.253C45.9798 182.24 40.1537 186.189 39.5257 186.704C39.3504 186.81 39.1846 186.908 39.0169 186.997C38.4902 187.277 37.9046 187.493 36.657 187.764C34.8934 188.149 33.239 187.715 32.7245 187.461C32.1062 187.155 31.5273 186.817 30.9798 186.395C29.865 185.536 28.8874 184.494 28.0705 183.35C26.4057 181.019 25.0439 178.438 23.7951 175.858L23.5817 175.416C18.4479 163.309 21.8918 147.319 23.6733 140.274C26.879 127.594 31.2551 114.101 40.856 104.745C43.2615 102.401 45.9808 100.354 48.9429 98.7656C50.4582 97.9535 52.0321 97.2723 53.6472 96.6864L53.7838 96.6364C55.3822 96.0508 57.0174 95.3621 58.7099 95.1657C58.8267 95.1522 58.8311 94.9703 58.7099 94.9791C57.1933 95.0974 55.6968 95.0591 54.1941 95.3347C52.6743 95.6135 51.1797 96.1018 49.7562 96.7009C46.9348 97.8884 44.3175 99.4648 41.9133 101.356C36.7429 105.425 32.8252 110.839 29.8386 116.66C26.6219 122.93 24.3643 129.677 22.4578 136.445C20.4894 143.436 15.9301 158.17 19.0766 170.008C19.5479 171.782 20.3824 173.439 21.1432 175.108C22.634 178.377 24.3973 181.585 26.531 184.481C27.5265 185.833 28.6064 187.158 29.9638 188.164C30.5988 188.633 31.3454 189.126 32.1025 189.37C32.5647 189.52 35.0322 190.313 38.2548 189.344C38.2536 189.345 38.2504 189.347 38.2498 189.347C39.549 189.222 40.6817 188.558 41.2984 188.054C41.328 188.031 41.3563 188.007 41.385 187.982C41.4004 187.969 41.4199 187.954 41.4347 187.941C44.4276 185.558 49.3447 181.558 50.4595 180.442C53.2728 177.626 56.5744 174.614 60.2363 169.865C62.262 167.238 64.3982 164.081 66.624 160.128C66.9871 160.253 67.3682 160.31 67.7671 160.251C68.5267 160.14 69.3483 159.538 69.3989 158.748C69.5975 158.521 69.7806 158.313 70.0584 158.144C70.2957 158 70.5452 157.868 70.7903 157.74C71.3661 157.438 71.9573 157.162 72.5394 156.873L72.7805 156.754C73.6637 156.321 74.557 155.901 75.4144 155.42C76.2526 154.95 77.0767 154.401 77.7154 153.676C78.3086 153.002 78.5795 152.275 78.8482 151.457L78.9319 151.2C79.2921 150.092 80.4302 149.717 81.3924 149.241L81.7096 149.084C82.607 148.636 83.4987 148.171 84.3209 147.595C85.3473 146.877 87.1987 144.964 87.8865 142.811C89.3748 142.461 94.5555 139.621 94.0854 138.369C93.5282 136.887 82.6013 139.734 81.9012 139.918C82.6193 139.727 93.952 136.66 94.6877 132.784Z" fill="#010101"/>
<path d="M79.6294 124.61C79.5838 125.312 78.9787 125.844 78.2761 125.798L76.9357 125.711C76.234 125.666 75.7017 125.061 75.7473 124.359L75.9471 121.281C75.9927 120.58 76.5984 120.048 77.2998 120.093L78.6408 120.18C79.3425 120.226 79.8742 120.831 79.8286 121.533L79.6294 124.61Z" fill="#010101"/>
<path fill-rule="evenodd" clip-rule="evenodd" d="M4.30054 42.9769L42.8711 4.40634C55.8228 3.62604 69.7146 3 80.9485 3C93.0999 3 103.79 3.64212 113.027 4.62074L7.64791 110C7.11537 91.3173 6.45998 74.0559 5.68173 63.5048C5.13481 56.0899 4.6789 49.2038 4.30054 42.9769Z" fill="url(#paint0_linear)"/>
<path fill-rule="evenodd" clip-rule="evenodd" d="M7.46167 127.377L128.839 6C137.692 7.51729 144.517 9.24244 149.325 10.6716L7.99657 152C7.84186 144.12 7.66356 135.764 7.46167 127.377Z" fill="url(#paint1_linear)"/>
<path fill-rule="evenodd" clip-rule="evenodd" d="M9.0105 180.193L151.461 37.7432C150.416 44.9254 149.295 54.1263 148.185 65.8518L16.0372 198C12.1224 197.06 9.23913 196.291 9.23913 196.291C9.23913 196.291 9.16292 190.062 9.0105 180.193Z" fill="url(#paint2_linear)"/>
<path d="M153.547 201.053C152.639 201.053 151.838 200.396 151.686 199.471C151.604 198.97 141.378 148.852 144.503 100.216C148.381 39.8392 155.581 19.3995 157.434 13.6801C150.991 11.3017 125.715 3.15569 81.897 3.15569C55.1193 3.15569 12.9609 6.62156 3.83193 7.39969C4.03551 13.3718 4.08742 33.9426 6.91707 61.5715C11.1177 102.585 10.6856 194.704 10.6982 195.711C10.7111 196.753 9.87667 197.609 8.83392 197.622C8.82605 197.622 8.81787 197.622 8.81001 197.622C7.77827 197.622 6.93563 196.793 6.92241 195.758C6.91014 194.753 4.75196 95.4829 3.15197 61.855C1.57683 28.7506 0.0073464 5.95167 0.000738748 5.7248C-0.0269505 4.72705 0.726945 3.88033 1.72093 3.79159C2.21744 3.74723 36.6046 -0.935081 82.0194 0.218741C133.945 1.53776 159.533 10.397 160.601 10.8659C161.07 11.0717 161.436 11.4596 161.613 11.9398C161.791 12.4203 161.766 12.9523 161.543 13.4139C161.485 13.5395 155.04 28.211 150.399 100.465C147.302 148.676 155.331 198.363 155.413 198.859C155.581 199.888 154.884 200.859 153.855 201.028C153.751 201.045 153.648 201.053 153.547 201.053Z" fill="black"/>
<path d="M12.0837 266.422C19.5611 261.154 14.4892 261.284 28.4792 240.586C42.4689 219.887 57.3792 208.246 57.3792 208.246C57.3792 208.246 104.668 177.934 104.072 211.673C103.451 246.784 104.4 254.757 96.2539 266.027C88.1086 277.296 79.3805 279.034 66.4402 281.722C53.4999 284.408 30.0147 283.568 26.4148 286.276C22.8146 288.984 12.0837 266.422 12.0837 266.422Z" fill="#ECB989"/>
<path d="M25.738 288.389C23.9309 288.389 19.7118 287.854 15.7374 277.406C12.7448 269.539 9.69709 266.129 9.59829 265.921C9.20309 265.09 10.2449 265.408 10.9966 264.878C14.359 262.51 15.1106 261.682 16.1716 258.393C18.5133 251.133 22.3939 245.784 30.6796 236.344C39.1446 226.7 55.5989 207.241 56.2172 206.758C56.2631 206.722 56.311 206.688 56.36 206.657C57.1762 206.134 76.5074 193.847 90.6969 193.847C95.3776 193.847 99.0653 195.185 101.657 197.823C104.621 200.84 106.069 205.511 105.959 211.707C105.887 215.809 105.834 219.604 105.789 222.952C105.434 248.875 106.825 250.714 100.008 262.251C92.6156 274.761 79.9808 280.839 67.1208 283.509L66.8237 283.57C60.7022 284.841 52.5484 286.323 44.5629 285.787C34.5604 285.115 29.0078 286.688 27.5497 287.785C27.0236 288.18 26.3975 288.389 25.738 288.389ZM14.4706 267.007C15.3353 268.751 16.9331 271.893 18.7483 275.067C22.9974 282.499 25.8084 285.914 26.4148 286.276C28.9266 284.773 34.2033 282.604 44.3445 282.017C51.7454 281.588 60.134 281.102 66.0563 279.873L66.3533 279.811C78.8283 277.221 87.0699 275.51 94.7235 264.921C101.567 255.453 101.662 248.557 102.013 222.901C102.059 219.549 102.111 215.749 102.184 211.639C102.275 206.494 101.191 202.736 98.964 200.469C97.1085 198.58 94.327 197.622 90.6972 197.622C78.0237 197.622 59.8055 208.948 58.4742 209.787C57.376 210.664 43.2118 222.159 30.0436 241.643C23.2422 251.706 21.067 256.646 19.6275 259.914C18.2232 263.103 17.4299 264.708 14.4706 267.007Z" fill="black"/>
<path d="M67.437 155.573C61.3866 156.132 49.4629 156.918 44.1438 160.165C44.1438 160.165 44.1029 168.063 44.1611 172.963C44.2542 180.793 44.2668 188.617 44.6469 196.441C45.5069 214.158 47.1704 250.96 46.4454 251.274C52.5928 255.174 65.9446 254.693 72.7046 254.872C80.9594 255.091 93.9765 255.9 101.573 252.103C102.678 251.55 106.809 211.673 107.067 203.519C107.296 196.289 107.097 189.056 107.479 181.832C107.768 176.389 107.717 165.221 107.9 159.791C107.9 159.791 100.56 157.127 90.4263 156.292C82.7904 155.663 75.0749 154.866 67.437 155.573Z" fill="white"/>
<path d="M95.7926 153.032C82.8593 151.972 69.5294 151.135 56.6612 152.065C47.8802 152.701 39.1311 150.707 38.4624 160.717C37.6384 173.027 38.9092 192.76 39.6833 205.047C40.6178 219.891 42.3776 234.675 44.6447 249.371C44.7161 249.824 44.9404 250.201 45.2485 250.51C43.8898 251.11 43.1718 252.54 44.9061 253.805C50.5783 257.942 59.2731 258.192 65.971 258.758C75.5968 259.571 85.4331 259.491 95.0098 258.146C97.993 257.727 98.9313 258.014 101.634 256.632C104.628 255.101 109.119 234.065 111.604 209.952C112.391 202.318 112.667 197.343 112.669 189.677C112.669 183.643 113.2 165.745 113.2 159.703C113.199 154.734 106.45 153.905 95.7926 153.032ZM107.479 181.832C107.097 189.056 107.296 196.289 107.067 203.519C106.808 211.673 102.678 251.55 101.573 252.102C93.9762 255.9 80.9591 255.091 72.7042 254.872C65.9443 254.693 52.5924 255.174 46.4451 251.274C47.1701 250.96 45.5068 214.158 44.6466 196.441C44.2665 188.616 44.2539 180.793 44.1607 172.962C44.1025 168.063 44.1434 160.164 44.1434 160.164C49.4626 156.918 61.3866 156.132 67.4367 155.572C75.0742 154.866 82.79 155.663 90.4257 156.292C100.559 157.126 107.899 159.79 107.899 159.79C107.716 165.22 107.768 176.388 107.479 181.832Z" fill="#010101"/>
<path d="M63.5829 199.165C68.6387 199.165 72.7373 195.067 72.7373 190.011C72.7373 184.955 68.6387 180.856 63.5829 180.856C58.527 180.856 54.4285 184.955 54.4285 190.011C54.4285 195.067 58.527 199.165 63.5829 199.165Z" fill="#C4C4C3"/>
<path d="M87.811 199.165C92.8668 199.165 96.9654 195.067 96.9654 190.011C96.9654 184.955 92.8668 180.856 87.811 180.856C82.7551 180.856 78.6565 184.955 78.6565 190.011C78.6565 195.067 82.7551 199.165 87.811 199.165Z" fill="#C4C4C3"/>
<path d="M63.5829 222.449C68.6387 222.449 72.7373 218.351 72.7373 213.295C72.7373 208.239 68.6387 204.14 63.5829 204.14C58.527 204.14 54.4285 208.239 54.4285 213.295C54.4285 218.351 58.527 222.449 63.5829 222.449Z" fill="#C4C4C3"/>
<path d="M87.811 222.449C92.8668 222.449 96.9654 218.351 96.9654 213.295C96.9654 208.239 92.8668 204.14 87.811 204.14C82.7551 204.14 78.6565 208.239 78.6565 213.295C78.6565 218.351 82.7551 222.449 87.811 222.449Z" fill="#C4C4C3"/>
<path d="M39.7392 235.925C39.7392 235.925 65.8908 220.514 69.889 225.701C73.8876 230.888 61.9775 238.419 55.5347 244.42C49.0919 250.421 50.1888 249.046 50.0944 252.21C50.0944 252.21 48.4683 261.338 41.8169 266.335C35.1655 271.333 32.1801 267.584 32.1801 267.584" fill="#ECB989"/>
<path d="M35.4518 269.539C32.317 269.539 30.7938 268.902 30.7035 268.759C30.1975 267.963 28.4248 264.164 33.6571 266.407C33.67 266.413 33.6461 266.391 33.6218 266.364C33.7046 266.456 36.724 269.68 41.3254 265.501C49.8996 257.713 49.5066 253.545 48.2109 252.005C48.2172 251.667 48.2078 251.385 48.1999 251.133C48.1219 248.709 48.6162 248.252 52.4641 244.693C52.9826 244.213 53.5738 243.666 54.2481 243.038C55.6848 241.7 57.3317 240.332 59.0748 238.886C63.86 234.913 70.4139 229.473 68.3942 226.853C68.3778 226.832 66.4628 224.955 54.0974 230.585C47.2295 233.712 40.7622 237.513 40.6977 237.551C39.7997 238.081 37.7906 239.394 37.471 238.402C37.3382 237.989 38.3032 235.47 39.2015 234.941C39.4718 234.781 46.3139 232.25 53.3608 229.041C64.0381 224.18 70.7855 222.959 73.1051 226.052C74.0491 227.31 72.3578 231.204 69.1326 234.311C66.668 236.686 64.6268 239.184 61.4863 241.791C59.786 243.202 58.1794 244.536 56.8216 245.801C56.1439 246.432 55.5492 246.982 55.0275 247.464C53.3693 248.998 51.4934 250.176 51.2989 250.542C52.0368 254.2 49.2442 264.819 44.1299 267.389C40.7421 269.091 37.3545 269.539 35.4518 269.539Z" fill="black"/>
<circle cx="63.5" cy="190.5" r="9.5" fill="#55AF8A"/>
<path fill-rule="evenodd" clip-rule="evenodd" d="M68.4118 194.632L63.6618 184.182L58.9118 194.632L63.6618 193.682L68.4118 194.632Z" fill="#F1F5F1"/>
<circle cx="63.5" cy="213.5" r="9.5" transform="rotate(-90 63.5 213.5)" fill="#C4C4C4"/>
<path fill-rule="evenodd" clip-rule="evenodd" d="M67.6325 208.588L57.1825 213.338L67.6325 218.088L66.6825 213.338L67.6325 208.588Z" fill="#F1F5F1"/>
<circle cx="88.5" cy="190.5" r="9.5" transform="rotate(90 88.5 190.5)" fill="#C4C4C4"/>
<path fill-rule="evenodd" clip-rule="evenodd" d="M84.3675 195.412L94.8175 190.662L84.3675 185.912L85.3175 190.662L84.3675 195.412Z" fill="#F1F5F1"/>
<circle cx="88.5" cy="213.5" r="9.5" transform="rotate(-180 88.5 213.5)" fill="#C4C4C4"/>
<path fill-rule="evenodd" clip-rule="evenodd" d="M83.5882 209.368L88.3382 219.818L93.0882 209.368L88.3382 210.318L83.5882 209.368Z" fill="#F1F5F1"/>
<circle cx="44" cy="160" r="12" fill="#F2312F" fill-opacity="0.8"/>
<defs>
<linearGradient id="paint0_linear" x1="94.3928" y1="-21.5" x2="-2.60718" y2="72.5" gradientUnits="userSpaceOnUse">
<stop stop-color="#ADB9CD" stop-opacity="0.5"/>
<stop offset="1" stop-color="#E6ECF6" stop-opacity="0"/>
</linearGradient>
<linearGradient id="paint1_linear" x1="134.393" y1="11.5" x2="1.89283" y2="136" gradientUnits="userSpaceOnUse">
<stop stop-color="#ADB9CD" stop-opacity="0.5"/>
<stop offset="1" stop-color="#E6ECF6" stop-opacity="0"/>
</linearGradient>
<linearGradient id="paint2_linear" x1="80.2355" y1="37.7432" x2="80.2355" y2="198" gradientUnits="userSpaceOnUse">
<stop stop-color="#ADB9CD" stop-opacity="0.5"/>
<stop offset="1" stop-color="#E6ECF6" stop-opacity="0"/>
</linearGradient>
</defs>
</svg>
