<svg width="243" height="208" viewBox="0 0 243 208" fill="none" xmlns="http://www.w3.org/2000/svg">
<path d="M9.35625 204.635C32.134 208.095 55.3253 208.27 78.2922 207.013C87.3817 206.332 96.4987 206.21 105.581 207.08C110.948 207.479 134.478 209.278 136.401 204.471C135.191 178.873 132.74 153.057 125.222 128.438C122.131 119.696 119.476 112.44 113.441 105.207C111.539 103.232 107.438 99.09 105.088 97.7384C103.052 96.5686 102.201 96.9863 101.032 95.0092C99.8704 92.8251 99.0131 89.1788 97.3637 87.638C95.6844 86.069 93.1951 86.6307 90.1101 87.1355C90.6768 79.4754 87.1415 77.5246 82.2708 76.0685C73.7089 72.8005 65.2542 74.4422 63.0988 84.8648C59.1035 84.8648 56.8591 86.5843 54.4332 88.2372C53.4418 88.9127 54.1315 90.6329 52.9466 91.1637C50.7548 91.9447 46.8814 91.7528 44.7708 92.7133C35.1742 97.0819 26.6266 103.415 21.0132 112.666C8.42861 132.416 -0.216036 174.019 1.27986 197.427C0.624562 198.455 1.53053 199.929 1.76109 201.034C2.05199 201.996 2.99355 202.635 3.97651 202.526C5.34784 204.001 7.46887 204.33 9.35625 204.635Z" fill="#ECB989"/>
<path d="M56.7445 86.4308C58.148 84.967 60.3487 84.0924 62.4326 84.1415L62.5301 84.145L63.2376 84.1767L62.7645 86.4958L62.7405 86.6056L62.6442 87.0083L62.5158 87.5356L62.4701 87.7294L62.4222 87.9445C62.4144 87.9793 62.4071 88.0137 62.3997 88.0478L62.3788 88.1495L62.1773 89.1348L62.2148 89.223L62.2044 89.4466C62.173 90.2562 62.3475 90.7011 62.7312 90.8435L62.7622 90.8543L62.9811 90.9247L63.1599 91.3131C63.5715 92.2005 63.9556 92.9757 64.3498 93.706C65.4991 95.8356 66.8708 97.9644 68.4518 100.104C69.9543 102.137 71.5194 104.077 73.1468 105.919C73.8787 106.748 74.6516 107.58 75.474 108.426L76.1823 109.151L76.4075 109.379L76.5587 109.531L76.7479 109.716L77.0202 109.975L77.2175 110.169L77.2813 110.231C77.3618 110.305 77.4241 110.356 77.4802 110.392L77.5015 110.405L77.5637 110.441L80.8464 113.895L82.0058 114.532L82.5566 114.837L82.6681 114.615L82.6909 114.544L83.911 111.864L84.6564 110.223C86.1856 106.846 87.3751 104.16 88.4633 101.602L88.5987 101.283L88.9998 100.331L89.2122 99.8235C90.1851 97.4928 90.9034 95.6936 91.5464 93.9466L91.6376 93.6968L91.773 93.3235L91.9746 92.7606L92.0109 92.6643C92.1858 92.2175 91.7568 90.5924 91.334 89.7023L91.3096 89.6524L91.2005 89.4323L91.081 89.199C90.8017 88.6543 90.5994 88.0485 90.4292 87.3159C90.4017 87.1971 90.3754 87.0784 90.3514 86.9573L90.3158 86.7759L90.293 86.6567L90.2617 86.49L90.2172 86.2509L91.1622 86.0931L91.681 86.0084L91.9077 85.9728C92.2009 85.9275 92.4616 85.8904 92.7069 85.8594L92.7982 85.8478L92.9626 85.8285L92.9688 85.861L93.3061 85.8943L93.5564 85.9202C94.79 86.0505 95.7416 86.1944 96.4174 86.3538L96.484 86.3697L96.605 86.4002L96.6603 86.4142C97.2754 86.5801 97.7485 86.9379 98.1234 87.4652C98.3806 87.8269 98.5473 88.1731 98.8116 88.8296L98.9059 89.0663L99.2204 89.8435C99.2576 89.9382 99.314 90.0895 99.391 90.2976L99.6572 91.0237L100.994 94.7153L102.362 95.4348C102.998 95.7675 103.463 96.0073 103.693 96.1211L103.774 96.1605L103.832 96.1872L104.304 96.3741L104.253 96.5214L104.31 96.5539C109.942 99.7937 114.285 104.778 117.666 111.395L117.769 111.596L117.873 111.805C120.568 117.194 122.499 123.209 124.384 131.239L124.5 131.739L124.592 132.135L125.084 134.278C126.93 142.369 128.2 148.404 129.25 154.323L129.318 154.709L129.493 155.715C130.812 163.378 131.917 170.971 132.8 178.49L132.946 179.755C133.315 182.986 133.648 186.325 134.009 190.336L134.058 190.875L134.217 192.676C134.387 194.618 134.541 196.554 134.681 198.487L134.75 199.453L134.892 201.554L134.975 202.751L134.985 202.913L135.019 203.537L135.028 203.683C135.04 203.871 135.055 204.03 135.073 204.176L135.087 204.283L135.103 204.388C135.15 204.674 135.242 204.93 135.394 205.216L135.434 205.288L135.696 205.757L135.221 206.006C132.747 207.31 127.877 207.884 121.195 207.914L120.992 207.914H120.575C117.328 207.912 113.887 207.787 110.297 207.573L109.484 207.523L108.807 207.48C108.515 207.461 108.231 207.442 107.936 207.422L107.484 207.39L105.596 207.252C97.1041 206.438 88.1983 206.452 78.3858 207.186C52.8019 208.586 30.7201 207.996 9.96587 204.898L9.33726 204.803L8.87421 204.728L8.59801 204.682C6.39652 204.306 5.01396 203.824 3.93546 202.813L3.87898 202.759L3.83179 202.713H3.81129C2.72505 202.709 1.73088 201.998 1.36222 200.95L1.34288 200.894L1.31851 200.816L1.30149 200.738C1.28447 200.663 1.2628 200.582 1.23689 200.492L1.21638 200.424L1.04501 199.863L1.62256 199.757C1.67246 199.748 1.7243 199.713 1.77459 199.64L1.82256 199.572L1.90573 199.456L2.10727 199.18C2.32158 198.88 2.4268 198.691 2.47941 198.501C2.52544 198.333 2.54285 198.119 2.53782 197.819L2.53356 197.673L2.51074 197.143C2.50919 197.101 2.50842 197.063 2.50764 197.028L2.50687 196.974L2.50648 196.228L2.50842 195.408C2.50958 195.05 2.5119 194.701 2.51461 194.358L2.51925 193.849L2.52428 193.438C2.55174 191.167 2.61867 188.897 2.72428 186.631C2.93046 182.207 3.28441 177.79 3.7846 173.389C4.81822 164.303 6.40116 155.491 8.5543 146.976L8.77093 146.126C11.0993 137.026 13.3437 130.01 16.197 123.522C19.8263 115.27 24.251 108.479 29.8226 103.05C32.8856 100.064 36.2778 97.5446 39.8827 95.612C41.5407 94.723 43.3027 93.9343 45.1924 93.2248L45.4632 93.1242L45.9003 92.9645L46.2353 92.8407L47.3162 92.4368C47.5432 92.3517 47.7904 92.2566 48.0825 92.1413L48.2635 92.0701L50.1985 91.298L50.52 91.1719L50.877 91.0326L51.1397 90.932C51.569 90.768 51.9578 90.6253 52.3187 90.4992L52.5327 90.4261L52.7261 90.3611L53.552 90.0752L53.5361 90.826C53.5253 91.3254 53.6537 91.7034 53.9396 91.9746L53.9493 91.9827L53.9585 91.9908L53.9674 91.9966L54.0177 91.9951L54.2127 91.9943C54.2328 91.9831 54.2518 91.9699 54.2692 91.9548C54.5473 91.7192 54.6761 91.4024 54.8011 90.6771L54.8343 90.4756L54.8924 90.0972L54.916 89.9541C54.9991 89.4508 55.0715 89.1727 55.2134 88.8547C55.4181 88.3952 55.6885 87.9472 56.0065 87.536L56.0807 87.4416L56.3778 87.0846L56.4235 87.0281C56.5279 86.8942 56.5809 86.8002 56.6034 86.7136L56.6088 86.6904L56.6382 86.5399L56.7445 86.4308Z" fill="#55AF8A"/>
<path d="M103.637 97.1597C103.498 97.082 103.621 96.882 103.761 96.9481C110.516 100.117 115.699 105.678 119.345 112.102C123.12 118.755 125.272 126.308 127.127 133.69L127.195 133.956C129.172 141.854 130.855 149.832 132.369 157.83C133.903 165.93 135.134 174.08 136.125 182.263C136.614 186.309 137.051 190.363 137.392 194.425C137.562 196.454 137.717 198.486 137.855 200.518C137.911 201.33 137.963 202.143 138.008 202.956L138.04 203.567C138.068 204.12 138.134 204.675 137.997 205.221C137.879 205.691 137.63 206.117 137.411 206.55C136.977 207.404 135.789 207.263 135.322 206.55L135.186 206.342C134.876 205.863 134.619 205.418 134.522 204.822C134.428 204.245 134.425 203.641 134.383 203.058C134.305 201.986 134.239 200.912 134.164 199.84C134.006 197.582 133.828 195.326 133.631 193.071C133.242 188.621 132.825 184.174 132.313 179.735C131.402 171.846 130.26 163.979 128.913 156.153C127.597 148.508 125.933 140.942 124.198 133.384L124.018 132.603C120.979 119.407 116.296 104.212 103.637 97.1597ZM31.6856 148.829C31.7351 148.697 31.9495 148.666 31.985 148.829C32.4404 150.878 32.4852 152.988 32.5549 155.086C32.6233 157.155 32.6206 159.234 32.5904 161.305C32.479 168.915 32.2705 176.518 32.0895 184.127C31.9997 187.933 31.9146 191.739 31.8497 195.546C31.8253 196.973 31.8048 198.401 31.7874 199.828L31.7661 201.711C31.756 202.544 31.7336 203.366 31.6323 204.198C31.5653 204.745 31.4226 205.266 31.1208 205.736C30.9065 206.068 30.6009 206.238 30.3038 206.464L30.2478 206.507C29.8679 206.806 29.4679 206.809 29.0919 206.507L28.9832 206.42C28.6234 206.139 28.3132 205.92 28.0838 205.475C27.765 204.858 27.714 204.186 27.659 203.506C27.577 202.473 27.632 201.426 27.642 200.391C27.6637 198.314 27.6927 196.238 27.7291 194.161C27.8625 186.546 28.1267 178.93 28.6083 171.33C28.8354 167.749 29.1433 164.157 29.5557 160.591L29.6342 159.923C29.7596 158.873 29.8737 157.805 30.0025 156.734C28.0815 155.383 26.3933 153.744 24.9535 151.884C24.8475 151.747 25.022 151.555 25.15 151.688C26.6212 153.211 28.3078 154.426 30.1754 155.38C30.4814 153.138 30.9023 150.907 31.6856 148.829ZM63.7749 80.9501C63.8013 80.9296 63.8426 80.9211 63.8678 80.9501C64.2802 81.4313 64.1966 82.1674 64.2101 82.7779L64.2117 82.8344C64.2411 83.7264 64.2469 84.6154 64.2438 85.5078L64.2349 88.3487C64.2337 88.7394 64.202 89.146 64.2221 89.5382L64.2322 89.6907C64.4496 89.9131 64.5498 90.2338 64.4767 90.5564C64.4635 90.9695 64.2469 91.315 63.932 91.5316L64.6078 92.4906L65.2844 93.4492C66.6785 95.4275 68.089 97.3879 69.5586 99.3117C71.0568 101.273 72.6552 103.161 74.3279 104.976C75.1452 105.862 75.9762 106.737 76.8268 107.592C77.1723 107.939 77.5266 108.278 77.8767 108.621L78.2252 108.966C78.4307 109.171 78.6898 109.375 78.8272 109.636C78.9072 109.79 78.9258 110.169 78.9544 110.232C79.2125 110.8 78.7722 111.704 78.0407 111.42L78.074 111.398C78.2071 111.306 78.1216 111.304 77.8175 111.394C77.626 111.393 77.4462 111.35 77.2783 111.262L77.228 111.235C76.9916 111.114 76.7804 110.882 76.5882 110.696L76.5406 110.65C76.1007 110.239 75.6818 109.802 75.2605 109.371C74.3816 108.473 73.5221 107.555 72.6896 106.613C71.0301 104.734 69.4568 102.779 67.9663 100.762C66.4484 98.7086 65.0376 96.5493 63.8241 94.3021C63.3641 93.4492 62.9417 92.5799 62.5371 91.7003C61.7495 91.4477 61.5665 90.6098 61.6218 89.6655C61.3305 88.9885 61.0686 88.298 60.9143 87.5921C60.893 87.4954 61.0176 87.4044 61.0922 87.4884C61.3437 87.7746 61.5773 88.0795 61.8013 88.392C61.9367 87.7306 62.1081 87.1213 62.1885 86.7329L62.5375 85.0196C60.5696 84.9167 58.413 85.7256 57.0564 87.141C56.9836 87.5097 56.7001 87.7735 56.4235 88.1174C56.1074 88.512 55.832 88.9533 55.6262 89.4156C55.1701 90.44 55.4274 91.9502 54.5427 92.7018C54.4506 92.7799 54.3473 92.8345 54.2413 92.8681C54.6611 94.9269 54.4707 97.1961 54.4611 99.2846L54.4607 99.4687C54.463 101.806 54.3852 104.146 54.2943 106.482L54.2027 108.793C54.0835 111.877 54.0061 114.962 54.3063 118.028C55.6738 116.816 57.0877 115.66 58.5511 114.558C59.5132 113.834 60.4946 113.135 61.4934 112.463L62.3054 111.92C63.2779 111.268 64.2743 110.597 65.3393 110.13C66.7327 109.519 68.0572 109.729 69.4019 110.355C70.7415 110.979 72.0409 111.704 73.3546 112.381C74.6907 113.068 76.0296 113.75 77.368 114.434C78.2543 114.887 79.5533 115.296 80.2031 116.129C80.2449 115.945 80.2929 115.761 80.3494 115.578C80.2852 115.299 80.3099 114.996 80.467 114.709C82.6514 110.694 84.673 106.584 86.68 102.478C87.6958 100.401 88.6617 98.2986 89.6799 96.2224L90.6694 94.2C90.835 93.8631 91.0005 93.5265 91.1677 93.1904C91.4172 92.6871 91.6767 92.1889 91.9297 91.6867C92.0357 91.4748 92.17 91.2639 92.274 91.05L92.3231 90.9428C92.3255 90.937 92.5653 90.1831 92.38 90.2554L92.3641 90.2632C92.2694 90.317 92.1939 90.1978 92.2551 90.122C92.517 89.7982 92.8817 90.0848 93.0311 90.385C93.4426 91.2098 92.6883 92.5045 92.3982 93.2944L92.3823 93.3385C91.4818 95.8878 90.4621 98.3895 89.4176 100.881C87.4146 105.66 85.2626 110.366 83.1156 115.08L83.0901 115.161C83.5481 114.81 84.0367 114.492 84.4553 114.181C85.5113 113.399 86.5983 112.655 87.6834 111.914C89.6737 110.554 91.7177 109.284 93.7958 108.064L94.2113 107.821C95.2496 107.216 96.2778 106.726 97.5091 106.907C98.6537 107.076 99.7179 107.691 100.752 108.19L100.859 108.241L104.054 109.761C103.712 108.398 103.342 107.043 102.957 105.693C102.204 103.058 101.376 100.446 100.478 97.8576C99.6394 95.4391 98.733 93.0465 97.7741 90.6736L97.4855 89.9614C97.0944 88.9843 96.7056 87.9186 95.5884 87.6172C94.4716 87.3166 93.1908 87.7627 92.1703 87.1259C92.0775 87.0683 92.0891 86.9147 92.2013 86.8869L92.8311 86.7283C94.0136 86.4339 95.4 86.1379 96.5176 86.4242C97.7346 86.736 98.7412 87.7572 99.3315 88.8191C99.9879 90.0001 100.451 91.3219 100.949 92.5811L101.028 92.7799C101.6 94.205 102.149 95.639 102.676 97.0816C103.728 99.9654 104.685 102.884 105.553 105.829C105.97 107.249 106.366 108.675 106.748 110.104C106.857 110.516 107.038 111.015 107.186 111.534C107.356 111.7 107.517 111.885 107.667 112.095C107.917 112.445 107.738 112.855 107.427 113.065C107.415 113.422 107.336 113.759 107.145 114.047C106.403 115.174 104.442 114.883 104.522 113.369C104.534 113.138 104.624 112.916 104.761 112.73L104.757 112.699L104.741 112.644C104.401 112.48 104.059 112.299 103.699 112.121L100.346 110.464C99.3744 109.984 98.2982 109.242 97.2182 109.059C96.2109 108.889 95.149 109.639 94.284 110.091L94.2275 110.12C92.1367 111.192 90.0609 112.3 87.9933 113.416C86.984 113.962 85.9871 114.529 84.9821 115.081C84.1415 115.543 83.2336 116.205 82.289 116.465C81.8855 116.779 81.4062 116.737 81.0209 116.5C81.1969 117.59 81.1861 118.71 81.2403 119.825C81.3126 121.315 81.3238 122.811 81.3474 124.303L81.3571 124.863C81.4205 128.163 81.4546 131.464 81.4673 134.765C81.5118 146.519 81.3815 158.275 81.3517 170.029C81.3362 175.935 81.219 181.845 81.0658 187.748C81.0008 190.25 80.8646 192.748 80.718 195.246L80.6372 196.608C80.4666 199.483 80.3652 202.389 79.8329 205.225C79.7637 205.594 79.1378 205.604 79.0763 205.225C78.5866 202.186 78.5595 199.081 78.4651 196.007L78.4454 195.392C78.3324 192.092 78.2786 188.793 78.2906 185.491C78.332 173.732 78.6376 161.981 78.8879 150.226C79.0132 144.319 79.0983 138.411 79.2933 132.506C79.3912 129.552 79.5018 126.6 79.6326 123.647C79.6914 122.328 79.7475 121.011 79.8349 119.694L79.8747 119.13C79.9018 118.762 79.9238 118.398 79.9505 118.038C78.761 118.473 77.6728 117.669 76.6029 117.118C75.3696 116.483 74.1368 115.848 72.9028 115.214L71.6684 114.582L69.1969 113.321C68.0839 112.753 67.2267 112.188 66.0403 112.854C61.7646 115.253 57.8358 118.445 54.2754 121.794C53.5922 122.437 52.1497 122.264 51.9768 121.187C51.2379 116.589 51.6874 111.923 52.065 107.31L52.2035 105.597C52.3725 103.552 52.5555 101.506 52.8 99.4691C52.9095 98.5577 53.0186 97.6471 53.1389 96.7369L53.2317 96.0549C53.3822 94.9768 53.4804 93.9049 53.8019 92.8712C53.7005 92.8383 53.6031 92.785 53.516 92.7022C52.5505 91.7862 53.0162 90.1959 53.4568 89.1065C53.8916 88.0307 54.5551 87.0923 55.386 86.2838C55.567 86.1074 55.8223 85.9937 56.0792 85.9878C58.0935 84.6533 60.3031 83.9871 62.6024 84.7155C62.667 84.4068 62.7332 84.0982 62.8028 83.7906L62.8732 83.4835C63.0504 82.7214 63.1165 81.4607 63.7749 80.9501ZM84.4189 201.476C85.044 201.304 85.7283 201.485 86.1864 201.943C86.6444 202.401 86.825 203.085 86.6533 203.711C86.5666 204.018 86.4115 204.285 86.1864 204.512C85.9759 204.721 85.7299 204.87 85.4502 204.959L85.3848 204.979L85.2827 205.022C84.969 205.106 84.6556 205.106 84.3423 205.022C84.0433 204.938 83.7829 204.786 83.5621 204.567C83.3427 204.346 83.1915 204.086 83.1075 203.786C83.0228 203.473 83.0228 203.16 83.1075 202.846L83.1497 202.744C83.2363 202.436 83.3915 202.169 83.6166 201.942C83.8441 201.718 84.1114 201.562 84.4189 201.476ZM121.532 139.186C121.635 139.067 121.801 139.219 121.737 139.344C120.764 141.253 119.679 143.148 118.612 145.008C118.698 145.524 118.782 146.035 118.88 146.534C119.295 148.658 119.804 150.745 120.136 152.89C121.329 160.601 121.948 168.395 122.479 176.174C123.012 183.981 123.081 191.792 123.16 199.615C123.168 200.293 122.646 201.081 121.947 201.209C121.627 201.267 121.388 201.256 121.068 201.209C120.341 201.102 119.886 200.268 119.854 199.615C119.646 195.243 119.365 190.877 119.04 186.511C118.464 178.772 118.112 171.013 117.647 163.266L117.483 160.558C117.307 157.624 117.146 154.688 117.094 151.75C117.059 149.803 117.163 147.857 117.099 145.913C117.04 144.118 116.858 142.166 117.254 140.402C117.268 140.336 117.373 140.319 117.403 140.383C117.814 141.249 118.075 142.19 118.276 143.152C119.337 141.811 120.417 140.466 121.532 139.186ZM52.0723 91.7672C52.2213 91.7564 52.2155 91.98 52.0723 91.9966C49.9915 92.238 47.9812 93.0848 46.016 93.8047L45.8477 93.8662C43.8625 94.5865 41.9272 95.424 40.0645 96.4224C36.4228 98.3748 33.079 100.892 30.1224 103.773C18.3181 115.276 12.9383 131.864 8.99724 147.454C6.80697 156.115 5.24957 164.922 4.23954 173.797C3.74052 178.186 3.38772 182.592 3.18192 187.005C3.07709 189.267 3.01055 191.53 2.98231 193.794C2.96839 194.954 2.96413 196.113 2.96529 197.273C2.96607 197.804 3.06084 198.474 2.91887 198.99C2.78696 199.468 2.41521 199.889 2.14017 200.287C1.81445 200.76 1.22878 200.734 0.898422 200.287L0.776568 200.124C0.424546 199.656 0.0794874 199.21 0.0291986 198.599C-0.0249586 197.944 0.0133396 197.269 0.0106318 196.611C0.00521603 195.285 0.0214632 193.96 0.048155 192.635C0.0992175 190.095 0.199406 187.557 0.347951 185.02C0.649684 179.874 1.14677 174.738 1.85855 169.632C3.1239 160.556 5.01978 151.567 7.50367 142.747C9.84713 134.426 12.6231 126.13 16.5777 118.423C20.2492 111.266 25.0661 104.609 31.4222 99.608C34.378 97.2823 37.5957 95.3447 41.0649 93.8844C42.8142 93.1482 44.6516 92.5474 46.5205 92.2047C48.368 91.8651 50.2074 91.9127 52.0723 91.7672ZM84.7771 186.769C85.1075 186.767 85.4754 186.839 85.7585 187.021L86.1368 187.314C86.2397 187.446 86.3411 187.578 86.4428 187.71C86.6796 188.018 86.7109 188.517 86.6614 188.885C86.6502 189.13 86.5775 189.358 86.4428 189.57L86.1554 189.943C85.878 190.169 85.6475 190.33 85.3117 190.438C85.1365 190.495 84.9678 190.507 84.7999 190.498L84.7435 190.494L84.7771 190.499L84.7183 190.492C84.6634 190.488 84.6088 190.481 84.5535 190.474C84.516 190.469 84.4789 190.466 84.4409 190.461C84.4046 190.458 84.3698 190.457 84.3338 190.46C83.9071 190.5 83.4793 190.259 83.1768 189.981C82.9044 189.731 82.6596 189.2 82.6979 188.824L82.7137 188.667C82.7427 188.402 82.7663 188.298 82.8785 188.031C82.9876 187.772 83.1404 187.543 83.3477 187.35C83.745 186.981 84.2317 186.772 84.7771 186.769ZM83.458 167.364C84.0236 166.748 84.9953 166.703 85.6966 167.076C85.8672 167.166 86.0247 167.313 86.1747 167.434C86.5538 167.741 86.7036 168.295 86.7245 168.761C86.745 169.222 86.502 169.77 86.1747 170.089L86.0955 170.166C85.9001 170.356 85.62 170.521 85.3461 170.571C84.9055 170.652 84.535 170.65 84.1249 170.477C83.7721 170.328 83.4681 170.089 83.2611 169.764L83.2278 169.708C83.2135 169.686 83.2 169.663 83.1876 169.639L83.169 169.603C82.7764 168.847 82.882 167.992 83.458 167.364ZM83.7508 147.859C84.0058 147.779 84.2607 147.767 84.516 147.824C84.6893 147.825 84.8506 147.868 85.0003 147.955C85.1628 148.001 85.304 148.083 85.4235 148.202C85.5674 148.287 85.6827 148.402 85.7682 148.546C85.9376 148.731 86.0517 148.949 86.1117 149.199L86.1798 149.708L86.1117 150.219L85.9183 150.677C85.8649 150.747 85.8115 150.816 85.7574 150.885C85.6719 151.03 85.5566 151.145 85.4123 151.231C85.3183 151.324 85.2108 151.394 85.0901 151.443C84.663 151.749 84.094 151.848 83.5872 151.709C83.287 151.625 83.0259 151.473 82.805 151.253C82.5849 151.031 82.4329 150.77 82.3485 150.47L82.3137 150.23C82.2696 149.908 82.2619 149.73 82.3536 149.32C82.3934 149.141 82.5091 148.887 82.5702 148.78C82.829 148.324 83.253 148.011 83.7508 147.859ZM105.899 133.825C106.631 133.82 107.363 133.821 108.096 133.829L108.645 133.837C109.565 133.851 110.353 133.756 111.076 134.394C111.6 134.857 111.369 135.634 110.871 135.983C110.116 136.512 109.17 136.246 108.302 136.188C107.387 136.126 106.472 136.075 105.555 136.034C103.782 135.955 102.007 135.904 100.232 135.897C98.4603 135.889 96.6863 135.906 94.9146 135.935C93.1123 135.964 91.2357 136.132 89.4431 135.945C89.1967 135.92 89.1418 135.596 89.3847 135.512C91.0737 134.927 92.9734 134.738 94.7436 134.515C96.5695 134.283 98.3946 134.12 100.232 134.015C102.119 133.906 104.009 133.838 105.899 133.825ZM83.7477 128.086L83.8081 128.087C84.1307 128.088 84.4324 128.164 84.7137 128.314L84.7736 128.348L85.1605 128.647C85.3976 128.885 85.5616 129.167 85.6521 129.491L85.721 129.999C85.7307 130.263 85.6761 130.508 85.5562 130.736C85.4792 130.973 85.3469 131.178 85.1609 131.351C84.9876 131.538 84.7821 131.669 84.5454 131.747C84.335 131.857 84.1098 131.912 83.8692 131.913L83.8085 131.912C83.4634 131.91 83.1416 131.823 82.8437 131.65L82.4565 131.351C82.2193 131.113 82.0553 130.831 81.9648 130.507L81.896 129.999C81.8863 129.736 81.9408 129.49 82.0611 129.263C82.1377 129.025 82.27 128.82 82.4561 128.647C82.6294 128.46 82.8348 128.328 83.0716 128.251C83.282 128.141 83.5071 128.085 83.7477 128.086ZM89.4172 83.1566C89.8292 82.5597 90.5762 83.0904 90.469 83.5701C90.4977 84.9179 90.5665 86.2258 90.8729 87.546C91.0133 88.1503 91.1974 88.7553 91.481 89.3088L91.6001 89.5425C91.9673 90.2678 92.2527 90.9521 91.758 91.7479C91.5247 92.1231 91.1038 92.4047 90.647 92.385C88.6223 92.2976 88.3437 89.4787 88.2207 87.905C88.0935 86.2842 88.4884 84.5032 89.4172 83.1566Z" fill="#010101"/>
<path d="M102.099 30.3073C101.427 26.2347 103.632 25.389 102.099 21.5172C98.6917 14.3433 89.4072 14.6524 82.5946 14.1007C74.9952 13.8087 67.3041 14.8145 60.2981 17.8666C58.6254 18.5958 57.0157 19.453 55.4723 20.4271C54.1385 21.2696 54.3218 22.8711 55.1628 23.745C49.0972 32.3537 52.5663 43.9093 47.7262 52.9713C46.8319 54.5914 45.6497 56.0436 44.8721 57.729C43.6907 60.291 43.6153 63.9617 46.2946 65.6634C50.0678 67.6932 52.1729 63.6743 54.0267 69.5001C63.286 89.8121 81.9018 90.956 99.574 80.366C101.103 79.5138 102.663 78.5501 103.818 77.2113C106.438 74.2555 106.13 70.0989 106.188 66.4077C106.221 64.2449 106.226 62.0813 106.205 59.9181C106.122 51.1547 103.225 38.9984 102.099 30.3073Z" fill="#ECB989"/>
<path d="M64.4585 5.94583C75.1291 1.09489 87.2309 -0.744904 98.8704 0.461642C104.616 1.05621 110.285 2.332 115.68 4.40429L116.153 4.58765C117.485 5.10137 118.92 5.61122 119.933 6.65723C121.111 7.87267 121.441 9.71053 120.599 11.2115C119.945 12.3782 118.769 13.2149 117.514 13.6613C117.957 14.0242 118.376 14.4284 118.769 14.8798C119.432 15.6365 119.482 16.7158 118.769 17.4628C117.395 18.901 115.611 19.9416 113.69 20.4406C113.906 21.4851 113.79 22.641 113.327 23.6819C111.999 26.6703 108.258 27.0265 105.379 26.849L105.292 26.8436L105.132 28.6795C105.047 29.6574 104.462 30.416 103.471 30.5665C103.436 30.5715 103.401 30.5746 103.366 30.5781C104.936 36.2661 105.884 42.1298 106.759 47.9595C107.216 51.0019 107.625 54.0521 108.017 57.1043L108.147 58.1217C108.565 61.4117 109.087 64.7354 109.268 68.0498C109.43 71.0579 108.857 73.9298 107.007 76.3568C105.348 78.5331 103.084 80.1637 100.65 81.3737C95.1506 84.109 89.362 86.1461 83.2797 87.0907L82.8739 87.1534C80.5262 87.5128 78.1073 87.8157 75.7848 87.1642C73.7442 86.5921 71.6038 85.1171 72.0649 82.7473C72.2197 81.947 73.3368 81.9122 73.7194 82.5307L73.808 82.6727C74.2672 83.403 74.7697 84.0812 75.5712 84.4575C76.5089 84.9005 77.5963 85.0239 78.621 85.0363C81.4829 85.0695 84.4634 84.3546 87.2193 83.6378C92.3658 82.299 97.6515 80.1161 101.866 76.8082C103.661 75.4028 105.101 73.6451 105.609 71.384C106.237 68.5957 105.66 65.5478 105.374 62.7459C104.787 56.9639 104.088 51.1926 103.351 45.428L103.203 44.2752C102.583 39.4556 101.93 34.6345 101.62 29.787C101.491 29.611 101.404 29.4102 101.37 29.1905L101.321 28.8752C101.279 28.6052 101.272 28.3573 101.301 28.1286C101.303 27.2532 101.328 26.3832 101.378 25.5082C101.386 25.3515 101.394 25.1941 101.399 25.0393C100.491 25.2397 99.5756 25.4018 98.6569 25.5395C92.199 26.5144 85.6402 26.7581 79.1297 26.2734C75.8815 26.0308 72.6579 25.6142 69.4441 25.0931C67.8082 24.8274 66.1784 24.5349 64.5533 24.2073C63.3793 23.9717 62.2288 23.6525 61.0733 23.3527C59.8823 25.0912 59.2386 27.2308 59.3631 29.3317C59.5043 31.7293 61.0977 33.9037 60.6509 36.3536C60.2312 38.6463 58.2715 39.3574 56.3365 39.9248L55.5137 40.1631C54.8801 40.348 54.4205 40.5272 54.306 41.2896C54.1091 42.5991 54.3509 44.0721 54.4015 45.3889C54.4623 46.9459 54.542 48.503 54.5791 50.0604C54.5984 50.8658 54.6294 51.6746 54.6278 52.4804C54.6259 53.0526 54.5404 53.4429 54.3195 53.8123C54.4901 54.027 54.6433 54.2587 54.7791 54.5047C54.8228 54.5848 54.7149 54.6703 54.6507 54.6042C54.4781 54.4247 54.2956 54.2626 54.1025 54.1175C54.005 54.2378 53.8921 54.3601 53.7594 54.4908L53.7493 54.4769C53.335 54.89 52.6774 54.9303 52.1641 54.4908L52.0291 54.374C51.6531 54.0436 51.395 53.7686 51.291 53.2228C51.2852 53.1949 51.2802 53.1671 51.2771 53.1392C50.3216 53.1059 49.351 53.3326 48.4914 53.8088C47.1294 54.5631 46.1708 55.6393 45.6037 56.9681C45.8296 57.2331 46.0942 57.4702 46.4018 57.6691C46.4451 57.6989 46.4072 57.7635 46.3604 57.7406C46.0455 57.5925 45.7635 57.4099 45.5113 57.1952C45.3078 57.7182 45.1646 58.2799 45.078 58.8744C44.772 60.9738 45.3182 63.5385 47.211 64.7346C48.0303 65.2526 48.9665 65.5331 49.9378 65.5366C50.4109 65.5381 50.8194 65.458 51.279 65.3447C51.5904 65.2685 51.8999 65.1567 52.2256 65.1567C52.5041 65.1567 52.7614 65.2267 52.9996 65.366L52.9335 65.3718C52.7726 65.3869 52.8035 65.3938 53.0271 65.3938C53.723 65.4236 54.1215 66.1315 53.8016 66.747L53.7598 66.8421C53.7509 66.8615 53.7435 66.8773 53.7373 66.8897L53.7122 67.0534C53.7099 67.0688 53.7068 67.0847 53.7041 67.1009L53.6948 67.1342C53.6929 67.1396 53.6905 67.1446 53.6882 67.1501L54.7323 68.745C56.0119 70.6966 57.3198 72.6404 58.8088 74.4226C59.8525 75.6729 60.9592 76.8987 62.1282 78.0337C63.1793 79.0542 64.4388 79.5455 65.6287 80.3478C66.2639 80.7733 66.45 81.6642 65.8724 82.2379C64.1777 83.9241 61.7785 82.5849 60.3882 81.2143C59.073 79.9153 57.9368 78.3529 56.9574 76.7889C55.2193 74.0083 53.8364 71.0505 53.231 67.8406C52.9784 68.0723 52.6565 68.217 52.3312 68.3303C51.679 68.5574 50.9602 68.651 50.2713 68.6761C48.951 68.7195 47.6288 68.3988 46.4408 67.8297C41.6057 65.5195 40.8959 58.601 43.8517 54.521C43.4533 53.3624 43.2308 52.1056 42.9887 51.0333L42.8792 50.5544C41.6568 45.2028 40.8363 39.5682 43.003 34.3238C43.2815 33.6472 43.5945 32.9885 43.9651 32.3571C44.2625 31.8492 44.7739 31.3092 44.9147 30.732C45.2281 29.4644 43.2947 28.1317 42.731 27.1259C42.068 25.9457 41.9748 24.5523 42.8777 23.473C42.9926 23.3373 43.1171 23.2115 43.2533 23.1017C42.3972 21.5462 42.3574 19.5904 43.4846 18.0554C44.2258 17.0446 45.3569 16.3367 46.5921 16.1216C47.3472 15.9908 48.2555 16.04 49.0852 16.274C53.6283 12.0451 58.813 8.5125 64.4585 5.94583ZM47.0083 58.8543C48.221 57.782 49.5607 57.2199 51.2136 57.3615C52.8751 57.5047 54.8758 58.1928 55.8518 59.6214C56.6224 60.7494 55.0514 62.4043 53.9207 61.5568C52.8906 60.7847 52.2031 59.9127 50.9246 59.4976C49.7761 59.1263 48.3545 58.8876 47.1526 59.1004C47.0203 59.1224 46.888 58.9584 47.0083 58.8543Z" fill="#010101"/>
<path d="M88.3229 74.5448C87.1508 74.0667 86.1056 73.269 85.3408 72.2501C85.0746 71.8958 85.0058 71.5213 85.0615 71.1793C85.1245 70.7948 85.352 70.4459 85.6622 70.2122C85.9736 69.9778 86.3632 69.8618 86.7396 69.921C87.0665 69.972 87.3922 70.1511 87.6498 70.5229L87.7043 70.5971C88.1589 71.2122 88.7511 71.717 89.4258 72.042C90.0764 72.3553 90.8037 72.5015 91.5565 72.4164C92.9905 72.2547 93.9788 71.4791 95.0291 70.4258C95.1595 70.2931 95.2894 70.1561 95.4206 70.0165C95.5038 69.8904 95.6183 69.8092 95.7459 69.7666C95.8867 69.719 96.0469 69.7217 96.1935 69.7728C96.3347 69.8223 96.4612 69.9159 96.5459 70.0401C96.6264 70.1585 96.672 70.3047 96.6573 70.4722C96.561 71.5635 95.9904 72.5379 95.1804 73.3023C94.2802 74.1518 93.0872 74.7394 91.9638 74.9456C90.7255 75.1734 89.4648 75.0106 88.3229 74.5448ZM92.5472 57.7081C93.8636 58.5085 95.8697 60.375 94.4535 62.3591C92.7862 64.1083 90.3859 62.1026 89.2033 61.1951C88.1067 60.4922 86.8742 62.3003 87.8916 63.1211C96.4391 69.4498 99.9079 57.917 93.2133 56.7665C92.476 56.6404 92.2021 57.4605 92.5472 57.7081ZM76.4567 50.3462C76.6021 48.5405 79.3521 48.13 79.6256 49.9172C79.8705 51.5179 79.5823 52.9883 78.8609 54.4297C78.1719 55.8064 76.4404 55.1639 76.3097 53.9101C76.1344 52.2301 76.3661 51.4696 76.4567 50.3462ZM95.8422 49.5466C96.2252 49.0445 96.7792 48.7018 97.4426 48.8956C99.5145 49.5006 98.9041 52.4433 98.176 53.8753C97.7811 54.6529 96.503 54.8502 95.9254 54.1655C94.9835 53.0483 94.5328 50.8189 95.7301 49.7188C95.7622 49.6619 95.7981 49.6046 95.8422 49.5466ZM79.6059 42.4447L79.9336 42.3878C80.9455 42.2126 82.2051 42.0443 82.9215 42.8586C83.3014 43.2903 83.4321 44.0926 82.9215 44.5057C82.0233 45.233 81.0299 44.951 79.9537 45.0133C79.0667 45.0639 78.2141 45.2109 77.3595 45.455C75.4849 45.9908 73.9573 46.9691 72.3558 48.0434C72.1458 48.1838 71.9314 47.9153 72.0316 47.7188C72.9562 45.908 74.7472 44.4214 76.541 43.5147C77.4984 43.03 78.5464 42.6288 79.6059 42.4447ZM96.274 41.6335L96.5246 41.6849C99.251 42.2551 102.793 43.3932 104.084 46.0717C104.133 46.4504 104.081 46.5312 104.039 46.5842L104.025 46.602C103.99 46.6473 103.962 46.7096 103.798 46.7614C103.753 46.7509 103.707 46.739 103.661 46.7266C103.069 46.5715 102.601 46.3579 102.147 46.1363L101.656 45.8941C101.085 45.6144 100.51 45.3452 99.9006 45.146C98.6 44.7216 97.2619 44.4226 95.9026 44.2632C95.6078 44.2284 95.3243 44.129 95.1011 43.9588C94.8883 43.7971 94.7258 43.5731 94.6523 43.2756C94.5564 42.8903 94.5839 42.5986 94.7904 42.2513C94.9455 41.9901 95.1684 41.8095 95.4237 41.7058C95.6836 41.5994 95.98 41.5747 96.274 41.6335Z" fill="#010101"/>
<path d="M77.0145 75.6376C78.4256 72.3302 81.5064 69.8997 85.0533 69.0107C87.6583 68.3597 90.3925 68.3805 93.0473 68.639C94.4388 68.7736 95.9308 68.8834 97.2418 69.4003C98.3617 69.8416 99.2742 70.676 99.9597 71.6555C100.776 72.816 101.332 74.1444 101.722 75.5061C101.777 75.6995 101.829 75.8945 101.878 76.0906C101.708 77.1177 101.348 77.9923 100.397 78.6379C99.4688 79.2689 98.3605 79.5265 97.2565 79.6182C97.1486 79.5663 97.0434 79.513 96.9474 79.458C95.2268 78.4727 94.0156 76.1448 91.8439 76.4596C89.9054 76.7413 88.6292 79.1803 87.4772 80.61C83.7771 81.0413 80.0798 79.9292 77.0694 77.8136C76.9162 77.0894 76.9077 76.3595 77.0145 75.6376ZM104.393 73.1286C104.097 72.2984 103.724 71.4934 103.282 70.7356C101.822 68.2289 99.5787 66.2317 96.9165 65.0901C90.6191 62.3931 82.47 64.2944 77.3839 68.7171C75.647 70.2292 73.8904 72.4512 73.3592 74.8411C73.2006 74.8724 73.0505 74.9552 72.9275 75.0717C69.253 72.758 65.4689 70.5317 62.5073 67.3249C60.3569 64.9946 58.8613 62.2368 57.9453 59.2063C57.871 58.9568 57.4687 58.9932 57.4807 59.2694C57.4842 59.334 57.4877 59.3982 57.4908 59.4628C57.4525 59.344 57.2718 59.4055 57.2575 59.5204C56.7651 63.2016 56.1485 67.1044 56.7163 70.8052C57.0556 73.0133 58.0587 74.6299 59.3998 76.3753C60.8362 78.2464 62.4624 79.9868 64.1254 81.6553C65.1803 82.7148 66.2824 83.9364 67.5745 84.7132C69.0773 85.6157 70.7817 86.3016 72.3856 86.9982C74.0172 87.7085 75.6729 88.3649 77.3599 88.934C80.7327 90.0755 84.2181 90.8647 87.7647 91.2101C90.6052 91.486 93.8504 91.7865 96.5722 90.7185C98.658 89.8995 100.342 88.4195 101.677 86.6385C103.131 84.6993 104.28 82.4904 104.916 80.1609C105.576 77.7416 104.532 73.5189 104.393 73.1286Z" fill="#010101"/>
<path d="M220.769 138.089C218.814 133.497 221.377 99.2014 221.377 99.2014C223.014 92.5605 238.058 91.4673 240.758 91.5091C243.938 91.5583 240.264 133.763 240.264 133.763C236.647 137.76 222.182 141.405 220.769 138.089Z" fill="#E0E0E0"/>
<path d="M224.375 139.998C222.852 140.044 221.32 139.27 220.838 138.567C217.63 133.894 220.591 100.566 220.696 99.1599L220.711 99.0682C221.088 92.4548 230.181 91.8622 238.988 91.2034C239.932 91.1326 241.276 90.958 241.553 91.2327C242.058 91.7336 243.949 92.8153 242.054 113.293C241.121 123.362 241.321 133.417 240.195 134.447C237.066 137.31 229.384 139.998 224.375 139.998ZM222.054 99.2913C221.171 111.121 219.904 134.341 221.407 137.869C221.65 138.44 222.733 138.767 224.375 138.767C228.872 138.767 236.939 136.241 239.6 133.517C239.724 132.068 240.492 122.915 240.972 113.611C241.892 95.7922 241.057 92.1293 240.412 92.1223C237.084 92.0892 222.42 92.908 222.054 99.2913Z" fill="#010101"/>
<path d="M239.289 133.685C239.289 133.685 242.508 91.6298 240.116 92.0025C235.161 92.7746 225.587 93.723 224.295 99.2376C224.295 99.2376 221.823 134.052 223.709 138.713C223.772 138.867 223.894 138.866 224.005 138.991C229.039 139.176 236.606 136.439 239.289 133.685Z" fill="white"/>
<path d="M225.326 100.602C225.598 99.2423 228.361 97.6411 229.856 97.3599C231.351 97.0787 231.478 97.6787 231.52 100.418C231.597 105.457 231.274 106.543 230.255 107.326C228.878 108.386 227.319 108.728 226.572 108.743C225.609 108.762 225.055 107.213 225.155 105.039C225.237 103.26 225.042 102.016 225.326 100.602Z" fill="#010101"/>
<path d="M210.72 103.638C210.573 103.638 210.422 103.608 210.279 103.543L204.907 101.132C204.37 100.891 204.132 100.265 204.376 99.7337C204.621 99.202 205.254 98.9678 205.791 99.2089L211.163 101.62C211.701 101.861 211.938 102.487 211.694 103.019C211.515 103.408 211.127 103.638 210.72 103.638ZM197.009 97.4836C196.861 97.4836 196.711 97.4532 196.568 97.3889L191.007 94.8932C190.47 94.6521 190.232 94.0259 190.476 93.4948C190.721 92.964 191.354 92.7289 191.891 92.9697L197.452 95.4654C197.989 95.7065 198.227 96.3327 197.983 96.8638C197.804 97.2534 197.415 97.4836 197.009 97.4836ZM183.109 91.2444C182.961 91.2444 182.811 91.214 182.668 91.1497L177.107 88.654C176.57 88.4129 176.332 87.7867 176.576 87.2556C176.821 86.7247 177.454 86.4897 177.991 86.7305L183.552 89.2262C184.089 89.4673 184.327 90.0935 184.083 90.6246C183.903 91.0142 183.515 91.2444 183.109 91.2444ZM169.209 85.0055C169.061 85.0055 168.911 84.9751 168.767 84.9108L163.207 82.4151C162.67 82.174 162.432 81.5478 162.676 81.0167C162.92 80.4855 163.554 80.2511 164.091 80.4916L169.651 82.9873C170.189 83.2284 170.427 83.8546 170.182 84.3857C170.003 84.7753 169.615 85.0055 169.209 85.0055ZM155.309 78.7663C155.161 78.7663 155.011 78.7358 154.867 78.6716L149.307 76.1759C148.77 75.9348 148.532 75.3086 148.776 74.7775C149.02 74.246 149.654 74.0119 150.191 74.2524L155.751 76.7481C156.289 76.9892 156.527 77.6154 156.282 78.1465C156.103 78.5361 155.715 78.7663 155.309 78.7663ZM141.408 72.5271C141.261 72.5271 141.11 72.4966 140.967 72.4324L135.407 69.9367C134.869 69.6956 134.632 69.0694 134.876 68.5383C135.12 68.0071 135.753 67.7727 136.291 68.0132L141.851 70.5089C142.388 70.75 142.626 71.3762 142.382 71.9073C142.203 72.2969 141.815 72.5271 141.408 72.5271ZM127.508 66.2882C127.361 66.2882 127.21 66.2577 127.067 66.1935L121.507 63.6978C120.97 63.4567 120.732 62.8302 120.976 62.2994C121.22 61.7679 121.854 61.5334 122.391 61.7743L127.951 64.2702C128.488 64.5114 128.726 65.1376 128.482 65.6687C128.303 66.058 127.914 66.2882 127.508 66.2882Z" fill="#010101"/>
<path d="M156.513 64.2373C157.044 64.4704 157.456 64.7832 157.748 65.1759C158.047 65.5721 158.215 66.0196 158.252 66.5183C158.293 67.0091 158.198 67.5165 157.969 68.0404C157.736 68.5723 157.411 68.9884 156.996 69.2889C156.588 69.5929 156.12 69.7661 155.59 69.8085C155.064 69.8429 154.515 69.735 153.944 69.4845C153.436 69.2619 152.972 68.9498 152.552 68.5481C152.143 68.1419 151.837 67.7053 151.635 67.2382L152.333 66.6498C152.829 67.6337 153.486 68.3047 154.304 68.6629C154.891 68.9203 155.425 68.9554 155.904 68.768C156.384 68.5807 156.749 68.2013 156.999 67.6297C157.242 67.0741 157.272 66.5525 157.088 66.0651C156.913 65.5812 156.551 65.2192 156.003 64.9792C155.201 64.6279 154.42 64.6734 153.658 65.1156L152.979 64.8183L155.134 59.9006L160.171 62.1074L159.816 62.9171L155.744 61.1329L154.434 64.1216C154.75 64.0046 155.084 63.9567 155.434 63.9777C155.796 63.9943 156.155 64.0808 156.513 64.2373ZM161.185 72.6717C160.225 72.2508 159.655 71.5657 159.474 70.6162C159.294 69.6668 159.51 68.4935 160.123 67.0964C160.738 65.6914 161.456 64.7333 162.276 64.2221C163.096 63.7109 163.986 63.6657 164.947 64.0866C165.908 64.5074 166.478 65.1925 166.658 66.142C166.842 67.0835 166.626 68.2567 166.01 69.6618C165.394 71.0668 164.676 72.025 163.856 72.5361C163.036 73.0473 162.146 73.0925 161.185 72.6717ZM161.545 71.8501C162.212 72.1422 162.828 72.0761 163.392 71.6516C163.957 71.2271 164.5 70.4195 165.022 69.2288C165.547 68.0301 165.771 67.0873 165.693 66.4005C165.627 65.7092 165.257 65.2157 164.582 64.9201C163.915 64.6279 163.301 64.6901 162.74 65.1066C162.179 65.5232 161.638 66.3268 161.116 67.5175C160.594 68.7083 160.369 69.655 160.439 70.3577C160.51 71.0604 160.879 71.5579 161.545 71.8501ZM170.763 72.4967L174.097 73.9575L173.748 74.7553L170.414 73.2945L170.763 72.4967ZM183.521 81.365L183.161 82.1866L178.493 80.1415L178.853 79.3199L180.699 80.1285L183.485 73.7701L181.601 74.0519L181.477 73.1035L184.291 72.6755L184.993 72.9833L181.675 80.5563L183.521 81.365ZM187.853 84.3562C186.893 83.9354 186.323 83.2502 186.142 82.3008C185.962 81.3514 186.178 80.1781 186.79 78.781C187.406 77.3759 188.124 76.4178 188.944 75.9066C189.764 75.3954 190.654 75.3503 191.615 75.7711C192.575 76.192 193.146 76.8771 193.326 77.8265C193.509 78.768 193.293 79.9413 192.678 81.3464C192.062 82.7514 191.344 83.7095 190.524 84.2207C189.704 84.7319 188.814 84.7771 187.853 84.3562ZM188.213 83.5346C188.88 83.8268 189.496 83.7606 190.06 83.3361C190.625 82.9117 191.168 82.1041 191.69 80.9133C192.215 79.7147 192.439 78.7719 192.361 78.0851C192.295 77.3937 191.924 76.9003 191.25 76.6046C190.583 76.3125 189.969 76.3747 189.408 76.7912C188.847 77.2078 188.306 78.0114 187.784 79.2021C187.262 80.3928 187.037 81.3396 187.107 82.0423C187.178 82.745 187.547 83.2425 188.213 83.5346ZM195.231 87.5888C194.271 87.168 193.7 86.4828 193.52 85.5334C193.34 84.584 193.556 83.4107 194.168 82.0136C194.784 80.6085 195.502 79.6504 196.322 79.1392C197.142 78.628 198.032 78.5829 198.993 79.0037C199.953 79.4246 200.524 80.1097 200.704 81.0591C200.887 82.0006 200.671 83.1739 200.056 84.5789C199.44 85.984 198.722 86.9421 197.902 87.4533C197.082 87.9645 196.192 88.0097 195.231 87.5888ZM195.591 86.7672C196.258 87.0594 196.874 86.9932 197.438 86.5687C198.003 86.1442 198.546 85.3366 199.067 84.1459C199.593 82.9473 199.816 82.0045 199.739 81.3177C199.673 80.6263 199.302 80.1329 198.628 79.8372C197.961 79.5451 197.347 79.6073 196.786 80.0238C196.225 80.4403 195.684 81.244 195.162 82.4347C194.64 83.6254 194.415 84.5721 194.485 85.2749C194.556 85.9776 194.924 86.4751 195.591 86.7672Z" fill="black"/>
</svg>
