<?xml version="1.0" encoding="UTF-8" standalone="no"?><!-- Generator: Gravit.io --><svg xmlns="http://www.w3.org/2000/svg" xmlns:xlink="http://www.w3.org/1999/xlink" style="isolation:isolate" viewBox="0 0 184 211" width="184pt" height="211pt"><defs><clipPath id="_clipPath_mCRrzPA9ufN2p39CjQ9qstkmyd7tdJEn"><rect width="184" height="211"/></clipPath></defs><g clip-path="url(#_clipPath_mCRrzPA9ufN2p39CjQ9qstkmyd7tdJEn)"><path d=" M 60.885 147.873 C 61.938 145.181 63.03 142.31 64.638 140.808 C 67.091 138.517 70.725 139.337 75.229 140.074 C 74.402 128.891 79.563 126.042 86.674 123.916 C 87.376 123.648 88.077 123.406 88.777 123.185 C 94.618 122.912 100.531 123.032 105.901 123.621 C 110.095 125.828 113.277 130.043 114.665 136.759 C 117.921 136.759 120.379 137.542 122.533 138.653 C 119.336 151.512 112.065 174.512 99.958 180.122 C 87.333 185.972 69.964 164.039 60.885 147.873 Z " fill="rgb(236,185,137)"/><path d=" M 0.719 203.536 C 11.271 159.031 48.574 142.859 54.66 142.484 L 60.798 141.58 L 61.898 140.495 L 62.286 139.435 C 62.399 139.131 62.482 138.91 62.536 138.772 L 62.995 137.637 L 63.133 137.292 C 63.519 136.333 63.762 135.827 64.137 135.3 C 64.685 134.53 65.375 134.007 66.273 133.765 L 66.354 133.745 L 66.531 133.7 L 66.628 133.677 C 67.615 133.444 69.004 133.234 70.805 133.044 L 71.171 133.006 L 71.663 132.958 L 71.672 132.91 L 71.912 132.938 L 72.045 132.955 C 72.404 133 72.785 133.055 73.212 133.121 L 73.543 133.173 L 74.301 133.296 L 75.68 133.527 L 75.615 133.876 L 75.57 134.119 L 75.536 134.293 L 75.484 134.558 C 75.449 134.735 75.411 134.908 75.371 135.082 C 75.123 136.152 74.827 137.036 74.419 137.831 L 74.245 138.172 L 74.085 138.493 L 74.05 138.566 C 73.432 139.865 72.806 142.238 73.061 142.89 L 73.114 143.031 L 73.409 143.853 L 73.606 144.398 L 73.74 144.763 C 74.678 147.314 75.728 149.94 77.148 153.343 L 77.458 154.084 L 78.043 155.474 L 78.241 155.94 C 79.83 159.674 81.566 163.596 83.799 168.526 L 84.887 170.922 L 86.668 174.835 L 86.702 174.939 L 86.864 175.263 L 87.669 174.818 L 89.361 173.887 L 94.154 168.845 L 94.245 168.791 L 94.276 168.773 C 94.358 168.72 94.449 168.646 94.566 168.537 L 94.66 168.448 L 94.948 168.164 L 95.345 167.785 L 95.621 167.515 L 95.842 167.294 L 96.171 166.961 L 97.205 165.902 C 98.406 164.667 99.534 163.452 100.603 162.243 C 102.979 159.552 105.264 156.72 107.458 153.752 C 109.766 150.628 111.769 147.52 113.447 144.411 C 114.023 143.345 114.583 142.213 115.184 140.918 L 115.445 140.351 L 115.764 140.248 L 115.81 140.232 C 116.37 140.024 116.625 139.374 116.579 138.192 L 116.564 137.866 L 116.618 137.737 L 116.324 136.299 L 116.294 136.15 C 116.283 136.101 116.272 136.05 116.261 135.999 L 116.191 135.685 L 116.124 135.402 L 115.937 134.633 L 115.796 134.045 L 115.761 133.884 L 115.07 130.498 L 116.103 130.452 L 116.246 130.447 C 119.288 130.375 122.501 131.652 124.55 133.789 L 124.705 133.951 L 124.748 134.171 L 124.756 134.205 C 124.789 134.331 124.866 134.468 125.018 134.664 L 125.085 134.746 L 125.519 135.267 L 125.627 135.405 C 126.091 136.006 126.486 136.66 126.785 137.331 C 126.992 137.795 127.098 138.201 127.219 138.936 L 127.254 139.145 L 127.339 139.697 L 127.387 139.991 C 127.569 141.05 127.758 141.512 128.164 141.857 C 128.19 141.878 128.217 141.897 128.246 141.914 L 128.531 141.916 L 128.604 141.918 L 128.617 141.909 L 128.631 141.897 L 128.645 141.886 C 129.062 141.49 129.25 140.938 129.234 140.209 L 129.211 139.113 L 130.417 139.53 L 130.699 139.625 L 131.011 139.732 C 131.538 139.916 132.106 140.124 132.733 140.364 L 133.116 140.51 L 133.638 140.714 L 134.107 140.898 L 136.932 142.025 L 137.196 142.129 C 137.623 142.297 137.984 142.436 138.315 142.561 L 139.893 143.15 L 140.382 143.331 L 141.02 143.564 L 141.416 143.711 C 144.175 144.747 146.747 145.898 149.168 147.196 C 154.431 150.017 162.174 152.442 166.646 156.802 C 174.78 164.728 177.867 167.204 183.166 179.252 C 185.316 184.138 183.166 195.772 178.365 198.031 C 178.365 198.031 144.107 204.888 132.618 206.785 C 110.45 210.446 74.567 196.817 55.667 200.713 C 41.972 203.536 -0.669 209.394 0.719 203.536 Z " fill="rgb(85,175,138)"/><path d=" M 50.019 79.235 C 50.411 78.937 50.829 78.659 51.28 78.409 C 52.404 77.786 53.661 77.457 54.913 77.431 C 55.058 77.428 55.203 77.426 55.348 77.431 C 55.352 77.472 55.359 77.513 55.368 77.553 C 55.52 78.35 55.897 78.751 56.446 79.234 L 56.643 79.405 C 57.392 80.046 58.352 79.988 58.957 79.384 C 58.957 79.384 60.202 78.243 60.24 76.47 C 60.265 75.293 60.197 74.112 60.169 72.936 C 60.114 70.663 59.998 68.389 59.909 66.116 C 59.835 64.194 59.482 62.043 59.77 60.131 C 59.937 59.018 60.608 58.756 61.533 58.486 L 62.734 58.138 C 65.559 57.309 68.421 56.271 69.033 52.924 C 69.686 49.348 67.359 46.173 67.153 42.672 C 67.054 41.009 67.296 39.332 67.805 37.739 C 75.724 38.636 83.722 38.799 91.67 38.207 C 92.394 38.153 93.117 38.082 93.841 38.016 C 94.564 38.082 95.287 38.153 96.012 38.207 C 103.96 38.799 111.957 38.636 119.877 37.739 C 120.387 39.332 120.628 41.009 120.529 42.672 C 120.323 46.173 117.996 49.348 118.649 52.924 C 119.262 56.272 122.123 57.31 124.948 58.138 L 126.149 58.486 C 127.074 58.756 127.745 59.018 127.912 60.131 C 128.2 62.043 127.847 64.194 127.773 66.116 C 127.684 68.389 127.568 70.663 127.514 72.936 C 127.485 74.112 127.377 75.295 127.442 76.47 C 127.552 78.437 128.725 79.384 128.725 79.384 C 129.33 79.988 130.29 80.046 131.04 79.405 L 131.237 79.234 C 131.786 78.752 132.162 78.35 132.314 77.553 C 132.323 77.513 132.33 77.472 132.335 77.431 C 132.479 77.426 132.624 77.428 132.769 77.431 C 134.022 77.458 135.277 77.786 136.402 78.409 C 136.854 78.659 137.271 78.937 137.662 79.235 C 138.993 80.247 141.169 82.425 141.386 85.804 C 141.551 88.379 141.262 91.377 139.492 93.326 C 139.136 93.716 138.734 94.068 138.272 94.36 C 137.218 95.027 136.031 95.423 134.794 95.511 C 134.627 95.523 134.459 95.531 134.291 95.531 C 133.6 95.533 133.004 95.416 132.333 95.251 C 131.878 95.14 131.426 94.976 130.951 94.976 C 130.544 94.976 130.169 95.079 129.821 95.282 L 129.917 95.29 C 130.152 95.313 130.107 95.323 129.781 95.323 C 128.765 95.366 128.183 96.4 128.65 97.298 L 128.711 97.437 C 128.724 97.465 128.735 97.489 128.744 97.507 L 128.78 97.746 C 128.784 97.768 128.788 97.791 128.792 97.815 L 128.806 97.864 C 128.809 97.872 128.812 97.879 128.815 97.887 L 127.291 100.215 C 125.423 103.065 123.513 105.903 121.339 108.505 C 119.816 110.33 118.2 112.12 116.493 113.777 C 115.18 115.052 113.644 115.763 112.14 116.675 L 112.139 116.675 C 112.139 116.675 112.135 116.678 112.135 116.678 C 111.883 116.831 111.631 116.988 111.382 117.156 C 111.263 117.236 111.156 117.328 111.059 117.428 C 108.56 119.042 101.844 122.693 92.198 122.693 C 85.248 122.693 78.214 118.417 76.361 117.205 C 76.34 117.19 76.324 117.17 76.302 117.155 C 76.182 117.075 76.062 117.002 75.943 116.926 C 75.908 116.902 75.885 116.886 75.885 116.886 C 75.885 116.886 75.881 116.886 75.88 116.886 C 74.269 115.868 72.602 115.147 71.19 113.777 C 69.484 112.12 67.868 110.33 66.344 108.505 C 64.17 105.903 62.261 103.065 60.392 100.215 L 58.868 97.887 C 58.871 97.879 58.875 97.872 58.877 97.864 L 58.891 97.815 C 58.895 97.791 58.899 97.768 58.903 97.746 L 58.94 97.507 C 58.949 97.489 58.959 97.465 58.972 97.437 L 59.033 97.298 C 59.5 96.4 58.919 95.366 57.903 95.323 C 57.576 95.323 57.531 95.313 57.766 95.29 L 57.863 95.282 C 57.515 95.079 57.139 94.976 56.732 94.976 C 56.257 94.976 55.804 95.14 55.35 95.251 C 54.679 95.416 54.083 95.533 53.392 95.531 C 53.223 95.531 53.056 95.523 52.889 95.511 C 51.652 95.423 50.466 95.027 49.411 94.36 C 48.949 94.068 48.548 93.716 48.192 93.326 C 46.421 91.377 45.857 88.346 46.297 85.804 C 46.897 82.334 48.689 80.247 50.019 79.235 Z  M 131.974 89.719 C 132.956 88.592 133.612 87.319 134.83 86.713 C 135.029 86.615 135.238 86.526 135.45 86.443 C 136.411 86.069 137.487 85.878 138.426 86.133 C 138.474 86.145 138.522 86.118 138.556 86.07 C 138.642 85.995 138.674 85.868 138.566 85.774 C 138.555 85.763 138.542 85.754 138.529 85.743 C 138.529 85.739 138.529 85.734 138.528 85.73 C 137.555 84.427 136.494 83.658 135.244 83.577 C 135.02 83.563 134.792 83.564 134.555 83.594 C 132.972 83.803 131.065 84.808 130.135 86.894 C 129.4 88.541 130.897 90.957 131.974 89.719 Z  M 49.152 85.744 C 49.141 85.754 49.128 85.763 49.116 85.774 C 49.008 85.868 49.041 85.995 49.126 86.07 C 49.16 86.117 49.205 86.145 49.251 86.132 C 50.141 85.878 51.163 86.069 52.075 86.443 C 52.276 86.525 52.475 86.614 52.663 86.713 C 53.819 87.319 54.441 88.592 55.372 89.719 C 56.395 90.956 57.816 88.54 57.119 86.893 C 56.237 84.808 54.427 83.803 52.924 83.594 C 52.7 83.563 52.484 83.562 52.271 83.577 C 51.083 83.658 50.078 84.427 49.154 85.73 C 49.153 85.735 49.152 85.74 49.152 85.744 Z " fill="rgb(236,185,137)"/><path d=" M 96.311 111.928 C 98.022 111.23 99.548 110.066 100.665 108.578 C 101.054 108.061 101.154 107.514 101.073 107.015 C 100.981 106.453 100.649 105.944 100.196 105.603 C 99.741 105.261 99.172 105.091 98.623 105.178 C 98.145 105.252 97.67 105.514 97.294 106.056 L 97.214 106.165 C 96.551 107.063 95.686 107.8 94.701 108.274 C 93.751 108.732 92.689 108.945 91.59 108.821 C 89.496 108.585 88.053 107.452 86.52 105.915 C 86.33 105.721 86.14 105.521 85.948 105.317 C 85.827 105.133 85.66 105.014 85.473 104.952 C 85.268 104.883 85.034 104.887 84.82 104.961 C 84.614 105.034 84.429 105.17 84.305 105.351 C 84.188 105.524 84.122 105.738 84.143 105.982 C 84.283 107.576 85.116 108.998 86.299 110.114 C 87.613 111.355 89.355 112.212 90.995 112.514 C 92.803 112.846 94.644 112.608 96.311 111.928 Z  M 88.049 88.148 C 87.808 90.092 88.123 93.707 91.387 94.485 C 94.609 94.809 95.602 90.712 95.62 88.776 C 95.782 87.119 97.58 87.879 97.606 89.586 C 97.235 103.352 82.197 94.717 86.506 87.774 C 86.981 87.01 88.073 87.6 88.049 88.148 Z  M 112.506 76.598 C 112.294 73.962 108.279 73.363 107.88 75.972 C 107.522 78.309 107.943 80.456 108.996 82.56 C 110.002 84.57 112.53 83.632 112.721 81.802 C 112.977 79.348 112.638 78.238 112.506 76.598 Z  M 81.944 75.431 C 81.385 74.698 80.576 74.198 79.607 74.48 C 76.582 75.364 77.474 79.66 78.536 81.751 C 79.113 82.886 80.979 83.174 81.822 82.175 C 83.198 80.543 83.856 77.289 82.108 75.682 C 82.061 75.599 82.009 75.516 81.944 75.431 Z  M 109.038 65.062 L 108.56 64.979 C 107.082 64.723 105.243 64.477 104.197 65.666 C 103.642 66.296 103.452 67.468 104.197 68.071 C 105.509 69.133 106.959 68.721 108.53 68.812 C 109.825 68.886 111.07 69.1 112.318 69.457 C 115.055 70.239 117.285 71.667 119.623 73.236 C 119.93 73.441 120.243 73.049 120.096 72.762 C 118.746 70.118 116.132 67.948 113.513 66.624 C 112.114 65.917 110.584 65.331 109.038 65.062 Z  M 84.348 63.878 L 83.929 63.955 C 79.373 64.801 73.453 66.489 71.295 70.462 C 71.213 71.024 71.3 71.144 71.371 71.222 L 71.394 71.249 C 71.453 71.316 71.499 71.409 71.773 71.485 C 71.85 71.47 71.926 71.452 72.004 71.433 C 72.993 71.204 73.775 70.887 74.533 70.558 L 75.355 70.198 C 76.308 69.784 77.27 69.384 78.289 69.089 C 80.462 68.459 82.698 68.016 84.97 67.779 C 85.462 67.727 85.936 67.58 86.309 67.328 C 86.665 67.087 86.936 66.755 87.059 66.314 C 87.22 65.743 87.173 65.31 86.828 64.795 C 86.569 64.407 86.197 64.14 85.77 63.985 C 85.335 63.828 84.84 63.791 84.348 63.878 Z " fill="rgb(1,1,1)"/><path d=" M 58.428 88.95 C 58.443 88.782 58.642 88.693 58.684 88.866 C 58.68 88.772 58.676 88.678 58.672 88.584 C 58.659 88.18 59.101 88.127 59.183 88.492 C 60.188 92.916 61.831 96.942 64.192 100.345 C 67.444 105.027 71.599 108.277 75.635 111.655 C 75.769 111.485 75.934 111.364 76.108 111.318 C 76.507 108.936 77.533 106.668 78.751 104.765 C 80.348 101.573 82.614 99.025 85.267 97.513 C 87.107 96.466 89.091 95.898 91.117 95.743 C 94.805 94.847 98.63 95.175 101.977 97.081 C 104.9 98.748 107.363 101.663 108.967 105.324 C 109.298 106.079 109.591 106.868 109.849 107.677 C 110.438 108.959 110.898 110.333 111.135 111.749 C 111.309 111.795 111.474 111.916 111.609 112.086 C 115.645 108.708 119.8 105.458 123.051 100.776 C 125.413 97.373 127.055 93.347 128.061 88.923 C 128.143 88.558 128.584 88.611 128.571 89.015 C 128.567 89.109 128.563 89.203 128.56 89.297 C 128.601 89.124 128.8 89.213 128.816 89.381 C 129.349 94.688 129.69 104.133 127.925 109.922 C 126.979 113.026 123.101 119.262 121.274 121.699 C 120.116 123.246 118.906 125.029 117.488 126.163 C 115.837 127.481 113.966 128.482 112.204 129.499 C 110.413 130.536 108.595 131.495 106.742 132.326 C 105.326 132.963 103.891 133.523 102.442 134.003 C 102.168 134.183 101.887 134.349 101.599 134.499 C 99.785 135.446 97.759 135.654 95.75 135.584 C 95.606 135.604 95.461 135.63 95.317 135.649 C 92.198 136.051 88.633 136.49 85.645 134.931 C 84.67 134.423 83.781 133.731 82.962 132.913 C 82.136 132.598 81.316 132.261 80.502 131.895 C 78.649 131.064 76.831 130.105 75.039 129.068 C 73.279 128.051 71.407 127.05 69.756 125.732 C 68.337 124.598 67.127 122.815 65.969 121.268 C 64.143 118.832 60.807 112.441 60.435 109.217 C 59.812 103.814 57.887 94.325 58.428 88.95 Z  M 80.412 115.863 C 81.724 117.052 83.151 118.009 84.645 118.691 C 84.728 118.702 84.81 118.715 84.893 118.725 C 85.011 118.649 85.127 118.571 85.233 118.491 C 87.122 117.053 88.565 114.291 94.088 114.009 C 99.182 113.749 100.813 115.797 102.011 118.06 C 102.081 118.191 102.233 118.218 102.351 118.294 C 103.564 118.16 104.781 117.783 105.799 116.862 C 106.541 116.193 106.952 115.354 107.197 114.388 C 107.2 113.896 107.176 113.403 107.121 112.913 C 105.572 108.084 102.189 104.536 98.293 103.238 C 95.433 102.288 92.43 102.318 89.515 102.695 C 89.409 102.709 89.303 102.722 89.197 102.735 C 89.115 102.761 89.033 102.779 88.95 102.807 C 85.056 104.104 81.673 107.653 80.124 112.482 C 80.028 113.332 80.022 114.19 80.109 115.047 C 80.191 115.331 80.292 115.603 80.412 115.863 Z " fill="rgb(1,1,1)"/><path d=" M 38.181 16.216 C 36.951 14.024 37.434 11.341 39.154 9.567 C 40.632 8.04 41.598 7.296 43.543 6.545 L 44.234 6.277 C 52.111 3.252 54.74 1.389 63.128 0.521 C 73.417 -0.546 83.951 0.03 94.121 2.213 C 100.749 3.635 107.223 5.733 113.369 8.528 C 121.612 12.275 129.181 17.433 135.816 23.607 C 137.028 23.265 138.353 23.194 139.456 23.384 C 141.259 23.698 142.911 24.732 143.993 26.207 C 145.639 28.448 145.58 31.304 144.331 33.575 C 144.529 33.735 144.711 33.919 144.879 34.117 C 145.231 34.537 145.476 34.991 145.632 35.462 C 146.063 36.757 145.803 38.187 145.093 39.451 C 144.27 40.92 142.104 42.82 141.905 44.716 C 141.59 47.717 140.108 47.294 140.814 49.129 C 143.788 56.861 141.014 65.843 139.229 73.656 L 139.069 74.356 C 138.716 75.921 141.873 76.803 143.457 79.448 C 147.131 85.581 146.788 94.942 140.254 98.578 C 140.066 98.683 139.874 98.784 139.677 98.879 C 138.326 99.525 136.857 99.948 135.364 100.075 C 134.938 100.111 134.511 100.128 134.084 100.114 C 133.078 100.078 132.028 99.94 131.076 99.609 C 130.601 99.443 130.131 99.232 129.763 98.894 C 128.879 103.58 126.86 107.898 124.322 111.958 C 123.06 113.974 121.618 115.987 119.977 117.737 C 119.759 117.969 119.538 118.197 119.313 118.419 C 119.089 118.64 118.847 118.859 118.591 119.073 C 115.308 121.906 110.079 129.846 92.855 129.846 C 78.594 129.846 69.535 118.974 69.535 118.974 L 69.537 118.974 C 69.324 118.792 69.12 118.606 68.931 118.419 C 68.706 118.197 68.485 117.969 68.267 117.737 C 66.625 115.987 65.184 113.974 63.922 111.958 C 61.384 107.899 59.365 103.58 58.481 98.894 C 58.112 99.232 57.642 99.443 57.167 99.609 C 56.215 99.94 55.166 100.077 54.16 100.114 C 53.732 100.128 53.305 100.111 52.88 100.075 C 51.386 99.948 49.917 99.525 48.567 98.879 C 48.369 98.784 48.178 98.683 47.99 98.578 C 41.456 94.942 40.592 85.238 44.787 79.448 C 47.375 76.173 49.528 75.356 49.174 73.791 L 49.015 73.092 C 47.23 65.278 46.032 57.052 49.195 49.395 C 49.602 48.407 43.974 40.919 43.151 39.451 C 42.441 38.188 42.182 36.757 42.612 35.462 C 42.394 35.14 42.191 34.801 42.023 34.423 C 41.347 32.903 41.177 31.215 41.492 29.69 C 38.688 28.962 38.758 22.676 39.725 21.572 C 40.299 20.913 40.912 20.322 41.557 19.793 C 39.724 19.141 39.136 17.919 38.181 16.216 Z  M 46.576 85.804 C 46.137 88.346 46.7 91.377 48.471 93.326 C 48.827 93.716 49.228 94.068 49.69 94.36 C 50.745 95.027 51.931 95.423 53.168 95.511 C 53.335 95.523 53.502 95.531 53.671 95.531 C 54.362 95.533 54.958 95.416 55.629 95.251 C 56.084 95.14 56.536 94.976 57.011 94.976 C 57.418 94.976 57.794 95.079 58.142 95.282 L 58.045 95.291 C 57.81 95.313 57.855 95.323 58.182 95.323 C 59.198 95.366 59.779 96.4 59.312 97.298 L 59.251 97.437 C 59.238 97.465 59.228 97.489 59.219 97.507 L 59.182 97.746 C 59.178 97.768 59.174 97.791 59.17 97.815 L 59.156 97.864 C 59.154 97.872 59.15 97.879 59.147 97.887 L 60.671 100.215 C 62.54 103.065 64.449 105.903 66.623 108.505 C 68.147 110.33 69.763 112.12 71.469 113.777 C 72.881 115.147 74.549 115.868 76.159 116.886 C 76.16 116.886 76.164 116.886 76.164 116.886 C 76.164 116.886 76.188 116.902 76.222 116.926 C 76.341 117.002 76.461 117.076 76.581 117.155 C 76.603 117.17 76.619 117.19 76.64 117.205 C 78.493 118.417 85.527 122.693 92.477 122.693 C 102.122 122.693 108.839 119.042 111.338 117.428 C 111.435 117.327 111.542 117.236 111.661 117.156 C 111.91 116.988 112.162 116.831 112.414 116.678 C 112.414 116.678 112.418 116.675 112.418 116.675 L 112.419 116.675 C 113.923 115.763 115.459 115.052 116.772 113.777 C 118.479 112.12 120.095 110.33 121.618 108.505 C 123.792 105.903 125.702 103.065 127.57 100.215 L 129.094 97.887 C 129.091 97.879 129.088 97.872 129.085 97.864 L 129.071 97.815 C 129.067 97.791 129.063 97.768 129.059 97.746 L 129.023 97.507 C 129.014 97.489 129.004 97.465 128.99 97.437 L 128.929 97.298 C 128.462 96.4 129.044 95.366 130.06 95.323 C 130.386 95.323 130.431 95.313 130.196 95.291 L 130.1 95.282 C 130.448 95.079 130.823 94.976 131.23 94.976 C 131.705 94.976 132.158 95.14 132.612 95.251 C 133.283 95.416 133.879 95.533 134.57 95.531 C 134.738 95.531 134.906 95.523 135.073 95.511 C 136.31 95.423 137.497 95.027 138.551 94.36 C 139.013 94.068 139.415 93.716 139.771 93.326 C 141.542 91.377 141.83 88.378 141.665 85.804 C 141.448 82.425 139.272 80.247 137.941 79.235 C 137.55 78.937 137.132 78.659 136.681 78.409 C 135.557 77.786 134.301 77.457 133.048 77.431 C 132.903 77.428 132.758 77.426 132.614 77.431 C 132.609 77.472 132.602 77.513 132.593 77.553 C 132.441 78.35 132.064 78.751 131.516 79.234 L 131.319 79.405 C 130.569 80.046 129.61 79.988 129.004 79.385 C 129.004 79.385 127.831 78.437 127.721 76.47 C 127.656 75.295 127.764 74.112 127.793 72.936 C 127.847 70.663 127.963 68.389 128.052 66.116 C 128.126 64.194 128.479 62.043 128.191 60.131 C 128.024 59.018 127.353 58.756 126.428 58.486 L 125.227 58.139 C 122.402 57.309 119.541 56.271 118.928 52.924 C 118.275 49.348 120.602 46.173 120.808 42.672 C 120.907 41.009 120.666 39.332 120.156 37.739 C 112.237 38.636 104.239 38.799 96.291 38.207 C 95.566 38.153 94.844 38.082 94.12 38.016 C 93.397 38.082 92.673 38.153 91.949 38.207 C 84.001 38.799 76.004 38.636 68.084 37.739 C 67.575 39.332 67.333 41.009 67.432 42.672 C 67.638 46.173 69.965 49.348 69.312 52.924 C 68.7 56.272 65.838 57.31 63.013 58.139 L 61.812 58.486 C 60.887 58.756 60.216 59.018 60.049 60.131 C 59.761 62.043 60.114 64.194 60.188 66.116 C 60.277 68.389 60.393 70.663 60.448 72.936 C 60.476 74.112 60.544 75.293 60.519 76.47 C 60.481 78.243 59.236 79.385 59.236 79.385 C 58.631 79.988 57.671 80.046 56.922 79.405 L 56.725 79.234 C 56.176 78.752 55.799 78.35 55.647 77.553 C 55.638 77.513 55.631 77.472 55.627 77.431 C 55.482 77.426 55.337 77.428 55.192 77.431 C 53.94 77.458 52.684 77.786 51.559 78.409 C 51.107 78.659 50.69 78.937 50.298 79.235 C 48.969 80.247 47.177 82.334 46.576 85.804 Z " fill="rgb(1,1,1)"/><path d=" M 52.55 83.577 C 52.763 83.563 52.979 83.564 53.203 83.594 C 54.706 83.803 56.515 84.808 57.398 86.894 C 58.095 88.541 56.674 90.957 55.651 89.719 C 54.72 88.592 54.098 87.319 52.942 86.713 C 52.754 86.615 52.555 86.526 52.354 86.443 C 51.442 86.069 50.42 85.878 49.53 86.133 C 49.484 86.145 49.439 86.118 49.405 86.07 C 49.32 85.995 49.287 85.868 49.395 85.774 C 49.407 85.763 49.42 85.755 49.431 85.745 C 49.431 85.74 49.432 85.735 49.433 85.73 C 50.357 84.427 51.363 83.658 52.55 83.577 Z " fill="rgb(1,1,1)"/><path d=" M 134.835 83.594 C 135.072 83.563 135.299 83.563 135.523 83.577 C 136.774 83.658 137.836 84.427 138.808 85.73 C 138.808 85.734 138.808 85.739 138.809 85.743 C 138.821 85.754 138.834 85.763 138.846 85.774 C 138.954 85.868 138.922 85.995 138.836 86.07 C 138.801 86.118 138.753 86.146 138.705 86.133 C 137.767 85.878 136.691 86.069 135.729 86.443 C 135.517 86.526 135.308 86.615 135.11 86.713 C 133.892 87.319 133.236 88.592 132.254 89.719 C 131.177 90.957 129.679 88.541 130.414 86.894 C 131.345 84.808 133.252 83.803 134.835 83.594 Z " fill="rgb(1,1,1)"/><path d=" M 49.367 170.162 C 49.586 169.854 49.821 169.584 50.069 169.343 C 50.285 168.583 50.549 167.855 50.709 167.255 C 51.265 165.168 51.844 163.086 52.454 161.013 C 53.719 156.713 55.118 152.452 56.653 148.242 C 57.422 146.136 58.225 144.041 59.06 141.961 L 59.175 141.671 C 59.903 139.833 60.577 137.903 61.536 136.178 C 62.398 134.628 63.868 133.137 65.645 132.682 C 67.277 132.264 69.301 132.696 71.027 133.126 L 71.947 133.357 C 72.11 133.398 72.127 133.622 71.992 133.706 C 70.502 134.636 68.632 133.984 67.001 134.424 C 65.37 134.863 64.802 136.419 64.232 137.846 L 63.81 138.886 C 62.41 142.351 61.087 145.844 59.862 149.375 C 58.552 153.154 57.342 156.967 56.244 160.814 C 55.681 162.785 55.141 164.764 54.642 166.753 L 59.307 164.535 L 59.463 164.461 C 60.972 163.731 62.526 162.833 64.197 162.587 C 65.995 162.322 67.497 163.038 69.012 163.921 L 69.619 164.276 C 72.653 166.057 75.637 167.911 78.543 169.897 C 80.127 170.979 81.713 172.065 83.256 173.207 C 83.867 173.66 84.581 174.125 85.249 174.637 L 85.211 174.519 C 82.077 167.637 78.935 160.767 76.011 153.79 C 74.486 150.151 72.997 146.499 71.682 142.777 L 71.659 142.712 C 71.236 141.559 70.134 139.669 70.735 138.465 C 70.953 138.027 71.486 137.608 71.868 138.081 C 71.957 138.191 71.847 138.365 71.709 138.287 L 71.686 138.276 C 71.415 138.17 71.766 139.271 71.769 139.279 L 71.84 139.436 C 71.992 139.748 72.188 140.056 72.343 140.365 C 72.712 141.098 73.091 141.826 73.456 142.561 C 73.7 143.051 73.941 143.543 74.183 144.035 L 75.628 146.987 C 77.114 150.018 78.525 153.088 80.008 156.121 C 82.938 162.115 85.889 168.116 89.078 173.977 C 89.307 174.397 89.344 174.838 89.25 175.246 C 89.333 175.514 89.403 175.783 89.464 176.052 C 90.412 174.835 92.309 174.238 93.603 173.576 C 95.557 172.578 97.512 171.582 99.463 170.578 C 101.381 169.59 103.278 168.533 105.234 167.621 C 107.197 166.707 109.131 166.4 111.165 167.292 C 112.72 167.974 114.175 168.954 115.594 169.906 L 116.78 170.699 C 118.238 171.68 119.671 172.7 121.076 173.758 C 123.212 175.366 125.277 177.054 127.273 178.823 C 127.711 174.347 127.598 169.843 127.424 165.341 L 127.291 161.966 C 127.158 158.556 127.044 155.14 127.048 151.727 L 127.047 151.458 C 127.034 148.409 126.755 145.096 127.368 142.09 C 127.213 142.041 127.062 141.961 126.928 141.847 C 125.636 140.75 126.012 138.545 125.346 137.049 C 125.046 136.374 124.644 135.729 124.182 135.154 C 123.778 134.651 123.364 134.267 123.258 133.728 C 121.277 131.662 118.129 130.481 115.256 130.631 L 115.765 133.133 C 115.882 133.7 116.133 134.589 116.33 135.555 C 116.657 135.099 116.999 134.654 117.366 134.236 C 117.475 134.113 117.656 134.246 117.625 134.387 C 117.4 135.418 117.018 136.426 116.592 137.414 C 116.673 138.792 116.406 140.016 115.256 140.385 C 114.665 141.669 114.049 142.938 113.377 144.184 C 111.605 147.465 109.546 150.618 107.329 153.616 C 105.153 156.559 102.856 159.414 100.433 162.158 C 99.219 163.533 97.964 164.873 96.68 166.184 C 96.065 166.812 95.453 167.451 94.811 168.051 L 94.742 168.118 C 94.461 168.39 94.152 168.729 93.807 168.905 L 93.734 168.945 C 93.489 169.073 93.227 169.137 92.947 169.138 C 92.503 169.007 92.378 169.009 92.572 169.144 L 92.621 169.176 C 91.552 169.59 90.91 168.27 91.287 167.441 C 91.329 167.349 91.356 166.795 91.473 166.571 C 91.673 166.19 92.051 165.893 92.351 165.592 L 92.86 165.089 C 93.371 164.589 93.889 164.094 94.393 163.587 C 95.635 162.339 96.848 161.062 98.042 159.767 C 100.484 157.118 102.817 154.362 105.005 151.498 C 107.15 148.688 109.209 145.827 111.245 142.938 L 112.233 141.539 L 113.22 140.139 C 112.76 139.822 112.444 139.318 112.424 138.715 C 112.318 138.244 112.464 137.776 112.781 137.451 L 112.796 137.228 C 112.825 136.655 112.779 136.062 112.777 135.492 L 112.764 131.344 C 112.76 130.041 112.768 128.743 112.811 127.441 L 112.813 127.358 C 112.833 126.468 112.711 125.393 113.313 124.69 C 113.35 124.647 113.41 124.66 113.449 124.69 C 114.41 125.435 114.507 127.276 114.768 128.391 L 114.871 128.839 C 114.973 129.288 115.069 129.739 115.164 130.19 C 118.521 129.126 121.747 130.099 124.687 132.047 C 125.062 132.056 125.435 132.222 125.7 132.479 C 126.913 133.66 127.881 135.03 128.516 136.6 C 129.159 138.191 129.839 140.513 128.43 141.85 C 128.302 141.971 128.16 142.049 128.012 142.097 C 128.482 143.607 128.625 145.171 128.845 146.745 L 128.98 147.741 C 129.156 149.07 129.315 150.399 129.475 151.73 C 129.832 154.704 130.099 157.69 130.346 160.677 L 130.548 163.177 C 131.099 169.912 131.756 176.724 130.677 183.438 C 130.425 185.01 128.318 185.263 127.321 184.325 C 122.123 179.435 116.387 174.774 110.144 171.272 C 108.412 170.299 107.161 171.124 105.536 171.954 L 101.927 173.795 L 100.125 174.718 C 98.323 175.643 96.523 176.57 94.723 177.497 C 93.16 178.301 91.572 179.475 89.835 178.841 C 89.874 179.367 89.906 179.898 89.946 180.435 L 90.004 181.258 C 90.132 183.18 90.214 185.104 90.3 187.029 C 90.49 191.341 90.652 195.651 90.795 199.964 C 90.834 201.155 91.366 202.442 90.898 203.537 C 90.58 204.28 88.744 205.483 88.052 205.067 C 87.973 205.019 87.413 204.684 87.62 203.261 C 88.313 198.493 87.689 193.623 87.781 188.804 L 87.795 187.987 C 87.83 185.808 87.847 183.625 87.952 181.449 C 88.031 179.821 88.015 178.187 88.272 176.594 C 87.709 176.941 87.01 177.003 86.421 176.544 C 85.041 176.164 83.716 175.197 82.489 174.523 C 81.021 173.718 79.566 172.889 78.093 172.092 C 75.074 170.463 72.043 168.846 68.99 167.28 L 68.908 167.238 C 67.645 166.577 66.095 165.482 64.624 165.731 C 63.047 165.998 61.476 167.081 60.058 167.782 L 55.162 170.201 C 54.637 170.461 54.137 170.726 53.64 170.965 L 53.618 171.046 L 53.612 171.09 C 53.812 171.363 53.944 171.686 53.961 172.024 C 54.077 174.235 51.214 174.658 50.131 173.014 C 49.853 172.593 49.737 172.102 49.72 171.579 C 49.263 171.271 49.001 170.673 49.367 170.162 Z " fill="rgb(1,1,1)"/><path d=" M 76.01 127.911 C 75.408 127.04 74.318 127.815 74.474 128.515 C 74.432 130.483 74.332 132.392 73.884 134.32 C 73.679 135.202 73.41 136.085 72.996 136.893 L 72.823 137.235 C 72.287 138.294 71.87 139.293 72.592 140.454 C 72.933 141.002 73.547 141.413 74.214 141.385 C 77.17 141.257 77.577 137.141 77.756 134.844 C 77.942 132.477 77.366 129.877 76.01 127.911 Z " fill="rgb(1,1,1)"/><path d=" M 71.963 210.444 C 72.004 210.455 72.027 210.461 72.027 210.461 C 72.027 210.461 72.005 210.455 71.963 210.444 Z " fill="rgb(1,1,1)"/><path d=" M 139.117 104.407 L 132.057 107.89 L 123.208 116.378 L 118.784 119.939 L 120.29 137.447 L 124.996 154.485 L 131.68 171.24 L 136.857 182.347 C 136.857 182.347 139.028 184.422 140.623 185.01 C 145.646 186.863 157.186 185.245 162.367 183.194 C 167.773 181.055 175.872 175.789 179.216 171.993 C 179.406 171.777 178.985 170.739 178.981 170.452 C 178.942 167.499 174.039 160.697 174.039 160.697 L 168.579 154.391 L 159.26 143.095 L 151.542 131.141 L 144.576 117.492 L 139.21 103.937" fill="rgb(85,175,138)"/><path d=" M 126.668 70.521 C 126.668 70.521 127.31 65.84 126.274 62.922 C 125.239 60.005 124.16 57.274 126.865 57.651 C 129.569 58.028 131.922 60.005 134.464 67.347 C 137.005 74.689 136.559 83.304 135.746 85.397 C 134.934 87.49 127.498 75.912 127.498 75.912 L 126.668 70.521 Z " fill="rgb(236,185,137)"/><path d=" M 135.416 86.497 C 135.924 86.497 136.764 87.963 136.784 87.43 C 137.006 81.615 138.182 73.041 136.052 68.823 C 132.812 62.405 131.839 58.749 127.78 57.039 C 127.589 56.959 126.581 56.769 126.401 56.769 C 125.433 56.769 124.931 57.192 124.681 57.547 C 123.87 58.697 124.557 60.627 125.353 62.862 L 125.475 63.205 C 126.43 65.897 125.834 70.361 125.828 70.406 L 125.812 70.528 L 126.688 76.218 L 126.786 76.37 C 129.752 80.99 133.658 86.497 135.416 86.497 Z  M 126.401 58.464 C 126.506 58.464 126.621 58.473 126.747 58.49 C 128.796 58.776 131.051 60.08 133.662 67.624 C 135.955 74.246 135.735 81.99 135.11 84.579 C 133.8 83.536 130.745 79.387 128.307 75.606 L 127.523 70.511 C 127.621 69.713 128.078 65.477 127.072 62.639 L 126.949 62.294 C 126.504 61.046 125.76 58.957 126.064 58.525 C 126.074 58.512 126.16 58.464 126.401 58.464 Z " fill="rgb(0,0,0)"/><path d=" M 124.258 77.779 C 123.102 74.757 121.012 71.969 119.147 69.332 L 118.996 69.118 C 117.986 67.686 117.051 66.217 115.859 64.926 C 114.701 63.671 113.503 62.453 112.268 61.275 L 112.147 61.163 C 110.766 59.894 106.963 57.018 108.817 54.954 C 110.044 53.588 112.591 55.16 113.679 55.974 C 118.666 59.71 122.615 64.858 126.212 69.884 L 127.014 71.007 C 128.485 73.067 129.944 75.148 131.302 77.28 C 132.84 79.696 133.594 82.19 133.88 85.028 C 134.197 88.174 134.43 91.319 134.859 94.453 C 135.129 96.429 135.43 98.397 135.745 100.363 C 135.745 100.9 135.669 101.427 135.447 102.013 C 135.069 103.002 134.436 103.704 133.707 104.456 C 131.866 106.356 130.188 108.417 128.293 110.266 C 126.538 111.977 124.621 113.678 122.445 114.84 C 121.583 115.302 120.635 115.677 119.688 115.935 L 118.93 116.133 C 118.599 116.219 118.235 116.31 117.872 116.379 C 117.856 115.814 117.62 115.271 117.099 114.957 C 115.993 114.292 115.217 113.646 114.402 112.642 C 113.772 111.865 113.171 111.063 112.556 110.274 C 111.348 108.725 110.1 107.198 108.951 105.604 L 108.754 105.328 C 107.908 104.128 107.127 102.842 106.758 101.409 C 106.33 99.745 106.93 98.287 106.939 96.632 C 106.959 93.098 103.253 90.302 101.238 87.771 C 99.526 85.62 96.026 82.155 95.751 79.491 C 95.751 79.491 96.182 78.179 96.128 78.303 C 96.077 77.8 97.673 77.752 98.857 78.917 C 101.971 81.975 105.164 85.001 108.613 87.677 C 109.564 88.415 110.668 86.971 109.753 86.205 C 106.207 83.236 102.72 80.227 99.451 76.946 C 97.761 75.25 96.126 73.498 94.544 71.703 C 93.932 71.009 93.328 70.31 92.734 69.602 L 92.288 69.071 C 92.01 68.737 91.143 67.895 90.921 67.226 C 90.951 66.999 90.981 66.773 91.012 66.546 C 91.48 66.033 93.753 66.085 94.081 66.337 C 95.009 67.053 99.981 71.87 101.847 73.291 C 105.574 76.128 109.049 79.468 112.627 82.491 C 113.496 83.226 115.084 82.15 114.489 81.083 C 111.865 76.374 107.794 72.641 104.007 68.885 C 102.015 66.91 99.869 65.975 98.14 63.76 L 97.081 61.96 C 95.998 60.566 93.147 58.564 94.398 57.3 C 96.041 55.642 99.538 58.778 101.387 60.054 L 102.235 60.583 C 104.835 62.353 106.604 64.802 109.095 66.724 C 114.192 70.66 117.74 73.588 122.638 77.766 C 122.76 77.872 123.015 77.779 123.156 77.703 C 123.843 77.329 124.381 78.105 124.258 77.779 Z " fill="rgb(236,185,137)"/><path d=" M 96.203 76.762 C 94.059 75.048 87.903 66.5 89.58 64.783 C 93.269 61.005 104.036 74.913 108.134 76.689 C 106.913 76.16 91.893 60.899 92.352 56.08 C 92.384 55.747 92.67 54.417 94.47 54.417 C 97.239 54.417 99.038 56.788 101.231 58.339 L 102.177 59.004 C 104.752 60.821 107.272 62.716 109.733 64.684 C 115.016 68.909 119.903 73.573 124.246 78.76 C 124.35 78.884 124.167 79.064 124.045 78.959 C 119.146 74.782 114.194 70.658 109.097 66.723 C 107.913 65.811 105.274 64.065 102.465 61.875 C 99.357 59.451 96.079 56.648 95.152 57.451 C 93.217 59.126 102.016 66.908 104.008 68.883 C 107.796 72.639 111.866 76.373 114.491 81.081 C 115.086 82.148 113.497 83.224 112.629 82.49 C 109.05 79.466 105.231 76.716 101.504 73.879 C 99.639 72.458 96.07 68.252 95.141 67.536 C 94.814 67.284 92.67 65.171 91.013 66.545 C 90.982 66.772 90.953 66.998 90.923 67.225 C 91.145 67.894 92.012 68.736 92.29 69.07 L 92.735 69.601 C 93.33 70.308 93.933 71.008 94.546 71.702 C 96.129 73.498 97.763 75.249 99.453 76.945 C 102.721 80.225 106.208 83.235 109.755 86.204 C 110.67 86.97 109.566 88.414 108.615 87.676 C 105.166 85 101.972 81.973 98.859 78.916 C 97.674 77.751 96.588 78.372 96.305 78.467 C 96.177 78.51 95.87 79.125 96.564 80.655 C 97.069 81.768 99.527 85.619 101.239 87.77 C 103.253 90.302 106.96 93.098 106.94 96.631 C 106.93 98.287 106.331 99.744 106.76 101.408 C 107.128 102.842 107.909 104.128 108.755 105.328 L 108.952 105.603 C 110.101 107.197 111.35 108.724 112.558 110.274 C 113.172 111.063 113.773 111.865 114.403 112.641 C 115.218 113.645 115.994 114.291 117.1 114.957 C 117.621 115.27 117.858 115.814 117.873 116.379 C 118.236 116.309 118.6 116.218 118.931 116.133 L 119.689 115.934 C 120.636 115.677 121.583 115.302 122.446 114.84 C 124.622 113.677 126.539 111.977 128.294 110.265 C 130.189 108.417 131.867 106.355 133.708 104.456 C 134.437 103.703 135.07 103.001 135.448 102.012 C 135.671 101.427 135.746 100.899 135.746 100.362 C 135.431 98.397 135.13 96.429 134.86 94.452 C 134.431 91.318 134.198 88.174 133.881 85.027 C 133.595 82.19 132.841 79.696 131.303 77.28 C 129.945 75.147 128.486 73.067 127.015 71.007 L 126.213 69.884 C 122.616 64.858 118.667 59.709 113.68 55.974 C 112.591 55.16 110.045 53.587 108.818 54.954 C 106.965 57.017 110.767 59.894 112.148 61.162 L 112.27 61.275 C 113.505 62.452 114.703 63.671 115.86 64.925 C 117.052 66.217 117.987 67.685 118.997 69.118 L 119.148 69.331 C 121.014 71.968 123.103 74.757 124.259 77.778 C 124.382 78.105 123.962 78.318 123.743 78.069 C 121.385 75.393 118.997 72.739 117.039 69.726 C 114.926 66.472 112.706 63.708 110.267 61.483 C 108.212 59.609 105.285 57.03 106.688 54.251 C 108.203 51.25 112.62 53.765 115.256 55.788 C 121.025 60.219 123.473 64.548 130.814 73.014 C 132.659 75.142 134.683 79.68 135.006 81.443 C 135.395 83.564 136.983 85.787 137.02 90.035 L 137.034 91.881 C 137.054 94.375 137.001 96.869 136.921 99.36 C 137.695 99.948 138.213 100.79 138.497 101.73 C 138.914 101.654 139.358 101.734 139.7 102.017 C 140.848 102.968 141.267 104.171 141.851 105.506 L 142.475 106.932 C 142.892 107.884 143.309 108.834 143.729 109.784 C 144.925 112.493 146.15 115.189 147.352 117.897 C 147.864 119.049 148.516 120.513 149.265 122.162 C 151.334 126.711 165.404 148.978 174.087 158.226 C 176.862 161.181 178.563 166.334 179.741 170.117 C 180.143 171.411 179.23 172.114 178.752 171.02 C 177.378 167.868 175.582 164.847 173.314 162.266 L 170.696 159.252 C 170.696 159.252 155.34 141.364 155.357 141.326 C 154.769 140.544 154.218 139.791 153.747 139.122 C 151.772 136.319 149.217 131.397 147.025 126.87 C 146.062 124.882 145.168 122.968 144.424 121.344 C 143.062 118.367 141.767 115.362 140.489 112.348 C 139.853 110.843 139.219 109.336 138.588 107.828 C 138.412 107.408 138.226 106.998 138.049 106.591 C 137.354 107.956 136.351 109.233 135.367 110.435 L 134.782 111.146 C 133.438 112.784 131.957 114.366 130.354 115.754 C 127.701 118.053 124.559 119.843 121.154 120.749 C 120.945 120.804 120.731 120.858 120.515 120.911 C 120.683 121.524 120.72 130.022 124.602 144.054 C 125.089 145.814 125.633 147.656 126.248 149.585 C 132.232 168.336 149.041 195.886 151.01 200.194 C 151.258 200.739 151.781 202.143 151.354 202.563 C 150.681 203.224 148.315 202.602 147.629 201.955 C 142.596 197.209 128.753 169.188 127.842 166.621 C 125.454 159.888 122.426 152.459 120.154 141.937 C 118.896 136.117 117.868 129.354 117.309 121.229 C 116.624 121.152 115.963 120.95 115.361 120.548 C 114.216 119.782 113.349 118.172 113.876 116.852 C 113.73 116.331 113.594 115.852 113.274 115.365 C 113.001 114.948 112.697 114.542 112.398 114.145 C 111.698 113.213 110.953 112.308 110.232 111.391 L 109.934 111.013 C 108.837 109.629 107.712 108.26 106.693 106.818 C 105.698 105.411 104.784 103.886 104.309 102.217 C 103.868 100.668 103.99 99.281 104.185 97.748 L 104.247 97.266 C 104.518 95.192 102.964 93.707 101.77 92.193 L 101.377 91.695 C 100.267 90.277 99.182 88.835 98.293 87.268 C 97.183 85.311 92.387 79.678 96.203 76.762 Z " fill="rgb(1,1,1)"/><path d=" M 0.302 193.12 C 1.924 188.856 3.841 184.711 5.922 180.656 C 11.282 170.208 18.315 160.488 27.594 153.186 C 31.91 149.791 36.608 146.962 41.673 144.83 C 44.226 143.755 46.909 142.878 49.638 142.378 C 52.336 141.883 55.021 141.952 57.745 141.739 C 57.962 141.724 57.953 142.05 57.745 142.074 C 54.707 142.427 51.771 143.663 48.902 144.714 L 48.656 144.804 C 45.758 145.855 42.932 147.078 40.213 148.536 C 34.896 151.386 30.014 155.061 25.698 159.269 C 15.693 169.018 8.854 181.27 3.747 194.284 C 3.338 195.346 2.509 198.311 0.838 197.605 C 0.127 197.306 -0.058 194.064 0.302 193.12 Z " fill="rgb(1,1,1)"/></g></svg>