<svg width="184" height="211" viewBox="0 0 184 211" fill="none" xmlns="http://www.w3.org/2000/svg">
<path d="M123.238 147.873C122.185 145.181 121.093 142.31 119.485 140.808C117.032 138.517 113.398 139.337 108.894 140.074C109.721 128.891 104.56 126.042 97.4491 123.916C96.7471 123.648 96.0456 123.406 95.3453 123.185C89.5043 122.912 83.5922 123.032 78.2217 123.621C74.0276 125.828 70.8462 130.043 69.4579 136.759C66.2019 136.759 63.7434 137.542 61.5894 138.653C64.7872 151.512 72.0582 174.512 84.1643 180.122C96.79 185.972 114.159 164.039 123.238 147.873Z" fill="#ECB989"/>
<path d="M183.404 203.536C172.852 159.031 135.549 142.859 129.463 142.484L123.325 141.58L122.225 140.495L121.837 139.435C121.724 139.131 121.641 138.91 121.587 138.772L121.128 137.637L120.99 137.292C120.604 136.333 120.361 135.827 119.986 135.3C119.438 134.53 118.748 134.007 117.85 133.765L117.769 133.745L117.592 133.7L117.495 133.677C116.508 133.444 115.119 133.234 113.318 133.044L112.952 133.006L112.46 132.958L112.451 132.91L112.211 132.938L112.078 132.955C111.719 133 111.338 133.055 110.911 133.121L110.58 133.173L109.822 133.296L108.443 133.527L108.508 133.876L108.553 134.119L108.587 134.293L108.639 134.558C108.674 134.735 108.712 134.908 108.752 135.082C109 136.152 109.296 137.036 109.704 137.831L109.878 138.172L110.038 138.493L110.073 138.566C110.691 139.865 111.317 142.238 111.062 142.89L111.009 143.031L110.714 143.853L110.517 144.398L110.383 144.763C109.445 147.314 108.395 149.94 106.975 153.343L106.665 154.084L106.08 155.474L105.882 155.94C104.293 159.674 102.557 163.596 100.324 168.526L99.2356 170.922L97.4543 174.835L97.4209 174.939L97.2583 175.263L96.454 174.818L94.7614 173.887L89.9686 168.845L89.8777 168.791L89.8466 168.773C89.7648 168.72 89.6738 168.646 89.5563 168.537L89.4632 168.448L89.1751 168.164L88.7775 167.785L88.5013 167.515L88.2805 167.294L87.9518 166.961L86.9177 165.902C85.717 164.667 84.5885 163.452 83.5199 162.243C81.1439 159.552 78.8588 156.72 76.6652 153.752C74.3563 150.628 72.3536 147.52 70.6762 144.411C70.1001 143.345 69.5399 142.213 68.9389 140.918L68.678 140.351L68.3583 140.248L68.3132 140.232C67.7529 140.024 67.4982 139.374 67.5439 138.192L67.5592 137.866L67.5044 137.737L67.7986 136.299L67.8291 136.15C67.8399 136.101 67.8506 136.05 67.8619 135.999L67.9319 135.685L67.9986 135.402L68.1861 134.633L68.3267 134.045L68.3617 133.884L69.0525 130.498L68.0195 130.452L67.8771 130.447C64.8347 130.375 61.6216 131.652 59.5726 133.789L59.4178 133.951L59.3749 134.171L59.367 134.205C59.3342 134.331 59.2569 134.468 59.1044 134.664L59.0377 134.746L58.604 135.267L58.4955 135.405C58.0313 136.006 57.6365 136.66 57.3377 137.331C57.131 137.795 57.0248 138.201 56.9034 138.936L56.869 139.145L56.7842 139.697L56.7357 139.991C56.5533 141.05 56.3652 141.512 55.9591 141.857C55.9331 141.878 55.9054 141.897 55.8766 141.914L55.592 141.916L55.5186 141.918L55.5056 141.909L55.492 141.897L55.4779 141.886C55.0605 141.49 54.873 140.938 54.8888 140.209L54.912 139.113L53.7062 139.53L53.4238 139.625L53.1114 139.732C52.5845 139.916 52.0169 140.124 51.39 140.364L51.0065 140.51L50.4852 140.714L50.0159 140.898L47.1908 142.025L46.9265 142.129C46.4995 142.297 46.1387 142.436 45.8077 142.561L44.2297 143.15L43.7406 143.331L43.1024 143.564L42.707 143.711C39.9481 144.747 37.376 145.898 34.9548 147.196C29.6916 150.017 21.9484 152.442 17.4765 156.802C9.34247 164.728 6.25536 167.204 0.956569 179.252C-1.193 184.138 0.956569 195.772 5.75722 198.031C5.75722 198.031 40.0158 204.888 51.5047 206.785C73.6724 210.446 109.556 196.817 128.456 200.713C142.151 203.536 184.792 209.394 183.404 203.536Z" fill="#55AF8A"/>
<path d="M134.104 79.2348C133.712 78.9371 133.294 78.6593 132.843 78.4091C131.719 77.7855 130.462 77.4574 129.21 77.4309C129.065 77.428 128.92 77.4263 128.775 77.4314C128.771 77.4721 128.764 77.5128 128.755 77.5534C128.603 78.3498 128.226 78.7513 127.677 79.2342L127.48 79.4048C126.731 80.0464 125.771 79.9876 125.166 79.3844C125.166 79.3844 123.921 78.243 123.883 76.4696C123.858 75.2932 123.926 74.1122 123.954 72.9363C124.009 70.6625 124.125 68.3892 124.214 66.116C124.288 64.194 124.641 62.0428 124.353 60.131C124.186 59.0178 123.515 58.7557 122.59 58.4863L121.389 58.1384C118.564 57.3093 115.702 56.2713 115.09 52.9244C114.437 49.3476 116.764 46.1729 116.97 42.6724C117.069 41.0091 116.827 39.3323 116.318 37.7385C108.399 38.6359 100.401 38.7991 92.4531 38.2072C91.7285 38.153 91.0056 38.0819 90.2821 38.0163C89.5586 38.0819 88.8357 38.153 88.1105 38.2072C80.1623 38.7991 72.1655 38.6359 64.2456 37.7385C63.7362 39.3323 63.495 41.0091 63.5938 42.6724C63.8 46.1729 66.1263 49.3476 65.474 52.9244C64.8612 56.2718 62 57.3099 59.175 58.1384L57.9737 58.4863C57.0485 58.7563 56.3776 59.0178 56.2104 60.131C55.9229 62.0428 56.2759 64.1935 56.3499 66.116C56.4386 68.3892 56.5549 70.6625 56.6092 72.9363C56.6374 74.1122 56.7458 75.2949 56.6803 76.4696C56.5707 78.4367 55.3977 79.3844 55.3977 79.3844C54.7928 79.9876 53.8327 80.0464 53.0832 79.4048L52.8861 79.2342C52.3371 78.7519 51.9604 78.3503 51.8085 77.5534C51.8 77.5128 51.7927 77.4721 51.7882 77.4314C51.6436 77.4263 51.4984 77.428 51.3538 77.4309C50.1006 77.458 48.8456 77.7861 47.7206 78.4091C47.2688 78.6593 46.8514 78.9371 46.4606 79.2348C45.1299 80.2469 42.9538 82.4247 42.7369 85.8043C42.572 88.3786 42.8606 91.3771 44.6312 93.3256C44.9865 93.7164 45.3892 94.0682 45.8506 94.3602C46.9045 95.0267 48.0916 95.4232 49.3285 95.5113C49.4957 95.5231 49.6635 95.5305 49.8318 95.531C50.5225 95.5333 51.1189 95.4164 51.7899 95.2509C52.2445 95.1396 52.6963 94.9764 53.1719 94.9764C53.5785 94.9764 53.9541 95.0786 54.302 95.282L54.2054 95.2904C53.9705 95.3125 54.0157 95.3226 54.3421 95.3226C55.3582 95.3661 55.9399 96.3997 55.4728 97.2982L55.4118 97.4372C55.3988 97.4654 55.3881 97.4886 55.3791 97.5066L55.3423 97.7455C55.339 97.7681 55.3344 97.7913 55.3305 97.815L55.3169 97.8636C55.3141 97.8715 55.3107 97.8788 55.3073 97.8867L56.8317 100.215C58.7 103.065 60.6095 105.903 62.7833 108.505C64.3071 110.33 65.923 112.12 67.6298 113.777C68.9429 115.052 70.4785 115.763 71.9831 116.675H71.9842C71.9842 116.675 71.9876 116.678 71.9882 116.678C72.2401 116.831 72.492 116.988 72.7405 117.156C72.8596 117.236 72.967 117.328 73.0641 117.428C75.5627 119.042 82.2791 122.693 91.925 122.693C98.8747 122.693 105.909 118.417 107.762 117.205C107.783 117.19 107.799 117.17 107.821 117.155C107.941 117.075 108.061 117.002 108.18 116.926C108.215 116.902 108.238 116.886 108.238 116.886C108.238 116.886 108.242 116.886 108.243 116.886C109.854 115.868 111.521 115.147 112.933 113.777C114.639 112.12 116.255 110.33 117.779 108.505C119.953 105.903 121.862 103.065 123.731 100.215L125.255 97.8867C125.252 97.8788 125.248 97.8715 125.246 97.8636L125.232 97.815C125.228 97.7913 125.224 97.7681 125.22 97.7455L125.183 97.5066C125.174 97.4886 125.164 97.4654 125.151 97.4372L125.09 97.2982C124.623 96.3997 125.204 95.3661 126.22 95.3226C126.547 95.3226 126.592 95.3125 126.357 95.2904L126.26 95.282C126.608 95.0786 126.984 94.9764 127.391 94.9764C127.866 94.9764 128.319 95.1396 128.773 95.2509C129.444 95.4164 130.04 95.5333 130.731 95.531C130.9 95.5305 131.067 95.5231 131.234 95.5113C132.471 95.4232 133.657 95.0267 134.712 94.3602C135.174 94.0682 135.575 93.7164 135.931 93.3256C137.702 91.3771 138.266 88.3459 137.826 85.8043C137.226 82.3337 135.434 80.2469 134.104 79.2348ZM52.1485 89.7194C51.1669 88.5921 50.5112 87.3191 49.2924 86.7131C49.0941 86.6148 48.8852 86.5261 48.6728 86.4431C47.7121 86.0692 46.6356 85.8783 45.697 86.1325C45.649 86.1449 45.601 86.1178 45.5665 86.0703C45.4812 85.9947 45.4485 85.8682 45.5563 85.7744C45.5682 85.7631 45.5812 85.7535 45.5936 85.7433C45.5942 85.7388 45.5942 85.7337 45.5947 85.7298C46.5673 84.4274 47.6285 83.6582 48.879 83.5774C49.1026 83.5633 49.3308 83.5638 49.5674 83.5943C51.1505 83.8033 53.0578 84.8081 53.9874 86.8938C54.7228 88.5407 53.2255 90.9568 52.1485 89.7194ZM134.971 85.7439C134.982 85.7541 134.995 85.7625 135.007 85.7738C135.115 85.8676 135.082 85.9947 134.997 86.0698C134.963 86.1172 134.918 86.1449 134.872 86.1319C133.982 85.8778 132.96 86.0686 132.048 86.4425C131.847 86.525 131.648 86.6142 131.46 86.7125C130.304 87.3185 129.682 88.5915 128.751 89.7188C127.728 90.9563 126.307 88.5401 127.004 86.8932C127.886 84.8081 129.696 83.8027 131.199 83.5938C131.423 83.5627 131.639 83.5621 131.852 83.5768C133.04 83.6576 134.045 84.4268 134.969 85.7298C134.97 85.7349 134.971 85.7399 134.971 85.7439Z" fill="#ECB989"/>
<path d="M87.8117 111.928C86.1004 111.23 84.5744 110.066 83.4578 108.578C83.0692 108.061 82.9687 107.514 83.05 107.015C83.1421 106.453 83.4742 105.944 83.9271 105.603C84.3818 105.261 84.9505 105.091 85.5 105.178C85.9773 105.252 86.4528 105.514 86.829 106.056L86.9086 106.165C87.5722 107.063 88.4369 107.8 89.4219 108.274C90.3719 108.732 91.4336 108.945 92.5327 108.821C94.6264 108.585 96.0694 107.452 97.6028 105.915C97.7931 105.721 97.9829 105.521 98.1743 105.317C98.2958 105.133 98.4629 105.014 98.6493 104.952C98.8549 104.883 99.0887 104.887 99.3028 104.961C99.5089 105.034 99.6936 105.17 99.8173 105.351C99.9348 105.524 100.001 105.738 99.9799 105.982C99.8393 107.576 99.0063 108.998 97.8236 110.114C96.5094 111.355 94.7676 112.212 93.1274 112.514C91.3196 112.846 89.4789 112.608 87.8117 111.928ZM96.0733 88.1476C96.3151 90.0916 95.9994 93.7068 92.736 94.4851C89.5134 94.8087 88.5211 90.7123 88.503 88.7757C88.3403 87.1192 86.5432 87.8788 86.5166 89.5861C86.8877 103.352 101.926 94.7172 97.6163 87.7743C97.1419 87.0102 96.0502 87.6004 96.0733 88.1476ZM71.6165 76.5984C71.8289 73.962 75.8439 73.3627 76.2432 75.972C76.6007 78.3091 76.18 80.4558 75.1267 82.5602C74.1208 84.5703 71.5928 83.6322 71.4019 81.8017C71.1461 79.3483 71.4844 78.2379 71.6165 76.5984ZM102.179 75.431C102.738 74.6979 103.547 74.1975 104.516 74.4804C107.541 75.3638 106.649 79.6601 105.587 81.7509C105.01 82.8861 103.144 83.1741 102.301 82.1745C100.925 80.5434 100.267 77.2885 102.015 75.6823C102.062 75.5993 102.114 75.5157 102.179 75.431ZM75.0849 65.0616L75.5632 64.9785C77.0407 64.7227 78.8797 64.477 79.9256 65.6659C80.4803 66.2962 80.6711 67.4675 79.9256 68.0707C78.6142 69.1325 77.1638 68.7208 75.5926 68.8117C74.2976 68.8857 73.0528 69.1003 71.8052 69.4567C69.0682 70.2389 66.8379 71.6673 64.4997 73.2357C64.193 73.4407 63.8801 73.0487 64.0264 72.7618C65.3763 70.1181 67.9912 67.9476 70.6101 66.6237C72.0085 65.9166 73.5385 65.331 75.0849 65.0616ZM99.7744 63.8783L100.194 63.9546C104.75 64.8006 110.67 66.4888 112.828 70.462C112.91 71.024 112.823 71.1437 112.752 71.2222L112.729 71.2488C112.67 71.316 112.624 71.4086 112.35 71.4854C112.273 71.4701 112.197 71.4521 112.119 71.4334C111.13 71.2036 110.348 70.8867 109.59 70.5575L108.768 70.1983C107.815 69.7837 106.853 69.3844 105.834 69.0885C103.661 68.4593 101.425 68.0159 99.1531 67.7793C98.6606 67.7273 98.1868 67.5799 97.8134 67.3275C97.4582 67.0874 97.1865 66.7553 97.0634 66.3142C96.903 65.7427 96.9493 65.3101 97.2944 64.795C97.5542 64.407 97.9258 64.1398 98.3528 63.9851C98.7882 63.8281 99.283 63.7908 99.7744 63.8783Z" fill="#010101"/>
<path d="M125.695 88.9502C125.68 88.7819 125.481 88.6927 125.439 88.866C125.443 88.7717 125.447 88.678 125.451 88.5837C125.464 88.1804 125.022 88.1273 124.94 88.4916C123.935 92.9161 122.292 96.9424 119.931 100.345C116.679 105.027 112.524 108.277 108.488 111.655C108.354 111.485 108.189 111.364 108.015 111.318C107.616 108.936 106.59 106.668 105.372 104.765C103.775 101.573 101.509 99.0254 98.856 97.5129C97.016 96.4658 95.0319 95.8976 93.006 95.7428C89.318 94.8465 85.4932 95.1752 82.1458 97.0814C79.223 98.7481 76.7594 101.663 75.156 105.324C74.8245 106.079 74.5319 106.868 74.2738 107.677C73.6848 108.959 73.225 110.333 72.9878 111.749C72.8133 111.795 72.649 111.916 72.5134 112.086C68.478 108.708 64.3229 105.458 61.0715 100.776C58.7095 97.3734 57.0677 93.347 56.0618 88.9225C55.9799 88.5582 55.5383 88.6113 55.5513 89.0146C55.5558 89.1089 55.5597 89.2027 55.5631 89.297C55.5213 89.1236 55.3225 89.2134 55.3067 89.3811C54.7736 94.6878 54.4324 104.133 56.1974 109.922C57.144 113.026 61.0218 119.262 62.8483 121.699C64.0066 123.246 65.2164 125.029 66.6351 126.163C68.286 127.481 70.1571 128.482 71.9187 129.499C73.7096 130.536 75.5282 131.495 77.3807 132.326C78.7972 132.963 80.2317 133.523 81.681 134.003C81.9549 134.183 82.2356 134.349 82.5242 134.499C84.3377 135.446 86.3636 135.654 88.3731 135.584C88.5171 135.604 88.6617 135.63 88.8057 135.649C91.925 136.051 95.4893 136.49 98.4776 134.931C99.4524 134.423 100.342 133.731 101.161 132.913C101.987 132.598 102.807 132.261 103.621 131.895C105.474 131.064 107.292 130.105 109.084 129.068C110.844 128.051 112.716 127.05 114.367 125.732C115.786 124.598 116.996 122.815 118.154 121.268C119.98 118.832 123.316 112.441 123.688 109.217C124.311 103.814 126.236 94.3247 125.695 88.9502ZM103.711 115.863C102.399 117.052 100.972 118.009 99.4778 118.691C99.3948 118.702 99.3124 118.715 99.2299 118.725C99.1113 118.649 98.9961 118.571 98.8899 118.491C97.0007 117.053 95.5582 114.291 90.0352 114.009C84.9409 113.749 83.3098 115.797 82.1113 118.06C82.0413 118.191 81.8899 118.218 81.7719 118.294C80.5587 118.16 79.3416 117.783 78.3233 116.862C77.5818 116.193 77.1712 115.354 76.9261 114.388C76.9227 113.896 76.9464 113.403 77.0017 112.913C78.5509 108.084 81.934 104.536 85.8293 103.238C88.6894 102.288 91.6923 102.318 94.6077 102.695C94.7133 102.709 94.8201 102.722 94.9257 102.735C95.0076 102.761 95.09 102.779 95.1725 102.807C99.0672 104.104 102.45 107.653 103.999 112.482C104.095 113.332 104.101 114.19 104.014 115.047C103.932 115.331 103.831 115.603 103.711 115.863Z" fill="#010101"/>
<path d="M145.942 16.2157C147.172 14.0238 146.689 11.3405 144.969 9.56654C143.491 8.03993 142.525 7.29555 140.58 6.54495L139.889 6.27725C132.012 3.2517 129.383 1.38905 120.995 0.520977C110.706 -0.545898 100.172 0.0296175 90.0014 2.2125C83.3742 3.63519 76.9001 5.73336 70.7536 8.52791C62.5106 12.2752 54.9413 17.4328 48.3068 23.6065C47.0948 23.2654 45.7693 23.1936 44.6668 23.384C42.8634 23.698 41.212 24.7315 40.1299 26.2073C38.4841 28.4484 38.5423 31.3039 39.7922 33.5749C39.5934 33.7353 39.4115 33.9189 39.2438 34.1171C38.8919 34.5373 38.6468 34.9908 38.4903 35.4618C38.06 36.7569 38.3198 38.1869 39.0297 39.4509C39.8526 40.9199 42.0191 42.8198 42.2179 44.7158C42.5325 47.7171 44.015 47.2935 43.3091 49.129C40.3349 56.8609 43.1091 65.8432 44.8938 73.6564L45.0537 74.3556C45.4072 75.9206 42.2501 76.8034 40.6659 79.4477C36.9914 85.5807 37.3348 94.942 43.8688 98.578C44.0568 98.6831 44.2489 98.7842 44.446 98.8785C45.7964 99.5252 47.2654 99.9482 48.7592 100.075C49.1851 100.111 49.612 100.128 50.039 100.114C51.0449 100.078 52.0948 99.9403 53.0465 99.6088C53.5215 99.4433 53.9914 99.2321 54.3602 98.8938C55.2435 103.58 57.2632 107.898 59.8007 111.958C61.063 113.974 62.5049 115.987 64.1462 117.737C64.3642 117.969 64.5844 118.197 64.8098 118.419C65.0334 118.64 65.2757 118.859 65.5316 119.073C68.8147 121.906 74.044 129.846 91.2682 129.846C105.529 129.846 114.588 118.974 114.588 118.974H114.586C114.799 118.792 115.003 118.606 115.192 118.419C115.417 118.197 115.638 117.969 115.856 117.737C117.498 115.987 118.939 113.974 120.201 111.958C122.739 107.899 124.758 103.58 125.642 98.8938C126.011 99.2321 126.481 99.4433 126.956 99.6088C127.908 99.9403 128.957 100.077 129.963 100.114C130.391 100.128 130.818 100.111 131.243 100.075C132.737 99.9476 134.206 99.5246 135.556 98.8785C135.754 98.7842 135.945 98.6825 136.133 98.578C142.667 94.942 143.531 85.2379 139.336 79.4477C136.748 76.1731 134.595 75.3564 134.949 73.7908L135.108 73.0917C136.893 65.2784 138.091 57.0518 134.928 49.3951C134.521 48.4072 140.149 40.9194 140.972 39.4509C141.682 38.1875 141.941 36.7569 141.511 35.4618C141.729 35.1399 141.932 34.8005 142.1 34.4227C142.776 32.9034 142.946 31.2152 142.631 29.6903C145.435 28.9618 145.365 22.6763 144.398 21.5716C143.824 20.9125 143.211 20.3217 142.566 19.7925C144.399 19.1407 144.987 17.9191 145.942 16.2157ZM137.547 85.8043C137.986 88.3459 137.423 91.3771 135.652 93.3256C135.296 93.7164 134.895 94.0683 134.433 94.3603C133.378 95.0267 132.192 95.4232 130.955 95.5113C130.788 95.5231 130.621 95.5305 130.452 95.531C129.761 95.5333 129.165 95.4164 128.494 95.2509C128.039 95.1397 127.587 94.9764 127.112 94.9764C126.705 94.9764 126.329 95.0787 125.981 95.282L126.078 95.2905C126.313 95.3125 126.268 95.3226 125.941 95.3226C124.925 95.3661 124.344 96.3997 124.811 97.2983L124.872 97.4372C124.885 97.4654 124.895 97.4886 124.904 97.5067L124.941 97.7456C124.945 97.7681 124.949 97.7913 124.953 97.815L124.967 97.8636C124.969 97.8715 124.973 97.8788 124.976 97.8868L123.452 100.215C121.583 103.065 119.674 105.903 117.5 108.505C115.976 110.33 114.36 112.12 112.654 113.777C111.242 115.147 109.574 115.868 107.964 116.886C107.963 116.886 107.959 116.886 107.959 116.886C107.959 116.886 107.935 116.902 107.901 116.926C107.782 117.002 107.662 117.076 107.542 117.155C107.52 117.17 107.504 117.19 107.483 117.205C105.63 118.417 98.5957 122.693 91.646 122.693C82.0007 122.693 75.2837 119.042 72.7851 117.428C72.6879 117.327 72.5806 117.236 72.4615 117.156C72.213 116.988 71.9611 116.831 71.7092 116.678C71.7086 116.678 71.7052 116.675 71.7052 116.675H71.7041C70.1995 115.763 68.6639 115.052 67.3507 113.777C65.644 112.12 64.0281 110.33 62.5043 108.505C60.3305 105.903 58.421 103.065 56.5527 100.215L55.0283 97.8868C55.0317 97.8788 55.0351 97.8715 55.0379 97.8636L55.0515 97.815C55.0554 97.7913 55.0599 97.7681 55.0633 97.7456L55.1 97.5067C55.1091 97.4886 55.1192 97.4654 55.1328 97.4372L55.1938 97.2983C55.6609 96.3997 55.0791 95.3661 54.0631 95.3226C53.7367 95.3226 53.6915 95.3125 53.9264 95.2905L54.023 95.282C53.6751 95.0787 53.2995 94.9764 52.8929 94.9764C52.4173 94.9764 51.9649 95.1397 51.5108 95.2509C50.8399 95.4164 50.2435 95.5333 49.5527 95.531C49.3844 95.5305 49.2167 95.5231 49.0495 95.5113C47.8126 95.4232 46.6255 95.0267 45.5716 94.3603C45.1102 94.0683 44.7075 93.7164 44.3522 93.3256C42.5811 91.3771 42.293 88.3781 42.4579 85.8043C42.6748 82.4252 44.8504 80.2469 46.1815 79.2348C46.5724 78.9372 46.9903 78.6593 47.4416 78.4091C48.5661 77.7856 49.8216 77.4574 51.0748 77.4309C51.2194 77.4281 51.3646 77.4264 51.5092 77.4314C51.5137 77.4721 51.521 77.5128 51.5295 77.5534C51.682 78.3498 52.0587 78.7513 52.6071 79.2342L52.8042 79.4048C53.5537 80.0464 54.5132 79.9877 55.1187 79.3845C55.1187 79.3845 56.2917 78.4368 56.4013 76.4696C56.4668 75.2949 56.3584 74.1122 56.3301 72.9363C56.2759 70.6625 56.1596 68.3893 56.0709 66.116C55.9969 64.1941 55.6439 62.0428 55.9314 60.131C56.0986 59.0178 56.7695 58.7558 57.6947 58.4864L58.8959 58.1385C61.721 57.3094 64.5822 56.2713 65.195 52.9244C65.8473 49.3476 63.521 46.173 63.3148 42.6724C63.216 41.0092 63.4571 39.3323 63.9666 37.7385C71.8859 38.6359 79.8833 38.7992 87.8315 38.2073C88.5567 38.153 89.279 38.0819 90.0031 38.0164C90.726 38.0819 91.4495 38.153 92.1741 38.2073C100.122 38.7992 108.119 38.6359 116.039 37.7385C116.548 39.3323 116.79 41.0092 116.691 42.6724C116.485 46.173 114.158 49.3476 114.811 52.9244C115.423 56.2718 118.285 57.3099 121.11 58.1385L122.311 58.4864C123.236 58.7563 123.907 59.0178 124.074 60.131C124.362 62.0428 124.009 64.1935 123.935 66.116C123.846 68.3893 123.73 70.6625 123.675 72.9363C123.647 74.1122 123.579 75.2932 123.604 76.4696C123.642 78.243 124.887 79.3845 124.887 79.3845C125.492 79.9877 126.452 80.0464 127.201 79.4048L127.398 79.2342C127.947 78.7519 128.324 78.3503 128.476 77.5534C128.485 77.5128 128.492 77.4721 128.496 77.4314C128.641 77.4264 128.786 77.4281 128.931 77.4309C130.183 77.458 131.439 77.7861 132.564 78.4091C133.016 78.6593 133.433 78.9372 133.825 79.2348C135.154 80.2469 136.946 82.3338 137.547 85.8043Z" fill="#010101"/>
<path d="M131.573 83.5774C131.36 83.5633 131.144 83.5638 130.92 83.5943C129.417 83.8033 127.608 84.8081 126.725 86.8938C126.028 88.5407 127.449 90.9569 128.472 89.7194C129.403 88.5921 130.025 87.3191 131.181 86.7131C131.369 86.6148 131.568 86.5261 131.769 86.4431C132.681 86.0692 133.703 85.8783 134.593 86.1325C134.639 86.1449 134.684 86.1178 134.718 86.0704C134.803 85.9947 134.836 85.8682 134.728 85.7744C134.716 85.7631 134.703 85.7546 134.692 85.7445C134.692 85.74 134.691 85.7349 134.69 85.7304C133.766 84.4268 132.76 83.6576 131.573 83.5774Z" fill="#010101"/>
<path d="M49.2879 83.5944C49.0512 83.5633 48.8236 83.5627 48.5994 83.5774C47.3484 83.6582 46.2872 84.4274 45.3152 85.7298C45.3146 85.7343 45.3146 85.7394 45.3141 85.7433C45.3016 85.7535 45.2887 85.7631 45.2768 85.7744C45.1689 85.8682 45.2011 85.9952 45.287 86.0704C45.322 86.1178 45.3694 86.1455 45.4174 86.1325C46.3555 85.8783 47.432 86.0692 48.3933 86.4431C48.6056 86.5256 48.8146 86.6148 49.0128 86.7131C50.2311 87.3191 50.8868 88.5921 51.8689 89.7194C52.946 90.9569 54.4438 88.5407 53.709 86.8938C52.7782 84.8081 50.871 83.8033 49.2879 83.5944Z" fill="#010101"/>
<path d="M134.756 170.162C134.537 169.854 134.302 169.584 134.054 169.343C133.838 168.583 133.574 167.855 133.414 167.255C132.858 165.168 132.279 163.086 131.669 161.013C130.404 156.713 129.005 152.452 127.47 148.242C126.701 146.136 125.898 144.041 125.063 141.961L124.948 141.671C124.22 139.833 123.546 137.903 122.587 136.178C121.725 134.628 120.255 133.137 118.478 132.682C116.846 132.264 114.822 132.696 113.096 133.126L112.176 133.357C112.013 133.398 111.996 133.622 112.131 133.706C113.621 134.636 115.491 133.984 117.122 134.424C118.753 134.863 119.321 136.419 119.891 137.846L120.313 138.886C121.713 142.351 123.036 145.844 124.261 149.375C125.571 153.154 126.781 156.967 127.879 160.814C128.442 162.785 128.982 164.764 129.481 166.753L124.816 164.535L124.66 164.461C123.151 163.731 121.597 162.833 119.926 162.587C118.128 162.322 116.626 163.038 115.111 163.921L114.504 164.276C111.47 166.057 108.486 167.911 105.58 169.897C103.996 170.979 102.41 172.065 100.867 173.207C100.256 173.66 99.5422 174.125 98.8741 174.637L98.9114 174.519C102.046 167.637 105.188 160.767 108.112 153.79C109.637 150.151 111.126 146.499 112.441 142.777L112.464 142.712C112.887 141.559 113.989 139.669 113.388 138.465C113.17 138.027 112.637 137.608 112.255 138.081C112.166 138.191 112.276 138.365 112.414 138.287L112.437 138.276C112.708 138.17 112.357 139.271 112.354 139.279L112.283 139.436C112.131 139.748 111.935 140.056 111.78 140.365C111.411 141.098 111.032 141.826 110.667 142.561C110.423 143.051 110.182 143.543 109.94 144.035L108.495 146.987C107.009 150.018 105.598 153.088 104.115 156.121C101.185 162.115 98.2342 168.116 95.0443 173.977C94.8155 174.397 94.7788 174.838 94.8726 175.246C94.7901 175.514 94.7201 175.783 94.6591 176.052C93.7103 174.835 91.8137 174.238 90.5198 173.576C88.5657 172.578 86.611 171.582 84.6602 170.578C82.7422 169.59 80.8451 168.533 78.8892 167.621C76.9261 166.707 74.9922 166.4 72.9579 167.292C71.403 167.974 69.9482 168.954 68.5283 169.906L67.3428 170.699C65.8845 171.68 64.4517 172.7 63.0471 173.758C60.9111 175.366 58.8462 177.054 56.8497 178.823C56.412 174.347 56.525 169.843 56.6983 165.341L56.8322 161.966C56.9644 158.556 57.0784 155.14 57.075 151.727L57.0756 151.458C57.0892 148.409 57.3676 145.096 56.7548 142.09C56.9096 142.041 57.0604 141.961 57.1948 141.847C58.4864 140.75 58.1109 138.545 58.7767 137.049C59.0766 136.374 59.4788 135.729 59.9408 135.154C60.3446 134.651 60.7586 134.267 60.8648 133.728C62.8455 131.662 65.9941 130.481 68.8672 130.631L68.3577 133.133C68.2403 133.7 67.9901 134.589 67.7924 135.555C67.4654 135.099 67.1242 134.654 66.7571 134.236C66.6481 134.113 66.4663 134.246 66.4973 134.387C66.7227 135.418 67.105 136.426 67.5303 137.414C67.4496 138.792 67.7167 140.016 68.8666 140.385C69.4574 141.669 70.0741 142.938 70.7456 144.184C72.5174 147.465 74.5771 150.618 76.7933 153.616C78.9694 156.559 81.2664 159.414 83.6893 162.158C84.9042 163.533 86.1591 164.873 87.4429 166.184C88.0579 166.812 88.6696 167.451 89.3117 168.051L89.3812 168.118C89.6619 168.39 89.9703 168.729 90.3154 168.905L90.3888 168.945C90.6339 169.073 90.896 169.137 91.1761 169.138C91.62 169.007 91.7448 169.009 91.5506 169.144L91.502 169.176C92.5706 169.59 93.2127 168.27 92.836 167.441C92.7942 167.349 92.7671 166.795 92.6502 166.571C92.4502 166.19 92.0718 165.893 91.7714 165.592L91.2625 165.089C90.7514 164.589 90.234 164.094 89.7297 163.587C88.4877 162.339 87.2746 161.062 86.0812 159.767C83.6391 157.118 81.3054 154.362 79.118 151.498C76.9724 148.688 74.9137 145.827 72.8777 142.938L71.8899 141.539L70.9032 140.139C71.3629 139.822 71.6792 139.318 71.6984 138.715C71.8052 138.244 71.6589 137.776 71.3415 137.451L71.3268 137.228C71.2974 136.655 71.3437 136.062 71.3454 135.492L71.3584 131.344C71.3629 130.041 71.3545 128.743 71.3115 127.441L71.3093 127.358C71.2895 126.468 71.4121 125.393 70.8095 124.69C70.7727 124.647 70.7123 124.66 70.6739 124.69C69.7126 125.435 69.6161 127.276 69.3546 128.391L69.2518 128.839C69.1501 129.288 69.0535 129.739 68.9592 130.19C65.6022 129.126 62.3761 130.099 59.4353 132.047C59.0603 132.056 58.6875 132.222 58.4232 132.479C57.21 133.66 56.2414 135.03 55.6066 136.6C54.9633 138.191 54.2833 140.513 55.693 141.85C55.8207 141.971 55.963 142.049 56.1104 142.097C55.6411 143.607 55.4976 145.171 55.2779 146.745L55.1424 147.741C54.9667 149.07 54.8074 150.399 54.6476 151.73C54.2907 154.704 54.0235 157.69 53.7767 160.677L53.5745 163.177C53.0233 169.912 52.367 176.724 53.4458 183.438C53.6982 185.01 55.8049 185.263 56.8017 184.325C62 179.435 67.7359 174.774 73.9785 171.272C75.7106 170.299 76.9622 171.124 78.5871 171.954L82.1955 173.795L83.9977 174.718C85.7994 175.643 87.5993 176.57 89.3998 177.497C90.9626 178.301 92.5508 179.475 94.2875 178.841C94.2485 179.367 94.2163 179.898 94.1768 180.435L94.1186 181.258C93.9904 183.18 93.9091 185.104 93.8232 187.029C93.6323 191.341 93.4708 195.651 93.3279 199.964C93.2889 201.155 92.7564 202.442 93.2246 203.537C93.5425 204.28 95.3787 205.483 96.0711 205.067C96.1501 205.019 96.7093 204.684 96.5026 203.261C95.8096 198.493 96.4342 193.623 96.3416 188.804L96.3275 187.987C96.2925 185.808 96.2761 183.625 96.171 181.449C96.0914 179.821 96.1078 178.187 95.8508 176.594C96.4133 176.941 97.1131 177.003 97.7022 176.544C99.0814 176.164 100.407 175.197 101.634 174.523C103.102 173.718 104.557 172.889 106.03 172.092C109.049 170.463 112.08 168.846 115.133 167.28L115.215 167.238C116.478 166.577 118.028 165.482 119.499 165.731C121.076 165.998 122.647 167.081 124.065 167.782L128.961 170.201C129.486 170.461 129.986 170.726 130.483 170.965L130.505 171.046L130.511 171.09C130.311 171.363 130.179 171.686 130.162 172.024C130.046 174.235 132.909 174.658 133.992 173.014C134.27 172.593 134.386 172.102 134.403 171.579C134.86 171.271 135.122 170.673 134.756 170.162Z" fill="#010101"/>
<path d="M108.113 127.911C108.715 127.04 109.805 127.815 109.649 128.515C109.691 130.483 109.791 132.392 110.239 134.32C110.444 135.202 110.713 136.085 111.127 136.893L111.3 137.235C111.836 138.294 112.253 139.293 111.531 140.454C111.19 141.002 110.576 141.413 109.909 141.385C106.953 141.257 106.546 137.141 106.367 134.844C106.181 132.477 106.757 129.877 108.113 127.911Z" fill="#010101"/>
<path d="M112.16 210.444C112.119 210.455 112.096 210.461 112.096 210.461C112.096 210.461 112.118 210.455 112.16 210.444Z" fill="#010101"/>
<path d="M45.0062 104.407L52.066 107.89L60.9145 116.378L65.3384 119.939L63.8327 137.447L59.1264 154.485L52.4427 171.24L47.2659 182.347C47.2659 182.347 45.0949 184.422 43.5 185.01C38.4768 186.863 26.9371 185.245 21.7558 183.194C16.3497 181.055 8.25071 175.789 4.9072 171.993C4.71687 171.777 5.13819 170.739 5.14214 170.452C5.18054 167.499 10.084 160.697 10.084 160.697L15.5437 154.391L24.8627 143.095L32.581 131.141L39.547 117.492L44.9125 103.937" fill="#55AF8A"/>
<path d="M57.4546 70.5213C57.4546 70.5213 56.8131 65.8399 57.8483 62.9222C58.8836 60.0045 59.9623 57.2743 57.2581 57.6511C54.5539 58.0278 52.2005 60.0045 49.659 67.3467C47.1174 74.6889 47.5636 83.3041 48.3763 85.3972C49.1891 87.4902 56.6244 75.9122 56.6244 75.9122L57.4546 70.5213Z" fill="#ECB989"/>
<path d="M48.7067 86.4974C48.1984 86.4974 47.3586 87.963 47.3383 87.4298C47.1163 81.6154 45.941 73.0408 48.0708 68.823C51.3104 62.4054 52.2841 58.749 56.3426 57.0394C56.5335 56.9586 57.5422 56.7689 57.7218 56.7689C58.6898 56.7689 59.1919 57.1919 59.4421 57.5471C60.2531 58.697 59.5658 60.6269 58.7695 62.8617L58.6475 63.2051C57.6924 65.8974 58.2883 70.3609 58.2945 70.4056L58.3109 70.5281L57.4349 76.2183L57.3372 76.3697C54.3704 80.9896 50.4643 86.4974 48.7067 86.4974ZM57.7218 58.4638C57.6167 58.4638 57.5015 58.4728 57.3756 58.4903C55.3271 58.7761 53.0714 60.0796 50.4604 67.624C48.1679 74.2461 48.3876 81.9898 49.0128 84.5794C50.3226 83.5356 53.3775 79.3867 55.8157 75.6055L56.6001 70.5112C56.5013 69.7131 56.0444 65.4767 57.0508 62.6392L57.174 62.2941C57.619 61.046 58.3628 58.9568 58.0584 58.5248C58.0488 58.5123 57.9624 58.4638 57.7218 58.4638Z" fill="black"/>
<path d="M59.8651 77.7788C61.0206 74.7572 63.1103 71.9689 64.9758 69.3319L65.1272 69.1184C66.1364 67.6856 67.0717 66.2171 68.264 64.9255C69.4218 63.6711 70.6197 62.4529 71.8543 61.2753L71.9757 61.1629C73.3566 59.8944 77.1599 57.018 75.3057 54.9542C74.0784 53.588 71.5318 55.1598 70.444 55.9742C65.457 59.7097 61.508 64.8583 57.9109 69.8843L57.1089 71.0071C55.6382 73.0674 54.1788 75.1475 52.8211 77.2801C51.2826 79.6963 50.5286 82.1903 50.2429 85.0278C49.9255 88.1742 49.6928 91.3189 49.2641 94.4529C48.9936 96.4291 48.6925 98.3968 48.3774 100.363C48.3774 100.9 48.4536 101.427 48.6761 102.013C49.0534 103.002 49.6866 103.704 50.4157 104.456C52.2569 106.356 53.9343 108.417 55.8297 110.266C57.5845 111.977 59.5019 113.678 61.678 114.84C62.5399 115.302 63.4876 115.677 64.4347 115.935L65.1927 116.133C65.5236 116.219 65.8874 116.31 66.2511 116.379C66.2663 115.814 66.5024 115.271 67.0237 114.957C68.1301 114.292 68.9056 113.646 69.7205 112.642C70.3503 111.865 70.9518 111.063 71.5663 110.274C72.7743 108.725 74.0231 107.198 75.1718 105.604L75.3689 105.328C76.215 104.128 76.9961 102.842 77.3643 101.409C77.793 99.7449 77.1932 98.2872 77.1836 96.6318C77.1638 93.098 80.8699 90.3023 82.8845 87.771C84.5964 85.6197 88.0969 82.1548 88.3719 79.4912C88.3719 79.4912 87.9404 78.1792 87.9952 78.3029C88.0455 77.8003 86.45 77.7517 85.2656 78.9169C82.152 81.9746 78.9587 85.0007 75.5096 87.6766C74.5585 88.4148 73.4543 86.9712 74.3698 86.2048C77.9161 83.2358 81.4031 80.2266 84.6715 76.9458C86.3613 75.2497 87.9963 73.4983 89.5789 71.7029C90.1911 71.0088 90.7943 70.3096 91.389 69.6024L91.8346 69.071C92.1125 68.7372 92.9794 67.8951 93.2014 67.2264C93.1715 66.9994 93.1421 66.7729 93.111 66.5464C92.6423 66.033 90.3696 66.085 90.042 66.3369C89.1135 67.053 84.1417 71.8701 82.2762 73.291C78.5487 76.128 75.0741 79.4675 71.4957 82.4914C70.627 83.2261 69.0388 82.1497 69.6336 81.0828C72.2575 76.3742 76.3285 72.641 80.1159 68.8846C82.1074 66.9096 84.2541 65.9748 85.9829 63.7603L87.0419 61.9598C88.1251 60.5659 90.9762 58.5638 89.7246 57.3003C88.0816 55.6416 84.5845 58.7784 82.7354 60.0537L81.8882 60.5834C79.2874 62.3529 77.5191 64.8024 75.0278 66.7243C69.9312 70.6597 66.3827 73.5876 61.4849 77.7658C61.3623 77.872 61.1076 77.7788 60.9664 77.7026C60.2796 77.3287 59.7414 78.1053 59.8651 77.7788Z" fill="#ECB989"/>
<path d="M87.9202 76.7622C90.0635 75.0475 96.2196 66.5001 94.5428 64.7826C90.8536 61.0047 80.0872 74.9125 75.9885 76.6893C77.2102 76.1596 92.23 60.8986 91.7708 56.0804C91.7387 55.7466 91.4529 54.4165 89.6529 54.4165C86.8838 54.4165 85.0844 56.7875 82.8913 58.339L81.9453 59.0037C79.3705 60.8212 76.851 62.7155 74.3897 64.6843C69.1067 68.9089 64.2196 73.5729 59.8764 78.7598C59.7731 78.8835 59.9555 79.0642 60.0781 78.9592C64.9764 74.7815 69.929 70.658 75.0262 66.7226C76.2094 65.8105 78.8492 64.0647 81.6573 61.8745C84.7653 59.451 88.0438 56.648 88.9706 57.4506C90.9056 59.1263 82.1063 66.9078 80.1143 68.8829C76.3269 72.6387 72.2565 76.3725 69.6319 81.0811C69.0372 82.148 70.6254 83.2244 71.494 82.4896C75.0725 79.4658 78.8915 76.7159 82.6185 73.879C84.484 72.458 88.0529 68.2515 88.9814 67.5359C89.3084 67.284 91.4523 65.1706 93.1094 66.5453C93.1404 66.7717 93.1698 66.9982 93.1997 67.2253C92.9778 67.894 92.1109 68.736 91.833 69.0698L91.3874 69.6013C90.7927 70.3084 90.1895 71.0076 89.5772 71.7017C87.9941 73.4977 86.3597 75.2486 84.6698 76.9446C81.4014 80.2254 77.9145 83.2346 74.3682 86.2037C73.4527 86.9701 74.5568 88.4137 75.5079 87.6755C78.9571 85.0001 82.1509 81.9734 85.264 78.9157C86.4483 77.7506 87.535 78.3724 87.8174 78.4667C87.9456 78.5096 88.2528 79.1252 87.5587 80.6552C87.0538 81.7684 84.5953 85.6191 82.8834 87.7704C80.8694 90.3017 77.1627 93.098 77.1825 96.6313C77.1927 98.2866 77.7919 99.7443 77.3632 101.408C76.995 102.842 76.2139 104.128 75.3679 105.328L75.1707 105.603C74.022 107.197 72.7732 108.724 71.5652 110.274C70.9507 111.063 70.3498 111.865 69.7195 112.641C68.9045 113.645 68.129 114.291 67.0226 114.957C66.5013 115.27 66.2652 115.814 66.25 116.379C65.8863 116.309 65.5226 116.218 65.1916 116.133L64.4337 115.934C63.4865 115.677 62.5394 115.302 61.6769 114.84C59.5003 113.677 57.5834 111.977 55.8286 110.265C53.9338 108.417 52.2558 106.355 50.4146 104.456C49.6855 103.703 49.0524 103.001 48.6751 102.012C48.452 101.427 48.3763 100.899 48.3763 100.362C48.692 98.3968 48.993 96.4285 49.263 94.4523C49.6922 91.3183 49.9249 88.1742 50.2418 85.0272C50.5281 82.1903 51.2821 79.6962 52.82 77.2795C54.1778 75.1469 55.6372 73.0668 57.1079 71.0065L57.9098 69.8837C61.5069 64.8582 65.4559 59.7091 70.4429 55.9736C71.5313 55.1598 74.0779 53.5874 75.3046 54.9536C77.1582 57.0174 73.3555 59.8938 71.9746 61.1623L71.8532 61.2747C70.618 62.4523 69.4201 63.6705 68.2629 64.9249C67.0712 66.2165 66.1353 67.685 65.1261 69.1178L64.9747 69.3313C63.1092 71.9683 61.0195 74.7566 59.864 77.7782C59.7403 78.1047 60.1605 78.3176 60.3802 78.0691C62.7376 75.3926 65.1261 72.7392 67.0836 69.7261C69.1965 66.4724 71.4166 63.7078 73.8559 61.4831C75.9112 59.6092 78.8373 57.0298 77.435 54.2511C75.9202 51.2504 71.5025 53.7648 68.8672 55.7884C63.0979 60.2186 60.6496 64.5482 53.3091 73.0143C51.464 75.1424 49.4398 79.6804 49.1167 81.4431C48.7282 83.5639 47.14 85.7868 47.1027 90.0351L47.0892 91.8809C47.0688 94.3749 47.1214 96.8685 47.2016 99.3597C46.4278 99.9477 45.9099 100.79 45.6253 101.73C45.2084 101.654 44.7651 101.734 44.4228 102.017C43.2752 102.968 42.8555 104.171 42.2716 105.506L41.6475 106.932C41.2307 107.884 40.8133 108.834 40.3942 109.784C39.1974 112.493 37.973 115.189 36.7706 117.897C36.2589 119.049 35.6066 120.513 34.8577 122.162C32.7889 126.711 18.719 148.978 10.0354 158.226C7.26066 161.181 5.56009 166.334 4.38195 170.117C3.97983 171.411 4.89308 172.114 5.37089 171.02C6.74444 167.868 8.54102 164.847 10.8092 162.266L13.427 159.252C13.427 159.252 28.7828 141.364 28.7653 141.326C29.3533 140.544 29.9051 139.791 30.3761 139.122C32.3506 136.319 34.9057 131.397 37.0981 126.87C38.0611 124.882 38.9546 122.968 39.6984 121.344C41.0612 118.367 42.3557 115.362 43.6333 112.348C44.2698 110.843 44.904 109.336 45.5349 107.828C45.7105 107.408 45.8969 106.998 46.0742 106.591C46.7684 107.956 47.772 109.233 48.7553 110.435L49.3404 111.146C50.6851 112.784 52.1654 114.366 53.7683 115.754C56.4222 118.053 59.5641 119.843 62.9692 120.749C63.1776 120.804 63.3916 120.858 63.6079 120.911C63.4396 121.524 63.4029 130.022 59.5212 144.054C59.0338 145.814 58.4899 147.656 57.8743 149.585C51.8904 168.336 35.0819 195.886 33.113 200.194C32.8645 200.739 32.3421 202.143 32.7691 202.563C33.4417 203.224 35.8076 202.602 36.4938 201.955C41.5266 197.209 55.37 169.188 56.2804 166.621C58.6689 159.888 61.6967 152.459 63.9688 141.937C65.2272 136.117 66.2545 129.354 66.8137 121.229C67.4987 121.152 68.1601 120.95 68.7616 120.548C69.9064 119.782 70.7739 118.172 70.2464 116.852C70.3932 116.331 70.5288 115.852 70.849 115.365C71.1218 114.948 71.4257 114.542 71.7244 114.145C72.4248 113.213 73.1697 112.308 73.891 111.391L74.1886 111.013C75.2854 109.629 76.4104 108.26 77.4293 106.818C78.425 105.411 79.3383 103.886 79.8133 102.217C80.2544 100.668 80.1329 99.2812 79.9381 97.7478L79.8754 97.2655C79.6043 95.1922 81.1591 93.7068 82.3531 92.1932L82.7456 91.6951C83.8554 90.2774 84.9409 88.835 85.8299 87.2677C86.9397 85.3107 91.7353 79.6776 87.9202 76.7622Z" fill="#010101"/>
<path d="M183.821 193.12C182.199 188.856 180.282 184.711 178.201 180.656C172.841 170.208 165.808 160.488 156.529 153.186C152.213 149.791 147.515 146.962 142.45 144.83C139.897 143.755 137.214 142.878 134.485 142.378C131.787 141.883 129.102 141.952 126.378 141.739C126.161 141.724 126.17 142.05 126.378 142.074C129.416 142.427 132.352 143.663 135.221 144.714L135.467 144.804C138.365 145.855 141.191 147.078 143.91 148.536C149.227 151.386 154.109 155.061 158.425 159.269C168.43 169.018 175.269 181.27 180.376 194.284C180.785 195.346 181.614 198.311 183.285 197.605C183.996 197.306 184.181 194.064 183.821 193.12Z" fill="#010101"/>
</svg>
